G04*
G04 #@! TF.GenerationSoftware,Altium Limited,Altium Designer,24.1.2 (44)*
G04*
G04 Layer_Color=128*
%FSLAX44Y44*%
%MOMM*%
G71*
G04*
G04 #@! TF.SameCoordinates,76E79536-2B88-4979-9DBC-014BFA5C7660*
G04*
G04*
G04 #@! TF.FilePolarity,Positive*
G04*
G01*
G75*
%ADD16C,0.1270*%
D16*
X1850716Y1917362D02*
X1859716D01*
X1855216Y1912862D02*
Y1921862D01*
X1850716Y1968162D02*
X1859716D01*
X1855216Y1963662D02*
Y1972662D01*
X2271848Y1864868D02*
X2280848D01*
X2276348Y1860368D02*
Y1869368D01*
X2221048Y1864868D02*
X2230048D01*
X2225548Y1860368D02*
Y1869368D01*
X2246448Y1864868D02*
X2255448D01*
X2250948Y1860368D02*
Y1869368D01*
X2297248Y1864868D02*
X2306248D01*
X2301748Y1860368D02*
Y1869368D01*
X1443300Y2386702D02*
X1452300D01*
X1447800Y2382202D02*
Y2391202D01*
X1392500Y2386702D02*
X1401500D01*
X1397000Y2382202D02*
Y2391202D01*
X1417900Y2386702D02*
X1426900D01*
X1422400Y2382202D02*
Y2391202D01*
X1468700Y2386702D02*
X1477700D01*
X1473200Y2382202D02*
Y2391202D01*
X1298266Y2386702D02*
X1307266D01*
X1302766Y2382202D02*
Y2391202D01*
X1247466Y2386702D02*
X1256466D01*
X1251966Y2382202D02*
Y2391202D01*
X1272866Y2386702D02*
X1281866D01*
X1277366Y2382202D02*
Y2391202D01*
X1323666Y2386702D02*
X1332666D01*
X1328166Y2382202D02*
Y2391202D01*
X2233040Y2315794D02*
X2250040D01*
X2241540Y2307294D02*
Y2324294D01*
X2183040Y2315794D02*
X2200040D01*
X2191540Y2307294D02*
Y2324294D01*
X2266540Y2415794D02*
X2276540D01*
X2271540Y2410794D02*
Y2420794D01*
X2156540Y2415794D02*
X2166540D01*
X2161540Y2410794D02*
Y2420794D01*
X1850716Y2110232D02*
X1859716D01*
X1855216Y2105732D02*
Y2114732D01*
X1850716Y2059432D02*
X1859716D01*
X1855216Y2054932D02*
Y2063932D01*
X729868Y1858772D02*
X737868D01*
X733868Y1854772D02*
Y1862772D01*
X729868Y1884172D02*
X737868D01*
X733868Y1880172D02*
Y1888172D01*
X729868Y1909572D02*
X737868D01*
X733868Y1905572D02*
Y1913572D01*
X729868Y1960372D02*
X737868D01*
X733868Y1956372D02*
Y1964372D01*
X729868Y1985772D02*
X737868D01*
X733868Y1981772D02*
Y1989772D01*
X729868Y1934972D02*
X737868D01*
X733868Y1930972D02*
Y1938972D01*
X729868Y1833372D02*
X737868D01*
X733868Y1829372D02*
Y1837372D01*
X2746066Y1864868D02*
X2755066D01*
X2750566Y1860368D02*
Y1869368D01*
X2695266Y1864868D02*
X2704266D01*
X2699766Y1860368D02*
Y1869368D01*
X2720666Y1864868D02*
X2729666D01*
X2725166Y1860368D02*
Y1869368D01*
X2771466Y1864868D02*
X2780466D01*
X2775966Y1860368D02*
Y1869368D01*
X2533976Y1864868D02*
X2542976D01*
X2538476Y1860368D02*
Y1869368D01*
X2483176Y1864868D02*
X2492176D01*
X2487676Y1860368D02*
Y1869368D01*
X2457776Y1864868D02*
X2466776D01*
X2462276Y1860368D02*
Y1869368D01*
X2508576Y1864868D02*
X2517576D01*
X2513076Y1860368D02*
Y1869368D01*
X1586442Y2034858D02*
X1596442D01*
X1591442Y2029858D02*
Y2039858D01*
X1715342Y2419858D02*
X1725342D01*
X1720342Y2414858D02*
Y2424858D01*
X1637242Y2034858D02*
X1647242D01*
X1642242Y2029858D02*
Y2039858D01*
X1662642Y2034858D02*
X1672642D01*
X1667642Y2029858D02*
Y2039858D01*
X1688042Y2034858D02*
X1698042D01*
X1693042Y2029858D02*
Y2039858D01*
X1713442Y2034858D02*
X1723442D01*
X1718442Y2029858D02*
Y2039858D01*
X1738842Y2034858D02*
X1748842D01*
X1743842Y2029858D02*
Y2039858D01*
X1611842Y2034858D02*
X1621842D01*
X1616842Y2029858D02*
Y2039858D01*
X1689942Y2419858D02*
X1699942D01*
X1694942Y2414858D02*
Y2424858D01*
X1664542Y2419858D02*
X1674542D01*
X1669542Y2414858D02*
Y2424858D01*
X1740742Y2419858D02*
X1750742D01*
X1745742Y2414858D02*
Y2424858D01*
X2826000Y126000D02*
X2834000D01*
X2830000Y122000D02*
Y130000D01*
X2826000Y164000D02*
X2834000D01*
X2830000Y160000D02*
Y168000D01*
X2866500Y145000D02*
X2874500D01*
X2870500Y141000D02*
Y149000D01*
X2785500Y145000D02*
X2793500D01*
X2789500Y141000D02*
Y149000D01*
X1716000Y126000D02*
X1724000D01*
X1720000Y122000D02*
Y130000D01*
X1716000Y164000D02*
X1724000D01*
X1720000Y160000D02*
Y168000D01*
X1756500Y145000D02*
X1764500D01*
X1760500Y141000D02*
Y149000D01*
X1675500Y145000D02*
X1683500D01*
X1679500Y141000D02*
Y149000D01*
X1276000Y126000D02*
X1284000D01*
X1280000Y122000D02*
Y130000D01*
X1276000Y164000D02*
X1284000D01*
X1280000Y160000D02*
Y168000D01*
X1316500Y145000D02*
X1324500D01*
X1320500Y141000D02*
Y149000D01*
X1235500Y145000D02*
X1243500D01*
X1239500Y141000D02*
Y149000D01*
X166000Y126000D02*
X174000D01*
X170000Y122000D02*
Y130000D01*
X166000Y164000D02*
X174000D01*
X170000Y160000D02*
Y168000D01*
X206500Y145000D02*
X214500D01*
X210500Y141000D02*
Y149000D01*
X125500Y145000D02*
X133500D01*
X129500Y141000D02*
Y149000D01*
X1675500Y1465000D02*
X1683500D01*
X1679500Y1461000D02*
Y1469000D01*
X1756500Y1465000D02*
X1764500D01*
X1760500Y1461000D02*
Y1469000D01*
X1716000Y1484000D02*
X1724000D01*
X1720000Y1480000D02*
Y1488000D01*
X1716000Y1446000D02*
X1724000D01*
X1720000Y1442000D02*
Y1450000D01*
X1455500Y1465000D02*
X1463500D01*
X1459500Y1461000D02*
Y1469000D01*
X1536500Y1465000D02*
X1544500D01*
X1540500Y1461000D02*
Y1469000D01*
X1496000Y1484000D02*
X1504000D01*
X1500000Y1480000D02*
Y1488000D01*
X1496000Y1446000D02*
X1504000D01*
X1500000Y1442000D02*
Y1450000D01*
X1235500Y1465000D02*
X1243500D01*
X1239500Y1461000D02*
Y1469000D01*
X1316500Y1465000D02*
X1324500D01*
X1320500Y1461000D02*
Y1469000D01*
X1276000Y1484000D02*
X1284000D01*
X1280000Y1480000D02*
Y1488000D01*
X1276000Y1446000D02*
X1284000D01*
X1280000Y1442000D02*
Y1450000D01*
X125500Y585000D02*
X133500D01*
X129500Y581000D02*
Y589000D01*
X206500Y585000D02*
X214500D01*
X210500Y581000D02*
Y589000D01*
X166000Y604000D02*
X174000D01*
X170000Y600000D02*
Y608000D01*
X166000Y566000D02*
X174000D01*
X170000Y562000D02*
Y570000D01*
X125500Y1465000D02*
X133500D01*
X129500Y1461000D02*
Y1469000D01*
X206500Y1465000D02*
X214500D01*
X210500Y1461000D02*
Y1469000D01*
X166000Y1484000D02*
X174000D01*
X170000Y1480000D02*
Y1488000D01*
X166000Y1446000D02*
X174000D01*
X170000Y1442000D02*
Y1450000D01*
X2115500Y1465000D02*
X2123500D01*
X2119500Y1461000D02*
Y1469000D01*
X2196500Y1465000D02*
X2204500D01*
X2200500Y1461000D02*
Y1469000D01*
X2156000Y1484000D02*
X2164000D01*
X2160000Y1480000D02*
Y1488000D01*
X2156000Y1446000D02*
X2164000D01*
X2160000Y1442000D02*
Y1450000D01*
X2335500Y1465000D02*
X2343500D01*
X2339500Y1461000D02*
Y1469000D01*
X2416500Y1465000D02*
X2424500D01*
X2420500Y1461000D02*
Y1469000D01*
X2376000Y1484000D02*
X2384000D01*
X2380000Y1480000D02*
Y1488000D01*
X2376000Y1446000D02*
X2384000D01*
X2380000Y1442000D02*
Y1450000D01*
X2555500Y1465000D02*
X2563500D01*
X2559500Y1461000D02*
Y1469000D01*
X2636500Y1465000D02*
X2644500D01*
X2640500Y1461000D02*
Y1469000D01*
X2596000Y1484000D02*
X2604000D01*
X2600000Y1480000D02*
Y1488000D01*
X2596000Y1446000D02*
X2604000D01*
X2600000Y1442000D02*
Y1450000D01*
X125500Y1025000D02*
X133500D01*
X129500Y1021000D02*
Y1029000D01*
X206500Y1025000D02*
X214500D01*
X210500Y1021000D02*
Y1029000D01*
X166000Y1044000D02*
X174000D01*
X170000Y1040000D02*
Y1048000D01*
X166000Y1006000D02*
X174000D01*
X170000Y1002000D02*
Y1010000D01*
X125500Y805000D02*
X133500D01*
X129500Y801000D02*
Y809000D01*
X206500Y805000D02*
X214500D01*
X210500Y801000D02*
Y809000D01*
X166000Y824000D02*
X174000D01*
X170000Y820000D02*
Y828000D01*
X166000Y786000D02*
X174000D01*
X170000Y782000D02*
Y790000D01*
X125500Y365000D02*
X133500D01*
X129500Y361000D02*
Y369000D01*
X206500Y365000D02*
X214500D01*
X210500Y361000D02*
Y369000D01*
X166000Y384000D02*
X174000D01*
X170000Y380000D02*
Y388000D01*
X166000Y346000D02*
X174000D01*
X170000Y342000D02*
Y350000D01*
X125500Y1245000D02*
X133500D01*
X129500Y1241000D02*
Y1249000D01*
X206500Y1245000D02*
X214500D01*
X210500Y1241000D02*
Y1249000D01*
X166000Y1264000D02*
X174000D01*
X170000Y1260000D02*
Y1268000D01*
X166000Y1226000D02*
X174000D01*
X170000Y1222000D02*
Y1230000D01*
X2785500Y1465000D02*
X2793500D01*
X2789500Y1461000D02*
Y1469000D01*
X2866500Y1465000D02*
X2874500D01*
X2870500Y1461000D02*
Y1469000D01*
X2826000Y1484000D02*
X2834000D01*
X2830000Y1480000D02*
Y1488000D01*
X2826000Y1446000D02*
X2834000D01*
X2830000Y1442000D02*
Y1450000D01*
X1895500Y1465000D02*
X1903500D01*
X1899500Y1461000D02*
Y1469000D01*
X1976500Y1465000D02*
X1984500D01*
X1980500Y1461000D02*
Y1469000D01*
X1936000Y1484000D02*
X1944000D01*
X1940000Y1480000D02*
Y1488000D01*
X1936000Y1446000D02*
X1944000D01*
X1940000Y1442000D02*
Y1450000D01*
X1015500Y1465000D02*
X1023500D01*
X1019500Y1461000D02*
Y1469000D01*
X1096500Y1465000D02*
X1104500D01*
X1100500Y1461000D02*
Y1469000D01*
X1056000Y1484000D02*
X1064000D01*
X1060000Y1480000D02*
Y1488000D01*
X1056000Y1446000D02*
X1064000D01*
X1060000Y1442000D02*
Y1450000D01*
X795500Y1465000D02*
X803500D01*
X799500Y1461000D02*
Y1469000D01*
X876500Y1465000D02*
X884500D01*
X880500Y1461000D02*
Y1469000D01*
X836000Y1484000D02*
X844000D01*
X840000Y1480000D02*
Y1488000D01*
X836000Y1446000D02*
X844000D01*
X840000Y1442000D02*
Y1450000D01*
X575500Y1465000D02*
X583500D01*
X579500Y1461000D02*
Y1469000D01*
X656500Y1465000D02*
X664500D01*
X660500Y1461000D02*
Y1469000D01*
X616000Y1484000D02*
X624000D01*
X620000Y1480000D02*
Y1488000D01*
X616000Y1446000D02*
X624000D01*
X620000Y1442000D02*
Y1450000D01*
X355500Y1465000D02*
X363500D01*
X359500Y1461000D02*
Y1469000D01*
X436500Y1465000D02*
X444500D01*
X440500Y1461000D02*
Y1469000D01*
X396000Y1484000D02*
X404000D01*
X400000Y1480000D02*
Y1488000D01*
X396000Y1446000D02*
X404000D01*
X400000Y1442000D02*
Y1450000D01*
X2785500Y1245000D02*
X2793500D01*
X2789500Y1241000D02*
Y1249000D01*
X2866500Y1245000D02*
X2874500D01*
X2870500Y1241000D02*
Y1249000D01*
X2826000Y1264000D02*
X2834000D01*
X2830000Y1260000D02*
Y1268000D01*
X2826000Y1226000D02*
X2834000D01*
X2830000Y1222000D02*
Y1230000D01*
X2555500Y1245000D02*
X2563500D01*
X2559500Y1241000D02*
Y1249000D01*
X2636500Y1245000D02*
X2644500D01*
X2640500Y1241000D02*
Y1249000D01*
X2596000Y1264000D02*
X2604000D01*
X2600000Y1260000D02*
Y1268000D01*
X2596000Y1226000D02*
X2604000D01*
X2600000Y1222000D02*
Y1230000D01*
X2335500Y1245000D02*
X2343500D01*
X2339500Y1241000D02*
Y1249000D01*
X2416500Y1245000D02*
X2424500D01*
X2420500Y1241000D02*
Y1249000D01*
X2376000Y1264000D02*
X2384000D01*
X2380000Y1260000D02*
Y1268000D01*
X2376000Y1226000D02*
X2384000D01*
X2380000Y1222000D02*
Y1230000D01*
X2115500Y1245000D02*
X2123500D01*
X2119500Y1241000D02*
Y1249000D01*
X2196500Y1245000D02*
X2204500D01*
X2200500Y1241000D02*
Y1249000D01*
X2156000Y1264000D02*
X2164000D01*
X2160000Y1260000D02*
Y1268000D01*
X2156000Y1226000D02*
X2164000D01*
X2160000Y1222000D02*
Y1230000D01*
X1895500Y1245000D02*
X1903500D01*
X1899500Y1241000D02*
Y1249000D01*
X1976500Y1245000D02*
X1984500D01*
X1980500Y1241000D02*
Y1249000D01*
X1936000Y1264000D02*
X1944000D01*
X1940000Y1260000D02*
Y1268000D01*
X1936000Y1226000D02*
X1944000D01*
X1940000Y1222000D02*
Y1230000D01*
X1675500Y1245000D02*
X1683500D01*
X1679500Y1241000D02*
Y1249000D01*
X1756500Y1245000D02*
X1764500D01*
X1760500Y1241000D02*
Y1249000D01*
X1716000Y1264000D02*
X1724000D01*
X1720000Y1260000D02*
Y1268000D01*
X1716000Y1226000D02*
X1724000D01*
X1720000Y1222000D02*
Y1230000D01*
X1455500Y1245000D02*
X1463500D01*
X1459500Y1241000D02*
Y1249000D01*
X1536500Y1245000D02*
X1544500D01*
X1540500Y1241000D02*
Y1249000D01*
X1496000Y1264000D02*
X1504000D01*
X1500000Y1260000D02*
Y1268000D01*
X1496000Y1226000D02*
X1504000D01*
X1500000Y1222000D02*
Y1230000D01*
X1235500Y1245000D02*
X1243500D01*
X1239500Y1241000D02*
Y1249000D01*
X1316500Y1245000D02*
X1324500D01*
X1320500Y1241000D02*
Y1249000D01*
X1276000Y1264000D02*
X1284000D01*
X1280000Y1260000D02*
Y1268000D01*
X1276000Y1226000D02*
X1284000D01*
X1280000Y1222000D02*
Y1230000D01*
X1015500Y1245000D02*
X1023500D01*
X1019500Y1241000D02*
Y1249000D01*
X1096500Y1245000D02*
X1104500D01*
X1100500Y1241000D02*
Y1249000D01*
X1056000Y1264000D02*
X1064000D01*
X1060000Y1260000D02*
Y1268000D01*
X1056000Y1226000D02*
X1064000D01*
X1060000Y1222000D02*
Y1230000D01*
X795500Y1245000D02*
X803500D01*
X799500Y1241000D02*
Y1249000D01*
X876500Y1245000D02*
X884500D01*
X880500Y1241000D02*
Y1249000D01*
X836000Y1264000D02*
X844000D01*
X840000Y1260000D02*
Y1268000D01*
X836000Y1226000D02*
X844000D01*
X840000Y1222000D02*
Y1230000D01*
X575500Y1245000D02*
X583500D01*
X579500Y1241000D02*
Y1249000D01*
X656500Y1245000D02*
X664500D01*
X660500Y1241000D02*
Y1249000D01*
X616000Y1264000D02*
X624000D01*
X620000Y1260000D02*
Y1268000D01*
X616000Y1226000D02*
X624000D01*
X620000Y1222000D02*
Y1230000D01*
X355500Y1245000D02*
X363500D01*
X359500Y1241000D02*
Y1249000D01*
X436500Y1245000D02*
X444500D01*
X440500Y1241000D02*
Y1249000D01*
X396000Y1264000D02*
X404000D01*
X400000Y1260000D02*
Y1268000D01*
X396000Y1226000D02*
X404000D01*
X400000Y1222000D02*
Y1230000D01*
X2785500Y1025000D02*
X2793500D01*
X2789500Y1021000D02*
Y1029000D01*
X2866500Y1025000D02*
X2874500D01*
X2870500Y1021000D02*
Y1029000D01*
X2826000Y1044000D02*
X2834000D01*
X2830000Y1040000D02*
Y1048000D01*
X2826000Y1006000D02*
X2834000D01*
X2830000Y1002000D02*
Y1010000D01*
X2555500Y1025000D02*
X2563500D01*
X2559500Y1021000D02*
Y1029000D01*
X2636500Y1025000D02*
X2644500D01*
X2640500Y1021000D02*
Y1029000D01*
X2596000Y1044000D02*
X2604000D01*
X2600000Y1040000D02*
Y1048000D01*
X2596000Y1006000D02*
X2604000D01*
X2600000Y1002000D02*
Y1010000D01*
X2335500Y1025000D02*
X2343500D01*
X2339500Y1021000D02*
Y1029000D01*
X2416500Y1025000D02*
X2424500D01*
X2420500Y1021000D02*
Y1029000D01*
X2376000Y1044000D02*
X2384000D01*
X2380000Y1040000D02*
Y1048000D01*
X2376000Y1006000D02*
X2384000D01*
X2380000Y1002000D02*
Y1010000D01*
X2115500Y1025000D02*
X2123500D01*
X2119500Y1021000D02*
Y1029000D01*
X2196500Y1025000D02*
X2204500D01*
X2200500Y1021000D02*
Y1029000D01*
X2156000Y1044000D02*
X2164000D01*
X2160000Y1040000D02*
Y1048000D01*
X2156000Y1006000D02*
X2164000D01*
X2160000Y1002000D02*
Y1010000D01*
X1895500Y1025000D02*
X1903500D01*
X1899500Y1021000D02*
Y1029000D01*
X1976500Y1025000D02*
X1984500D01*
X1980500Y1021000D02*
Y1029000D01*
X1936000Y1044000D02*
X1944000D01*
X1940000Y1040000D02*
Y1048000D01*
X1936000Y1006000D02*
X1944000D01*
X1940000Y1002000D02*
Y1010000D01*
X1675500Y1025000D02*
X1683500D01*
X1679500Y1021000D02*
Y1029000D01*
X1756500Y1025000D02*
X1764500D01*
X1760500Y1021000D02*
Y1029000D01*
X1716000Y1044000D02*
X1724000D01*
X1720000Y1040000D02*
Y1048000D01*
X1716000Y1006000D02*
X1724000D01*
X1720000Y1002000D02*
Y1010000D01*
X1455500Y1025000D02*
X1463500D01*
X1459500Y1021000D02*
Y1029000D01*
X1536500Y1025000D02*
X1544500D01*
X1540500Y1021000D02*
Y1029000D01*
X1496000Y1044000D02*
X1504000D01*
X1500000Y1040000D02*
Y1048000D01*
X1496000Y1006000D02*
X1504000D01*
X1500000Y1002000D02*
Y1010000D01*
X1235500Y1025000D02*
X1243500D01*
X1239500Y1021000D02*
Y1029000D01*
X1316500Y1025000D02*
X1324500D01*
X1320500Y1021000D02*
Y1029000D01*
X1276000Y1044000D02*
X1284000D01*
X1280000Y1040000D02*
Y1048000D01*
X1276000Y1006000D02*
X1284000D01*
X1280000Y1002000D02*
Y1010000D01*
X1015500Y1025000D02*
X1023500D01*
X1019500Y1021000D02*
Y1029000D01*
X1096500Y1025000D02*
X1104500D01*
X1100500Y1021000D02*
Y1029000D01*
X1056000Y1044000D02*
X1064000D01*
X1060000Y1040000D02*
Y1048000D01*
X1056000Y1006000D02*
X1064000D01*
X1060000Y1002000D02*
Y1010000D01*
X795500Y1025000D02*
X803500D01*
X799500Y1021000D02*
Y1029000D01*
X876500Y1025000D02*
X884500D01*
X880500Y1021000D02*
Y1029000D01*
X836000Y1044000D02*
X844000D01*
X840000Y1040000D02*
Y1048000D01*
X836000Y1006000D02*
X844000D01*
X840000Y1002000D02*
Y1010000D01*
X575500Y1025000D02*
X583500D01*
X579500Y1021000D02*
Y1029000D01*
X656500Y1025000D02*
X664500D01*
X660500Y1021000D02*
Y1029000D01*
X616000Y1044000D02*
X624000D01*
X620000Y1040000D02*
Y1048000D01*
X616000Y1006000D02*
X624000D01*
X620000Y1002000D02*
Y1010000D01*
X355500Y1025000D02*
X363500D01*
X359500Y1021000D02*
Y1029000D01*
X436500Y1025000D02*
X444500D01*
X440500Y1021000D02*
Y1029000D01*
X396000Y1044000D02*
X404000D01*
X400000Y1040000D02*
Y1048000D01*
X396000Y1006000D02*
X404000D01*
X400000Y1002000D02*
Y1010000D01*
X2785500Y805000D02*
X2793500D01*
X2789500Y801000D02*
Y809000D01*
X2866500Y805000D02*
X2874500D01*
X2870500Y801000D02*
Y809000D01*
X2826000Y824000D02*
X2834000D01*
X2830000Y820000D02*
Y828000D01*
X2826000Y786000D02*
X2834000D01*
X2830000Y782000D02*
Y790000D01*
X2555500Y805000D02*
X2563500D01*
X2559500Y801000D02*
Y809000D01*
X2636500Y805000D02*
X2644500D01*
X2640500Y801000D02*
Y809000D01*
X2596000Y824000D02*
X2604000D01*
X2600000Y820000D02*
Y828000D01*
X2596000Y786000D02*
X2604000D01*
X2600000Y782000D02*
Y790000D01*
X2335500Y805000D02*
X2343500D01*
X2339500Y801000D02*
Y809000D01*
X2416500Y805000D02*
X2424500D01*
X2420500Y801000D02*
Y809000D01*
X2376000Y824000D02*
X2384000D01*
X2380000Y820000D02*
Y828000D01*
X2376000Y786000D02*
X2384000D01*
X2380000Y782000D02*
Y790000D01*
X2115500Y805000D02*
X2123500D01*
X2119500Y801000D02*
Y809000D01*
X2196500Y805000D02*
X2204500D01*
X2200500Y801000D02*
Y809000D01*
X2156000Y824000D02*
X2164000D01*
X2160000Y820000D02*
Y828000D01*
X2156000Y786000D02*
X2164000D01*
X2160000Y782000D02*
Y790000D01*
X1895500Y805000D02*
X1903500D01*
X1899500Y801000D02*
Y809000D01*
X1976500Y805000D02*
X1984500D01*
X1980500Y801000D02*
Y809000D01*
X1936000Y824000D02*
X1944000D01*
X1940000Y820000D02*
Y828000D01*
X1936000Y786000D02*
X1944000D01*
X1940000Y782000D02*
Y790000D01*
X1675500Y805000D02*
X1683500D01*
X1679500Y801000D02*
Y809000D01*
X1756500Y805000D02*
X1764500D01*
X1760500Y801000D02*
Y809000D01*
X1716000Y824000D02*
X1724000D01*
X1720000Y820000D02*
Y828000D01*
X1716000Y786000D02*
X1724000D01*
X1720000Y782000D02*
Y790000D01*
X1455500Y805000D02*
X1463500D01*
X1459500Y801000D02*
Y809000D01*
X1536500Y805000D02*
X1544500D01*
X1540500Y801000D02*
Y809000D01*
X1496000Y824000D02*
X1504000D01*
X1500000Y820000D02*
Y828000D01*
X1496000Y786000D02*
X1504000D01*
X1500000Y782000D02*
Y790000D01*
X1235500Y805000D02*
X1243500D01*
X1239500Y801000D02*
Y809000D01*
X1316500Y805000D02*
X1324500D01*
X1320500Y801000D02*
Y809000D01*
X1276000Y824000D02*
X1284000D01*
X1280000Y820000D02*
Y828000D01*
X1276000Y786000D02*
X1284000D01*
X1280000Y782000D02*
Y790000D01*
X1015500Y805000D02*
X1023500D01*
X1019500Y801000D02*
Y809000D01*
X1096500Y805000D02*
X1104500D01*
X1100500Y801000D02*
Y809000D01*
X1056000Y824000D02*
X1064000D01*
X1060000Y820000D02*
Y828000D01*
X1056000Y786000D02*
X1064000D01*
X1060000Y782000D02*
Y790000D01*
X795500Y805000D02*
X803500D01*
X799500Y801000D02*
Y809000D01*
X876500Y805000D02*
X884500D01*
X880500Y801000D02*
Y809000D01*
X836000Y824000D02*
X844000D01*
X840000Y820000D02*
Y828000D01*
X836000Y786000D02*
X844000D01*
X840000Y782000D02*
Y790000D01*
X575500Y805000D02*
X583500D01*
X579500Y801000D02*
Y809000D01*
X656500Y805000D02*
X664500D01*
X660500Y801000D02*
Y809000D01*
X616000Y824000D02*
X624000D01*
X620000Y820000D02*
Y828000D01*
X616000Y786000D02*
X624000D01*
X620000Y782000D02*
Y790000D01*
X355500Y805000D02*
X363500D01*
X359500Y801000D02*
Y809000D01*
X436500Y805000D02*
X444500D01*
X440500Y801000D02*
Y809000D01*
X396000Y824000D02*
X404000D01*
X400000Y820000D02*
Y828000D01*
X396000Y786000D02*
X404000D01*
X400000Y782000D02*
Y790000D01*
X2785500Y585000D02*
X2793500D01*
X2789500Y581000D02*
Y589000D01*
X2866500Y585000D02*
X2874500D01*
X2870500Y581000D02*
Y589000D01*
X2826000Y604000D02*
X2834000D01*
X2830000Y600000D02*
Y608000D01*
X2826000Y566000D02*
X2834000D01*
X2830000Y562000D02*
Y570000D01*
X2555500Y585000D02*
X2563500D01*
X2559500Y581000D02*
Y589000D01*
X2636500Y585000D02*
X2644500D01*
X2640500Y581000D02*
Y589000D01*
X2596000Y604000D02*
X2604000D01*
X2600000Y600000D02*
Y608000D01*
X2596000Y566000D02*
X2604000D01*
X2600000Y562000D02*
Y570000D01*
X2335500Y585000D02*
X2343500D01*
X2339500Y581000D02*
Y589000D01*
X2416500Y585000D02*
X2424500D01*
X2420500Y581000D02*
Y589000D01*
X2376000Y604000D02*
X2384000D01*
X2380000Y600000D02*
Y608000D01*
X2376000Y566000D02*
X2384000D01*
X2380000Y562000D02*
Y570000D01*
X2115500Y585000D02*
X2123500D01*
X2119500Y581000D02*
Y589000D01*
X2196500Y585000D02*
X2204500D01*
X2200500Y581000D02*
Y589000D01*
X2156000Y604000D02*
X2164000D01*
X2160000Y600000D02*
Y608000D01*
X2156000Y566000D02*
X2164000D01*
X2160000Y562000D02*
Y570000D01*
X1895500Y585000D02*
X1903500D01*
X1899500Y581000D02*
Y589000D01*
X1976500Y585000D02*
X1984500D01*
X1980500Y581000D02*
Y589000D01*
X1936000Y604000D02*
X1944000D01*
X1940000Y600000D02*
Y608000D01*
X1936000Y566000D02*
X1944000D01*
X1940000Y562000D02*
Y570000D01*
X1675500Y585000D02*
X1683500D01*
X1679500Y581000D02*
Y589000D01*
X1756500Y585000D02*
X1764500D01*
X1760500Y581000D02*
Y589000D01*
X1716000Y604000D02*
X1724000D01*
X1720000Y600000D02*
Y608000D01*
X1716000Y566000D02*
X1724000D01*
X1720000Y562000D02*
Y570000D01*
X1455500Y585000D02*
X1463500D01*
X1459500Y581000D02*
Y589000D01*
X1536500Y585000D02*
X1544500D01*
X1540500Y581000D02*
Y589000D01*
X1496000Y604000D02*
X1504000D01*
X1500000Y600000D02*
Y608000D01*
X1496000Y566000D02*
X1504000D01*
X1500000Y562000D02*
Y570000D01*
X1235500Y585000D02*
X1243500D01*
X1239500Y581000D02*
Y589000D01*
X1316500Y585000D02*
X1324500D01*
X1320500Y581000D02*
Y589000D01*
X1276000Y604000D02*
X1284000D01*
X1280000Y600000D02*
Y608000D01*
X1276000Y566000D02*
X1284000D01*
X1280000Y562000D02*
Y570000D01*
X1015500Y585000D02*
X1023500D01*
X1019500Y581000D02*
Y589000D01*
X1096500Y585000D02*
X1104500D01*
X1100500Y581000D02*
Y589000D01*
X1056000Y604000D02*
X1064000D01*
X1060000Y600000D02*
Y608000D01*
X1056000Y566000D02*
X1064000D01*
X1060000Y562000D02*
Y570000D01*
X795500Y585000D02*
X803500D01*
X799500Y581000D02*
Y589000D01*
X876500Y585000D02*
X884500D01*
X880500Y581000D02*
Y589000D01*
X836000Y604000D02*
X844000D01*
X840000Y600000D02*
Y608000D01*
X836000Y566000D02*
X844000D01*
X840000Y562000D02*
Y570000D01*
X575500Y585000D02*
X583500D01*
X579500Y581000D02*
Y589000D01*
X656500Y585000D02*
X664500D01*
X660500Y581000D02*
Y589000D01*
X616000Y604000D02*
X624000D01*
X620000Y600000D02*
Y608000D01*
X616000Y566000D02*
X624000D01*
X620000Y562000D02*
Y570000D01*
X355500Y585000D02*
X363500D01*
X359500Y581000D02*
Y589000D01*
X436500Y585000D02*
X444500D01*
X440500Y581000D02*
Y589000D01*
X396000Y604000D02*
X404000D01*
X400000Y600000D02*
Y608000D01*
X396000Y566000D02*
X404000D01*
X400000Y562000D02*
Y570000D01*
X2785500Y365000D02*
X2793500D01*
X2789500Y361000D02*
Y369000D01*
X2866500Y365000D02*
X2874500D01*
X2870500Y361000D02*
Y369000D01*
X2826000Y384000D02*
X2834000D01*
X2830000Y380000D02*
Y388000D01*
X2826000Y346000D02*
X2834000D01*
X2830000Y342000D02*
Y350000D01*
X2555500Y365000D02*
X2563500D01*
X2559500Y361000D02*
Y369000D01*
X2636500Y365000D02*
X2644500D01*
X2640500Y361000D02*
Y369000D01*
X2596000Y384000D02*
X2604000D01*
X2600000Y380000D02*
Y388000D01*
X2596000Y346000D02*
X2604000D01*
X2600000Y342000D02*
Y350000D01*
X2335500Y365000D02*
X2343500D01*
X2339500Y361000D02*
Y369000D01*
X2416500Y365000D02*
X2424500D01*
X2420500Y361000D02*
Y369000D01*
X2376000Y384000D02*
X2384000D01*
X2380000Y380000D02*
Y388000D01*
X2376000Y346000D02*
X2384000D01*
X2380000Y342000D02*
Y350000D01*
X2115500Y365000D02*
X2123500D01*
X2119500Y361000D02*
Y369000D01*
X2196500Y365000D02*
X2204500D01*
X2200500Y361000D02*
Y369000D01*
X2156000Y384000D02*
X2164000D01*
X2160000Y380000D02*
Y388000D01*
X2156000Y346000D02*
X2164000D01*
X2160000Y342000D02*
Y350000D01*
X1895500Y365000D02*
X1903500D01*
X1899500Y361000D02*
Y369000D01*
X1976500Y365000D02*
X1984500D01*
X1980500Y361000D02*
Y369000D01*
X1936000Y384000D02*
X1944000D01*
X1940000Y380000D02*
Y388000D01*
X1936000Y346000D02*
X1944000D01*
X1940000Y342000D02*
Y350000D01*
X1675500Y365000D02*
X1683500D01*
X1679500Y361000D02*
Y369000D01*
X1756500Y365000D02*
X1764500D01*
X1760500Y361000D02*
Y369000D01*
X1716000Y384000D02*
X1724000D01*
X1720000Y380000D02*
Y388000D01*
X1716000Y346000D02*
X1724000D01*
X1720000Y342000D02*
Y350000D01*
X1455500Y365000D02*
X1463500D01*
X1459500Y361000D02*
Y369000D01*
X1536500Y365000D02*
X1544500D01*
X1540500Y361000D02*
Y369000D01*
X1496000Y384000D02*
X1504000D01*
X1500000Y380000D02*
Y388000D01*
X1496000Y346000D02*
X1504000D01*
X1500000Y342000D02*
Y350000D01*
X1235500Y365000D02*
X1243500D01*
X1239500Y361000D02*
Y369000D01*
X1316500Y365000D02*
X1324500D01*
X1320500Y361000D02*
Y369000D01*
X1276000Y384000D02*
X1284000D01*
X1280000Y380000D02*
Y388000D01*
X1276000Y346000D02*
X1284000D01*
X1280000Y342000D02*
Y350000D01*
X1015500Y365000D02*
X1023500D01*
X1019500Y361000D02*
Y369000D01*
X1096500Y365000D02*
X1104500D01*
X1100500Y361000D02*
Y369000D01*
X1056000Y384000D02*
X1064000D01*
X1060000Y380000D02*
Y388000D01*
X1056000Y346000D02*
X1064000D01*
X1060000Y342000D02*
Y350000D01*
X795500Y365000D02*
X803500D01*
X799500Y361000D02*
Y369000D01*
X876500Y365000D02*
X884500D01*
X880500Y361000D02*
Y369000D01*
X836000Y384000D02*
X844000D01*
X840000Y380000D02*
Y388000D01*
X836000Y346000D02*
X844000D01*
X840000Y342000D02*
Y350000D01*
X575500Y365000D02*
X583500D01*
X579500Y361000D02*
Y369000D01*
X656500Y365000D02*
X664500D01*
X660500Y361000D02*
Y369000D01*
X616000Y384000D02*
X624000D01*
X620000Y380000D02*
Y388000D01*
X616000Y346000D02*
X624000D01*
X620000Y342000D02*
Y350000D01*
X355500Y365000D02*
X363500D01*
X359500Y361000D02*
Y369000D01*
X436500Y365000D02*
X444500D01*
X440500Y361000D02*
Y369000D01*
X396000Y384000D02*
X404000D01*
X400000Y380000D02*
Y388000D01*
X396000Y346000D02*
X404000D01*
X400000Y342000D02*
Y350000D01*
X2555500Y145000D02*
X2563500D01*
X2559500Y141000D02*
Y149000D01*
X2636500Y145000D02*
X2644500D01*
X2640500Y141000D02*
Y149000D01*
X2596000Y164000D02*
X2604000D01*
X2600000Y160000D02*
Y168000D01*
X2596000Y126000D02*
X2604000D01*
X2600000Y122000D02*
Y130000D01*
X2335500Y145000D02*
X2343500D01*
X2339500Y141000D02*
Y149000D01*
X2416500Y145000D02*
X2424500D01*
X2420500Y141000D02*
Y149000D01*
X2376000Y164000D02*
X2384000D01*
X2380000Y160000D02*
Y168000D01*
X2376000Y126000D02*
X2384000D01*
X2380000Y122000D02*
Y130000D01*
X2115500Y145000D02*
X2123500D01*
X2119500Y141000D02*
Y149000D01*
X2196500Y145000D02*
X2204500D01*
X2200500Y141000D02*
Y149000D01*
X2156000Y164000D02*
X2164000D01*
X2160000Y160000D02*
Y168000D01*
X2156000Y126000D02*
X2164000D01*
X2160000Y122000D02*
Y130000D01*
X1895500Y145000D02*
X1903500D01*
X1899500Y141000D02*
Y149000D01*
X1976500Y145000D02*
X1984500D01*
X1980500Y141000D02*
Y149000D01*
X1936000Y164000D02*
X1944000D01*
X1940000Y160000D02*
Y168000D01*
X1936000Y126000D02*
X1944000D01*
X1940000Y122000D02*
Y130000D01*
X1455500Y145000D02*
X1463500D01*
X1459500Y141000D02*
Y149000D01*
X1536500Y145000D02*
X1544500D01*
X1540500Y141000D02*
Y149000D01*
X1496000Y164000D02*
X1504000D01*
X1500000Y160000D02*
Y168000D01*
X1496000Y126000D02*
X1504000D01*
X1500000Y122000D02*
Y130000D01*
X1015500Y145000D02*
X1023500D01*
X1019500Y141000D02*
Y149000D01*
X1096500Y145000D02*
X1104500D01*
X1100500Y141000D02*
Y149000D01*
X1056000Y164000D02*
X1064000D01*
X1060000Y160000D02*
Y168000D01*
X1056000Y126000D02*
X1064000D01*
X1060000Y122000D02*
Y130000D01*
X795500Y145000D02*
X803500D01*
X799500Y141000D02*
Y149000D01*
X876500Y145000D02*
X884500D01*
X880500Y141000D02*
Y149000D01*
X836000Y164000D02*
X844000D01*
X840000Y160000D02*
Y168000D01*
X836000Y126000D02*
X844000D01*
X840000Y122000D02*
Y130000D01*
X575500Y145000D02*
X583500D01*
X579500Y141000D02*
Y149000D01*
X656500Y145000D02*
X664500D01*
X660500Y141000D02*
Y149000D01*
X616000Y164000D02*
X624000D01*
X620000Y160000D02*
Y168000D01*
X616000Y126000D02*
X624000D01*
X620000Y122000D02*
Y130000D01*
X355500Y145000D02*
X363500D01*
X359500Y141000D02*
Y149000D01*
X436500Y145000D02*
X444500D01*
X440500Y141000D02*
Y149000D01*
X396000Y164000D02*
X404000D01*
X400000Y160000D02*
Y168000D01*
X396000Y126000D02*
X404000D01*
X400000Y122000D02*
Y130000D01*
X2972739Y2377913D02*
X2975739D01*
X2974239Y2376413D02*
Y2379413D01*
X2972739Y2301713D02*
X2975739D01*
X2974239Y2300213D02*
Y2303213D01*
X2972739Y2225513D02*
X2975739D01*
X2974239Y2224013D02*
Y2227013D01*
X2972739Y2149313D02*
X2975739D01*
X2974239Y2147813D02*
Y2150813D01*
X2972739Y2073113D02*
X2975739D01*
X2974239Y2071613D02*
Y2074613D01*
X2972739Y1996913D02*
X2975739D01*
X2974239Y1995413D02*
Y1998413D01*
X2972739Y1920713D02*
X2975739D01*
X2974239Y1919213D02*
Y1922213D01*
X2972739Y1844513D02*
X2975739D01*
X2974239Y1843013D02*
Y1846013D01*
X2972739Y1768313D02*
X2975739D01*
X2974239Y1766813D02*
Y1769813D01*
X2972739Y1692113D02*
X2975739D01*
X2974239Y1690613D02*
Y1693613D01*
X2972739Y1615913D02*
X2975739D01*
X2974239Y1614413D02*
Y1617413D01*
X2972739Y244313D02*
X2975739D01*
X2974239Y242813D02*
Y245813D01*
X2972739Y91913D02*
X2975739D01*
X2974239Y90413D02*
Y93413D01*
X2972739Y15713D02*
X2975739D01*
X2974239Y14213D02*
Y17213D01*
X2953689Y2416013D02*
X2956689D01*
X2955189Y2414513D02*
Y2417513D01*
X2934639Y2377913D02*
X2937639D01*
X2936139Y2376413D02*
Y2379413D01*
X2953689Y2339813D02*
X2956689D01*
X2955189Y2338313D02*
Y2341313D01*
X2934639Y2301713D02*
X2937639D01*
X2936139Y2300213D02*
Y2303213D01*
X2953689Y2263613D02*
X2956689D01*
X2955189Y2262113D02*
Y2265113D01*
X2953689Y2187413D02*
X2956689D01*
X2955189Y2185913D02*
Y2188913D01*
X2934639Y2149313D02*
X2937639D01*
X2936139Y2147813D02*
Y2150813D01*
X2953689Y2111213D02*
X2956689D01*
X2955189Y2109713D02*
Y2112713D01*
X2934639Y2073113D02*
X2937639D01*
X2936139Y2071613D02*
Y2074613D01*
X2953689Y2035013D02*
X2956689D01*
X2955189Y2033513D02*
Y2036513D01*
X2934639Y1996913D02*
X2937639D01*
X2936139Y1995413D02*
Y1998413D01*
X2953689Y1958813D02*
X2956689D01*
X2955189Y1957313D02*
Y1960313D01*
X2934639Y1920713D02*
X2937639D01*
X2936139Y1919213D02*
Y1922213D01*
X2953689Y1882613D02*
X2956689D01*
X2955189Y1881113D02*
Y1884113D01*
X2934639Y1844513D02*
X2937639D01*
X2936139Y1843013D02*
Y1846013D01*
X2953689Y1806413D02*
X2956689D01*
X2955189Y1804913D02*
Y1807913D01*
X2934639Y1768313D02*
X2937639D01*
X2936139Y1766813D02*
Y1769813D01*
X2934639Y1692113D02*
X2937639D01*
X2936139Y1690613D02*
Y1693613D01*
X2934639Y1615913D02*
X2937639D01*
X2936139Y1614413D02*
Y1617413D01*
X2953689Y1577813D02*
X2956689D01*
X2955189Y1576313D02*
Y1579313D01*
X2934639Y1463513D02*
X2937639D01*
X2936139Y1462013D02*
Y1465013D01*
X2934639Y1311113D02*
X2937639D01*
X2936139Y1309613D02*
Y1312613D01*
X2934639Y1234913D02*
X2937639D01*
X2936139Y1233413D02*
Y1236413D01*
X2934639Y1082513D02*
X2937639D01*
X2936139Y1081013D02*
Y1084013D01*
X2934639Y853913D02*
X2937639D01*
X2936139Y852413D02*
Y855413D01*
X2953689Y815813D02*
X2956689D01*
X2955189Y814313D02*
Y817313D01*
X2934639Y777713D02*
X2937639D01*
X2936139Y776213D02*
Y779213D01*
X2953689Y663413D02*
X2956689D01*
X2955189Y661913D02*
Y664913D01*
X2934639Y625313D02*
X2937639D01*
X2936139Y623813D02*
Y626813D01*
X2953689Y587213D02*
X2956689D01*
X2955189Y585713D02*
Y588713D01*
X2934639Y549113D02*
X2937639D01*
X2936139Y547613D02*
Y550613D01*
X2953689Y434813D02*
X2956689D01*
X2955189Y433313D02*
Y436313D01*
X2934639Y396713D02*
X2937639D01*
X2936139Y395213D02*
Y398213D01*
X2953689Y358613D02*
X2956689D01*
X2955189Y357113D02*
Y360113D01*
X2934639Y320513D02*
X2937639D01*
X2936139Y319013D02*
Y322013D01*
X2934639Y244313D02*
X2937639D01*
X2936139Y242813D02*
Y245813D01*
X2953689Y206213D02*
X2956689D01*
X2955189Y204713D02*
Y207713D01*
X2934639Y168113D02*
X2937639D01*
X2936139Y166613D02*
Y169613D01*
X2953689Y130013D02*
X2956689D01*
X2955189Y128513D02*
Y131513D01*
X2934639Y15713D02*
X2937639D01*
X2936139Y14213D02*
Y17213D01*
X2915589Y2416013D02*
X2918589D01*
X2917089Y2414513D02*
Y2417513D01*
X2896539Y2377913D02*
X2899539D01*
X2898039Y2376413D02*
Y2379413D01*
X2915589Y2339813D02*
X2918589D01*
X2917089Y2338313D02*
Y2341313D01*
X2896539Y2301713D02*
X2899539D01*
X2898039Y2300213D02*
Y2303213D01*
X2915589Y2263613D02*
X2918589D01*
X2917089Y2262113D02*
Y2265113D01*
X2896539Y2225513D02*
X2899539D01*
X2898039Y2224013D02*
Y2227013D01*
X2896539Y2149313D02*
X2899539D01*
X2898039Y2147813D02*
Y2150813D01*
X2915589Y2111213D02*
X2918589D01*
X2917089Y2109713D02*
Y2112713D01*
X2896539Y2073113D02*
X2899539D01*
X2898039Y2071613D02*
Y2074613D01*
X2915589Y2035013D02*
X2918589D01*
X2917089Y2033513D02*
Y2036513D01*
X2896539Y1996913D02*
X2899539D01*
X2898039Y1995413D02*
Y1998413D01*
X2915589Y1958813D02*
X2918589D01*
X2917089Y1957313D02*
Y1960313D01*
X2896539Y1920713D02*
X2899539D01*
X2898039Y1919213D02*
Y1922213D01*
X2915589Y1882613D02*
X2918589D01*
X2917089Y1881113D02*
Y1884113D01*
X2896539Y1844513D02*
X2899539D01*
X2898039Y1843013D02*
Y1846013D01*
X2915589Y1806413D02*
X2918589D01*
X2917089Y1804913D02*
Y1807913D01*
X2896539Y1768313D02*
X2899539D01*
X2898039Y1766813D02*
Y1769813D01*
X2915589Y1044413D02*
X2918589D01*
X2917089Y1042913D02*
Y1045913D01*
X2915589Y815813D02*
X2918589D01*
X2917089Y814313D02*
Y817313D01*
X2915589Y739613D02*
X2918589D01*
X2917089Y738113D02*
Y741113D01*
X2915589Y663413D02*
X2918589D01*
X2917089Y661913D02*
Y664913D01*
X2915589Y587213D02*
X2918589D01*
X2917089Y585713D02*
Y588713D01*
X2915589Y511013D02*
X2918589D01*
X2917089Y509513D02*
Y512513D01*
X2915589Y434813D02*
X2918589D01*
X2917089Y433313D02*
Y436313D01*
X2896539Y396713D02*
X2899539D01*
X2898039Y395213D02*
Y398213D01*
X2896539Y320513D02*
X2899539D01*
X2898039Y319013D02*
Y322013D01*
X2915589Y282413D02*
X2918589D01*
X2917089Y280913D02*
Y283913D01*
X2896539Y244313D02*
X2899539D01*
X2898039Y242813D02*
Y245813D01*
X2915589Y206213D02*
X2918589D01*
X2917089Y204713D02*
Y207713D01*
X2896539Y168113D02*
X2899539D01*
X2898039Y166613D02*
Y169613D01*
X2915589Y130013D02*
X2918589D01*
X2917089Y128513D02*
Y131513D01*
X2896539Y91913D02*
X2899539D01*
X2898039Y90413D02*
Y93413D01*
X2896539Y15713D02*
X2899539D01*
X2898039Y14213D02*
Y17213D01*
X2877489Y2416013D02*
X2880489D01*
X2878989Y2414513D02*
Y2417513D01*
X2858439Y2377913D02*
X2861439D01*
X2859939Y2376413D02*
Y2379413D01*
X2877489Y2339813D02*
X2880489D01*
X2878989Y2338313D02*
Y2341313D01*
X2858439Y2301713D02*
X2861439D01*
X2859939Y2300213D02*
Y2303213D01*
X2877489Y2263613D02*
X2880489D01*
X2878989Y2262113D02*
Y2265113D01*
X2858439Y2225513D02*
X2861439D01*
X2859939Y2224013D02*
Y2227013D01*
X2877489Y2187413D02*
X2880489D01*
X2878989Y2185913D02*
Y2188913D01*
X2858439Y2149313D02*
X2861439D01*
X2859939Y2147813D02*
Y2150813D01*
X2877489Y2111213D02*
X2880489D01*
X2878989Y2109713D02*
Y2112713D01*
X2858439Y2073113D02*
X2861439D01*
X2859939Y2071613D02*
Y2074613D01*
X2877489Y2035013D02*
X2880489D01*
X2878989Y2033513D02*
Y2036513D01*
X2858439Y1996913D02*
X2861439D01*
X2859939Y1995413D02*
Y1998413D01*
X2877489Y1958813D02*
X2880489D01*
X2878989Y1957313D02*
Y1960313D01*
X2858439Y1920713D02*
X2861439D01*
X2859939Y1919213D02*
Y1922213D01*
X2877489Y1882613D02*
X2880489D01*
X2878989Y1881113D02*
Y1884113D01*
X2858439Y1844513D02*
X2861439D01*
X2859939Y1843013D02*
Y1846013D01*
X2877489Y1806413D02*
X2880489D01*
X2878989Y1804913D02*
Y1807913D01*
X2858439Y1539713D02*
X2861439D01*
X2859939Y1538213D02*
Y1541213D01*
X2877489Y1501613D02*
X2880489D01*
X2878989Y1500113D02*
Y1503113D01*
X2877489Y1425413D02*
X2880489D01*
X2878989Y1423913D02*
Y1426913D01*
X2858439Y1387313D02*
X2861439D01*
X2859939Y1385813D02*
Y1388813D01*
X2858439Y1311113D02*
X2861439D01*
X2859939Y1309613D02*
Y1312613D01*
X2877489Y1273013D02*
X2880489D01*
X2878989Y1271513D02*
Y1274513D01*
X2877489Y1196813D02*
X2880489D01*
X2878989Y1195313D02*
Y1198313D01*
X2858439Y1158713D02*
X2861439D01*
X2859939Y1157213D02*
Y1160213D01*
X2858439Y1082513D02*
X2861439D01*
X2859939Y1081013D02*
Y1084013D01*
X2858439Y1006313D02*
X2861439D01*
X2859939Y1004813D02*
Y1007813D01*
X2858439Y930113D02*
X2861439D01*
X2859939Y928613D02*
Y931613D01*
X2858439Y853913D02*
X2861439D01*
X2859939Y852413D02*
Y855413D01*
X2858439Y777713D02*
X2861439D01*
X2859939Y776213D02*
Y779213D01*
X2877489Y739613D02*
X2880489D01*
X2878989Y738113D02*
Y741113D01*
X2877489Y663413D02*
X2880489D01*
X2878989Y661913D02*
Y664913D01*
X2858439Y625313D02*
X2861439D01*
X2859939Y623813D02*
Y626813D01*
X2858439Y549113D02*
X2861439D01*
X2859939Y547613D02*
Y550613D01*
X2877489Y511013D02*
X2880489D01*
X2878989Y509513D02*
Y512513D01*
X2877489Y434813D02*
X2880489D01*
X2878989Y433313D02*
Y436313D01*
X2858439Y396713D02*
X2861439D01*
X2859939Y395213D02*
Y398213D01*
X2877489Y282413D02*
X2880489D01*
X2878989Y280913D02*
Y283913D01*
X2877489Y206213D02*
X2880489D01*
X2878989Y204713D02*
Y207713D01*
X2858439Y168113D02*
X2861439D01*
X2859939Y166613D02*
Y169613D01*
X2877489Y53813D02*
X2880489D01*
X2878989Y52313D02*
Y55313D01*
X2858439Y15713D02*
X2861439D01*
X2859939Y14213D02*
Y17213D01*
X2839389Y2416013D02*
X2842389D01*
X2840889Y2414513D02*
Y2417513D01*
X2820339Y2377913D02*
X2823339D01*
X2821839Y2376413D02*
Y2379413D01*
X2839389Y2339813D02*
X2842389D01*
X2840889Y2338313D02*
Y2341313D01*
X2820339Y2301713D02*
X2823339D01*
X2821839Y2300213D02*
Y2303213D01*
X2839389Y2263613D02*
X2842389D01*
X2840889Y2262113D02*
Y2265113D01*
X2820339Y2225513D02*
X2823339D01*
X2821839Y2224013D02*
Y2227013D01*
X2839389Y2187413D02*
X2842389D01*
X2840889Y2185913D02*
Y2188913D01*
X2820339Y2149313D02*
X2823339D01*
X2821839Y2147813D02*
Y2150813D01*
X2839389Y2111213D02*
X2842389D01*
X2840889Y2109713D02*
Y2112713D01*
X2820339Y2073113D02*
X2823339D01*
X2821839Y2071613D02*
Y2074613D01*
X2839389Y2035013D02*
X2842389D01*
X2840889Y2033513D02*
Y2036513D01*
X2820339Y1996913D02*
X2823339D01*
X2821839Y1995413D02*
Y1998413D01*
X2839389Y1958813D02*
X2842389D01*
X2840889Y1957313D02*
Y1960313D01*
X2820339Y1920713D02*
X2823339D01*
X2821839Y1919213D02*
Y1922213D01*
X2839389Y1882613D02*
X2842389D01*
X2840889Y1881113D02*
Y1884113D01*
X2820339Y1844513D02*
X2823339D01*
X2821839Y1843013D02*
Y1846013D01*
X2839389Y1806413D02*
X2842389D01*
X2840889Y1804913D02*
Y1807913D01*
X2839389Y1730213D02*
X2842389D01*
X2840889Y1728713D02*
Y1731713D01*
X2820339Y1539713D02*
X2823339D01*
X2821839Y1538213D02*
Y1541213D01*
X2839389Y1501613D02*
X2842389D01*
X2840889Y1500113D02*
Y1503113D01*
X2820339Y1463513D02*
X2823339D01*
X2821839Y1462013D02*
Y1465013D01*
X2839389Y1425413D02*
X2842389D01*
X2840889Y1423913D02*
Y1426913D01*
X2820339Y1387313D02*
X2823339D01*
X2821839Y1385813D02*
Y1388813D01*
X2820339Y1311113D02*
X2823339D01*
X2821839Y1309613D02*
Y1312613D01*
X2839389Y1120613D02*
X2842389D01*
X2840889Y1119113D02*
Y1122113D01*
X2820339Y1082513D02*
X2823339D01*
X2821839Y1081013D02*
Y1084013D01*
X2839389Y892013D02*
X2842389D01*
X2840889Y890513D02*
Y893513D01*
X2820339Y853913D02*
X2823339D01*
X2821839Y852413D02*
Y855413D01*
X2839389Y739613D02*
X2842389D01*
X2840889Y738113D02*
Y741113D01*
X2839389Y663413D02*
X2842389D01*
X2840889Y661913D02*
Y664913D01*
X2820339Y625313D02*
X2823339D01*
X2821839Y623813D02*
Y626813D01*
X2839389Y587213D02*
X2842389D01*
X2840889Y585713D02*
Y588713D01*
X2820339Y549113D02*
X2823339D01*
X2821839Y547613D02*
Y550613D01*
X2839389Y511013D02*
X2842389D01*
X2840889Y509513D02*
Y512513D01*
X2839389Y434813D02*
X2842389D01*
X2840889Y433313D02*
Y436313D01*
X2820339Y396713D02*
X2823339D01*
X2821839Y395213D02*
Y398213D01*
X2839389Y358613D02*
X2842389D01*
X2840889Y357113D02*
Y360113D01*
X2839389Y282413D02*
X2842389D01*
X2840889Y280913D02*
Y283913D01*
X2839389Y206213D02*
X2842389D01*
X2840889Y204713D02*
Y207713D01*
X2839389Y53813D02*
X2842389D01*
X2840889Y52313D02*
Y55313D01*
X2820339Y15713D02*
X2823339D01*
X2821839Y14213D02*
Y17213D01*
X2801288Y2416013D02*
X2804289D01*
X2802789Y2414513D02*
Y2417513D01*
X2782238Y2377913D02*
X2785239D01*
X2783739Y2376413D02*
Y2379413D01*
X2801288Y2339813D02*
X2804289D01*
X2802789Y2338313D02*
Y2341313D01*
X2782238Y2301713D02*
X2785239D01*
X2783739Y2300213D02*
Y2303213D01*
X2801288Y2263613D02*
X2804289D01*
X2802789Y2262113D02*
Y2265113D01*
X2782238Y2225513D02*
X2785239D01*
X2783739Y2224013D02*
Y2227013D01*
X2801288Y2187413D02*
X2804289D01*
X2802789Y2185913D02*
Y2188913D01*
X2782238Y2149313D02*
X2785239D01*
X2783739Y2147813D02*
Y2150813D01*
X2801288Y2111213D02*
X2804289D01*
X2802789Y2109713D02*
Y2112713D01*
X2801288Y1882613D02*
X2804289D01*
X2802789Y1881113D02*
Y1884113D01*
X2782238Y1844513D02*
X2785239D01*
X2783739Y1843013D02*
Y1846013D01*
X2801288Y1730213D02*
X2804289D01*
X2802789Y1728713D02*
Y1731713D01*
X2801288Y1577813D02*
X2804289D01*
X2802789Y1576313D02*
Y1579313D01*
X2782238Y1539713D02*
X2785239D01*
X2783739Y1538213D02*
Y1541213D01*
X2801288Y1501613D02*
X2804289D01*
X2802789Y1500113D02*
Y1503113D01*
X2801288Y1425413D02*
X2804289D01*
X2802789Y1423913D02*
Y1426913D01*
X2801288Y1349213D02*
X2804289D01*
X2802789Y1347713D02*
Y1350713D01*
X2801288Y1273013D02*
X2804289D01*
X2802789Y1271513D02*
Y1274513D01*
X2801288Y1120613D02*
X2804289D01*
X2802789Y1119113D02*
Y1122113D01*
X2801288Y1044413D02*
X2804289D01*
X2802789Y1042913D02*
Y1045913D01*
X2801288Y892013D02*
X2804289D01*
X2802789Y890513D02*
Y893513D01*
X2801288Y815813D02*
X2804289D01*
X2802789Y814313D02*
Y817313D01*
X2801288Y739613D02*
X2804289D01*
X2802789Y738113D02*
Y741113D01*
X2801288Y663413D02*
X2804289D01*
X2802789Y661913D02*
Y664913D01*
X2801288Y587213D02*
X2804289D01*
X2802789Y585713D02*
Y588713D01*
X2801288Y511013D02*
X2804289D01*
X2802789Y509513D02*
Y512513D01*
X2801288Y434813D02*
X2804289D01*
X2802789Y433313D02*
Y436313D01*
X2801288Y358613D02*
X2804289D01*
X2802789Y357113D02*
Y360113D01*
X2801288Y282413D02*
X2804289D01*
X2802789Y280913D02*
Y283913D01*
X2801288Y206213D02*
X2804289D01*
X2802789Y204713D02*
Y207713D01*
X2801288Y130013D02*
X2804289D01*
X2802789Y128513D02*
Y131513D01*
X2801288Y53813D02*
X2804289D01*
X2802789Y52313D02*
Y55313D01*
X2782238Y15713D02*
X2785239D01*
X2783739Y14213D02*
Y17213D01*
X2763188Y2416013D02*
X2766188D01*
X2764689Y2414513D02*
Y2417513D01*
X2763188Y2339813D02*
X2766188D01*
X2764689Y2338313D02*
Y2341313D01*
X2763188Y2263613D02*
X2766188D01*
X2764689Y2262113D02*
Y2265113D01*
X2744138Y2225513D02*
X2747138D01*
X2745639Y2224013D02*
Y2227013D01*
X2763188Y2187413D02*
X2766188D01*
X2764689Y2185913D02*
Y2188913D01*
X2744138Y2149313D02*
X2747138D01*
X2745639Y2147813D02*
Y2150813D01*
X2763188Y2111213D02*
X2766188D01*
X2764689Y2109713D02*
Y2112713D01*
X2763188Y1806413D02*
X2766188D01*
X2764689Y1804913D02*
Y1807913D01*
X2763188Y1730213D02*
X2766188D01*
X2764689Y1728713D02*
Y1731713D01*
X2763188Y1577813D02*
X2766188D01*
X2764689Y1576313D02*
Y1579313D01*
X2744138Y1539713D02*
X2747138D01*
X2745639Y1538213D02*
Y1541213D01*
X2744138Y1463513D02*
X2747138D01*
X2745639Y1462013D02*
Y1465013D01*
X2763188Y1425413D02*
X2766188D01*
X2764689Y1423913D02*
Y1426913D01*
X2744138Y1387313D02*
X2747138D01*
X2745639Y1385813D02*
Y1388813D01*
X2763188Y1349213D02*
X2766188D01*
X2764689Y1347713D02*
Y1350713D01*
X2744138Y1311113D02*
X2747138D01*
X2745639Y1309613D02*
Y1312613D01*
X2763188Y1273013D02*
X2766188D01*
X2764689Y1271513D02*
Y1274513D01*
X2744138Y1234913D02*
X2747138D01*
X2745639Y1233413D02*
Y1236413D01*
X2744138Y1158713D02*
X2747138D01*
X2745639Y1157213D02*
Y1160213D01*
X2763188Y1120613D02*
X2766188D01*
X2764689Y1119113D02*
Y1122113D01*
X2744138Y1082513D02*
X2747138D01*
X2745639Y1081013D02*
Y1084013D01*
X2763188Y1044413D02*
X2766188D01*
X2764689Y1042913D02*
Y1045913D01*
X2744138Y1006313D02*
X2747138D01*
X2745639Y1004813D02*
Y1007813D01*
X2744138Y930113D02*
X2747138D01*
X2745639Y928613D02*
Y931613D01*
X2763188Y892013D02*
X2766188D01*
X2764689Y890513D02*
Y893513D01*
X2744138Y853913D02*
X2747138D01*
X2745639Y852413D02*
Y855413D01*
X2763188Y815813D02*
X2766188D01*
X2764689Y814313D02*
Y817313D01*
X2744138Y777713D02*
X2747138D01*
X2745639Y776213D02*
Y779213D01*
X2763188Y739613D02*
X2766188D01*
X2764689Y738113D02*
Y741113D01*
X2763188Y663413D02*
X2766188D01*
X2764689Y661913D02*
Y664913D01*
X2744138Y625313D02*
X2747138D01*
X2745639Y623813D02*
Y626813D01*
X2763188Y587213D02*
X2766188D01*
X2764689Y585713D02*
Y588713D01*
X2744138Y549113D02*
X2747138D01*
X2745639Y547613D02*
Y550613D01*
X2763188Y511013D02*
X2766188D01*
X2764689Y509513D02*
Y512513D01*
X2763188Y434813D02*
X2766188D01*
X2764689Y433313D02*
Y436313D01*
X2744138Y396713D02*
X2747138D01*
X2745639Y395213D02*
Y398213D01*
X2763188Y358613D02*
X2766188D01*
X2764689Y357113D02*
Y360113D01*
X2763188Y282413D02*
X2766188D01*
X2764689Y280913D02*
Y283913D01*
X2744138Y244313D02*
X2747138D01*
X2745639Y242813D02*
Y245813D01*
X2763188Y206213D02*
X2766188D01*
X2764689Y204713D02*
Y207713D01*
X2744138Y168113D02*
X2747138D01*
X2745639Y166613D02*
Y169613D01*
X2763188Y130013D02*
X2766188D01*
X2764689Y128513D02*
Y131513D01*
X2763188Y53813D02*
X2766188D01*
X2764689Y52313D02*
Y55313D01*
X2725089Y2416013D02*
X2728088D01*
X2726589Y2414513D02*
Y2417513D01*
X2706039Y2149313D02*
X2709038D01*
X2707538Y2147813D02*
Y2150813D01*
X2725089Y2111213D02*
X2728088D01*
X2726589Y2109713D02*
Y2112713D01*
X2706039Y1844513D02*
X2709038D01*
X2707538Y1843013D02*
Y1846013D01*
X2725089Y1577813D02*
X2728088D01*
X2726589Y1576313D02*
Y1579313D01*
X2725089Y1501613D02*
X2728088D01*
X2726589Y1500113D02*
Y1503113D01*
X2725089Y1425413D02*
X2728088D01*
X2726589Y1423913D02*
Y1426913D01*
X2725089Y1349213D02*
X2728088D01*
X2726589Y1347713D02*
Y1350713D01*
X2725089Y1273013D02*
X2728088D01*
X2726589Y1271513D02*
Y1274513D01*
X2725089Y1120613D02*
X2728088D01*
X2726589Y1119113D02*
Y1122113D01*
X2725089Y1044413D02*
X2728088D01*
X2726589Y1042913D02*
Y1045913D01*
X2725089Y892013D02*
X2728088D01*
X2726589Y890513D02*
Y893513D01*
X2725089Y815813D02*
X2728088D01*
X2726589Y814313D02*
Y817313D01*
X2725089Y739613D02*
X2728088D01*
X2726589Y738113D02*
Y741113D01*
X2725089Y663413D02*
X2728088D01*
X2726589Y661913D02*
Y664913D01*
X2725089Y587213D02*
X2728088D01*
X2726589Y585713D02*
Y588713D01*
X2725089Y511013D02*
X2728088D01*
X2726589Y509513D02*
Y512513D01*
X2725089Y434813D02*
X2728088D01*
X2726589Y433313D02*
Y436313D01*
X2725089Y358613D02*
X2728088D01*
X2726589Y357113D02*
Y360113D01*
X2725089Y282413D02*
X2728088D01*
X2726589Y280913D02*
Y283913D01*
X2725089Y206213D02*
X2728088D01*
X2726589Y204713D02*
Y207713D01*
X2706039Y168113D02*
X2709038D01*
X2707538Y166613D02*
Y169613D01*
X2725089Y130013D02*
X2728088D01*
X2726589Y128513D02*
Y131513D01*
X2725089Y53813D02*
X2728088D01*
X2726589Y52313D02*
Y55313D01*
X2686989Y2416013D02*
X2689988D01*
X2688488Y2414513D02*
Y2417513D01*
X2667939Y2225513D02*
X2670938D01*
X2669438Y2224013D02*
Y2227013D01*
X2667939Y2149313D02*
X2670938D01*
X2669438Y2147813D02*
Y2150813D01*
X2686989Y2111213D02*
X2689988D01*
X2688488Y2109713D02*
Y2112713D01*
X2667939Y1844513D02*
X2670938D01*
X2669438Y1843013D02*
Y1846013D01*
X2667939Y1082513D02*
X2670938D01*
X2669438Y1081013D02*
Y1084013D01*
X2667939Y1006313D02*
X2670938D01*
X2669438Y1004813D02*
Y1007813D01*
X2667939Y930113D02*
X2670938D01*
X2669438Y928613D02*
Y931613D01*
X2667939Y853913D02*
X2670938D01*
X2669438Y852413D02*
Y855413D01*
X2667939Y777713D02*
X2670938D01*
X2669438Y776213D02*
Y779213D01*
X2667939Y625313D02*
X2670938D01*
X2669438Y623813D02*
Y626813D01*
X2667939Y549113D02*
X2670938D01*
X2669438Y547613D02*
Y550613D01*
X2686989Y434813D02*
X2689988D01*
X2688488Y433313D02*
Y436313D01*
X2667939Y396713D02*
X2670938D01*
X2669438Y395213D02*
Y398213D01*
X2686989Y358613D02*
X2689988D01*
X2688488Y357113D02*
Y360113D01*
X2686989Y282413D02*
X2689988D01*
X2688488Y280913D02*
Y283913D01*
X2667939Y244313D02*
X2670938D01*
X2669438Y242813D02*
Y245813D01*
X2686989Y206213D02*
X2689988D01*
X2688488Y204713D02*
Y207713D01*
X2667939Y168113D02*
X2670938D01*
X2669438Y166613D02*
Y169613D01*
X2686989Y130013D02*
X2689988D01*
X2688488Y128513D02*
Y131513D01*
X2686989Y53813D02*
X2689988D01*
X2688488Y52313D02*
Y55313D01*
X2648889Y2416013D02*
X2651888D01*
X2650388Y2414513D02*
Y2417513D01*
X2629839Y2225513D02*
X2632838D01*
X2631339Y2224013D02*
Y2227013D01*
X2629839Y2149313D02*
X2632838D01*
X2631339Y2147813D02*
Y2150813D01*
X2648889Y2111213D02*
X2651888D01*
X2650388Y2109713D02*
Y2112713D01*
X2629839Y1844513D02*
X2632838D01*
X2631339Y1843013D02*
Y1846013D01*
X2629839Y1539713D02*
X2632838D01*
X2631339Y1538213D02*
Y1541213D01*
X2648889Y1501613D02*
X2651888D01*
X2650388Y1500113D02*
Y1503113D01*
X2648889Y1425413D02*
X2651888D01*
X2650388Y1423913D02*
Y1426913D01*
X2629839Y1387313D02*
X2632838D01*
X2631339Y1385813D02*
Y1388813D01*
X2629839Y1311113D02*
X2632838D01*
X2631339Y1309613D02*
Y1312613D01*
X2648889Y1273013D02*
X2651888D01*
X2650388Y1271513D02*
Y1274513D01*
X2629839Y1158713D02*
X2632838D01*
X2631339Y1157213D02*
Y1160213D01*
X2629839Y1082513D02*
X2632838D01*
X2631339Y1081013D02*
Y1084013D01*
X2648889Y1044413D02*
X2651888D01*
X2650388Y1042913D02*
Y1045913D01*
X2629839Y930113D02*
X2632838D01*
X2631339Y928613D02*
Y931613D01*
X2629839Y853913D02*
X2632838D01*
X2631339Y852413D02*
Y855413D01*
X2629839Y777713D02*
X2632838D01*
X2631339Y776213D02*
Y779213D01*
X2648889Y739613D02*
X2651888D01*
X2650388Y738113D02*
Y741113D01*
X2648889Y663413D02*
X2651888D01*
X2650388Y661913D02*
Y664913D01*
X2629839Y625313D02*
X2632838D01*
X2631339Y623813D02*
Y626813D01*
X2629839Y549113D02*
X2632838D01*
X2631339Y547613D02*
Y550613D01*
X2648889Y511013D02*
X2651888D01*
X2650388Y509513D02*
Y512513D01*
X2648889Y434813D02*
X2651888D01*
X2650388Y433313D02*
Y436313D01*
X2629839Y396713D02*
X2632838D01*
X2631339Y395213D02*
Y398213D01*
X2648889Y282413D02*
X2651888D01*
X2650388Y280913D02*
Y283913D01*
X2648889Y206213D02*
X2651888D01*
X2650388Y204713D02*
Y207713D01*
X2629839Y168113D02*
X2632838D01*
X2631339Y166613D02*
Y169613D01*
X2648889Y53813D02*
X2651888D01*
X2650388Y52313D02*
Y55313D01*
X2610789Y2416013D02*
X2613788D01*
X2612289Y2414513D02*
Y2417513D01*
X2591739Y2301713D02*
X2594738D01*
X2593239Y2300213D02*
Y2303213D01*
X2610789Y2263613D02*
X2613788D01*
X2612289Y2262113D02*
Y2265113D01*
X2610789Y2187413D02*
X2613788D01*
X2612289Y2185913D02*
Y2188913D01*
X2591739Y2149313D02*
X2594738D01*
X2593239Y2147813D02*
Y2150813D01*
X2610789Y2111213D02*
X2613788D01*
X2612289Y2109713D02*
Y2112713D01*
X2610789Y1806413D02*
X2613788D01*
X2612289Y1804913D02*
Y1807913D01*
X2610789Y1730213D02*
X2613788D01*
X2612289Y1728713D02*
Y1731713D01*
X2610789Y1501613D02*
X2613788D01*
X2612289Y1500113D02*
Y1503113D01*
X2591739Y1463513D02*
X2594738D01*
X2593239Y1462013D02*
Y1465013D01*
X2610789Y1425413D02*
X2613788D01*
X2612289Y1423913D02*
Y1426913D01*
X2610789Y1120613D02*
X2613788D01*
X2612289Y1119113D02*
Y1122113D01*
X2610789Y892013D02*
X2613788D01*
X2612289Y890513D02*
Y893513D01*
X2610789Y739613D02*
X2613788D01*
X2612289Y738113D02*
Y741113D01*
X2610789Y663413D02*
X2613788D01*
X2612289Y661913D02*
Y664913D01*
X2610789Y587213D02*
X2613788D01*
X2612289Y585713D02*
Y588713D01*
X2610789Y511013D02*
X2613788D01*
X2612289Y509513D02*
Y512513D01*
X2610789Y434813D02*
X2613788D01*
X2612289Y433313D02*
Y436313D01*
X2610789Y358613D02*
X2613788D01*
X2612289Y357113D02*
Y360113D01*
X2610789Y282413D02*
X2613788D01*
X2612289Y280913D02*
Y283913D01*
X2610789Y206213D02*
X2613788D01*
X2612289Y204713D02*
Y207713D01*
X2610789Y53813D02*
X2613788D01*
X2612289Y52313D02*
Y55313D01*
X2553639Y2149313D02*
X2556638D01*
X2555139Y2147813D02*
Y2150813D01*
X2572689Y2111213D02*
X2575688D01*
X2574189Y2109713D02*
Y2112713D01*
X2553639Y1844513D02*
X2556638D01*
X2555139Y1843013D02*
Y1846013D01*
X2572689Y1806413D02*
X2575688D01*
X2574189Y1804913D02*
Y1807913D01*
X2572689Y1730213D02*
X2575688D01*
X2574189Y1728713D02*
Y1731713D01*
X2572689Y1577813D02*
X2575688D01*
X2574189Y1576313D02*
Y1579313D01*
X2553639Y1539713D02*
X2556638D01*
X2555139Y1538213D02*
Y1541213D01*
X2572689Y1501613D02*
X2575688D01*
X2574189Y1500113D02*
Y1503113D01*
X2572689Y1425413D02*
X2575688D01*
X2574189Y1423913D02*
Y1426913D01*
X2572689Y1349213D02*
X2575688D01*
X2574189Y1347713D02*
Y1350713D01*
X2572689Y1273013D02*
X2575688D01*
X2574189Y1271513D02*
Y1274513D01*
X2572689Y1120613D02*
X2575688D01*
X2574189Y1119113D02*
Y1122113D01*
X2572689Y1044413D02*
X2575688D01*
X2574189Y1042913D02*
Y1045913D01*
X2572689Y892013D02*
X2575688D01*
X2574189Y890513D02*
Y893513D01*
X2572689Y815813D02*
X2575688D01*
X2574189Y814313D02*
Y817313D01*
X2572689Y739613D02*
X2575688D01*
X2574189Y738113D02*
Y741113D01*
X2572689Y663413D02*
X2575688D01*
X2574189Y661913D02*
Y664913D01*
X2572689Y587213D02*
X2575688D01*
X2574189Y585713D02*
Y588713D01*
X2572689Y511013D02*
X2575688D01*
X2574189Y509513D02*
Y512513D01*
X2572689Y434813D02*
X2575688D01*
X2574189Y433313D02*
Y436313D01*
X2572689Y358613D02*
X2575688D01*
X2574189Y357113D02*
Y360113D01*
X2572689Y282413D02*
X2575688D01*
X2574189Y280913D02*
Y283913D01*
X2572689Y206213D02*
X2575688D01*
X2574189Y204713D02*
Y207713D01*
X2572689Y130013D02*
X2575688D01*
X2574189Y128513D02*
Y131513D01*
X2572689Y53813D02*
X2575688D01*
X2574189Y52313D02*
Y55313D01*
X2515539Y2149313D02*
X2518539D01*
X2517039Y2147813D02*
Y2150813D01*
X2534589Y2111213D02*
X2537589D01*
X2536089Y2109713D02*
Y2112713D01*
X2534589Y1730213D02*
X2537589D01*
X2536089Y1728713D02*
Y1731713D01*
X2534589Y1577813D02*
X2537589D01*
X2536089Y1576313D02*
Y1579313D01*
X2515539Y1539713D02*
X2518539D01*
X2517039Y1538213D02*
Y1541213D01*
X2515539Y1463513D02*
X2518539D01*
X2517039Y1462013D02*
Y1465013D01*
X2534589Y1425413D02*
X2537589D01*
X2536089Y1423913D02*
Y1426913D01*
X2515539Y1387313D02*
X2518539D01*
X2517039Y1385813D02*
Y1388813D01*
X2534589Y1349213D02*
X2537589D01*
X2536089Y1347713D02*
Y1350713D01*
X2515539Y1311113D02*
X2518539D01*
X2517039Y1309613D02*
Y1312613D01*
X2534589Y1273013D02*
X2537589D01*
X2536089Y1271513D02*
Y1274513D01*
X2515539Y1234913D02*
X2518539D01*
X2517039Y1233413D02*
Y1236413D01*
X2515539Y1158713D02*
X2518539D01*
X2517039Y1157213D02*
Y1160213D01*
X2534589Y1120613D02*
X2537589D01*
X2536089Y1119113D02*
Y1122113D01*
X2515539Y1082513D02*
X2518539D01*
X2517039Y1081013D02*
Y1084013D01*
X2534589Y1044413D02*
X2537589D01*
X2536089Y1042913D02*
Y1045913D01*
X2515539Y1006313D02*
X2518539D01*
X2517039Y1004813D02*
Y1007813D01*
X2515539Y930113D02*
X2518539D01*
X2517039Y928613D02*
Y931613D01*
X2534589Y892013D02*
X2537589D01*
X2536089Y890513D02*
Y893513D01*
X2515539Y853913D02*
X2518539D01*
X2517039Y852413D02*
Y855413D01*
X2534589Y815813D02*
X2537589D01*
X2536089Y814313D02*
Y817313D01*
X2515539Y777713D02*
X2518539D01*
X2517039Y776213D02*
Y779213D01*
X2534589Y739613D02*
X2537589D01*
X2536089Y738113D02*
Y741113D01*
X2534589Y663413D02*
X2537589D01*
X2536089Y661913D02*
Y664913D01*
X2515539Y625313D02*
X2518539D01*
X2517039Y623813D02*
Y626813D01*
X2534589Y587213D02*
X2537589D01*
X2536089Y585713D02*
Y588713D01*
X2515539Y549113D02*
X2518539D01*
X2517039Y547613D02*
Y550613D01*
X2534589Y511013D02*
X2537589D01*
X2536089Y509513D02*
Y512513D01*
X2534589Y434813D02*
X2537589D01*
X2536089Y433313D02*
Y436313D01*
X2515539Y396713D02*
X2518539D01*
X2517039Y395213D02*
Y398213D01*
X2534589Y358613D02*
X2537589D01*
X2536089Y357113D02*
Y360113D01*
X2534589Y282413D02*
X2537589D01*
X2536089Y280913D02*
Y283913D01*
X2515539Y244313D02*
X2518539D01*
X2517039Y242813D02*
Y245813D01*
X2534589Y206213D02*
X2537589D01*
X2536089Y204713D02*
Y207713D01*
X2515539Y168113D02*
X2518539D01*
X2517039Y166613D02*
Y169613D01*
X2534589Y130013D02*
X2537589D01*
X2536089Y128513D02*
Y131513D01*
X2534589Y53813D02*
X2537589D01*
X2536089Y52313D02*
Y55313D01*
X2477439Y2149313D02*
X2480439D01*
X2478939Y2147813D02*
Y2150813D01*
X2496489Y2111213D02*
X2499489D01*
X2497989Y2109713D02*
Y2112713D01*
X2477439Y1844513D02*
X2480439D01*
X2478939Y1843013D02*
Y1846013D01*
X2496489Y1806413D02*
X2499489D01*
X2497989Y1804913D02*
Y1807913D01*
X2496489Y1577813D02*
X2499489D01*
X2497989Y1576313D02*
Y1579313D01*
X2496489Y1501613D02*
X2499489D01*
X2497989Y1500113D02*
Y1503113D01*
X2496489Y1425413D02*
X2499489D01*
X2497989Y1423913D02*
Y1426913D01*
X2496489Y1349213D02*
X2499489D01*
X2497989Y1347713D02*
Y1350713D01*
X2496489Y1273013D02*
X2499489D01*
X2497989Y1271513D02*
Y1274513D01*
X2496489Y1120613D02*
X2499489D01*
X2497989Y1119113D02*
Y1122113D01*
X2496489Y1044413D02*
X2499489D01*
X2497989Y1042913D02*
Y1045913D01*
X2496489Y892013D02*
X2499489D01*
X2497989Y890513D02*
Y893513D01*
X2496489Y815813D02*
X2499489D01*
X2497989Y814313D02*
Y817313D01*
X2496489Y739613D02*
X2499489D01*
X2497989Y738113D02*
Y741113D01*
X2496489Y663413D02*
X2499489D01*
X2497989Y661913D02*
Y664913D01*
X2496489Y587213D02*
X2499489D01*
X2497989Y585713D02*
Y588713D01*
X2496489Y511013D02*
X2499489D01*
X2497989Y509513D02*
Y512513D01*
X2496489Y434813D02*
X2499489D01*
X2497989Y433313D02*
Y436313D01*
X2496489Y358613D02*
X2499489D01*
X2497989Y357113D02*
Y360113D01*
X2496489Y282413D02*
X2499489D01*
X2497989Y280913D02*
Y283913D01*
X2496489Y206213D02*
X2499489D01*
X2497989Y204713D02*
Y207713D01*
X2477439Y168113D02*
X2480439D01*
X2478939Y166613D02*
Y169613D01*
X2496489Y130013D02*
X2499489D01*
X2497989Y128513D02*
Y131513D01*
X2496489Y53813D02*
X2499489D01*
X2497989Y52313D02*
Y55313D01*
X2458389Y2187413D02*
X2461389D01*
X2459889Y2185913D02*
Y2188913D01*
X2439339Y2149313D02*
X2442339D01*
X2440839Y2147813D02*
Y2150813D01*
X2458389Y2111213D02*
X2461389D01*
X2459889Y2109713D02*
Y2112713D01*
X2439339Y1844513D02*
X2442339D01*
X2440839Y1843013D02*
Y1846013D01*
X2458389Y1806413D02*
X2461389D01*
X2459889Y1804913D02*
Y1807913D01*
X2439339Y1311113D02*
X2442339D01*
X2440839Y1309613D02*
Y1312613D01*
X2439339Y1234913D02*
X2442339D01*
X2440839Y1233413D02*
Y1236413D01*
X2439339Y1158713D02*
X2442339D01*
X2440839Y1157213D02*
Y1160213D01*
X2439339Y1082513D02*
X2442339D01*
X2440839Y1081013D02*
Y1084013D01*
X2439339Y1006313D02*
X2442339D01*
X2440839Y1004813D02*
Y1007813D01*
X2439339Y930113D02*
X2442339D01*
X2440839Y928613D02*
Y931613D01*
X2439339Y853913D02*
X2442339D01*
X2440839Y852413D02*
Y855413D01*
X2439339Y777713D02*
X2442339D01*
X2440839Y776213D02*
Y779213D01*
X2458389Y663413D02*
X2461389D01*
X2459889Y661913D02*
Y664913D01*
X2439339Y625313D02*
X2442339D01*
X2440839Y623813D02*
Y626813D01*
X2458389Y587213D02*
X2461389D01*
X2459889Y585713D02*
Y588713D01*
X2439339Y549113D02*
X2442339D01*
X2440839Y547613D02*
Y550613D01*
X2458389Y511013D02*
X2461389D01*
X2459889Y509513D02*
Y512513D01*
X2458389Y434813D02*
X2461389D01*
X2459889Y433313D02*
Y436313D01*
X2439339Y396713D02*
X2442339D01*
X2440839Y395213D02*
Y398213D01*
X2458389Y358613D02*
X2461389D01*
X2459889Y357113D02*
Y360113D01*
X2458389Y282413D02*
X2461389D01*
X2459889Y280913D02*
Y283913D01*
X2439339Y244313D02*
X2442339D01*
X2440839Y242813D02*
Y245813D01*
X2458389Y206213D02*
X2461389D01*
X2459889Y204713D02*
Y207713D01*
X2439339Y168113D02*
X2442339D01*
X2440839Y166613D02*
Y169613D01*
X2458389Y130013D02*
X2461389D01*
X2459889Y128513D02*
Y131513D01*
X2458389Y53813D02*
X2461389D01*
X2459889Y52313D02*
Y55313D01*
X2420289Y2187413D02*
X2423289D01*
X2421789Y2185913D02*
Y2188913D01*
X2401239Y2149313D02*
X2404238D01*
X2402739Y2147813D02*
Y2150813D01*
X2420289Y2111213D02*
X2423289D01*
X2421789Y2109713D02*
Y2112713D01*
X2420289Y1806413D02*
X2423289D01*
X2421789Y1804913D02*
Y1807913D01*
X2401239Y1539713D02*
X2404238D01*
X2402739Y1538213D02*
Y1541213D01*
X2420289Y1501613D02*
X2423289D01*
X2421789Y1500113D02*
Y1503113D01*
X2401239Y1463513D02*
X2404238D01*
X2402739Y1462013D02*
Y1465013D01*
X2401239Y1387313D02*
X2404238D01*
X2402739Y1385813D02*
Y1388813D01*
X2401239Y1311113D02*
X2404238D01*
X2402739Y1309613D02*
Y1312613D01*
X2420289Y1273013D02*
X2423289D01*
X2421789Y1271513D02*
Y1274513D01*
X2401239Y1234913D02*
X2404238D01*
X2402739Y1233413D02*
Y1236413D01*
X2401239Y1158713D02*
X2404238D01*
X2402739Y1157213D02*
Y1160213D01*
X2401239Y1082513D02*
X2404238D01*
X2402739Y1081013D02*
Y1084013D01*
X2401239Y1006313D02*
X2404238D01*
X2402739Y1004813D02*
Y1007813D01*
X2401239Y930113D02*
X2404238D01*
X2402739Y928613D02*
Y931613D01*
X2401239Y853913D02*
X2404238D01*
X2402739Y852413D02*
Y855413D01*
X2401239Y777713D02*
X2404238D01*
X2402739Y776213D02*
Y779213D01*
X2420289Y739613D02*
X2423289D01*
X2421789Y738113D02*
Y741113D01*
X2420289Y663413D02*
X2423289D01*
X2421789Y661913D02*
Y664913D01*
X2401239Y625313D02*
X2404238D01*
X2402739Y623813D02*
Y626813D01*
X2401239Y549113D02*
X2404238D01*
X2402739Y547613D02*
Y550613D01*
X2420289Y511013D02*
X2423289D01*
X2421789Y509513D02*
Y512513D01*
X2420289Y434813D02*
X2423289D01*
X2421789Y433313D02*
Y436313D01*
X2401239Y396713D02*
X2404238D01*
X2402739Y395213D02*
Y398213D01*
X2420289Y282413D02*
X2423289D01*
X2421789Y280913D02*
Y283913D01*
X2420289Y206213D02*
X2423289D01*
X2421789Y204713D02*
Y207713D01*
X2401239Y168113D02*
X2404238D01*
X2402739Y166613D02*
Y169613D01*
X2420289Y53813D02*
X2423289D01*
X2421789Y52313D02*
Y55313D01*
X2363139Y2225513D02*
X2366138D01*
X2364639Y2224013D02*
Y2227013D01*
X2382189Y2187413D02*
X2385188D01*
X2383689Y2185913D02*
Y2188913D01*
X2363139Y2149313D02*
X2366138D01*
X2364639Y2147813D02*
Y2150813D01*
X2382189Y2111213D02*
X2385188D01*
X2383689Y2109713D02*
Y2112713D01*
X2363139Y1844513D02*
X2366138D01*
X2364639Y1843013D02*
Y1846013D01*
X2382189Y1806413D02*
X2385188D01*
X2383689Y1804913D02*
Y1807913D01*
X2382189Y1730213D02*
X2385188D01*
X2383689Y1728713D02*
Y1731713D01*
X2382189Y1577813D02*
X2385188D01*
X2383689Y1576313D02*
Y1579313D01*
X2363139Y1539713D02*
X2366138D01*
X2364639Y1538213D02*
Y1541213D01*
X2363139Y1463513D02*
X2366138D01*
X2364639Y1462013D02*
Y1465013D01*
X2363139Y1387313D02*
X2366138D01*
X2364639Y1385813D02*
Y1388813D01*
X2363139Y1311113D02*
X2366138D01*
X2364639Y1309613D02*
Y1312613D01*
X2363139Y1082513D02*
X2366138D01*
X2364639Y1081013D02*
Y1084013D01*
X2363139Y853913D02*
X2366138D01*
X2364639Y852413D02*
Y855413D01*
X2363139Y625313D02*
X2366138D01*
X2364639Y623813D02*
Y626813D01*
X2382189Y587213D02*
X2385188D01*
X2383689Y585713D02*
Y588713D01*
X2363139Y549113D02*
X2366138D01*
X2364639Y547613D02*
Y550613D01*
X2363139Y396713D02*
X2366138D01*
X2364639Y395213D02*
Y398213D01*
X2363139Y244313D02*
X2366138D01*
X2364639Y242813D02*
Y245813D01*
X2325039Y2149313D02*
X2328038D01*
X2326539Y2147813D02*
Y2150813D01*
X2344089Y2111213D02*
X2347088D01*
X2345589Y2109713D02*
Y2112713D01*
X2325039Y1844513D02*
X2328038D01*
X2326539Y1843013D02*
Y1846013D01*
X2344089Y1730213D02*
X2347088D01*
X2345589Y1728713D02*
Y1731713D01*
X2344089Y1577813D02*
X2347088D01*
X2345589Y1576313D02*
Y1579313D01*
X2325039Y1539713D02*
X2328038D01*
X2326539Y1538213D02*
Y1541213D01*
X2344089Y1501613D02*
X2347088D01*
X2345589Y1500113D02*
Y1503113D01*
X2325039Y1463513D02*
X2328038D01*
X2326539Y1462013D02*
Y1465013D01*
X2325039Y1387313D02*
X2328038D01*
X2326539Y1385813D02*
Y1388813D01*
X2325039Y1311113D02*
X2328038D01*
X2326539Y1309613D02*
Y1312613D01*
X2325039Y1234913D02*
X2328038D01*
X2326539Y1233413D02*
Y1236413D01*
X2325039Y1158713D02*
X2328038D01*
X2326539Y1157213D02*
Y1160213D01*
X2325039Y1082513D02*
X2328038D01*
X2326539Y1081013D02*
Y1084013D01*
X2325039Y1006313D02*
X2328038D01*
X2326539Y1004813D02*
Y1007813D01*
X2325039Y930113D02*
X2328038D01*
X2326539Y928613D02*
Y931613D01*
X2325039Y853913D02*
X2328038D01*
X2326539Y852413D02*
Y855413D01*
X2325039Y777713D02*
X2328038D01*
X2326539Y776213D02*
Y779213D01*
X2325039Y625313D02*
X2328038D01*
X2326539Y623813D02*
Y626813D01*
X2325039Y549113D02*
X2328038D01*
X2326539Y547613D02*
Y550613D01*
X2325039Y396713D02*
X2328038D01*
X2326539Y395213D02*
Y398213D01*
X2325039Y244313D02*
X2328038D01*
X2326539Y242813D02*
Y245813D01*
X2325039Y168113D02*
X2328038D01*
X2326539Y166613D02*
Y169613D01*
X2305989Y2416013D02*
X2308988D01*
X2307489Y2414513D02*
Y2417513D01*
X2286939Y2301713D02*
X2289939D01*
X2288439Y2300213D02*
Y2303213D01*
X2286939Y2149313D02*
X2289939D01*
X2288439Y2147813D02*
Y2150813D01*
X2305989Y2111213D02*
X2308988D01*
X2307489Y2109713D02*
Y2112713D01*
X2286939Y1844513D02*
X2289939D01*
X2288439Y1843013D02*
Y1846013D01*
X2305989Y1730213D02*
X2308988D01*
X2307489Y1728713D02*
Y1731713D01*
X2305989Y1577813D02*
X2308988D01*
X2307489Y1576313D02*
Y1579313D01*
X2286939Y1539713D02*
X2289939D01*
X2288439Y1538213D02*
Y1541213D01*
X2286939Y1463513D02*
X2289939D01*
X2288439Y1462013D02*
Y1465013D01*
X2305989Y1425413D02*
X2308988D01*
X2307489Y1423913D02*
Y1426913D01*
X2286939Y1387313D02*
X2289939D01*
X2288439Y1385813D02*
Y1388813D01*
X2305989Y1349213D02*
X2308988D01*
X2307489Y1347713D02*
Y1350713D01*
X2286939Y1311113D02*
X2289939D01*
X2288439Y1309613D02*
Y1312613D01*
X2305989Y1273013D02*
X2308988D01*
X2307489Y1271513D02*
Y1274513D01*
X2286939Y1234913D02*
X2289939D01*
X2288439Y1233413D02*
Y1236413D01*
X2286939Y1158713D02*
X2289939D01*
X2288439Y1157213D02*
Y1160213D01*
X2305989Y1120613D02*
X2308988D01*
X2307489Y1119113D02*
Y1122113D01*
X2286939Y1082513D02*
X2289939D01*
X2288439Y1081013D02*
Y1084013D01*
X2305989Y1044413D02*
X2308988D01*
X2307489Y1042913D02*
Y1045913D01*
X2286939Y1006313D02*
X2289939D01*
X2288439Y1004813D02*
Y1007813D01*
X2286939Y930113D02*
X2289939D01*
X2288439Y928613D02*
Y931613D01*
X2305989Y892013D02*
X2308988D01*
X2307489Y890513D02*
Y893513D01*
X2286939Y853913D02*
X2289939D01*
X2288439Y852413D02*
Y855413D01*
X2305989Y815813D02*
X2308988D01*
X2307489Y814313D02*
Y817313D01*
X2286939Y777713D02*
X2289939D01*
X2288439Y776213D02*
Y779213D01*
X2305989Y739613D02*
X2308988D01*
X2307489Y738113D02*
Y741113D01*
X2305989Y663413D02*
X2308988D01*
X2307489Y661913D02*
Y664913D01*
X2286939Y625313D02*
X2289939D01*
X2288439Y623813D02*
Y626813D01*
X2305989Y587213D02*
X2308988D01*
X2307489Y585713D02*
Y588713D01*
X2286939Y549113D02*
X2289939D01*
X2288439Y547613D02*
Y550613D01*
X2305989Y511013D02*
X2308988D01*
X2307489Y509513D02*
Y512513D01*
X2305989Y434813D02*
X2308988D01*
X2307489Y433313D02*
Y436313D01*
X2286939Y396713D02*
X2289939D01*
X2288439Y395213D02*
Y398213D01*
X2305989Y358613D02*
X2308988D01*
X2307489Y357113D02*
Y360113D01*
X2305989Y282413D02*
X2308988D01*
X2307489Y280913D02*
Y283913D01*
X2286939Y244313D02*
X2289939D01*
X2288439Y242813D02*
Y245813D01*
X2305989Y206213D02*
X2308988D01*
X2307489Y204713D02*
Y207713D01*
X2286939Y168113D02*
X2289939D01*
X2288439Y166613D02*
Y169613D01*
X2305989Y130013D02*
X2308988D01*
X2307489Y128513D02*
Y131513D01*
X2305989Y53813D02*
X2308988D01*
X2307489Y52313D02*
Y55313D01*
X2267889Y2339813D02*
X2270889D01*
X2269389Y2338313D02*
Y2341313D01*
X2267889Y2111213D02*
X2270889D01*
X2269389Y2109713D02*
Y2112713D01*
X2248839Y1844513D02*
X2251839D01*
X2250339Y1843013D02*
Y1846013D01*
X2248839Y396713D02*
X2251839D01*
X2250339Y395213D02*
Y398213D01*
X2267889Y206213D02*
X2270889D01*
X2269389Y204713D02*
Y207713D01*
X2248839Y168113D02*
X2251839D01*
X2250339Y166613D02*
Y169613D01*
X2267889Y130013D02*
X2270889D01*
X2269389Y128513D02*
Y131513D01*
X2267889Y53813D02*
X2270889D01*
X2269389Y52313D02*
Y55313D01*
X2229789Y2416013D02*
X2232789D01*
X2231289Y2414513D02*
Y2417513D01*
X2229789Y2187413D02*
X2232789D01*
X2231289Y2185913D02*
Y2188913D01*
X2229789Y2111213D02*
X2232789D01*
X2231289Y2109713D02*
Y2112713D01*
X2210739Y1844513D02*
X2213739D01*
X2212239Y1843013D02*
Y1846013D01*
X2210739Y1539713D02*
X2213739D01*
X2212239Y1538213D02*
Y1541213D01*
X2210739Y1387313D02*
X2213739D01*
X2212239Y1385813D02*
Y1388813D01*
X2210739Y1311113D02*
X2213739D01*
X2212239Y1309613D02*
Y1312613D01*
X2210739Y1158713D02*
X2213739D01*
X2212239Y1157213D02*
Y1160213D01*
X2210739Y1082513D02*
X2213739D01*
X2212239Y1081013D02*
Y1084013D01*
X2229789Y1044413D02*
X2232789D01*
X2231289Y1042913D02*
Y1045913D01*
X2210739Y1006313D02*
X2213739D01*
X2212239Y1004813D02*
Y1007813D01*
X2210739Y930113D02*
X2213739D01*
X2212239Y928613D02*
Y931613D01*
X2210739Y853913D02*
X2213739D01*
X2212239Y852413D02*
Y855413D01*
X2229789Y815813D02*
X2232789D01*
X2231289Y814313D02*
Y817313D01*
X2210739Y777713D02*
X2213739D01*
X2212239Y776213D02*
Y779213D01*
X2229789Y739613D02*
X2232789D01*
X2231289Y738113D02*
Y741113D01*
X2229789Y663413D02*
X2232789D01*
X2231289Y661913D02*
Y664913D01*
X2210739Y625313D02*
X2213739D01*
X2212239Y623813D02*
Y626813D01*
X2229789Y587213D02*
X2232789D01*
X2231289Y585713D02*
Y588713D01*
X2210739Y549113D02*
X2213739D01*
X2212239Y547613D02*
Y550613D01*
X2229789Y511013D02*
X2232789D01*
X2231289Y509513D02*
Y512513D01*
X2229789Y434813D02*
X2232789D01*
X2231289Y433313D02*
Y436313D01*
X2210739Y396713D02*
X2213739D01*
X2212239Y395213D02*
Y398213D01*
X2229789Y358613D02*
X2232789D01*
X2231289Y357113D02*
Y360113D01*
X2229789Y282413D02*
X2232789D01*
X2231289Y280913D02*
Y283913D01*
X2229789Y206213D02*
X2232789D01*
X2231289Y204713D02*
Y207713D01*
X2210739Y168113D02*
X2213739D01*
X2212239Y166613D02*
Y169613D01*
X2229789Y130013D02*
X2232789D01*
X2231289Y128513D02*
Y131513D01*
X2229789Y53813D02*
X2232789D01*
X2231289Y52313D02*
Y55313D01*
X2191689Y2416013D02*
X2194689D01*
X2193189Y2414513D02*
Y2417513D01*
X2191689Y2263613D02*
X2194689D01*
X2193189Y2262113D02*
Y2265113D01*
X2172639Y2225513D02*
X2175638D01*
X2174139Y2224013D02*
Y2227013D01*
X2172639Y2149313D02*
X2175638D01*
X2174139Y2147813D02*
Y2150813D01*
X2191689Y2111213D02*
X2194689D01*
X2193189Y2109713D02*
Y2112713D01*
X2172639Y1844513D02*
X2175638D01*
X2174139Y1843013D02*
Y1846013D01*
X2172639Y1539713D02*
X2175638D01*
X2174139Y1538213D02*
Y1541213D01*
X2191689Y1501613D02*
X2194689D01*
X2193189Y1500113D02*
Y1503113D01*
X2172639Y1463513D02*
X2175638D01*
X2174139Y1462013D02*
Y1465013D01*
X2191689Y1425413D02*
X2194689D01*
X2193189Y1423913D02*
Y1426913D01*
X2172639Y1387313D02*
X2175638D01*
X2174139Y1385813D02*
Y1388813D01*
X2172639Y1311113D02*
X2175638D01*
X2174139Y1309613D02*
Y1312613D01*
X2191689Y1273013D02*
X2194689D01*
X2193189Y1271513D02*
Y1274513D01*
X2172639Y1158713D02*
X2175638D01*
X2174139Y1157213D02*
Y1160213D01*
X2172639Y1082513D02*
X2175638D01*
X2174139Y1081013D02*
Y1084013D01*
X2172639Y930113D02*
X2175638D01*
X2174139Y928613D02*
Y931613D01*
X2172639Y853913D02*
X2175638D01*
X2174139Y852413D02*
Y855413D01*
X2191689Y739613D02*
X2194689D01*
X2193189Y738113D02*
Y741113D01*
X2191689Y663413D02*
X2194689D01*
X2193189Y661913D02*
Y664913D01*
X2172639Y625313D02*
X2175638D01*
X2174139Y623813D02*
Y626813D01*
X2172639Y549113D02*
X2175638D01*
X2174139Y547613D02*
Y550613D01*
X2191689Y511013D02*
X2194689D01*
X2193189Y509513D02*
Y512513D01*
X2191689Y434813D02*
X2194689D01*
X2193189Y433313D02*
Y436313D01*
X2172639Y396713D02*
X2175638D01*
X2174139Y395213D02*
Y398213D01*
X2191689Y282413D02*
X2194689D01*
X2193189Y280913D02*
Y283913D01*
X2191689Y206213D02*
X2194689D01*
X2193189Y204713D02*
Y207713D01*
X2191689Y53813D02*
X2194689D01*
X2193189Y52313D02*
Y55313D01*
X2153589Y2339813D02*
X2156588D01*
X2155089Y2338313D02*
Y2341313D01*
X2134539Y2301713D02*
X2137538D01*
X2136039Y2300213D02*
Y2303213D01*
X2153589Y2263613D02*
X2156588D01*
X2155089Y2262113D02*
Y2265113D01*
X2134539Y2225513D02*
X2137538D01*
X2136039Y2224013D02*
Y2227013D01*
X2153589Y2187413D02*
X2156588D01*
X2155089Y2185913D02*
Y2188913D01*
X2134539Y2073113D02*
X2137538D01*
X2136039Y2071613D02*
Y2074613D01*
X2134539Y1996913D02*
X2137538D01*
X2136039Y1995413D02*
Y1998413D01*
X2134539Y1920713D02*
X2137538D01*
X2136039Y1919213D02*
Y1922213D01*
X2134539Y1844513D02*
X2137538D01*
X2136039Y1843013D02*
Y1846013D01*
X2153589Y1730213D02*
X2156588D01*
X2155089Y1728713D02*
Y1731713D01*
X2153589Y1577813D02*
X2156588D01*
X2155089Y1576313D02*
Y1579313D01*
X2134539Y1539713D02*
X2137538D01*
X2136039Y1538213D02*
Y1541213D01*
X2134539Y1463513D02*
X2137538D01*
X2136039Y1462013D02*
Y1465013D01*
X2134539Y1387313D02*
X2137538D01*
X2136039Y1385813D02*
Y1388813D01*
X2134539Y1311113D02*
X2137538D01*
X2136039Y1309613D02*
Y1312613D01*
X2134539Y1234913D02*
X2137538D01*
X2136039Y1233413D02*
Y1236413D01*
X2134539Y1158713D02*
X2137538D01*
X2136039Y1157213D02*
Y1160213D01*
X2134539Y1082513D02*
X2137538D01*
X2136039Y1081013D02*
Y1084013D01*
X2134539Y1006313D02*
X2137538D01*
X2136039Y1004813D02*
Y1007813D01*
X2134539Y853913D02*
X2137538D01*
X2136039Y852413D02*
Y855413D01*
X2134539Y777713D02*
X2137538D01*
X2136039Y776213D02*
Y779213D01*
X2134539Y625313D02*
X2137538D01*
X2136039Y623813D02*
Y626813D01*
X2153589Y587213D02*
X2156588D01*
X2155089Y585713D02*
Y588713D01*
X2134539Y549113D02*
X2137538D01*
X2136039Y547613D02*
Y550613D01*
X2134539Y396713D02*
X2137538D01*
X2136039Y395213D02*
Y398213D01*
X2134539Y244313D02*
X2137538D01*
X2136039Y242813D02*
Y245813D01*
X2134539Y168113D02*
X2137538D01*
X2136039Y166613D02*
Y169613D01*
X2115489Y2416013D02*
X2118488D01*
X2116989Y2414513D02*
Y2417513D01*
X2096439Y2225513D02*
X2099438D01*
X2097939Y2224013D02*
Y2227013D01*
X2096439Y2149313D02*
X2099438D01*
X2097939Y2147813D02*
Y2150813D01*
X2096439Y2073113D02*
X2099438D01*
X2097939Y2071613D02*
Y2074613D01*
X2096439Y1996913D02*
X2099438D01*
X2097939Y1995413D02*
Y1998413D01*
X2096439Y1920713D02*
X2099438D01*
X2097939Y1919213D02*
Y1922213D01*
X2115489Y1730213D02*
X2118488D01*
X2116989Y1728713D02*
Y1731713D01*
X2115489Y1577813D02*
X2118488D01*
X2116989Y1576313D02*
Y1579313D01*
X2096439Y1539713D02*
X2099438D01*
X2097939Y1538213D02*
Y1541213D01*
X2115489Y1501613D02*
X2118488D01*
X2116989Y1500113D02*
Y1503113D01*
X2096439Y1463513D02*
X2099438D01*
X2097939Y1462013D02*
Y1465013D01*
X2096439Y1387313D02*
X2099438D01*
X2097939Y1385813D02*
Y1388813D01*
X2096439Y1311113D02*
X2099438D01*
X2097939Y1309613D02*
Y1312613D01*
X2096439Y1234913D02*
X2099438D01*
X2097939Y1233413D02*
Y1236413D01*
X2096439Y1158713D02*
X2099438D01*
X2097939Y1157213D02*
Y1160213D01*
X2096439Y1082513D02*
X2099438D01*
X2097939Y1081013D02*
Y1084013D01*
X2096439Y1006313D02*
X2099438D01*
X2097939Y1004813D02*
Y1007813D01*
X2096439Y930113D02*
X2099438D01*
X2097939Y928613D02*
Y931613D01*
X2096439Y853913D02*
X2099438D01*
X2097939Y852413D02*
Y855413D01*
X2096439Y777713D02*
X2099438D01*
X2097939Y776213D02*
Y779213D01*
X2096439Y625313D02*
X2099438D01*
X2097939Y623813D02*
Y626813D01*
X2096439Y549113D02*
X2099438D01*
X2097939Y547613D02*
Y550613D01*
X2096439Y396713D02*
X2099438D01*
X2097939Y395213D02*
Y398213D01*
X2096439Y244313D02*
X2099438D01*
X2097939Y242813D02*
Y245813D01*
X2096439Y168113D02*
X2099438D01*
X2097939Y166613D02*
Y169613D01*
X2077389Y2416013D02*
X2080388D01*
X2078889Y2414513D02*
Y2417513D01*
X2058339Y2377913D02*
X2061339D01*
X2059839Y2376413D02*
Y2379413D01*
X2077389Y2263613D02*
X2080388D01*
X2078889Y2262113D02*
Y2265113D01*
X2077389Y2187413D02*
X2080388D01*
X2078889Y2185913D02*
Y2188913D01*
X2058339Y2149313D02*
X2061339D01*
X2059839Y2147813D02*
Y2150813D01*
X2077389Y2111213D02*
X2080388D01*
X2078889Y2109713D02*
Y2112713D01*
X2058339Y2073113D02*
X2061339D01*
X2059839Y2071613D02*
Y2074613D01*
X2077389Y2035013D02*
X2080388D01*
X2078889Y2033513D02*
Y2036513D01*
X2058339Y1996913D02*
X2061339D01*
X2059839Y1995413D02*
Y1998413D01*
X2077389Y1958813D02*
X2080388D01*
X2078889Y1957313D02*
Y1960313D01*
X2058339Y1920713D02*
X2061339D01*
X2059839Y1919213D02*
Y1922213D01*
X2077389Y1882613D02*
X2080388D01*
X2078889Y1881113D02*
Y1884113D01*
X2077389Y1730213D02*
X2080388D01*
X2078889Y1728713D02*
Y1731713D01*
X2077389Y1577813D02*
X2080388D01*
X2078889Y1576313D02*
Y1579313D01*
X2077389Y1501613D02*
X2080388D01*
X2078889Y1500113D02*
Y1503113D01*
X2058339Y1463513D02*
X2061339D01*
X2059839Y1462013D02*
Y1465013D01*
X2077389Y1425413D02*
X2080388D01*
X2078889Y1423913D02*
Y1426913D01*
X2058339Y1387313D02*
X2061339D01*
X2059839Y1385813D02*
Y1388813D01*
X2077389Y1349213D02*
X2080388D01*
X2078889Y1347713D02*
Y1350713D01*
X2058339Y1311113D02*
X2061339D01*
X2059839Y1309613D02*
Y1312613D01*
X2077389Y1273013D02*
X2080388D01*
X2078889Y1271513D02*
Y1274513D01*
X2058339Y1234913D02*
X2061339D01*
X2059839Y1233413D02*
Y1236413D01*
X2058339Y1158713D02*
X2061339D01*
X2059839Y1157213D02*
Y1160213D01*
X2077389Y1120613D02*
X2080388D01*
X2078889Y1119113D02*
Y1122113D01*
X2058339Y1082513D02*
X2061339D01*
X2059839Y1081013D02*
Y1084013D01*
X2077389Y1044413D02*
X2080388D01*
X2078889Y1042913D02*
Y1045913D01*
X2058339Y1006313D02*
X2061339D01*
X2059839Y1004813D02*
Y1007813D01*
X2077389Y892013D02*
X2080388D01*
X2078889Y890513D02*
Y893513D01*
X2058339Y853913D02*
X2061339D01*
X2059839Y852413D02*
Y855413D01*
X2077389Y815813D02*
X2080388D01*
X2078889Y814313D02*
Y817313D01*
X2058339Y777713D02*
X2061339D01*
X2059839Y776213D02*
Y779213D01*
X2077389Y739613D02*
X2080388D01*
X2078889Y738113D02*
Y741113D01*
X2077389Y663413D02*
X2080388D01*
X2078889Y661913D02*
Y664913D01*
X2058339Y625313D02*
X2061339D01*
X2059839Y623813D02*
Y626813D01*
X2077389Y587213D02*
X2080388D01*
X2078889Y585713D02*
Y588713D01*
X2058339Y549113D02*
X2061339D01*
X2059839Y547613D02*
Y550613D01*
X2077389Y511013D02*
X2080388D01*
X2078889Y509513D02*
Y512513D01*
X2077389Y434813D02*
X2080388D01*
X2078889Y433313D02*
Y436313D01*
X2058339Y396713D02*
X2061339D01*
X2059839Y395213D02*
Y398213D01*
X2077389Y358613D02*
X2080388D01*
X2078889Y357113D02*
Y360113D01*
X2077389Y282413D02*
X2080388D01*
X2078889Y280913D02*
Y283913D01*
X2058339Y244313D02*
X2061339D01*
X2059839Y242813D02*
Y245813D01*
X2077389Y206213D02*
X2080388D01*
X2078889Y204713D02*
Y207713D01*
X2058339Y168113D02*
X2061339D01*
X2059839Y166613D02*
Y169613D01*
X2077389Y130013D02*
X2080388D01*
X2078889Y128513D02*
Y131513D01*
X2077389Y53813D02*
X2080388D01*
X2078889Y52313D02*
Y55313D01*
X2039289Y2416013D02*
X2042289D01*
X2040789Y2414513D02*
Y2417513D01*
X2020239Y2377913D02*
X2023239D01*
X2021739Y2376413D02*
Y2379413D01*
X2039289Y2263613D02*
X2042289D01*
X2040789Y2262113D02*
Y2265113D01*
X2020239Y2225513D02*
X2023239D01*
X2021739Y2224013D02*
Y2227013D01*
X2039289Y2187413D02*
X2042289D01*
X2040789Y2185913D02*
Y2188913D01*
X2020239Y2149313D02*
X2023239D01*
X2021739Y2147813D02*
Y2150813D01*
X2039289Y2111213D02*
X2042289D01*
X2040789Y2109713D02*
Y2112713D01*
X2020239Y2073113D02*
X2023239D01*
X2021739Y2071613D02*
Y2074613D01*
X2039289Y2035013D02*
X2042289D01*
X2040789Y2033513D02*
Y2036513D01*
X2020239Y1996913D02*
X2023239D01*
X2021739Y1995413D02*
Y1998413D01*
X2039289Y1958813D02*
X2042289D01*
X2040789Y1957313D02*
Y1960313D01*
X2020239Y1920713D02*
X2023239D01*
X2021739Y1919213D02*
Y1922213D01*
X2039289Y1882613D02*
X2042289D01*
X2040789Y1881113D02*
Y1884113D01*
X2039289Y1806413D02*
X2042289D01*
X2040789Y1804913D02*
Y1807913D01*
X2039289Y1044413D02*
X2042289D01*
X2040789Y1042913D02*
Y1045913D01*
X2039289Y892013D02*
X2042289D01*
X2040789Y890513D02*
Y893513D01*
X2039289Y815813D02*
X2042289D01*
X2040789Y814313D02*
Y817313D01*
X2039289Y739613D02*
X2042289D01*
X2040789Y738113D02*
Y741113D01*
X2039289Y663413D02*
X2042289D01*
X2040789Y661913D02*
Y664913D01*
X2039289Y587213D02*
X2042289D01*
X2040789Y585713D02*
Y588713D01*
X2039289Y511013D02*
X2042289D01*
X2040789Y509513D02*
Y512513D01*
X2039289Y434813D02*
X2042289D01*
X2040789Y433313D02*
Y436313D01*
X2039289Y358613D02*
X2042289D01*
X2040789Y357113D02*
Y360113D01*
X2039289Y282413D02*
X2042289D01*
X2040789Y280913D02*
Y283913D01*
X2039289Y206213D02*
X2042289D01*
X2040789Y204713D02*
Y207713D01*
X2020239Y168113D02*
X2023239D01*
X2021739Y166613D02*
Y169613D01*
X2039289Y130013D02*
X2042289D01*
X2040789Y128513D02*
Y131513D01*
X2001189Y2416013D02*
X2004189D01*
X2002689Y2414513D02*
Y2417513D01*
X2001189Y2263613D02*
X2004189D01*
X2002689Y2262113D02*
Y2265113D01*
X1982139Y2225513D02*
X1985139D01*
X1983639Y2224013D02*
Y2227013D01*
X2001189Y2187413D02*
X2004189D01*
X2002689Y2185913D02*
Y2188913D01*
X1982139Y2149313D02*
X1985139D01*
X1983639Y2147813D02*
Y2150813D01*
X2001189Y2111213D02*
X2004189D01*
X2002689Y2109713D02*
Y2112713D01*
X1982139Y2073113D02*
X1985139D01*
X1983639Y2071613D02*
Y2074613D01*
X2001189Y2035013D02*
X2004189D01*
X2002689Y2033513D02*
Y2036513D01*
X1982139Y1996913D02*
X1985139D01*
X1983639Y1995413D02*
Y1998413D01*
X2001189Y1958813D02*
X2004189D01*
X2002689Y1957313D02*
Y1960313D01*
X1982139Y1920713D02*
X1985139D01*
X1983639Y1919213D02*
Y1922213D01*
X2001189Y1806413D02*
X2004189D01*
X2002689Y1804913D02*
Y1807913D01*
X1982139Y1539713D02*
X1985139D01*
X1983639Y1538213D02*
Y1541213D01*
X1982139Y1387313D02*
X1985139D01*
X1983639Y1385813D02*
Y1388813D01*
X1982139Y1311113D02*
X1985139D01*
X1983639Y1309613D02*
Y1312613D01*
X2001189Y1273013D02*
X2004189D01*
X2002689Y1271513D02*
Y1274513D01*
X1982139Y1158713D02*
X1985139D01*
X1983639Y1157213D02*
Y1160213D01*
X1982139Y1082513D02*
X1985139D01*
X1983639Y1081013D02*
Y1084013D01*
X1982139Y930113D02*
X1985139D01*
X1983639Y928613D02*
Y931613D01*
X1982139Y853913D02*
X1985139D01*
X1983639Y852413D02*
Y855413D01*
X2001189Y663413D02*
X2004189D01*
X2002689Y661913D02*
Y664913D01*
X1982139Y625313D02*
X1985139D01*
X1983639Y623813D02*
Y626813D01*
X2001189Y587213D02*
X2004189D01*
X2002689Y585713D02*
Y588713D01*
X2001189Y511013D02*
X2004189D01*
X2002689Y509513D02*
Y512513D01*
X2001189Y434813D02*
X2004189D01*
X2002689Y433313D02*
Y436313D01*
X1982139Y396713D02*
X1985139D01*
X1983639Y395213D02*
Y398213D01*
X2001189Y358613D02*
X2004189D01*
X2002689Y357113D02*
Y360113D01*
X2001189Y282413D02*
X2004189D01*
X2002689Y280913D02*
Y283913D01*
X2001189Y206213D02*
X2004189D01*
X2002689Y204713D02*
Y207713D01*
X2001189Y130013D02*
X2004189D01*
X2002689Y128513D02*
Y131513D01*
X2001189Y53813D02*
X2004189D01*
X2002689Y52313D02*
Y55313D01*
X1963089Y2416013D02*
X1966089D01*
X1964589Y2414513D02*
Y2417513D01*
X1944039Y2377913D02*
X1947039D01*
X1945539Y2376413D02*
Y2379413D01*
X1944039Y2225513D02*
X1947039D01*
X1945539Y2224013D02*
Y2227013D01*
X1944039Y2149313D02*
X1947039D01*
X1945539Y2147813D02*
Y2150813D01*
X1963089Y2111213D02*
X1966089D01*
X1964589Y2109713D02*
Y2112713D01*
X1944039Y2073113D02*
X1947039D01*
X1945539Y2071613D02*
Y2074613D01*
X1963089Y2035013D02*
X1966089D01*
X1964589Y2033513D02*
Y2036513D01*
X1944039Y1996913D02*
X1947039D01*
X1945539Y1995413D02*
Y1998413D01*
X1963089Y1958813D02*
X1966089D01*
X1964589Y1957313D02*
Y1960313D01*
X1944039Y1920713D02*
X1947039D01*
X1945539Y1919213D02*
Y1922213D01*
X1963089Y1806413D02*
X1966089D01*
X1964589Y1804913D02*
Y1807913D01*
X1963089Y1730213D02*
X1966089D01*
X1964589Y1728713D02*
Y1731713D01*
X1963089Y1501613D02*
X1966089D01*
X1964589Y1500113D02*
Y1503113D01*
X1944039Y1463513D02*
X1947039D01*
X1945539Y1462013D02*
Y1465013D01*
X1963089Y1425413D02*
X1966089D01*
X1964589Y1423913D02*
Y1426913D01*
X1963089Y1273013D02*
X1966089D01*
X1964589Y1271513D02*
Y1274513D01*
X1963089Y1044413D02*
X1966089D01*
X1964589Y1042913D02*
Y1045913D01*
X1963089Y815813D02*
X1966089D01*
X1964589Y814313D02*
Y817313D01*
X1963089Y739613D02*
X1966089D01*
X1964589Y738113D02*
Y741113D01*
X1963089Y663413D02*
X1966089D01*
X1964589Y661913D02*
Y664913D01*
X1963089Y587213D02*
X1966089D01*
X1964589Y585713D02*
Y588713D01*
X1963089Y511013D02*
X1966089D01*
X1964589Y509513D02*
Y512513D01*
X1963089Y434813D02*
X1966089D01*
X1964589Y433313D02*
Y436313D01*
X1963089Y358613D02*
X1966089D01*
X1964589Y357113D02*
Y360113D01*
X1963089Y282413D02*
X1966089D01*
X1964589Y280913D02*
Y283913D01*
X1963089Y206213D02*
X1966089D01*
X1964589Y204713D02*
Y207713D01*
X1963089Y130013D02*
X1966089D01*
X1964589Y128513D02*
Y131513D01*
X1963089Y53813D02*
X1966089D01*
X1964589Y52313D02*
Y55313D01*
X1924989Y2416013D02*
X1927988D01*
X1926489Y2414513D02*
Y2417513D01*
X1905939Y2377913D02*
X1908938D01*
X1907439Y2376413D02*
Y2379413D01*
X1905939Y2149313D02*
X1908938D01*
X1907439Y2147813D02*
Y2150813D01*
X1924989Y2111213D02*
X1927988D01*
X1926489Y2109713D02*
Y2112713D01*
X1905939Y2073113D02*
X1908938D01*
X1907439Y2071613D02*
Y2074613D01*
X1924989Y2035013D02*
X1927988D01*
X1926489Y2033513D02*
Y2036513D01*
X1905939Y1996913D02*
X1908938D01*
X1907439Y1995413D02*
Y1998413D01*
X1924989Y1958813D02*
X1927988D01*
X1926489Y1957313D02*
Y1960313D01*
X1905939Y1920713D02*
X1908938D01*
X1907439Y1919213D02*
Y1922213D01*
X1924989Y1806413D02*
X1927988D01*
X1926489Y1804913D02*
Y1807913D01*
X1924989Y1730213D02*
X1927988D01*
X1926489Y1728713D02*
Y1731713D01*
X1924989Y1577813D02*
X1927988D01*
X1926489Y1576313D02*
Y1579313D01*
X1905939Y1539713D02*
X1908938D01*
X1907439Y1538213D02*
Y1541213D01*
X1924989Y1501613D02*
X1927988D01*
X1926489Y1500113D02*
Y1503113D01*
X1924989Y1425413D02*
X1927988D01*
X1926489Y1423913D02*
Y1426913D01*
X1905939Y1387313D02*
X1908938D01*
X1907439Y1385813D02*
Y1388813D01*
X1905939Y1311113D02*
X1908938D01*
X1907439Y1309613D02*
Y1312613D01*
X1905939Y1158713D02*
X1908938D01*
X1907439Y1157213D02*
Y1160213D01*
X1924989Y1120613D02*
X1927988D01*
X1926489Y1119113D02*
Y1122113D01*
X1905939Y1082513D02*
X1908938D01*
X1907439Y1081013D02*
Y1084013D01*
X1905939Y930113D02*
X1908938D01*
X1907439Y928613D02*
Y931613D01*
X1924989Y892013D02*
X1927988D01*
X1926489Y890513D02*
Y893513D01*
X1905939Y853913D02*
X1908938D01*
X1907439Y852413D02*
Y855413D01*
X1905939Y777713D02*
X1908938D01*
X1907439Y776213D02*
Y779213D01*
X1924989Y739613D02*
X1927988D01*
X1926489Y738113D02*
Y741113D01*
X1924989Y663413D02*
X1927988D01*
X1926489Y661913D02*
Y664913D01*
X1905939Y625313D02*
X1908938D01*
X1907439Y623813D02*
Y626813D01*
X1924989Y587213D02*
X1927988D01*
X1926489Y585713D02*
Y588713D01*
X1905939Y549113D02*
X1908938D01*
X1907439Y547613D02*
Y550613D01*
X1924989Y511013D02*
X1927988D01*
X1926489Y509513D02*
Y512513D01*
X1924989Y434813D02*
X1927988D01*
X1926489Y433313D02*
Y436313D01*
X1905939Y396713D02*
X1908938D01*
X1907439Y395213D02*
Y398213D01*
X1924989Y358613D02*
X1927988D01*
X1926489Y357113D02*
Y360113D01*
X1905939Y244313D02*
X1908938D01*
X1907439Y242813D02*
Y245813D01*
X1924989Y206213D02*
X1927988D01*
X1926489Y204713D02*
Y207713D01*
X1905939Y168113D02*
X1908938D01*
X1907439Y166613D02*
Y169613D01*
X1886889Y2416013D02*
X1889888D01*
X1888389Y2414513D02*
Y2417513D01*
X1867839Y2377913D02*
X1870838D01*
X1869339Y2376413D02*
Y2379413D01*
X1867839Y2149313D02*
X1870838D01*
X1869339Y2147813D02*
Y2150813D01*
X1886889Y2111213D02*
X1889888D01*
X1888389Y2109713D02*
Y2112713D01*
X1886889Y2035013D02*
X1889888D01*
X1888389Y2033513D02*
Y2036513D01*
X1867839Y1996913D02*
X1870838D01*
X1869339Y1995413D02*
Y1998413D01*
X1886889Y1958813D02*
X1889888D01*
X1888389Y1957313D02*
Y1960313D01*
X1886889Y1806413D02*
X1889888D01*
X1888389Y1804913D02*
Y1807913D01*
X1886889Y1730213D02*
X1889888D01*
X1888389Y1728713D02*
Y1731713D01*
X1886889Y1577813D02*
X1889888D01*
X1888389Y1576313D02*
Y1579313D01*
X1867839Y1539713D02*
X1870838D01*
X1869339Y1538213D02*
Y1541213D01*
X1886889Y1501613D02*
X1889888D01*
X1888389Y1500113D02*
Y1503113D01*
X1867839Y1463513D02*
X1870838D01*
X1869339Y1462013D02*
Y1465013D01*
X1886889Y1425413D02*
X1889888D01*
X1888389Y1423913D02*
Y1426913D01*
X1867839Y1387313D02*
X1870838D01*
X1869339Y1385813D02*
Y1388813D01*
X1886889Y1349213D02*
X1889888D01*
X1888389Y1347713D02*
Y1350713D01*
X1867839Y1311113D02*
X1870838D01*
X1869339Y1309613D02*
Y1312613D01*
X1886889Y1273013D02*
X1889888D01*
X1888389Y1271513D02*
Y1274513D01*
X1867839Y1234913D02*
X1870838D01*
X1869339Y1233413D02*
Y1236413D01*
X1867839Y1158713D02*
X1870838D01*
X1869339Y1157213D02*
Y1160213D01*
X1886889Y1120613D02*
X1889888D01*
X1888389Y1119113D02*
Y1122113D01*
X1867839Y1082513D02*
X1870838D01*
X1869339Y1081013D02*
Y1084013D01*
X1886889Y1044413D02*
X1889888D01*
X1888389Y1042913D02*
Y1045913D01*
X1867839Y1006313D02*
X1870838D01*
X1869339Y1004813D02*
Y1007813D01*
X1867839Y930113D02*
X1870838D01*
X1869339Y928613D02*
Y931613D01*
X1886889Y892013D02*
X1889888D01*
X1888389Y890513D02*
Y893513D01*
X1867839Y853913D02*
X1870838D01*
X1869339Y852413D02*
Y855413D01*
X1867839Y777713D02*
X1870838D01*
X1869339Y776213D02*
Y779213D01*
X1886889Y739613D02*
X1889888D01*
X1888389Y738113D02*
Y741113D01*
X1886889Y663413D02*
X1889888D01*
X1888389Y661913D02*
Y664913D01*
X1867839Y625313D02*
X1870838D01*
X1869339Y623813D02*
Y626813D01*
X1867839Y549113D02*
X1870838D01*
X1869339Y547613D02*
Y550613D01*
X1886889Y511013D02*
X1889888D01*
X1888389Y509513D02*
Y512513D01*
X1886889Y434813D02*
X1889888D01*
X1888389Y433313D02*
Y436313D01*
X1867839Y396713D02*
X1870838D01*
X1869339Y395213D02*
Y398213D01*
X1886889Y282413D02*
X1889888D01*
X1888389Y280913D02*
Y283913D01*
X1867839Y244313D02*
X1870838D01*
X1869339Y242813D02*
Y245813D01*
X1886889Y206213D02*
X1889888D01*
X1888389Y204713D02*
Y207713D01*
X1867839Y168113D02*
X1870838D01*
X1869339Y166613D02*
Y169613D01*
X1848789Y2416013D02*
X1851788D01*
X1850289Y2414513D02*
Y2417513D01*
X1829739Y2377913D02*
X1832738D01*
X1831239Y2376413D02*
Y2379413D01*
X1829739Y2149313D02*
X1832738D01*
X1831239Y2147813D02*
Y2150813D01*
X1829739Y2073113D02*
X1832738D01*
X1831239Y2071613D02*
Y2074613D01*
X1848789Y2035013D02*
X1851788D01*
X1850289Y2033513D02*
Y2036513D01*
X1829739Y1996913D02*
X1832738D01*
X1831239Y1995413D02*
Y1998413D01*
X1829739Y1920713D02*
X1832738D01*
X1831239Y1919213D02*
Y1922213D01*
X1848789Y1806413D02*
X1851788D01*
X1850289Y1804913D02*
Y1807913D01*
X1848789Y1577813D02*
X1851788D01*
X1850289Y1576313D02*
Y1579313D01*
X1848789Y1501613D02*
X1851788D01*
X1850289Y1500113D02*
Y1503113D01*
X1829739Y1463513D02*
X1832738D01*
X1831239Y1462013D02*
Y1465013D01*
X1848789Y1425413D02*
X1851788D01*
X1850289Y1423913D02*
Y1426913D01*
X1829739Y1387313D02*
X1832738D01*
X1831239Y1385813D02*
Y1388813D01*
X1848789Y1349213D02*
X1851788D01*
X1850289Y1347713D02*
Y1350713D01*
X1829739Y1311113D02*
X1832738D01*
X1831239Y1309613D02*
Y1312613D01*
X1848789Y1273013D02*
X1851788D01*
X1850289Y1271513D02*
Y1274513D01*
X1829739Y1234913D02*
X1832738D01*
X1831239Y1233413D02*
Y1236413D01*
X1829739Y1158713D02*
X1832738D01*
X1831239Y1157213D02*
Y1160213D01*
X1848789Y1120613D02*
X1851788D01*
X1850289Y1119113D02*
Y1122113D01*
X1829739Y1082513D02*
X1832738D01*
X1831239Y1081013D02*
Y1084013D01*
X1848789Y1044413D02*
X1851788D01*
X1850289Y1042913D02*
Y1045913D01*
X1829739Y1006313D02*
X1832738D01*
X1831239Y1004813D02*
Y1007813D01*
X1829739Y930113D02*
X1832738D01*
X1831239Y928613D02*
Y931613D01*
X1848789Y892013D02*
X1851788D01*
X1850289Y890513D02*
Y893513D01*
X1829739Y853913D02*
X1832738D01*
X1831239Y852413D02*
Y855413D01*
X1848789Y815813D02*
X1851788D01*
X1850289Y814313D02*
Y817313D01*
X1829739Y777713D02*
X1832738D01*
X1831239Y776213D02*
Y779213D01*
X1848789Y739613D02*
X1851788D01*
X1850289Y738113D02*
Y741113D01*
X1848789Y663413D02*
X1851788D01*
X1850289Y661913D02*
Y664913D01*
X1829739Y625313D02*
X1832738D01*
X1831239Y623813D02*
Y626813D01*
X1848789Y587213D02*
X1851788D01*
X1850289Y585713D02*
Y588713D01*
X1829739Y549113D02*
X1832738D01*
X1831239Y547613D02*
Y550613D01*
X1848789Y511013D02*
X1851788D01*
X1850289Y509513D02*
Y512513D01*
X1848789Y434813D02*
X1851788D01*
X1850289Y433313D02*
Y436313D01*
X1829739Y396713D02*
X1832738D01*
X1831239Y395213D02*
Y398213D01*
X1848789Y358613D02*
X1851788D01*
X1850289Y357113D02*
Y360113D01*
X1848789Y282413D02*
X1851788D01*
X1850289Y280913D02*
Y283913D01*
X1829739Y244313D02*
X1832738D01*
X1831239Y242813D02*
Y245813D01*
X1848789Y206213D02*
X1851788D01*
X1850289Y204713D02*
Y207713D01*
X1829739Y168113D02*
X1832738D01*
X1831239Y166613D02*
Y169613D01*
X1848789Y130013D02*
X1851788D01*
X1850289Y128513D02*
Y131513D01*
X1848789Y53813D02*
X1851788D01*
X1850289Y52313D02*
Y55313D01*
X1810689Y2416013D02*
X1813689D01*
X1812189Y2414513D02*
Y2417513D01*
X1810689Y2339813D02*
X1813689D01*
X1812189Y2338313D02*
Y2341313D01*
X1791639Y2301713D02*
X1794639D01*
X1793139Y2300213D02*
Y2303213D01*
X1791639Y2149313D02*
X1794639D01*
X1793139Y2147813D02*
Y2150813D01*
X1810689Y2111213D02*
X1813689D01*
X1812189Y2109713D02*
Y2112713D01*
X1791639Y2073113D02*
X1794639D01*
X1793139Y2071613D02*
Y2074613D01*
X1791639Y1996913D02*
X1794639D01*
X1793139Y1995413D02*
Y1998413D01*
X1791639Y1920713D02*
X1794639D01*
X1793139Y1919213D02*
Y1922213D01*
X1810689Y1806413D02*
X1813689D01*
X1812189Y1804913D02*
Y1807913D01*
X1791639Y853913D02*
X1794639D01*
X1793139Y852413D02*
Y855413D01*
X1791639Y777713D02*
X1794639D01*
X1793139Y776213D02*
Y779213D01*
X1791639Y625313D02*
X1794639D01*
X1793139Y623813D02*
Y626813D01*
X1791639Y549113D02*
X1794639D01*
X1793139Y547613D02*
Y550613D01*
X1810689Y434813D02*
X1813689D01*
X1812189Y433313D02*
Y436313D01*
X1791639Y396713D02*
X1794639D01*
X1793139Y395213D02*
Y398213D01*
X1810689Y358613D02*
X1813689D01*
X1812189Y357113D02*
Y360113D01*
X1810689Y282413D02*
X1813689D01*
X1812189Y280913D02*
Y283913D01*
X1791639Y244313D02*
X1794639D01*
X1793139Y242813D02*
Y245813D01*
X1810689Y206213D02*
X1813689D01*
X1812189Y204713D02*
Y207713D01*
X1791639Y168113D02*
X1794639D01*
X1793139Y166613D02*
Y169613D01*
X1810689Y130013D02*
X1813689D01*
X1812189Y128513D02*
Y131513D01*
X1810689Y53813D02*
X1813689D01*
X1812189Y52313D02*
Y55313D01*
X1772589Y2416013D02*
X1775589D01*
X1774089Y2414513D02*
Y2417513D01*
X1753539Y2377913D02*
X1756539D01*
X1755039Y2376413D02*
Y2379413D01*
X1753539Y2301713D02*
X1756539D01*
X1755039Y2300213D02*
Y2303213D01*
X1753539Y2225513D02*
X1756539D01*
X1755039Y2224013D02*
Y2227013D01*
X1772589Y2187413D02*
X1775589D01*
X1774089Y2185913D02*
Y2188913D01*
X1753539Y2149313D02*
X1756539D01*
X1755039Y2147813D02*
Y2150813D01*
X1772589Y2111213D02*
X1775589D01*
X1774089Y2109713D02*
Y2112713D01*
X1753539Y2073113D02*
X1756539D01*
X1755039Y2071613D02*
Y2074613D01*
X1772589Y2035013D02*
X1775589D01*
X1774089Y2033513D02*
Y2036513D01*
X1753539Y1996913D02*
X1756539D01*
X1755039Y1995413D02*
Y1998413D01*
X1753539Y1920713D02*
X1756539D01*
X1755039Y1919213D02*
Y1922213D01*
X1772589Y1806413D02*
X1775589D01*
X1774089Y1804913D02*
Y1807913D01*
X1753539Y1539713D02*
X1756539D01*
X1755039Y1538213D02*
Y1541213D01*
X1772589Y1501613D02*
X1775589D01*
X1774089Y1500113D02*
Y1503113D01*
X1772589Y1425413D02*
X1775589D01*
X1774089Y1423913D02*
Y1426913D01*
X1753539Y1387313D02*
X1756539D01*
X1755039Y1385813D02*
Y1388813D01*
X1753539Y1311113D02*
X1756539D01*
X1755039Y1309613D02*
Y1312613D01*
X1772589Y1273013D02*
X1775589D01*
X1774089Y1271513D02*
Y1274513D01*
X1753539Y1158713D02*
X1756539D01*
X1755039Y1157213D02*
Y1160213D01*
X1753539Y1082513D02*
X1756539D01*
X1755039Y1081013D02*
Y1084013D01*
X1772589Y1044413D02*
X1775589D01*
X1774089Y1042913D02*
Y1045913D01*
X1753539Y930113D02*
X1756539D01*
X1755039Y928613D02*
Y931613D01*
X1753539Y853913D02*
X1756539D01*
X1755039Y852413D02*
Y855413D01*
X1772589Y815813D02*
X1775589D01*
X1774089Y814313D02*
Y817313D01*
X1772589Y739613D02*
X1775589D01*
X1774089Y738113D02*
Y741113D01*
X1772589Y663413D02*
X1775589D01*
X1774089Y661913D02*
Y664913D01*
X1753539Y625313D02*
X1756539D01*
X1755039Y623813D02*
Y626813D01*
X1772589Y587213D02*
X1775589D01*
X1774089Y585713D02*
Y588713D01*
X1772589Y511013D02*
X1775589D01*
X1774089Y509513D02*
Y512513D01*
X1772589Y434813D02*
X1775589D01*
X1774089Y433313D02*
Y436313D01*
X1753539Y396713D02*
X1756539D01*
X1755039Y395213D02*
Y398213D01*
X1772589Y358613D02*
X1775589D01*
X1774089Y357113D02*
Y360113D01*
X1772589Y282413D02*
X1775589D01*
X1774089Y280913D02*
Y283913D01*
X1772589Y206213D02*
X1775589D01*
X1774089Y204713D02*
Y207713D01*
X1753539Y168113D02*
X1756539D01*
X1755039Y166613D02*
Y169613D01*
X1772589Y130013D02*
X1775589D01*
X1774089Y128513D02*
Y131513D01*
X1772589Y53813D02*
X1775589D01*
X1774089Y52313D02*
Y55313D01*
X1715439Y2377913D02*
X1718439D01*
X1716939Y2376413D02*
Y2379413D01*
X1734489Y2339813D02*
X1737489D01*
X1735989Y2338313D02*
Y2341313D01*
X1715439Y2301713D02*
X1718439D01*
X1716939Y2300213D02*
Y2303213D01*
X1734489Y2263613D02*
X1737489D01*
X1735989Y2262113D02*
Y2265113D01*
X1715439Y2225513D02*
X1718439D01*
X1716939Y2224013D02*
Y2227013D01*
X1734489Y2187413D02*
X1737489D01*
X1735989Y2185913D02*
Y2188913D01*
X1715439Y2149313D02*
X1718439D01*
X1716939Y2147813D02*
Y2150813D01*
X1734489Y2111213D02*
X1737489D01*
X1735989Y2109713D02*
Y2112713D01*
X1715439Y2073113D02*
X1718439D01*
X1716939Y2071613D02*
Y2074613D01*
X1715439Y1996913D02*
X1718439D01*
X1716939Y1995413D02*
Y1998413D01*
X1734489Y1806413D02*
X1737489D01*
X1735989Y1804913D02*
Y1807913D01*
X1734489Y1730213D02*
X1737489D01*
X1735989Y1728713D02*
Y1731713D01*
X1734489Y1501613D02*
X1737489D01*
X1735989Y1500113D02*
Y1503113D01*
X1715439Y1463513D02*
X1718439D01*
X1716939Y1462013D02*
Y1465013D01*
X1734489Y1425413D02*
X1737489D01*
X1735989Y1423913D02*
Y1426913D01*
X1734489Y739613D02*
X1737489D01*
X1735989Y738113D02*
Y741113D01*
X1734489Y663413D02*
X1737489D01*
X1735989Y661913D02*
Y664913D01*
X1734489Y587213D02*
X1737489D01*
X1735989Y585713D02*
Y588713D01*
X1734489Y511013D02*
X1737489D01*
X1735989Y509513D02*
Y512513D01*
X1734489Y434813D02*
X1737489D01*
X1735989Y433313D02*
Y436313D01*
X1734489Y358613D02*
X1737489D01*
X1735989Y357113D02*
Y360113D01*
X1734489Y282413D02*
X1737489D01*
X1735989Y280913D02*
Y283913D01*
X1734489Y206213D02*
X1737489D01*
X1735989Y204713D02*
Y207713D01*
X1734489Y53813D02*
X1737489D01*
X1735989Y52313D02*
Y55313D01*
X1677339Y2377913D02*
X1680338D01*
X1678839Y2376413D02*
Y2379413D01*
X1696389Y2339813D02*
X1699388D01*
X1697889Y2338313D02*
Y2341313D01*
X1677339Y2301713D02*
X1680338D01*
X1678839Y2300213D02*
Y2303213D01*
X1696389Y2263613D02*
X1699388D01*
X1697889Y2262113D02*
Y2265113D01*
X1677339Y2225513D02*
X1680338D01*
X1678839Y2224013D02*
Y2227013D01*
X1696389Y2187413D02*
X1699388D01*
X1697889Y2185913D02*
Y2188913D01*
X1677339Y2149313D02*
X1680338D01*
X1678839Y2147813D02*
Y2150813D01*
X1696389Y2111213D02*
X1699388D01*
X1697889Y2109713D02*
Y2112713D01*
X1677339Y2073113D02*
X1680338D01*
X1678839Y2071613D02*
Y2074613D01*
X1677339Y1996913D02*
X1680338D01*
X1678839Y1995413D02*
Y1998413D01*
X1696389Y1806413D02*
X1699388D01*
X1697889Y1804913D02*
Y1807913D01*
X1696389Y1730213D02*
X1699388D01*
X1697889Y1728713D02*
Y1731713D01*
X1677339Y1539713D02*
X1680338D01*
X1678839Y1538213D02*
Y1541213D01*
X1696389Y1501613D02*
X1699388D01*
X1697889Y1500113D02*
Y1503113D01*
X1696389Y1425413D02*
X1699388D01*
X1697889Y1423913D02*
Y1426913D01*
X1696389Y1349213D02*
X1699388D01*
X1697889Y1347713D02*
Y1350713D01*
X1696389Y1273013D02*
X1699388D01*
X1697889Y1271513D02*
Y1274513D01*
X1696389Y1120613D02*
X1699388D01*
X1697889Y1119113D02*
Y1122113D01*
X1696389Y1044413D02*
X1699388D01*
X1697889Y1042913D02*
Y1045913D01*
X1696389Y892013D02*
X1699388D01*
X1697889Y890513D02*
Y893513D01*
X1696389Y815813D02*
X1699388D01*
X1697889Y814313D02*
Y817313D01*
X1696389Y739613D02*
X1699388D01*
X1697889Y738113D02*
Y741113D01*
X1696389Y663413D02*
X1699388D01*
X1697889Y661913D02*
Y664913D01*
X1696389Y587213D02*
X1699388D01*
X1697889Y585713D02*
Y588713D01*
X1696389Y511013D02*
X1699388D01*
X1697889Y509513D02*
Y512513D01*
X1696389Y434813D02*
X1699388D01*
X1697889Y433313D02*
Y436313D01*
X1696389Y358613D02*
X1699388D01*
X1697889Y357113D02*
Y360113D01*
X1696389Y282413D02*
X1699388D01*
X1697889Y280913D02*
Y283913D01*
X1696389Y206213D02*
X1699388D01*
X1697889Y204713D02*
Y207713D01*
X1696389Y130013D02*
X1699388D01*
X1697889Y128513D02*
Y131513D01*
X1639239Y2377913D02*
X1642238D01*
X1640739Y2376413D02*
Y2379413D01*
X1658289Y2339813D02*
X1661288D01*
X1659789Y2338313D02*
Y2341313D01*
X1639239Y2301713D02*
X1642238D01*
X1640739Y2300213D02*
Y2303213D01*
X1658289Y2263613D02*
X1661288D01*
X1659789Y2262113D02*
Y2265113D01*
X1639239Y2225513D02*
X1642238D01*
X1640739Y2224013D02*
Y2227013D01*
X1658289Y2187413D02*
X1661288D01*
X1659789Y2185913D02*
Y2188913D01*
X1639239Y2149313D02*
X1642238D01*
X1640739Y2147813D02*
Y2150813D01*
X1658289Y2111213D02*
X1661288D01*
X1659789Y2109713D02*
Y2112713D01*
X1639239Y1996913D02*
X1642238D01*
X1640739Y1995413D02*
Y1998413D01*
X1658289Y1806413D02*
X1661288D01*
X1659789Y1804913D02*
Y1807913D01*
X1658289Y1730213D02*
X1661288D01*
X1659789Y1728713D02*
Y1731713D01*
X1639239Y1539713D02*
X1642238D01*
X1640739Y1538213D02*
Y1541213D01*
X1639239Y1463513D02*
X1642238D01*
X1640739Y1462013D02*
Y1465013D01*
X1658289Y1425413D02*
X1661288D01*
X1659789Y1423913D02*
Y1426913D01*
X1639239Y1387313D02*
X1642238D01*
X1640739Y1385813D02*
Y1388813D01*
X1658289Y1349213D02*
X1661288D01*
X1659789Y1347713D02*
Y1350713D01*
X1639239Y1311113D02*
X1642238D01*
X1640739Y1309613D02*
Y1312613D01*
X1658289Y1273013D02*
X1661288D01*
X1659789Y1271513D02*
Y1274513D01*
X1639239Y1234913D02*
X1642238D01*
X1640739Y1233413D02*
Y1236413D01*
X1639239Y1158713D02*
X1642238D01*
X1640739Y1157213D02*
Y1160213D01*
X1658289Y1120613D02*
X1661288D01*
X1659789Y1119113D02*
Y1122113D01*
X1639239Y1082513D02*
X1642238D01*
X1640739Y1081013D02*
Y1084013D01*
X1658289Y1044413D02*
X1661288D01*
X1659789Y1042913D02*
Y1045913D01*
X1639239Y1006313D02*
X1642238D01*
X1640739Y1004813D02*
Y1007813D01*
X1639239Y930113D02*
X1642238D01*
X1640739Y928613D02*
Y931613D01*
X1658289Y892013D02*
X1661288D01*
X1659789Y890513D02*
Y893513D01*
X1639239Y853913D02*
X1642238D01*
X1640739Y852413D02*
Y855413D01*
X1658289Y815813D02*
X1661288D01*
X1659789Y814313D02*
Y817313D01*
X1639239Y777713D02*
X1642238D01*
X1640739Y776213D02*
Y779213D01*
X1658289Y739613D02*
X1661288D01*
X1659789Y738113D02*
Y741113D01*
X1658289Y663413D02*
X1661288D01*
X1659789Y661913D02*
Y664913D01*
X1639239Y625313D02*
X1642238D01*
X1640739Y623813D02*
Y626813D01*
X1658289Y587213D02*
X1661288D01*
X1659789Y585713D02*
Y588713D01*
X1639239Y549113D02*
X1642238D01*
X1640739Y547613D02*
Y550613D01*
X1658289Y511013D02*
X1661288D01*
X1659789Y509513D02*
Y512513D01*
X1658289Y434813D02*
X1661288D01*
X1659789Y433313D02*
Y436313D01*
X1639239Y396713D02*
X1642238D01*
X1640739Y395213D02*
Y398213D01*
X1658289Y358613D02*
X1661288D01*
X1659789Y357113D02*
Y360113D01*
X1658289Y282413D02*
X1661288D01*
X1659789Y280913D02*
Y283913D01*
X1639239Y244313D02*
X1642238D01*
X1640739Y242813D02*
Y245813D01*
X1658289Y206213D02*
X1661288D01*
X1659789Y204713D02*
Y207713D01*
X1639239Y168113D02*
X1642238D01*
X1640739Y166613D02*
Y169613D01*
X1658289Y130013D02*
X1661288D01*
X1659789Y128513D02*
Y131513D01*
X1620189Y2416013D02*
X1623188D01*
X1621689Y2414513D02*
Y2417513D01*
X1601139Y2377913D02*
X1604138D01*
X1602639Y2376413D02*
Y2379413D01*
X1620189Y2339813D02*
X1623188D01*
X1621689Y2338313D02*
Y2341313D01*
X1601139Y2301713D02*
X1604138D01*
X1602639Y2300213D02*
Y2303213D01*
X1620189Y2263613D02*
X1623188D01*
X1621689Y2262113D02*
Y2265113D01*
X1601139Y2225513D02*
X1604138D01*
X1602639Y2224013D02*
Y2227013D01*
X1620189Y2187413D02*
X1623188D01*
X1621689Y2185913D02*
Y2188913D01*
X1601139Y2149313D02*
X1604138D01*
X1602639Y2147813D02*
Y2150813D01*
X1620189Y2111213D02*
X1623188D01*
X1621689Y2109713D02*
Y2112713D01*
X1601139Y1996913D02*
X1604138D01*
X1602639Y1995413D02*
Y1998413D01*
X1601139Y1920713D02*
X1604138D01*
X1602639Y1919213D02*
Y1922213D01*
X1620189Y1806413D02*
X1623188D01*
X1621689Y1804913D02*
Y1807913D01*
X1620189Y1501613D02*
X1623188D01*
X1621689Y1500113D02*
Y1503113D01*
X1620189Y1425413D02*
X1623188D01*
X1621689Y1423913D02*
Y1426913D01*
X1620189Y1349213D02*
X1623188D01*
X1621689Y1347713D02*
Y1350713D01*
X1620189Y1273013D02*
X1623188D01*
X1621689Y1271513D02*
Y1274513D01*
X1620189Y1120613D02*
X1623188D01*
X1621689Y1119113D02*
Y1122113D01*
X1620189Y1044413D02*
X1623188D01*
X1621689Y1042913D02*
Y1045913D01*
X1620189Y892013D02*
X1623188D01*
X1621689Y890513D02*
Y893513D01*
X1620189Y815813D02*
X1623188D01*
X1621689Y814313D02*
Y817313D01*
X1620189Y739613D02*
X1623188D01*
X1621689Y738113D02*
Y741113D01*
X1620189Y663413D02*
X1623188D01*
X1621689Y661913D02*
Y664913D01*
X1620189Y587213D02*
X1623188D01*
X1621689Y585713D02*
Y588713D01*
X1620189Y511013D02*
X1623188D01*
X1621689Y509513D02*
Y512513D01*
X1620189Y434813D02*
X1623188D01*
X1621689Y433313D02*
Y436313D01*
X1620189Y358613D02*
X1623188D01*
X1621689Y357113D02*
Y360113D01*
X1620189Y282413D02*
X1623188D01*
X1621689Y280913D02*
Y283913D01*
X1620189Y206213D02*
X1623188D01*
X1621689Y204713D02*
Y207713D01*
X1601139Y168113D02*
X1604138D01*
X1602639Y166613D02*
Y169613D01*
X1620189Y130013D02*
X1623188D01*
X1621689Y128513D02*
Y131513D01*
X1620189Y53813D02*
X1623188D01*
X1621689Y52313D02*
Y55313D01*
X1582089Y2416013D02*
X1585089D01*
X1583589Y2414513D02*
Y2417513D01*
X1563039Y2377913D02*
X1566039D01*
X1564539Y2376413D02*
Y2379413D01*
X1582089Y2339813D02*
X1585089D01*
X1583589Y2338313D02*
Y2341313D01*
X1563039Y2301713D02*
X1566039D01*
X1564539Y2300213D02*
Y2303213D01*
X1582089Y2263613D02*
X1585089D01*
X1583589Y2262113D02*
Y2265113D01*
X1563039Y2225513D02*
X1566039D01*
X1564539Y2224013D02*
Y2227013D01*
X1582089Y2187413D02*
X1585089D01*
X1583589Y2185913D02*
Y2188913D01*
X1563039Y2149313D02*
X1566039D01*
X1564539Y2147813D02*
Y2150813D01*
X1582089Y2111213D02*
X1585089D01*
X1583589Y2109713D02*
Y2112713D01*
X1563039Y1996913D02*
X1566039D01*
X1564539Y1995413D02*
Y1998413D01*
X1563039Y1920713D02*
X1566039D01*
X1564539Y1919213D02*
Y1922213D01*
X1582089Y1806413D02*
X1585089D01*
X1583589Y1804913D02*
Y1807913D01*
X1563039Y1082513D02*
X1566039D01*
X1564539Y1081013D02*
Y1084013D01*
X1563039Y1006313D02*
X1566039D01*
X1564539Y1004813D02*
Y1007813D01*
X1563039Y930113D02*
X1566039D01*
X1564539Y928613D02*
Y931613D01*
X1563039Y853913D02*
X1566039D01*
X1564539Y852413D02*
Y855413D01*
X1563039Y777713D02*
X1566039D01*
X1564539Y776213D02*
Y779213D01*
X1582089Y663413D02*
X1585089D01*
X1583589Y661913D02*
Y664913D01*
X1563039Y625313D02*
X1566039D01*
X1564539Y623813D02*
Y626813D01*
X1582089Y587213D02*
X1585089D01*
X1583589Y585713D02*
Y588713D01*
X1563039Y549113D02*
X1566039D01*
X1564539Y547613D02*
Y550613D01*
X1582089Y511013D02*
X1585089D01*
X1583589Y509513D02*
Y512513D01*
X1582089Y434813D02*
X1585089D01*
X1583589Y433313D02*
Y436313D01*
X1563039Y396713D02*
X1566039D01*
X1564539Y395213D02*
Y398213D01*
X1582089Y358613D02*
X1585089D01*
X1583589Y357113D02*
Y360113D01*
X1582089Y282413D02*
X1585089D01*
X1583589Y280913D02*
Y283913D01*
X1563039Y244313D02*
X1566039D01*
X1564539Y242813D02*
Y245813D01*
X1582089Y206213D02*
X1585089D01*
X1583589Y204713D02*
Y207713D01*
X1563039Y168113D02*
X1566039D01*
X1564539Y166613D02*
Y169613D01*
X1582089Y130013D02*
X1585089D01*
X1583589Y128513D02*
Y131513D01*
X1582089Y53813D02*
X1585089D01*
X1583589Y52313D02*
Y55313D01*
X1543989Y2416013D02*
X1546989D01*
X1545489Y2414513D02*
Y2417513D01*
X1524939Y2377913D02*
X1527939D01*
X1526439Y2376413D02*
Y2379413D01*
X1543989Y2339813D02*
X1546989D01*
X1545489Y2338313D02*
Y2341313D01*
X1524939Y2301713D02*
X1527939D01*
X1526439Y2300213D02*
Y2303213D01*
X1543989Y2263613D02*
X1546989D01*
X1545489Y2262113D02*
Y2265113D01*
X1524939Y2225513D02*
X1527939D01*
X1526439Y2224013D02*
Y2227013D01*
X1543989Y2187413D02*
X1546989D01*
X1545489Y2185913D02*
Y2188913D01*
X1524939Y2149313D02*
X1527939D01*
X1526439Y2147813D02*
Y2150813D01*
X1543989Y2035013D02*
X1546989D01*
X1545489Y2033513D02*
Y2036513D01*
X1524939Y1996913D02*
X1527939D01*
X1526439Y1995413D02*
Y1998413D01*
X1524939Y1920713D02*
X1527939D01*
X1526439Y1919213D02*
Y1922213D01*
X1543989Y1806413D02*
X1546989D01*
X1545489Y1804913D02*
Y1807913D01*
X1524939Y1539713D02*
X1527939D01*
X1526439Y1538213D02*
Y1541213D01*
X1543989Y1501613D02*
X1546989D01*
X1545489Y1500113D02*
Y1503113D01*
X1524939Y1463513D02*
X1527939D01*
X1526439Y1462013D02*
Y1465013D01*
X1524939Y1387313D02*
X1527939D01*
X1526439Y1385813D02*
Y1388813D01*
X1524939Y1311113D02*
X1527939D01*
X1526439Y1309613D02*
Y1312613D01*
X1543989Y1273013D02*
X1546989D01*
X1545489Y1271513D02*
Y1274513D01*
X1524939Y1234913D02*
X1527939D01*
X1526439Y1233413D02*
Y1236413D01*
X1524939Y1158713D02*
X1527939D01*
X1526439Y1157213D02*
Y1160213D01*
X1524939Y1082513D02*
X1527939D01*
X1526439Y1081013D02*
Y1084013D01*
X1524939Y1006313D02*
X1527939D01*
X1526439Y1004813D02*
Y1007813D01*
X1524939Y930113D02*
X1527939D01*
X1526439Y928613D02*
Y931613D01*
X1524939Y853913D02*
X1527939D01*
X1526439Y852413D02*
Y855413D01*
X1524939Y777713D02*
X1527939D01*
X1526439Y776213D02*
Y779213D01*
X1543989Y739613D02*
X1546989D01*
X1545489Y738113D02*
Y741113D01*
X1543989Y663413D02*
X1546989D01*
X1545489Y661913D02*
Y664913D01*
X1524939Y625313D02*
X1527939D01*
X1526439Y623813D02*
Y626813D01*
X1524939Y549113D02*
X1527939D01*
X1526439Y547613D02*
Y550613D01*
X1543989Y511013D02*
X1546989D01*
X1545489Y509513D02*
Y512513D01*
X1543989Y434813D02*
X1546989D01*
X1545489Y433313D02*
Y436313D01*
X1524939Y396713D02*
X1527939D01*
X1526439Y395213D02*
Y398213D01*
X1543989Y282413D02*
X1546989D01*
X1545489Y280913D02*
Y283913D01*
X1543989Y206213D02*
X1546989D01*
X1545489Y204713D02*
Y207713D01*
X1524939Y168113D02*
X1527939D01*
X1526439Y166613D02*
Y169613D01*
X1543989Y53813D02*
X1546989D01*
X1545489Y52313D02*
Y55313D01*
X1505889Y2416013D02*
X1508889D01*
X1507389Y2414513D02*
Y2417513D01*
X1486839Y2377913D02*
X1489839D01*
X1488339Y2376413D02*
Y2379413D01*
X1505889Y2339813D02*
X1508889D01*
X1507389Y2338313D02*
Y2341313D01*
X1486839Y2301713D02*
X1489839D01*
X1488339Y2300213D02*
Y2303213D01*
X1505889Y2263613D02*
X1508889D01*
X1507389Y2262113D02*
Y2265113D01*
X1486839Y2225513D02*
X1489839D01*
X1488339Y2224013D02*
Y2227013D01*
X1505889Y2187413D02*
X1508889D01*
X1507389Y2185913D02*
Y2188913D01*
X1486839Y2149313D02*
X1489839D01*
X1488339Y2147813D02*
Y2150813D01*
X1505889Y2035013D02*
X1508889D01*
X1507389Y2033513D02*
Y2036513D01*
X1486839Y1996913D02*
X1489839D01*
X1488339Y1995413D02*
Y1998413D01*
X1505889Y1806413D02*
X1508889D01*
X1507389Y1804913D02*
Y1807913D01*
X1505889Y1730213D02*
X1508889D01*
X1507389Y1728713D02*
Y1731713D01*
X1486839Y1539713D02*
X1489839D01*
X1488339Y1538213D02*
Y1541213D01*
X1505889Y1501613D02*
X1508889D01*
X1507389Y1500113D02*
Y1503113D01*
X1486839Y1463513D02*
X1489839D01*
X1488339Y1462013D02*
Y1465013D01*
X1505889Y1425413D02*
X1508889D01*
X1507389Y1423913D02*
Y1426913D01*
X1486839Y1387313D02*
X1489839D01*
X1488339Y1385813D02*
Y1388813D01*
X1486839Y1311113D02*
X1489839D01*
X1488339Y1309613D02*
Y1312613D01*
X1486839Y1082513D02*
X1489839D01*
X1488339Y1081013D02*
Y1084013D01*
X1505889Y892013D02*
X1508889D01*
X1507389Y890513D02*
Y893513D01*
X1486839Y853913D02*
X1489839D01*
X1488339Y852413D02*
Y855413D01*
X1505889Y739613D02*
X1508889D01*
X1507389Y738113D02*
Y741113D01*
X1505889Y663413D02*
X1508889D01*
X1507389Y661913D02*
Y664913D01*
X1486839Y625313D02*
X1489839D01*
X1488339Y623813D02*
Y626813D01*
X1505889Y587213D02*
X1508889D01*
X1507389Y585713D02*
Y588713D01*
X1486839Y549113D02*
X1489839D01*
X1488339Y547613D02*
Y550613D01*
X1505889Y511013D02*
X1508889D01*
X1507389Y509513D02*
Y512513D01*
X1505889Y434813D02*
X1508889D01*
X1507389Y433313D02*
Y436313D01*
X1486839Y396713D02*
X1489839D01*
X1488339Y395213D02*
Y398213D01*
X1505889Y282413D02*
X1508889D01*
X1507389Y280913D02*
Y283913D01*
X1486839Y244313D02*
X1489839D01*
X1488339Y242813D02*
Y245813D01*
X1505889Y206213D02*
X1508889D01*
X1507389Y204713D02*
Y207713D01*
X1467789Y2416013D02*
X1470789D01*
X1469289Y2414513D02*
Y2417513D01*
X1448739Y2301713D02*
X1451738D01*
X1450239Y2300213D02*
Y2303213D01*
X1467789Y2187413D02*
X1470789D01*
X1469289Y2185913D02*
Y2188913D01*
X1467789Y2111213D02*
X1470789D01*
X1469289Y2109713D02*
Y2112713D01*
X1467789Y2035013D02*
X1470789D01*
X1469289Y2033513D02*
Y2036513D01*
X1448739Y1996913D02*
X1451738D01*
X1450239Y1995413D02*
Y1998413D01*
X1467789Y1806413D02*
X1470789D01*
X1469289Y1804913D02*
Y1807913D01*
X1467789Y1730213D02*
X1470789D01*
X1469289Y1728713D02*
Y1731713D01*
X1448739Y1539713D02*
X1451738D01*
X1450239Y1538213D02*
Y1541213D01*
X1467789Y1501613D02*
X1470789D01*
X1469289Y1500113D02*
Y1503113D01*
X1467789Y1425413D02*
X1470789D01*
X1469289Y1423913D02*
Y1426913D01*
X1448739Y1387313D02*
X1451738D01*
X1450239Y1385813D02*
Y1388813D01*
X1467789Y1349213D02*
X1470789D01*
X1469289Y1347713D02*
Y1350713D01*
X1448739Y1311113D02*
X1451738D01*
X1450239Y1309613D02*
Y1312613D01*
X1467789Y1273013D02*
X1470789D01*
X1469289Y1271513D02*
Y1274513D01*
X1448739Y1158713D02*
X1451738D01*
X1450239Y1157213D02*
Y1160213D01*
X1467789Y1120613D02*
X1470789D01*
X1469289Y1119113D02*
Y1122113D01*
X1448739Y1082513D02*
X1451738D01*
X1450239Y1081013D02*
Y1084013D01*
X1467789Y1044413D02*
X1470789D01*
X1469289Y1042913D02*
Y1045913D01*
X1448739Y930113D02*
X1451738D01*
X1450239Y928613D02*
Y931613D01*
X1467789Y892013D02*
X1470789D01*
X1469289Y890513D02*
Y893513D01*
X1448739Y853913D02*
X1451738D01*
X1450239Y852413D02*
Y855413D01*
X1448739Y777713D02*
X1451738D01*
X1450239Y776213D02*
Y779213D01*
X1467789Y739613D02*
X1470789D01*
X1469289Y738113D02*
Y741113D01*
X1467789Y663413D02*
X1470789D01*
X1469289Y661913D02*
Y664913D01*
X1448739Y625313D02*
X1451738D01*
X1450239Y623813D02*
Y626813D01*
X1448739Y549113D02*
X1451738D01*
X1450239Y547613D02*
Y550613D01*
X1467789Y511013D02*
X1470789D01*
X1469289Y509513D02*
Y512513D01*
X1467789Y434813D02*
X1470789D01*
X1469289Y433313D02*
Y436313D01*
X1448739Y396713D02*
X1451738D01*
X1450239Y395213D02*
Y398213D01*
X1467789Y282413D02*
X1470789D01*
X1469289Y280913D02*
Y283913D01*
X1448739Y244313D02*
X1451738D01*
X1450239Y242813D02*
Y245813D01*
X1467789Y206213D02*
X1470789D01*
X1469289Y204713D02*
Y207713D01*
X1448739Y168113D02*
X1451738D01*
X1450239Y166613D02*
Y169613D01*
X1467789Y53813D02*
X1470789D01*
X1469289Y52313D02*
Y55313D01*
X1429689Y2416013D02*
X1432688D01*
X1431189Y2414513D02*
Y2417513D01*
X1410639Y2301713D02*
X1413638D01*
X1412139Y2300213D02*
Y2303213D01*
X1429689Y2263613D02*
X1432688D01*
X1431189Y2262113D02*
Y2265113D01*
X1429689Y1730213D02*
X1432688D01*
X1431189Y1728713D02*
Y1731713D01*
X1410639Y1539713D02*
X1413638D01*
X1412139Y1538213D02*
Y1541213D01*
X1410639Y1463513D02*
X1413638D01*
X1412139Y1462013D02*
Y1465013D01*
X1429689Y1425413D02*
X1432688D01*
X1431189Y1423913D02*
Y1426913D01*
X1410639Y1387313D02*
X1413638D01*
X1412139Y1385813D02*
Y1388813D01*
X1429689Y1349213D02*
X1432688D01*
X1431189Y1347713D02*
Y1350713D01*
X1410639Y1311113D02*
X1413638D01*
X1412139Y1309613D02*
Y1312613D01*
X1429689Y1273013D02*
X1432688D01*
X1431189Y1271513D02*
Y1274513D01*
X1410639Y1234913D02*
X1413638D01*
X1412139Y1233413D02*
Y1236413D01*
X1410639Y1158713D02*
X1413638D01*
X1412139Y1157213D02*
Y1160213D01*
X1429689Y1120613D02*
X1432688D01*
X1431189Y1119113D02*
Y1122113D01*
X1410639Y1082513D02*
X1413638D01*
X1412139Y1081013D02*
Y1084013D01*
X1429689Y1044413D02*
X1432688D01*
X1431189Y1042913D02*
Y1045913D01*
X1410639Y1006313D02*
X1413638D01*
X1412139Y1004813D02*
Y1007813D01*
X1410639Y930113D02*
X1413638D01*
X1412139Y928613D02*
Y931613D01*
X1429689Y892013D02*
X1432688D01*
X1431189Y890513D02*
Y893513D01*
X1410639Y853913D02*
X1413638D01*
X1412139Y852413D02*
Y855413D01*
X1429689Y815813D02*
X1432688D01*
X1431189Y814313D02*
Y817313D01*
X1410639Y777713D02*
X1413638D01*
X1412139Y776213D02*
Y779213D01*
X1429689Y739613D02*
X1432688D01*
X1431189Y738113D02*
Y741113D01*
X1429689Y663413D02*
X1432688D01*
X1431189Y661913D02*
Y664913D01*
X1410639Y625313D02*
X1413638D01*
X1412139Y623813D02*
Y626813D01*
X1429689Y587213D02*
X1432688D01*
X1431189Y585713D02*
Y588713D01*
X1410639Y549113D02*
X1413638D01*
X1412139Y547613D02*
Y550613D01*
X1429689Y511013D02*
X1432688D01*
X1431189Y509513D02*
Y512513D01*
X1429689Y434813D02*
X1432688D01*
X1431189Y433313D02*
Y436313D01*
X1410639Y396713D02*
X1413638D01*
X1412139Y395213D02*
Y398213D01*
X1429689Y358613D02*
X1432688D01*
X1431189Y357113D02*
Y360113D01*
X1429689Y282413D02*
X1432688D01*
X1431189Y280913D02*
Y283913D01*
X1410639Y244313D02*
X1413638D01*
X1412139Y242813D02*
Y245813D01*
X1429689Y206213D02*
X1432688D01*
X1431189Y204713D02*
Y207713D01*
X1410639Y168113D02*
X1413638D01*
X1412139Y166613D02*
Y169613D01*
X1429689Y130013D02*
X1432688D01*
X1431189Y128513D02*
Y131513D01*
X1429689Y53813D02*
X1432688D01*
X1431189Y52313D02*
Y55313D01*
X1391589Y2416013D02*
X1394588D01*
X1393089Y2414513D02*
Y2417513D01*
X1372539Y2377913D02*
X1375538D01*
X1374039Y2376413D02*
Y2379413D01*
X1372539Y2301713D02*
X1375538D01*
X1374039Y2300213D02*
Y2303213D01*
X1391589Y1501613D02*
X1394588D01*
X1393089Y1500113D02*
Y1503113D01*
X1391589Y1425413D02*
X1394588D01*
X1393089Y1423913D02*
Y1426913D01*
X1391589Y1349213D02*
X1394588D01*
X1393089Y1347713D02*
Y1350713D01*
X1391589Y1273013D02*
X1394588D01*
X1393089Y1271513D02*
Y1274513D01*
X1391589Y1120613D02*
X1394588D01*
X1393089Y1119113D02*
Y1122113D01*
X1391589Y1044413D02*
X1394588D01*
X1393089Y1042913D02*
Y1045913D01*
X1391589Y892013D02*
X1394588D01*
X1393089Y890513D02*
Y893513D01*
X1391589Y815813D02*
X1394588D01*
X1393089Y814313D02*
Y817313D01*
X1391589Y739613D02*
X1394588D01*
X1393089Y738113D02*
Y741113D01*
X1391589Y663413D02*
X1394588D01*
X1393089Y661913D02*
Y664913D01*
X1391589Y587213D02*
X1394588D01*
X1393089Y585713D02*
Y588713D01*
X1391589Y511013D02*
X1394588D01*
X1393089Y509513D02*
Y512513D01*
X1391589Y434813D02*
X1394588D01*
X1393089Y433313D02*
Y436313D01*
X1372539Y396713D02*
X1375538D01*
X1374039Y395213D02*
Y398213D01*
X1391589Y358613D02*
X1394588D01*
X1393089Y357113D02*
Y360113D01*
X1391589Y282413D02*
X1394588D01*
X1393089Y280913D02*
Y283913D01*
X1391589Y206213D02*
X1394588D01*
X1393089Y204713D02*
Y207713D01*
X1372539Y168113D02*
X1375538D01*
X1374039Y166613D02*
Y169613D01*
X1391589Y130013D02*
X1394588D01*
X1393089Y128513D02*
Y131513D01*
X1391589Y53813D02*
X1394588D01*
X1393089Y52313D02*
Y55313D01*
X1353489Y2416013D02*
X1356488D01*
X1354989Y2414513D02*
Y2417513D01*
X1353489Y2339813D02*
X1356488D01*
X1354989Y2338313D02*
Y2341313D01*
X1334439Y1311113D02*
X1337439D01*
X1335939Y1309613D02*
Y1312613D01*
X1334439Y1234913D02*
X1337439D01*
X1335939Y1233413D02*
Y1236413D01*
X1334439Y1158713D02*
X1337439D01*
X1335939Y1157213D02*
Y1160213D01*
X1334439Y1082513D02*
X1337439D01*
X1335939Y1081013D02*
Y1084013D01*
X1334439Y1006313D02*
X1337439D01*
X1335939Y1004813D02*
Y1007813D01*
X1334439Y930113D02*
X1337439D01*
X1335939Y928613D02*
Y931613D01*
X1334439Y853913D02*
X1337439D01*
X1335939Y852413D02*
Y855413D01*
X1353489Y815813D02*
X1356488D01*
X1354989Y814313D02*
Y817313D01*
X1334439Y777713D02*
X1337439D01*
X1335939Y776213D02*
Y779213D01*
X1353489Y739613D02*
X1356488D01*
X1354989Y738113D02*
Y741113D01*
X1353489Y663413D02*
X1356488D01*
X1354989Y661913D02*
Y664913D01*
X1334439Y625313D02*
X1337439D01*
X1335939Y623813D02*
Y626813D01*
X1353489Y587213D02*
X1356488D01*
X1354989Y585713D02*
Y588713D01*
X1334439Y549113D02*
X1337439D01*
X1335939Y547613D02*
Y550613D01*
X1353489Y511013D02*
X1356488D01*
X1354989Y509513D02*
Y512513D01*
X1353489Y434813D02*
X1356488D01*
X1354989Y433313D02*
Y436313D01*
X1334439Y396713D02*
X1337439D01*
X1335939Y395213D02*
Y398213D01*
X1353489Y358613D02*
X1356488D01*
X1354989Y357113D02*
Y360113D01*
X1353489Y282413D02*
X1356488D01*
X1354989Y280913D02*
Y283913D01*
X1334439Y244313D02*
X1337439D01*
X1335939Y242813D02*
Y245813D01*
X1353489Y206213D02*
X1356488D01*
X1354989Y204713D02*
Y207713D01*
X1334439Y168113D02*
X1337439D01*
X1335939Y166613D02*
Y169613D01*
X1353489Y130013D02*
X1356488D01*
X1354989Y128513D02*
Y131513D01*
X1353489Y53813D02*
X1356488D01*
X1354989Y52313D02*
Y55313D01*
X1315389Y2416013D02*
X1318389D01*
X1316889Y2414513D02*
Y2417513D01*
X1315389Y2339813D02*
X1318389D01*
X1316889Y2338313D02*
Y2341313D01*
X1296339Y1539713D02*
X1299339D01*
X1297839Y1538213D02*
Y1541213D01*
X1315389Y1501613D02*
X1318389D01*
X1316889Y1500113D02*
Y1503113D01*
X1296339Y1463513D02*
X1299339D01*
X1297839Y1462013D02*
Y1465013D01*
X1296339Y1387313D02*
X1299339D01*
X1297839Y1385813D02*
Y1388813D01*
X1296339Y1311113D02*
X1299339D01*
X1297839Y1309613D02*
Y1312613D01*
X1315389Y1273013D02*
X1318389D01*
X1316889Y1271513D02*
Y1274513D01*
X1296339Y1234913D02*
X1299339D01*
X1297839Y1233413D02*
Y1236413D01*
X1296339Y1158713D02*
X1299339D01*
X1297839Y1157213D02*
Y1160213D01*
X1296339Y1082513D02*
X1299339D01*
X1297839Y1081013D02*
Y1084013D01*
X1296339Y930113D02*
X1299339D01*
X1297839Y928613D02*
Y931613D01*
X1296339Y853913D02*
X1299339D01*
X1297839Y852413D02*
Y855413D01*
X1296339Y777713D02*
X1299339D01*
X1297839Y776213D02*
Y779213D01*
X1315389Y739613D02*
X1318389D01*
X1316889Y738113D02*
Y741113D01*
X1315389Y663413D02*
X1318389D01*
X1316889Y661913D02*
Y664913D01*
X1296339Y625313D02*
X1299339D01*
X1297839Y623813D02*
Y626813D01*
X1296339Y549113D02*
X1299339D01*
X1297839Y547613D02*
Y550613D01*
X1315389Y511013D02*
X1318389D01*
X1316889Y509513D02*
Y512513D01*
X1315389Y434813D02*
X1318389D01*
X1316889Y433313D02*
Y436313D01*
X1296339Y396713D02*
X1299339D01*
X1297839Y395213D02*
Y398213D01*
X1315389Y282413D02*
X1318389D01*
X1316889Y280913D02*
Y283913D01*
X1315389Y206213D02*
X1318389D01*
X1316889Y204713D02*
Y207713D01*
X1315389Y53813D02*
X1318389D01*
X1316889Y52313D02*
Y55313D01*
X1277289Y2416013D02*
X1280289D01*
X1278789Y2414513D02*
Y2417513D01*
X1258239Y2301713D02*
X1261238D01*
X1259739Y2300213D02*
Y2303213D01*
X1277289Y2263613D02*
X1280289D01*
X1278789Y2262113D02*
Y2265113D01*
X1277289Y1730213D02*
X1280289D01*
X1278789Y1728713D02*
Y1731713D01*
X1258239Y1539713D02*
X1261238D01*
X1259739Y1538213D02*
Y1541213D01*
X1258239Y1463513D02*
X1261238D01*
X1259739Y1462013D02*
Y1465013D01*
X1258239Y1387313D02*
X1261238D01*
X1259739Y1385813D02*
Y1388813D01*
X1258239Y1311113D02*
X1261238D01*
X1259739Y1309613D02*
Y1312613D01*
X1258239Y1234913D02*
X1261238D01*
X1259739Y1233413D02*
Y1236413D01*
X1258239Y1082513D02*
X1261238D01*
X1259739Y1081013D02*
Y1084013D01*
X1258239Y1006313D02*
X1261238D01*
X1259739Y1004813D02*
Y1007813D01*
X1258239Y853913D02*
X1261238D01*
X1259739Y852413D02*
Y855413D01*
X1258239Y777713D02*
X1261238D01*
X1259739Y776213D02*
Y779213D01*
X1258239Y625313D02*
X1261238D01*
X1259739Y623813D02*
Y626813D01*
X1277289Y587213D02*
X1280289D01*
X1278789Y585713D02*
Y588713D01*
X1258239Y549113D02*
X1261238D01*
X1259739Y547613D02*
Y550613D01*
X1258239Y396713D02*
X1261238D01*
X1259739Y395213D02*
Y398213D01*
X1258239Y244313D02*
X1261238D01*
X1259739Y242813D02*
Y245813D01*
X1258239Y168113D02*
X1261238D01*
X1259739Y166613D02*
Y169613D01*
X1239189Y2416013D02*
X1242188D01*
X1240689Y2414513D02*
Y2417513D01*
X1239189Y1730213D02*
X1242188D01*
X1240689Y1728713D02*
Y1731713D01*
X1220139Y1539713D02*
X1223139D01*
X1221639Y1538213D02*
Y1541213D01*
X1239189Y1501613D02*
X1242188D01*
X1240689Y1500113D02*
Y1503113D01*
X1220139Y1463513D02*
X1223139D01*
X1221639Y1462013D02*
Y1465013D01*
X1220139Y1387313D02*
X1223139D01*
X1221639Y1385813D02*
Y1388813D01*
X1220139Y1311113D02*
X1223139D01*
X1221639Y1309613D02*
Y1312613D01*
X1220139Y1234913D02*
X1223139D01*
X1221639Y1233413D02*
Y1236413D01*
X1220139Y1158713D02*
X1223139D01*
X1221639Y1157213D02*
Y1160213D01*
X1220139Y1082513D02*
X1223139D01*
X1221639Y1081013D02*
Y1084013D01*
X1220139Y1006313D02*
X1223139D01*
X1221639Y1004813D02*
Y1007813D01*
X1220139Y930113D02*
X1223139D01*
X1221639Y928613D02*
Y931613D01*
X1220139Y853913D02*
X1223139D01*
X1221639Y852413D02*
Y855413D01*
X1220139Y777713D02*
X1223139D01*
X1221639Y776213D02*
Y779213D01*
X1220139Y625313D02*
X1223139D01*
X1221639Y623813D02*
Y626813D01*
X1220139Y549113D02*
X1223139D01*
X1221639Y547613D02*
Y550613D01*
X1220139Y396713D02*
X1223139D01*
X1221639Y395213D02*
Y398213D01*
X1220139Y244313D02*
X1223139D01*
X1221639Y242813D02*
Y245813D01*
X1220139Y168113D02*
X1223139D01*
X1221639Y166613D02*
Y169613D01*
X1201089Y2416013D02*
X1204089D01*
X1202589Y2414513D02*
Y2417513D01*
X1201089Y1730213D02*
X1204089D01*
X1202589Y1728713D02*
Y1731713D01*
X1201089Y1501613D02*
X1204089D01*
X1202589Y1500113D02*
Y1503113D01*
X1182039Y1463513D02*
X1185039D01*
X1183539Y1462013D02*
Y1465013D01*
X1201089Y1425413D02*
X1204089D01*
X1202589Y1423913D02*
Y1426913D01*
X1182039Y1387313D02*
X1185039D01*
X1183539Y1385813D02*
Y1388813D01*
X1201089Y1349213D02*
X1204089D01*
X1202589Y1347713D02*
Y1350713D01*
X1182039Y1311113D02*
X1185039D01*
X1183539Y1309613D02*
Y1312613D01*
X1201089Y1273013D02*
X1204089D01*
X1202589Y1271513D02*
Y1274513D01*
X1182039Y1234913D02*
X1185039D01*
X1183539Y1233413D02*
Y1236413D01*
X1182039Y1158713D02*
X1185039D01*
X1183539Y1157213D02*
Y1160213D01*
X1201089Y1120613D02*
X1204089D01*
X1202589Y1119113D02*
Y1122113D01*
X1182039Y1082513D02*
X1185039D01*
X1183539Y1081013D02*
Y1084013D01*
X1201089Y1044413D02*
X1204089D01*
X1202589Y1042913D02*
Y1045913D01*
X1182039Y1006313D02*
X1185039D01*
X1183539Y1004813D02*
Y1007813D01*
X1182039Y930113D02*
X1185039D01*
X1183539Y928613D02*
Y931613D01*
X1201089Y892013D02*
X1204089D01*
X1202589Y890513D02*
Y893513D01*
X1182039Y853913D02*
X1185039D01*
X1183539Y852413D02*
Y855413D01*
X1201089Y815813D02*
X1204089D01*
X1202589Y814313D02*
Y817313D01*
X1182039Y777713D02*
X1185039D01*
X1183539Y776213D02*
Y779213D01*
X1201089Y739613D02*
X1204089D01*
X1202589Y738113D02*
Y741113D01*
X1201089Y663413D02*
X1204089D01*
X1202589Y661913D02*
Y664913D01*
X1182039Y625313D02*
X1185039D01*
X1183539Y623813D02*
Y626813D01*
X1201089Y587213D02*
X1204089D01*
X1202589Y585713D02*
Y588713D01*
X1182039Y549113D02*
X1185039D01*
X1183539Y547613D02*
Y550613D01*
X1201089Y511013D02*
X1204089D01*
X1202589Y509513D02*
Y512513D01*
X1201089Y434813D02*
X1204089D01*
X1202589Y433313D02*
Y436313D01*
X1182039Y396713D02*
X1185039D01*
X1183539Y395213D02*
Y398213D01*
X1201089Y358613D02*
X1204089D01*
X1202589Y357113D02*
Y360113D01*
X1201089Y282413D02*
X1204089D01*
X1202589Y280913D02*
Y283913D01*
X1182039Y244313D02*
X1185039D01*
X1183539Y242813D02*
Y245813D01*
X1201089Y206213D02*
X1204089D01*
X1202589Y204713D02*
Y207713D01*
X1182039Y168113D02*
X1185039D01*
X1183539Y166613D02*
Y169613D01*
X1201089Y130013D02*
X1204089D01*
X1202589Y128513D02*
Y131513D01*
X1201089Y53813D02*
X1204089D01*
X1202589Y52313D02*
Y55313D01*
X1162989Y2416013D02*
X1165988D01*
X1164489Y2414513D02*
Y2417513D01*
X1143939Y625313D02*
X1146938D01*
X1145439Y623813D02*
Y626813D01*
X1143939Y549113D02*
X1146938D01*
X1145439Y547613D02*
Y550613D01*
X1143939Y396713D02*
X1146938D01*
X1145439Y395213D02*
Y398213D01*
X1143939Y244313D02*
X1146938D01*
X1145439Y242813D02*
Y245813D01*
X1162989Y206213D02*
X1165988D01*
X1164489Y204713D02*
Y207713D01*
X1143939Y168113D02*
X1146938D01*
X1145439Y166613D02*
Y169613D01*
X1162989Y130013D02*
X1165988D01*
X1164489Y128513D02*
Y131513D01*
X1162989Y53813D02*
X1165988D01*
X1164489Y52313D02*
Y55313D01*
X1124889Y2416013D02*
X1127888D01*
X1126389Y2414513D02*
Y2417513D01*
X1105839Y1539713D02*
X1108839D01*
X1107339Y1538213D02*
Y1541213D01*
X1105839Y1387313D02*
X1108839D01*
X1107339Y1385813D02*
Y1388813D01*
X1105839Y1311113D02*
X1108839D01*
X1107339Y1309613D02*
Y1312613D01*
X1105839Y1158713D02*
X1108839D01*
X1107339Y1157213D02*
Y1160213D01*
X1105839Y1082513D02*
X1108839D01*
X1107339Y1081013D02*
Y1084013D01*
X1124889Y1044413D02*
X1127888D01*
X1126389Y1042913D02*
Y1045913D01*
X1105839Y930113D02*
X1108839D01*
X1107339Y928613D02*
Y931613D01*
X1105839Y853913D02*
X1108839D01*
X1107339Y852413D02*
Y855413D01*
X1124889Y815813D02*
X1127888D01*
X1126389Y814313D02*
Y817313D01*
X1124889Y739613D02*
X1127888D01*
X1126389Y738113D02*
Y741113D01*
X1124889Y663413D02*
X1127888D01*
X1126389Y661913D02*
Y664913D01*
X1105839Y625313D02*
X1108839D01*
X1107339Y623813D02*
Y626813D01*
X1124889Y587213D02*
X1127888D01*
X1126389Y585713D02*
Y588713D01*
X1124889Y511013D02*
X1127888D01*
X1126389Y509513D02*
Y512513D01*
X1124889Y434813D02*
X1127888D01*
X1126389Y433313D02*
Y436313D01*
X1105839Y396713D02*
X1108839D01*
X1107339Y395213D02*
Y398213D01*
X1124889Y358613D02*
X1127888D01*
X1126389Y357113D02*
Y360113D01*
X1124889Y282413D02*
X1127888D01*
X1126389Y280913D02*
Y283913D01*
X1124889Y206213D02*
X1127888D01*
X1126389Y204713D02*
Y207713D01*
X1105839Y168113D02*
X1108839D01*
X1107339Y166613D02*
Y169613D01*
X1124889Y130013D02*
X1127888D01*
X1126389Y128513D02*
Y131513D01*
X1124889Y53813D02*
X1127888D01*
X1126389Y52313D02*
Y55313D01*
X1086789Y2416013D02*
X1089789D01*
X1088289Y2414513D02*
Y2417513D01*
X1067739Y1539713D02*
X1070739D01*
X1069239Y1538213D02*
Y1541213D01*
X1086789Y1501613D02*
X1089789D01*
X1088289Y1500113D02*
Y1503113D01*
X1067739Y1463513D02*
X1070739D01*
X1069239Y1462013D02*
Y1465013D01*
X1086789Y1425413D02*
X1089789D01*
X1088289Y1423913D02*
Y1426913D01*
X1067739Y1387313D02*
X1070739D01*
X1069239Y1385813D02*
Y1388813D01*
X1067739Y1311113D02*
X1070739D01*
X1069239Y1309613D02*
Y1312613D01*
X1086789Y1273013D02*
X1089789D01*
X1088289Y1271513D02*
Y1274513D01*
X1067739Y1158713D02*
X1070739D01*
X1069239Y1157213D02*
Y1160213D01*
X1067739Y1082513D02*
X1070739D01*
X1069239Y1081013D02*
Y1084013D01*
X1086789Y1044413D02*
X1089789D01*
X1088289Y1042913D02*
Y1045913D01*
X1067739Y930113D02*
X1070739D01*
X1069239Y928613D02*
Y931613D01*
X1067739Y853913D02*
X1070739D01*
X1069239Y852413D02*
Y855413D01*
X1086789Y739613D02*
X1089789D01*
X1088289Y738113D02*
Y741113D01*
X1086789Y663413D02*
X1089789D01*
X1088289Y661913D02*
Y664913D01*
X1067739Y625313D02*
X1070739D01*
X1069239Y623813D02*
Y626813D01*
X1067739Y549113D02*
X1070739D01*
X1069239Y547613D02*
Y550613D01*
X1086789Y511013D02*
X1089789D01*
X1088289Y509513D02*
Y512513D01*
X1086789Y434813D02*
X1089789D01*
X1088289Y433313D02*
Y436313D01*
X1067739Y396713D02*
X1070739D01*
X1069239Y395213D02*
Y398213D01*
X1086789Y282413D02*
X1089789D01*
X1088289Y280913D02*
Y283913D01*
X1086789Y206213D02*
X1089789D01*
X1088289Y204713D02*
Y207713D01*
X1086789Y130013D02*
X1089789D01*
X1088289Y128513D02*
Y131513D01*
X1086789Y53813D02*
X1089789D01*
X1088289Y52313D02*
Y55313D01*
X1048689Y2416013D02*
X1051689D01*
X1050189Y2414513D02*
Y2417513D01*
X1048689Y1730213D02*
X1051689D01*
X1050189Y1728713D02*
Y1731713D01*
X1029639Y1539713D02*
X1032638D01*
X1031139Y1538213D02*
Y1541213D01*
X1048689Y1501613D02*
X1051689D01*
X1050189Y1500113D02*
Y1503113D01*
X1048689Y1425413D02*
X1051689D01*
X1050189Y1423913D02*
Y1426913D01*
X1029639Y1387313D02*
X1032638D01*
X1031139Y1385813D02*
Y1388813D01*
X1029639Y1311113D02*
X1032638D01*
X1031139Y1309613D02*
Y1312613D01*
X1029639Y1158713D02*
X1032638D01*
X1031139Y1157213D02*
Y1160213D01*
X1029639Y1082513D02*
X1032638D01*
X1031139Y1081013D02*
Y1084013D01*
X1029639Y1006313D02*
X1032638D01*
X1031139Y1004813D02*
Y1007813D01*
X1048689Y892013D02*
X1051689D01*
X1050189Y890513D02*
Y893513D01*
X1029639Y853913D02*
X1032638D01*
X1031139Y852413D02*
Y855413D01*
X1029639Y777713D02*
X1032638D01*
X1031139Y776213D02*
Y779213D01*
X1048689Y739613D02*
X1051689D01*
X1050189Y738113D02*
Y741113D01*
X1048689Y663413D02*
X1051689D01*
X1050189Y661913D02*
Y664913D01*
X1029639Y625313D02*
X1032638D01*
X1031139Y623813D02*
Y626813D01*
X1048689Y587213D02*
X1051689D01*
X1050189Y585713D02*
Y588713D01*
X1029639Y549113D02*
X1032638D01*
X1031139Y547613D02*
Y550613D01*
X1048689Y511013D02*
X1051689D01*
X1050189Y509513D02*
Y512513D01*
X1048689Y434813D02*
X1051689D01*
X1050189Y433313D02*
Y436313D01*
X1029639Y396713D02*
X1032638D01*
X1031139Y395213D02*
Y398213D01*
X1048689Y358613D02*
X1051689D01*
X1050189Y357113D02*
Y360113D01*
X1029639Y244313D02*
X1032638D01*
X1031139Y242813D02*
Y245813D01*
X1048689Y206213D02*
X1051689D01*
X1050189Y204713D02*
Y207713D01*
X1029639Y168113D02*
X1032638D01*
X1031139Y166613D02*
Y169613D01*
X1010589Y2416013D02*
X1013588D01*
X1012089Y2414513D02*
Y2417513D01*
X1010589Y1730213D02*
X1013588D01*
X1012089Y1728713D02*
Y1731713D01*
X991539Y1539713D02*
X994538D01*
X993039Y1538213D02*
Y1541213D01*
X1010589Y1501613D02*
X1013588D01*
X1012089Y1500113D02*
Y1503113D01*
X991539Y1463513D02*
X994538D01*
X993039Y1462013D02*
Y1465013D01*
X1010589Y1425413D02*
X1013588D01*
X1012089Y1423913D02*
Y1426913D01*
X991539Y1387313D02*
X994538D01*
X993039Y1385813D02*
Y1388813D01*
X1010589Y1349213D02*
X1013588D01*
X1012089Y1347713D02*
Y1350713D01*
X991539Y1311113D02*
X994538D01*
X993039Y1309613D02*
Y1312613D01*
X1010589Y1273013D02*
X1013588D01*
X1012089Y1271513D02*
Y1274513D01*
X991539Y1234913D02*
X994538D01*
X993039Y1233413D02*
Y1236413D01*
X991539Y1158713D02*
X994538D01*
X993039Y1157213D02*
Y1160213D01*
X1010589Y1120613D02*
X1013588D01*
X1012089Y1119113D02*
Y1122113D01*
X991539Y1082513D02*
X994538D01*
X993039Y1081013D02*
Y1084013D01*
X991539Y1006313D02*
X994538D01*
X993039Y1004813D02*
Y1007813D01*
X991539Y930113D02*
X994538D01*
X993039Y928613D02*
Y931613D01*
X1010589Y892013D02*
X1013588D01*
X1012089Y890513D02*
Y893513D01*
X991539Y853913D02*
X994538D01*
X993039Y852413D02*
Y855413D01*
X991539Y777713D02*
X994538D01*
X993039Y776213D02*
Y779213D01*
X1010589Y739613D02*
X1013588D01*
X1012089Y738113D02*
Y741113D01*
X1010589Y663413D02*
X1013588D01*
X1012089Y661913D02*
Y664913D01*
X991539Y625313D02*
X994538D01*
X993039Y623813D02*
Y626813D01*
X991539Y549113D02*
X994538D01*
X993039Y547613D02*
Y550613D01*
X1010589Y511013D02*
X1013588D01*
X1012089Y509513D02*
Y512513D01*
X1010589Y434813D02*
X1013588D01*
X1012089Y433313D02*
Y436313D01*
X991539Y396713D02*
X994538D01*
X993039Y395213D02*
Y398213D01*
X1010589Y282413D02*
X1013588D01*
X1012089Y280913D02*
Y283913D01*
X991539Y244313D02*
X994538D01*
X993039Y242813D02*
Y245813D01*
X1010589Y206213D02*
X1013588D01*
X1012089Y204713D02*
Y207713D01*
X991539Y168113D02*
X994538D01*
X993039Y166613D02*
Y169613D01*
X972489Y2416013D02*
X975489D01*
X973989Y2414513D02*
Y2417513D01*
X972489Y1730213D02*
X975489D01*
X973989Y1728713D02*
Y1731713D01*
X972489Y1501613D02*
X975489D01*
X973989Y1500113D02*
Y1503113D01*
X953439Y1463513D02*
X956439D01*
X954939Y1462013D02*
Y1465013D01*
X972489Y1425413D02*
X975489D01*
X973989Y1423913D02*
Y1426913D01*
X953439Y1387313D02*
X956439D01*
X954939Y1385813D02*
Y1388813D01*
X972489Y1349213D02*
X975489D01*
X973989Y1347713D02*
Y1350713D01*
X953439Y1311113D02*
X956439D01*
X954939Y1309613D02*
Y1312613D01*
X972489Y1273013D02*
X975489D01*
X973989Y1271513D02*
Y1274513D01*
X953439Y1234913D02*
X956439D01*
X954939Y1233413D02*
Y1236413D01*
X953439Y1158713D02*
X956439D01*
X954939Y1157213D02*
Y1160213D01*
X972489Y1120613D02*
X975489D01*
X973989Y1119113D02*
Y1122113D01*
X953439Y1082513D02*
X956439D01*
X954939Y1081013D02*
Y1084013D01*
X972489Y1044413D02*
X975489D01*
X973989Y1042913D02*
Y1045913D01*
X953439Y1006313D02*
X956439D01*
X954939Y1004813D02*
Y1007813D01*
X972489Y892013D02*
X975489D01*
X973989Y890513D02*
Y893513D01*
X953439Y853913D02*
X956439D01*
X954939Y852413D02*
Y855413D01*
X972489Y815813D02*
X975489D01*
X973989Y814313D02*
Y817313D01*
X953439Y777713D02*
X956439D01*
X954939Y776213D02*
Y779213D01*
X972489Y739613D02*
X975489D01*
X973989Y738113D02*
Y741113D01*
X972489Y663413D02*
X975489D01*
X973989Y661913D02*
Y664913D01*
X953439Y625313D02*
X956439D01*
X954939Y623813D02*
Y626813D01*
X972489Y587213D02*
X975489D01*
X973989Y585713D02*
Y588713D01*
X953439Y549113D02*
X956439D01*
X954939Y547613D02*
Y550613D01*
X972489Y511013D02*
X975489D01*
X973989Y509513D02*
Y512513D01*
X972489Y434813D02*
X975489D01*
X973989Y433313D02*
Y436313D01*
X953439Y396713D02*
X956439D01*
X954939Y395213D02*
Y398213D01*
X972489Y358613D02*
X975489D01*
X973989Y357113D02*
Y360113D01*
X972489Y282413D02*
X975489D01*
X973989Y280913D02*
Y283913D01*
X953439Y244313D02*
X956439D01*
X954939Y242813D02*
Y245813D01*
X972489Y206213D02*
X975489D01*
X973989Y204713D02*
Y207713D01*
X953439Y168113D02*
X956439D01*
X954939Y166613D02*
Y169613D01*
X972489Y130013D02*
X975489D01*
X973989Y128513D02*
Y131513D01*
X972489Y53813D02*
X975489D01*
X973989Y52313D02*
Y55313D01*
X934389Y2416013D02*
X937389D01*
X935889Y2414513D02*
Y2417513D01*
X934389Y1044413D02*
X937389D01*
X935889Y1042913D02*
Y1045913D01*
X934389Y892013D02*
X937389D01*
X935889Y890513D02*
Y893513D01*
X934389Y815813D02*
X937389D01*
X935889Y814313D02*
Y817313D01*
X934389Y739613D02*
X937389D01*
X935889Y738113D02*
Y741113D01*
X934389Y663413D02*
X937389D01*
X935889Y661913D02*
Y664913D01*
X934389Y587213D02*
X937389D01*
X935889Y585713D02*
Y588713D01*
X934389Y511013D02*
X937389D01*
X935889Y509513D02*
Y512513D01*
X934389Y434813D02*
X937389D01*
X935889Y433313D02*
Y436313D01*
X934389Y358613D02*
X937389D01*
X935889Y357113D02*
Y360113D01*
X934389Y282413D02*
X937389D01*
X935889Y280913D02*
Y283913D01*
X934389Y206213D02*
X937389D01*
X935889Y204713D02*
Y207713D01*
X915339Y168113D02*
X918338D01*
X916839Y166613D02*
Y169613D01*
X934389Y130013D02*
X937389D01*
X935889Y128513D02*
Y131513D01*
X896289Y2416013D02*
X899288D01*
X897789Y2414513D02*
Y2417513D01*
X877239Y1539713D02*
X880238D01*
X878739Y1538213D02*
Y1541213D01*
X877239Y1387313D02*
X880238D01*
X878739Y1385813D02*
Y1388813D01*
X877239Y1311113D02*
X880238D01*
X878739Y1309613D02*
Y1312613D01*
X896289Y1273013D02*
X899288D01*
X897789Y1271513D02*
Y1274513D01*
X877239Y1158713D02*
X880238D01*
X878739Y1157213D02*
Y1160213D01*
X877239Y1082513D02*
X880238D01*
X878739Y1081013D02*
Y1084013D01*
X877239Y930113D02*
X880238D01*
X878739Y928613D02*
Y931613D01*
X877239Y853913D02*
X880238D01*
X878739Y852413D02*
Y855413D01*
X896289Y663413D02*
X899288D01*
X897789Y661913D02*
Y664913D01*
X877239Y625313D02*
X880238D01*
X878739Y623813D02*
Y626813D01*
X896289Y587213D02*
X899288D01*
X897789Y585713D02*
Y588713D01*
X896289Y511013D02*
X899288D01*
X897789Y509513D02*
Y512513D01*
X896289Y434813D02*
X899288D01*
X897789Y433313D02*
Y436313D01*
X877239Y396713D02*
X880238D01*
X878739Y395213D02*
Y398213D01*
X896289Y358613D02*
X899288D01*
X897789Y357113D02*
Y360113D01*
X896289Y282413D02*
X899288D01*
X897789Y280913D02*
Y283913D01*
X896289Y206213D02*
X899288D01*
X897789Y204713D02*
Y207713D01*
X896289Y130013D02*
X899288D01*
X897789Y128513D02*
Y131513D01*
X896289Y53813D02*
X899288D01*
X897789Y52313D02*
Y55313D01*
X858189Y2416013D02*
X861189D01*
X859689Y2414513D02*
Y2417513D01*
X839139Y2377913D02*
X842139D01*
X840639Y2376413D02*
Y2379413D01*
X839139Y2073113D02*
X842139D01*
X840639Y2071613D02*
Y2074613D01*
X839139Y1996913D02*
X842139D01*
X840639Y1995413D02*
Y1998413D01*
X839139Y1920713D02*
X842139D01*
X840639Y1919213D02*
Y1922213D01*
X839139Y1844513D02*
X842139D01*
X840639Y1843013D02*
Y1846013D01*
X858189Y1806413D02*
X861189D01*
X859689Y1804913D02*
Y1807913D01*
X858189Y1730213D02*
X861189D01*
X859689Y1728713D02*
Y1731713D01*
X858189Y1501613D02*
X861189D01*
X859689Y1500113D02*
Y1503113D01*
X839139Y1463513D02*
X842139D01*
X840639Y1462013D02*
Y1465013D01*
X858189Y1425413D02*
X861189D01*
X859689Y1423913D02*
Y1426913D01*
X858189Y1273013D02*
X861189D01*
X859689Y1271513D02*
Y1274513D01*
X858189Y815813D02*
X861189D01*
X859689Y814313D02*
Y817313D01*
X858189Y739613D02*
X861189D01*
X859689Y738113D02*
Y741113D01*
X858189Y663413D02*
X861189D01*
X859689Y661913D02*
Y664913D01*
X858189Y587213D02*
X861189D01*
X859689Y585713D02*
Y588713D01*
X858189Y511013D02*
X861189D01*
X859689Y509513D02*
Y512513D01*
X858189Y434813D02*
X861189D01*
X859689Y433313D02*
Y436313D01*
X858189Y358613D02*
X861189D01*
X859689Y357113D02*
Y360113D01*
X858189Y282413D02*
X861189D01*
X859689Y280913D02*
Y283913D01*
X858189Y206213D02*
X861189D01*
X859689Y204713D02*
Y207713D01*
X858189Y130013D02*
X861189D01*
X859689Y128513D02*
Y131513D01*
X858189Y53813D02*
X861189D01*
X859689Y52313D02*
Y55313D01*
X820089Y2416013D02*
X823089D01*
X821589Y2414513D02*
Y2417513D01*
X801039Y2377913D02*
X804038D01*
X802539Y2376413D02*
Y2379413D01*
X820089Y2111213D02*
X823089D01*
X821589Y2109713D02*
Y2112713D01*
X820089Y2035013D02*
X823089D01*
X821589Y2033513D02*
Y2036513D01*
X801039Y1996913D02*
X804038D01*
X802539Y1995413D02*
Y1998413D01*
X820089Y1958813D02*
X823089D01*
X821589Y1957313D02*
Y1960313D01*
X801039Y1844513D02*
X804038D01*
X802539Y1843013D02*
Y1846013D01*
X820089Y1806413D02*
X823089D01*
X821589Y1804913D02*
Y1807913D01*
X820089Y1730213D02*
X823089D01*
X821589Y1728713D02*
Y1731713D01*
X801039Y1539713D02*
X804038D01*
X802539Y1538213D02*
Y1541213D01*
X820089Y1501613D02*
X823089D01*
X821589Y1500113D02*
Y1503113D01*
X820089Y1425413D02*
X823089D01*
X821589Y1423913D02*
Y1426913D01*
X820089Y1273013D02*
X823089D01*
X821589Y1271513D02*
Y1274513D01*
X820089Y1120613D02*
X823089D01*
X821589Y1119113D02*
Y1122113D01*
X820089Y892013D02*
X823089D01*
X821589Y890513D02*
Y893513D01*
X820089Y815813D02*
X823089D01*
X821589Y814313D02*
Y817313D01*
X820089Y739613D02*
X823089D01*
X821589Y738113D02*
Y741113D01*
X820089Y663413D02*
X823089D01*
X821589Y661913D02*
Y664913D01*
X820089Y587213D02*
X823089D01*
X821589Y585713D02*
Y588713D01*
X820089Y511013D02*
X823089D01*
X821589Y509513D02*
Y512513D01*
X820089Y434813D02*
X823089D01*
X821589Y433313D02*
Y436313D01*
X820089Y358613D02*
X823089D01*
X821589Y357113D02*
Y360113D01*
X820089Y206213D02*
X823089D01*
X821589Y204713D02*
Y207713D01*
X781989Y2416013D02*
X784988D01*
X783489Y2414513D02*
Y2417513D01*
X762939Y2377913D02*
X765938D01*
X764439Y2376413D02*
Y2379413D01*
X781989Y2111213D02*
X784988D01*
X783489Y2109713D02*
Y2112713D01*
X762939Y2073113D02*
X765938D01*
X764439Y2071613D02*
Y2074613D01*
X762939Y1996913D02*
X765938D01*
X764439Y1995413D02*
Y1998413D01*
X762939Y1920713D02*
X765938D01*
X764439Y1919213D02*
Y1922213D01*
X781989Y1806413D02*
X784988D01*
X783489Y1804913D02*
Y1807913D01*
X781989Y1730213D02*
X784988D01*
X783489Y1728713D02*
Y1731713D01*
X762939Y1539713D02*
X765938D01*
X764439Y1538213D02*
Y1541213D01*
X762939Y1463513D02*
X765938D01*
X764439Y1462013D02*
Y1465013D01*
X781989Y1425413D02*
X784988D01*
X783489Y1423913D02*
Y1426913D01*
X762939Y1387313D02*
X765938D01*
X764439Y1385813D02*
Y1388813D01*
X781989Y1349213D02*
X784988D01*
X783489Y1347713D02*
Y1350713D01*
X762939Y1311113D02*
X765938D01*
X764439Y1309613D02*
Y1312613D01*
X781989Y1273013D02*
X784988D01*
X783489Y1271513D02*
Y1274513D01*
X762939Y1234913D02*
X765938D01*
X764439Y1233413D02*
Y1236413D01*
X762939Y1158713D02*
X765938D01*
X764439Y1157213D02*
Y1160213D01*
X781989Y1120613D02*
X784988D01*
X783489Y1119113D02*
Y1122113D01*
X762939Y1082513D02*
X765938D01*
X764439Y1081013D02*
Y1084013D01*
X781989Y1044413D02*
X784988D01*
X783489Y1042913D02*
Y1045913D01*
X762939Y1006313D02*
X765938D01*
X764439Y1004813D02*
Y1007813D01*
X762939Y930113D02*
X765938D01*
X764439Y928613D02*
Y931613D01*
X781989Y892013D02*
X784988D01*
X783489Y890513D02*
Y893513D01*
X762939Y853913D02*
X765938D01*
X764439Y852413D02*
Y855413D01*
X781989Y815813D02*
X784988D01*
X783489Y814313D02*
Y817313D01*
X762939Y777713D02*
X765938D01*
X764439Y776213D02*
Y779213D01*
X781989Y739613D02*
X784988D01*
X783489Y738113D02*
Y741113D01*
X781989Y663413D02*
X784988D01*
X783489Y661913D02*
Y664913D01*
X762939Y625313D02*
X765938D01*
X764439Y623813D02*
Y626813D01*
X781989Y587213D02*
X784988D01*
X783489Y585713D02*
Y588713D01*
X762939Y549113D02*
X765938D01*
X764439Y547613D02*
Y550613D01*
X781989Y511013D02*
X784988D01*
X783489Y509513D02*
Y512513D01*
X781989Y434813D02*
X784988D01*
X783489Y433313D02*
Y436313D01*
X762939Y396713D02*
X765938D01*
X764439Y395213D02*
Y398213D01*
X781989Y358613D02*
X784988D01*
X783489Y357113D02*
Y360113D01*
X781989Y282413D02*
X784988D01*
X783489Y280913D02*
Y283913D01*
X762939Y244313D02*
X765938D01*
X764439Y242813D02*
Y245813D01*
X781989Y206213D02*
X784988D01*
X783489Y204713D02*
Y207713D01*
X762939Y168113D02*
X765938D01*
X764439Y166613D02*
Y169613D01*
X781989Y130013D02*
X784988D01*
X783489Y128513D02*
Y131513D01*
X743889Y2416013D02*
X746889D01*
X745389Y2414513D02*
Y2417513D01*
X724839Y2377913D02*
X727839D01*
X726339Y2376413D02*
Y2379413D01*
X743889Y2111213D02*
X746889D01*
X745389Y2109713D02*
Y2112713D01*
X724839Y2073113D02*
X727839D01*
X726339Y2071613D02*
Y2074613D01*
X743889Y2035013D02*
X746889D01*
X745389Y2033513D02*
Y2036513D01*
X743889Y1806413D02*
X746889D01*
X745389Y1804913D02*
Y1807913D01*
X743889Y1501613D02*
X746889D01*
X745389Y1500113D02*
Y1503113D01*
X743889Y1425413D02*
X746889D01*
X745389Y1423913D02*
Y1426913D01*
X743889Y1349213D02*
X746889D01*
X745389Y1347713D02*
Y1350713D01*
X743889Y1273013D02*
X746889D01*
X745389Y1271513D02*
Y1274513D01*
X743889Y1120613D02*
X746889D01*
X745389Y1119113D02*
Y1122113D01*
X743889Y1044413D02*
X746889D01*
X745389Y1042913D02*
Y1045913D01*
X743889Y892013D02*
X746889D01*
X745389Y890513D02*
Y893513D01*
X743889Y815813D02*
X746889D01*
X745389Y814313D02*
Y817313D01*
X743889Y739613D02*
X746889D01*
X745389Y738113D02*
Y741113D01*
X743889Y663413D02*
X746889D01*
X745389Y661913D02*
Y664913D01*
X743889Y587213D02*
X746889D01*
X745389Y585713D02*
Y588713D01*
X743889Y511013D02*
X746889D01*
X745389Y509513D02*
Y512513D01*
X743889Y434813D02*
X746889D01*
X745389Y433313D02*
Y436313D01*
X743889Y358613D02*
X746889D01*
X745389Y357113D02*
Y360113D01*
X743889Y282413D02*
X746889D01*
X745389Y280913D02*
Y283913D01*
X743889Y206213D02*
X746889D01*
X745389Y204713D02*
Y207713D01*
X724839Y168113D02*
X727839D01*
X726339Y166613D02*
Y169613D01*
X743889Y130013D02*
X746889D01*
X745389Y128513D02*
Y131513D01*
X743889Y53813D02*
X746889D01*
X745389Y52313D02*
Y55313D01*
X705789Y2416013D02*
X708789D01*
X707289Y2414513D02*
Y2417513D01*
X686739Y2377913D02*
X689738D01*
X688239Y2376413D02*
Y2379413D01*
X705789Y2111213D02*
X708789D01*
X707289Y2109713D02*
Y2112713D01*
X686739Y2073113D02*
X689738D01*
X688239Y2071613D02*
Y2074613D01*
X705789Y2035013D02*
X708789D01*
X707289Y2033513D02*
Y2036513D01*
X686739Y1996913D02*
X689738D01*
X688239Y1995413D02*
Y1998413D01*
X705789Y1958813D02*
X708789D01*
X707289Y1957313D02*
Y1960313D01*
X686739Y1920713D02*
X689738D01*
X688239Y1919213D02*
Y1922213D01*
X705789Y1882613D02*
X708789D01*
X707289Y1881113D02*
Y1884113D01*
X686739Y1844513D02*
X689738D01*
X688239Y1843013D02*
Y1846013D01*
X705789Y1806413D02*
X708789D01*
X707289Y1804913D02*
Y1807913D01*
X686739Y1082513D02*
X689738D01*
X688239Y1081013D02*
Y1084013D01*
X686739Y1006313D02*
X689738D01*
X688239Y1004813D02*
Y1007813D01*
X686739Y930113D02*
X689738D01*
X688239Y928613D02*
Y931613D01*
X686739Y853913D02*
X689738D01*
X688239Y852413D02*
Y855413D01*
X686739Y777713D02*
X689738D01*
X688239Y776213D02*
Y779213D01*
X705789Y663413D02*
X708789D01*
X707289Y661913D02*
Y664913D01*
X686739Y625313D02*
X689738D01*
X688239Y623813D02*
Y626813D01*
X705789Y587213D02*
X708789D01*
X707289Y585713D02*
Y588713D01*
X686739Y549113D02*
X689738D01*
X688239Y547613D02*
Y550613D01*
X705789Y511013D02*
X708789D01*
X707289Y509513D02*
Y512513D01*
X705789Y434813D02*
X708789D01*
X707289Y433313D02*
Y436313D01*
X686739Y396713D02*
X689738D01*
X688239Y395213D02*
Y398213D01*
X705789Y358613D02*
X708789D01*
X707289Y357113D02*
Y360113D01*
X705789Y282413D02*
X708789D01*
X707289Y280913D02*
Y283913D01*
X686739Y244313D02*
X689738D01*
X688239Y242813D02*
Y245813D01*
X705789Y206213D02*
X708789D01*
X707289Y204713D02*
Y207713D01*
X686739Y168113D02*
X689738D01*
X688239Y166613D02*
Y169613D01*
X705789Y130013D02*
X708789D01*
X707289Y128513D02*
Y131513D01*
X705789Y53813D02*
X708789D01*
X707289Y52313D02*
Y55313D01*
X667689Y2416013D02*
X670688D01*
X669189Y2414513D02*
Y2417513D01*
X648639Y2377913D02*
X651638D01*
X650139Y2376413D02*
Y2379413D01*
X667689Y1501613D02*
X670688D01*
X669189Y1500113D02*
Y1503113D01*
X667689Y1425413D02*
X670688D01*
X669189Y1423913D02*
Y1426913D01*
X648639Y1387313D02*
X651638D01*
X650139Y1385813D02*
Y1388813D01*
X648639Y1311113D02*
X651638D01*
X650139Y1309613D02*
Y1312613D01*
X667689Y1273013D02*
X670688D01*
X669189Y1271513D02*
Y1274513D01*
X648639Y1158713D02*
X651638D01*
X650139Y1157213D02*
Y1160213D01*
X648639Y1082513D02*
X651638D01*
X650139Y1081013D02*
Y1084013D01*
X648639Y1006313D02*
X651638D01*
X650139Y1004813D02*
Y1007813D01*
X648639Y930113D02*
X651638D01*
X650139Y928613D02*
Y931613D01*
X648639Y853913D02*
X651638D01*
X650139Y852413D02*
Y855413D01*
X648639Y777713D02*
X651638D01*
X650139Y776213D02*
Y779213D01*
X667689Y739613D02*
X670688D01*
X669189Y738113D02*
Y741113D01*
X667689Y663413D02*
X670688D01*
X669189Y661913D02*
Y664913D01*
X648639Y625313D02*
X651638D01*
X650139Y623813D02*
Y626813D01*
X648639Y549113D02*
X651638D01*
X650139Y547613D02*
Y550613D01*
X667689Y511013D02*
X670688D01*
X669189Y509513D02*
Y512513D01*
X667689Y434813D02*
X670688D01*
X669189Y433313D02*
Y436313D01*
X648639Y396713D02*
X651638D01*
X650139Y395213D02*
Y398213D01*
X667689Y282413D02*
X670688D01*
X669189Y280913D02*
Y283913D01*
X667689Y206213D02*
X670688D01*
X669189Y204713D02*
Y207713D01*
X648639Y168113D02*
X651638D01*
X650139Y166613D02*
Y169613D01*
X667689Y53813D02*
X670688D01*
X669189Y52313D02*
Y55313D01*
X629589Y2416013D02*
X632589D01*
X631089Y2414513D02*
Y2417513D01*
X610539Y2377913D02*
X613539D01*
X612039Y2376413D02*
Y2379413D01*
X629589Y1730213D02*
X632589D01*
X631089Y1728713D02*
Y1731713D01*
X629589Y1501613D02*
X632589D01*
X631089Y1500113D02*
Y1503113D01*
X610539Y1463513D02*
X613539D01*
X612039Y1462013D02*
Y1465013D01*
X629589Y1425413D02*
X632589D01*
X631089Y1423913D02*
Y1426913D01*
X610539Y1387313D02*
X613539D01*
X612039Y1385813D02*
Y1388813D01*
X610539Y1311113D02*
X613539D01*
X612039Y1309613D02*
Y1312613D01*
X629589Y1120613D02*
X632589D01*
X631089Y1119113D02*
Y1122113D01*
X610539Y1082513D02*
X613539D01*
X612039Y1081013D02*
Y1084013D01*
X629589Y892013D02*
X632589D01*
X631089Y890513D02*
Y893513D01*
X610539Y853913D02*
X613539D01*
X612039Y852413D02*
Y855413D01*
X629589Y739613D02*
X632589D01*
X631089Y738113D02*
Y741113D01*
X629589Y663413D02*
X632589D01*
X631089Y661913D02*
Y664913D01*
X610539Y625313D02*
X613539D01*
X612039Y623813D02*
Y626813D01*
X629589Y587213D02*
X632589D01*
X631089Y585713D02*
Y588713D01*
X610539Y549113D02*
X613539D01*
X612039Y547613D02*
Y550613D01*
X629589Y511013D02*
X632589D01*
X631089Y509513D02*
Y512513D01*
X629589Y434813D02*
X632589D01*
X631089Y433313D02*
Y436313D01*
X610539Y396713D02*
X613539D01*
X612039Y395213D02*
Y398213D01*
X629589Y358613D02*
X632589D01*
X631089Y357113D02*
Y360113D01*
X629589Y282413D02*
X632589D01*
X631089Y280913D02*
Y283913D01*
X629589Y206213D02*
X632589D01*
X631089Y204713D02*
Y207713D01*
X629589Y53813D02*
X632589D01*
X631089Y52313D02*
Y55313D01*
X591489Y2416013D02*
X594488D01*
X592989Y2414513D02*
Y2417513D01*
X572439Y2377913D02*
X575438D01*
X573939Y2376413D02*
Y2379413D01*
X591489Y1730213D02*
X594488D01*
X592989Y1728713D02*
Y1731713D01*
X591489Y1501613D02*
X594488D01*
X592989Y1500113D02*
Y1503113D01*
X591489Y1425413D02*
X594488D01*
X592989Y1423913D02*
Y1426913D01*
X591489Y1349213D02*
X594488D01*
X592989Y1347713D02*
Y1350713D01*
X591489Y1273013D02*
X594488D01*
X592989Y1271513D02*
Y1274513D01*
X591489Y1120613D02*
X594488D01*
X592989Y1119113D02*
Y1122113D01*
X591489Y1044413D02*
X594488D01*
X592989Y1042913D02*
Y1045913D01*
X591489Y892013D02*
X594488D01*
X592989Y890513D02*
Y893513D01*
X591489Y815813D02*
X594488D01*
X592989Y814313D02*
Y817313D01*
X591489Y739613D02*
X594488D01*
X592989Y738113D02*
Y741113D01*
X591489Y663413D02*
X594488D01*
X592989Y661913D02*
Y664913D01*
X591489Y587213D02*
X594488D01*
X592989Y585713D02*
Y588713D01*
X591489Y511013D02*
X594488D01*
X592989Y509513D02*
Y512513D01*
X591489Y434813D02*
X594488D01*
X592989Y433313D02*
Y436313D01*
X591489Y358613D02*
X594488D01*
X592989Y357113D02*
Y360113D01*
X591489Y282413D02*
X594488D01*
X592989Y280913D02*
Y283913D01*
X591489Y206213D02*
X594488D01*
X592989Y204713D02*
Y207713D01*
X591489Y130013D02*
X594488D01*
X592989Y128513D02*
Y131513D01*
X591489Y53813D02*
X594488D01*
X592989Y52313D02*
Y55313D01*
X553389Y2416013D02*
X556389D01*
X554889Y2414513D02*
Y2417513D01*
X534339Y2377913D02*
X537338D01*
X535839Y2376413D02*
Y2379413D01*
X553389Y1730213D02*
X556389D01*
X554889Y1728713D02*
Y1731713D01*
X534339Y1463513D02*
X537338D01*
X535839Y1462013D02*
Y1465013D01*
X553389Y1425413D02*
X556389D01*
X554889Y1423913D02*
Y1426913D01*
X534339Y1387313D02*
X537338D01*
X535839Y1385813D02*
Y1388813D01*
X553389Y1349213D02*
X556389D01*
X554889Y1347713D02*
Y1350713D01*
X534339Y1311113D02*
X537338D01*
X535839Y1309613D02*
Y1312613D01*
X553389Y1273013D02*
X556389D01*
X554889Y1271513D02*
Y1274513D01*
X534339Y1234913D02*
X537338D01*
X535839Y1233413D02*
Y1236413D01*
X534339Y1158713D02*
X537338D01*
X535839Y1157213D02*
Y1160213D01*
X553389Y1120613D02*
X556389D01*
X554889Y1119113D02*
Y1122113D01*
X534339Y1082513D02*
X537338D01*
X535839Y1081013D02*
Y1084013D01*
X553389Y1044413D02*
X556389D01*
X554889Y1042913D02*
Y1045913D01*
X534339Y1006313D02*
X537338D01*
X535839Y1004813D02*
Y1007813D01*
X534339Y930113D02*
X537338D01*
X535839Y928613D02*
Y931613D01*
X553389Y892013D02*
X556389D01*
X554889Y890513D02*
Y893513D01*
X534339Y853913D02*
X537338D01*
X535839Y852413D02*
Y855413D01*
X553389Y815813D02*
X556389D01*
X554889Y814313D02*
Y817313D01*
X534339Y777713D02*
X537338D01*
X535839Y776213D02*
Y779213D01*
X553389Y739613D02*
X556389D01*
X554889Y738113D02*
Y741113D01*
X553389Y663413D02*
X556389D01*
X554889Y661913D02*
Y664913D01*
X534339Y625313D02*
X537338D01*
X535839Y623813D02*
Y626813D01*
X553389Y587213D02*
X556389D01*
X554889Y585713D02*
Y588713D01*
X534339Y549113D02*
X537338D01*
X535839Y547613D02*
Y550613D01*
X553389Y511013D02*
X556389D01*
X554889Y509513D02*
Y512513D01*
X553389Y434813D02*
X556389D01*
X554889Y433313D02*
Y436313D01*
X534339Y396713D02*
X537338D01*
X535839Y395213D02*
Y398213D01*
X553389Y358613D02*
X556389D01*
X554889Y357113D02*
Y360113D01*
X553389Y282413D02*
X556389D01*
X554889Y280913D02*
Y283913D01*
X534339Y244313D02*
X537338D01*
X535839Y242813D02*
Y245813D01*
X553389Y206213D02*
X556389D01*
X554889Y204713D02*
Y207713D01*
X534339Y168113D02*
X537338D01*
X535839Y166613D02*
Y169613D01*
X553389Y130013D02*
X556389D01*
X554889Y128513D02*
Y131513D01*
X553389Y53813D02*
X556389D01*
X554889Y52313D02*
Y55313D01*
X515289Y2416013D02*
X518288D01*
X516789Y2414513D02*
Y2417513D01*
X496239Y2377913D02*
X499239D01*
X497739Y2376413D02*
Y2379413D01*
X515289Y1501613D02*
X518288D01*
X516789Y1500113D02*
Y1503113D01*
X515289Y1425413D02*
X518288D01*
X516789Y1423913D02*
Y1426913D01*
X515289Y1349213D02*
X518288D01*
X516789Y1347713D02*
Y1350713D01*
X515289Y1273013D02*
X518288D01*
X516789Y1271513D02*
Y1274513D01*
X515289Y1120613D02*
X518288D01*
X516789Y1119113D02*
Y1122113D01*
X515289Y1044413D02*
X518288D01*
X516789Y1042913D02*
Y1045913D01*
X515289Y892013D02*
X518288D01*
X516789Y890513D02*
Y893513D01*
X515289Y815813D02*
X518288D01*
X516789Y814313D02*
Y817313D01*
X515289Y739613D02*
X518288D01*
X516789Y738113D02*
Y741113D01*
X515289Y663413D02*
X518288D01*
X516789Y661913D02*
Y664913D01*
X515289Y587213D02*
X518288D01*
X516789Y585713D02*
Y588713D01*
X515289Y511013D02*
X518288D01*
X516789Y509513D02*
Y512513D01*
X515289Y434813D02*
X518288D01*
X516789Y433313D02*
Y436313D01*
X515289Y358613D02*
X518288D01*
X516789Y357113D02*
Y360113D01*
X515289Y282413D02*
X518288D01*
X516789Y280913D02*
Y283913D01*
X515289Y206213D02*
X518288D01*
X516789Y204713D02*
Y207713D01*
X496239Y168113D02*
X499239D01*
X497739Y166613D02*
Y169613D01*
X515289Y130013D02*
X518288D01*
X516789Y128513D02*
Y131513D01*
X515289Y53813D02*
X518288D01*
X516789Y52313D02*
Y55313D01*
X477189Y2416013D02*
X480188D01*
X478689Y2414513D02*
Y2417513D01*
X458139Y2377913D02*
X461138D01*
X459639Y2376413D02*
Y2379413D01*
X458139Y1692113D02*
X461138D01*
X459639Y1690613D02*
Y1693613D01*
X458139Y1311113D02*
X461138D01*
X459639Y1309613D02*
Y1312613D01*
X458139Y1234913D02*
X461138D01*
X459639Y1233413D02*
Y1236413D01*
X458139Y1158713D02*
X461138D01*
X459639Y1157213D02*
Y1160213D01*
X458139Y1082513D02*
X461138D01*
X459639Y1081013D02*
Y1084013D01*
X458139Y1006313D02*
X461138D01*
X459639Y1004813D02*
Y1007813D01*
X458139Y930113D02*
X461138D01*
X459639Y928613D02*
Y931613D01*
X477189Y892013D02*
X480188D01*
X478689Y890513D02*
Y893513D01*
X458139Y853913D02*
X461138D01*
X459639Y852413D02*
Y855413D01*
X477189Y815813D02*
X480188D01*
X478689Y814313D02*
Y817313D01*
X458139Y777713D02*
X461138D01*
X459639Y776213D02*
Y779213D01*
X477189Y739613D02*
X480188D01*
X478689Y738113D02*
Y741113D01*
X477189Y663413D02*
X480188D01*
X478689Y661913D02*
Y664913D01*
X458139Y625313D02*
X461138D01*
X459639Y623813D02*
Y626813D01*
X477189Y587213D02*
X480188D01*
X478689Y585713D02*
Y588713D01*
X458139Y549113D02*
X461138D01*
X459639Y547613D02*
Y550613D01*
X477189Y511013D02*
X480188D01*
X478689Y509513D02*
Y512513D01*
X477189Y434813D02*
X480188D01*
X478689Y433313D02*
Y436313D01*
X458139Y396713D02*
X461138D01*
X459639Y395213D02*
Y398213D01*
X477189Y358613D02*
X480188D01*
X478689Y357113D02*
Y360113D01*
X477189Y282413D02*
X480188D01*
X478689Y280913D02*
Y283913D01*
X458139Y244313D02*
X461138D01*
X459639Y242813D02*
Y245813D01*
X477189Y206213D02*
X480188D01*
X478689Y204713D02*
Y207713D01*
X458139Y168113D02*
X461138D01*
X459639Y166613D02*
Y169613D01*
X477189Y130013D02*
X480188D01*
X478689Y128513D02*
Y131513D01*
X477189Y53813D02*
X480188D01*
X478689Y52313D02*
Y55313D01*
X439089Y2416013D02*
X442089D01*
X440589Y2414513D02*
Y2417513D01*
X420039Y2377913D02*
X423038D01*
X421539Y2376413D02*
Y2379413D01*
X439089Y1501613D02*
X442089D01*
X440589Y1500113D02*
Y1503113D01*
X420039Y1463513D02*
X423038D01*
X421539Y1462013D02*
Y1465013D01*
X420039Y1387313D02*
X423038D01*
X421539Y1385813D02*
Y1388813D01*
X420039Y1311113D02*
X423038D01*
X421539Y1309613D02*
Y1312613D01*
X439089Y1273013D02*
X442089D01*
X440589Y1271513D02*
Y1274513D01*
X420039Y1234913D02*
X423038D01*
X421539Y1233413D02*
Y1236413D01*
X420039Y1158713D02*
X423038D01*
X421539Y1157213D02*
Y1160213D01*
X420039Y1082513D02*
X423038D01*
X421539Y1081013D02*
Y1084013D01*
X420039Y1006313D02*
X423038D01*
X421539Y1004813D02*
Y1007813D01*
X420039Y930113D02*
X423038D01*
X421539Y928613D02*
Y931613D01*
X420039Y853913D02*
X423038D01*
X421539Y852413D02*
Y855413D01*
X420039Y777713D02*
X423038D01*
X421539Y776213D02*
Y779213D01*
X439089Y739613D02*
X442089D01*
X440589Y738113D02*
Y741113D01*
X439089Y663413D02*
X442089D01*
X440589Y661913D02*
Y664913D01*
X420039Y625313D02*
X423038D01*
X421539Y623813D02*
Y626813D01*
X420039Y549113D02*
X423038D01*
X421539Y547613D02*
Y550613D01*
X439089Y511013D02*
X442089D01*
X440589Y509513D02*
Y512513D01*
X439089Y434813D02*
X442089D01*
X440589Y433313D02*
Y436313D01*
X420039Y396713D02*
X423038D01*
X421539Y395213D02*
Y398213D01*
X439089Y282413D02*
X442089D01*
X440589Y280913D02*
Y283913D01*
X439089Y206213D02*
X442089D01*
X440589Y204713D02*
Y207713D01*
X420039Y168113D02*
X423038D01*
X421539Y166613D02*
Y169613D01*
X439089Y53813D02*
X442089D01*
X440589Y52313D02*
Y55313D01*
X400989Y2416013D02*
X403988D01*
X402489Y2414513D02*
Y2417513D01*
X381939Y2377913D02*
X384939D01*
X383439Y2376413D02*
Y2379413D01*
X400989Y1730213D02*
X403988D01*
X402489Y1728713D02*
Y1731713D01*
X381939Y1692113D02*
X384939D01*
X383439Y1690613D02*
Y1693613D01*
X381939Y1463513D02*
X384939D01*
X383439Y1462013D02*
Y1465013D01*
X381939Y1387313D02*
X384939D01*
X383439Y1385813D02*
Y1388813D01*
X381939Y1311113D02*
X384939D01*
X383439Y1309613D02*
Y1312613D01*
X381939Y1234913D02*
X384939D01*
X383439Y1233413D02*
Y1236413D01*
X381939Y1082513D02*
X384939D01*
X383439Y1081013D02*
Y1084013D01*
X381939Y853913D02*
X384939D01*
X383439Y852413D02*
Y855413D01*
X381939Y625313D02*
X384939D01*
X383439Y623813D02*
Y626813D01*
X400989Y587213D02*
X403988D01*
X402489Y585713D02*
Y588713D01*
X381939Y549113D02*
X384939D01*
X383439Y547613D02*
Y550613D01*
X381939Y396713D02*
X384939D01*
X383439Y395213D02*
Y398213D01*
X381939Y244313D02*
X384939D01*
X383439Y242813D02*
Y245813D01*
X362889Y2416013D02*
X365888D01*
X364389Y2414513D02*
Y2417513D01*
X343839Y2377913D02*
X346838D01*
X345339Y2376413D02*
Y2379413D01*
X362889Y1730213D02*
X365888D01*
X364389Y1728713D02*
Y1731713D01*
X343839Y1692113D02*
X346838D01*
X345339Y1690613D02*
Y1693613D01*
X362889Y1501613D02*
X365888D01*
X364389Y1500113D02*
Y1503113D01*
X343839Y1463513D02*
X346838D01*
X345339Y1462013D02*
Y1465013D01*
X343839Y1387313D02*
X346838D01*
X345339Y1385813D02*
Y1388813D01*
X343839Y1311113D02*
X346838D01*
X345339Y1309613D02*
Y1312613D01*
X343839Y1234913D02*
X346838D01*
X345339Y1233413D02*
Y1236413D01*
X343839Y1158713D02*
X346838D01*
X345339Y1157213D02*
Y1160213D01*
X343839Y1082513D02*
X346838D01*
X345339Y1081013D02*
Y1084013D01*
X343839Y1006313D02*
X346838D01*
X345339Y1004813D02*
Y1007813D01*
X343839Y930113D02*
X346838D01*
X345339Y928613D02*
Y931613D01*
X343839Y853913D02*
X346838D01*
X345339Y852413D02*
Y855413D01*
X343839Y777713D02*
X346838D01*
X345339Y776213D02*
Y779213D01*
X343839Y625313D02*
X346838D01*
X345339Y623813D02*
Y626813D01*
X343839Y549113D02*
X346838D01*
X345339Y547613D02*
Y550613D01*
X343839Y396713D02*
X346838D01*
X345339Y395213D02*
Y398213D01*
X343839Y244313D02*
X346838D01*
X345339Y242813D02*
Y245813D01*
X343839Y168113D02*
X346838D01*
X345339Y166613D02*
Y169613D01*
X324789Y2416013D02*
X327789D01*
X326289Y2414513D02*
Y2417513D01*
X305739Y2377913D02*
X308738D01*
X307239Y2376413D02*
Y2379413D01*
X324789Y2111213D02*
X327789D01*
X326289Y2109713D02*
Y2112713D01*
X305739Y2073113D02*
X308738D01*
X307239Y2071613D02*
Y2074613D01*
X324789Y2035013D02*
X327789D01*
X326289Y2033513D02*
Y2036513D01*
X305739Y1996913D02*
X308738D01*
X307239Y1995413D02*
Y1998413D01*
X324789Y1958813D02*
X327789D01*
X326289Y1957313D02*
Y1960313D01*
X305739Y1920713D02*
X308738D01*
X307239Y1919213D02*
Y1922213D01*
X324789Y1882613D02*
X327789D01*
X326289Y1881113D02*
Y1884113D01*
X305739Y1844513D02*
X308738D01*
X307239Y1843013D02*
Y1846013D01*
X324789Y1806413D02*
X327789D01*
X326289Y1804913D02*
Y1807913D01*
X324789Y1730213D02*
X327789D01*
X326289Y1728713D02*
Y1731713D01*
X305739Y1463513D02*
X308738D01*
X307239Y1462013D02*
Y1465013D01*
X324789Y1425413D02*
X327789D01*
X326289Y1423913D02*
Y1426913D01*
X305739Y1387313D02*
X308738D01*
X307239Y1385813D02*
Y1388813D01*
X324789Y1349213D02*
X327789D01*
X326289Y1347713D02*
Y1350713D01*
X305739Y1311113D02*
X308738D01*
X307239Y1309613D02*
Y1312613D01*
X324789Y1273013D02*
X327789D01*
X326289Y1271513D02*
Y1274513D01*
X305739Y1234913D02*
X308738D01*
X307239Y1233413D02*
Y1236413D01*
X305739Y1158713D02*
X308738D01*
X307239Y1157213D02*
Y1160213D01*
X324789Y1120613D02*
X327789D01*
X326289Y1119113D02*
Y1122113D01*
X305739Y1082513D02*
X308738D01*
X307239Y1081013D02*
Y1084013D01*
X324789Y1044413D02*
X327789D01*
X326289Y1042913D02*
Y1045913D01*
X305739Y1006313D02*
X308738D01*
X307239Y1004813D02*
Y1007813D01*
X305739Y930113D02*
X308738D01*
X307239Y928613D02*
Y931613D01*
X324789Y892013D02*
X327789D01*
X326289Y890513D02*
Y893513D01*
X305739Y853913D02*
X308738D01*
X307239Y852413D02*
Y855413D01*
X324789Y815813D02*
X327789D01*
X326289Y814313D02*
Y817313D01*
X305739Y777713D02*
X308738D01*
X307239Y776213D02*
Y779213D01*
X324789Y739613D02*
X327789D01*
X326289Y738113D02*
Y741113D01*
X324789Y663413D02*
X327789D01*
X326289Y661913D02*
Y664913D01*
X305739Y625313D02*
X308738D01*
X307239Y623813D02*
Y626813D01*
X324789Y587213D02*
X327789D01*
X326289Y585713D02*
Y588713D01*
X305739Y549113D02*
X308738D01*
X307239Y547613D02*
Y550613D01*
X324789Y511013D02*
X327789D01*
X326289Y509513D02*
Y512513D01*
X324789Y434813D02*
X327789D01*
X326289Y433313D02*
Y436313D01*
X305739Y396713D02*
X308738D01*
X307239Y395213D02*
Y398213D01*
X324789Y358613D02*
X327789D01*
X326289Y357113D02*
Y360113D01*
X324789Y282413D02*
X327789D01*
X326289Y280913D02*
Y283913D01*
X305739Y244313D02*
X308738D01*
X307239Y242813D02*
Y245813D01*
X324789Y206213D02*
X327789D01*
X326289Y204713D02*
Y207713D01*
X305739Y168113D02*
X308738D01*
X307239Y166613D02*
Y169613D01*
X324789Y130013D02*
X327789D01*
X326289Y128513D02*
Y131513D01*
X324789Y53813D02*
X327789D01*
X326289Y52313D02*
Y55313D01*
X286689Y2416013D02*
X289688D01*
X288189Y2414513D02*
Y2417513D01*
X267639Y2377913D02*
X270639D01*
X269139Y2376413D02*
Y2379413D01*
X286689Y1501613D02*
X289688D01*
X288189Y1500113D02*
Y1503113D01*
X286689Y1425413D02*
X289688D01*
X288189Y1423913D02*
Y1426913D01*
X286689Y1349213D02*
X289688D01*
X288189Y1347713D02*
Y1350713D01*
X286689Y1273013D02*
X289688D01*
X288189Y1271513D02*
Y1274513D01*
X286689Y1120613D02*
X289688D01*
X288189Y1119113D02*
Y1122113D01*
X286689Y1044413D02*
X289688D01*
X288189Y1042913D02*
Y1045913D01*
X286689Y892013D02*
X289688D01*
X288189Y890513D02*
Y893513D01*
X286689Y815813D02*
X289688D01*
X288189Y814313D02*
Y817313D01*
X286689Y739613D02*
X289688D01*
X288189Y738113D02*
Y741113D01*
X286689Y663413D02*
X289688D01*
X288189Y661913D02*
Y664913D01*
X286689Y587213D02*
X289688D01*
X288189Y585713D02*
Y588713D01*
X286689Y511013D02*
X289688D01*
X288189Y509513D02*
Y512513D01*
X286689Y434813D02*
X289688D01*
X288189Y433313D02*
Y436313D01*
X286689Y358613D02*
X289688D01*
X288189Y357113D02*
Y360113D01*
X286689Y282413D02*
X289688D01*
X288189Y280913D02*
Y283913D01*
X286689Y206213D02*
X289688D01*
X288189Y204713D02*
Y207713D01*
X267639Y168113D02*
X270639D01*
X269139Y166613D02*
Y169613D01*
X286689Y130013D02*
X289688D01*
X288189Y128513D02*
Y131513D01*
X286689Y53813D02*
X289688D01*
X288189Y52313D02*
Y55313D01*
X248589Y2416013D02*
X251588D01*
X250089Y2414513D02*
Y2417513D01*
X229539Y2377913D02*
X232539D01*
X231039Y2376413D02*
Y2379413D01*
X248589Y2339813D02*
X251588D01*
X250089Y2338313D02*
Y2341313D01*
X229539Y1311113D02*
X232539D01*
X231039Y1309613D02*
Y1312613D01*
X229539Y1234913D02*
X232539D01*
X231039Y1233413D02*
Y1236413D01*
X229539Y1158713D02*
X232539D01*
X231039Y1157213D02*
Y1160213D01*
X229539Y1082513D02*
X232539D01*
X231039Y1081013D02*
Y1084013D01*
X229539Y1006313D02*
X232539D01*
X231039Y1004813D02*
Y1007813D01*
X229539Y930113D02*
X232539D01*
X231039Y928613D02*
Y931613D01*
X229539Y853913D02*
X232539D01*
X231039Y852413D02*
Y855413D01*
X229539Y777713D02*
X232539D01*
X231039Y776213D02*
Y779213D01*
X248589Y663413D02*
X251588D01*
X250089Y661913D02*
Y664913D01*
X229539Y625313D02*
X232539D01*
X231039Y623813D02*
Y626813D01*
X248589Y587213D02*
X251588D01*
X250089Y585713D02*
Y588713D01*
X229539Y549113D02*
X232539D01*
X231039Y547613D02*
Y550613D01*
X248589Y511013D02*
X251588D01*
X250089Y509513D02*
Y512513D01*
X248589Y434813D02*
X251588D01*
X250089Y433313D02*
Y436313D01*
X229539Y396713D02*
X232539D01*
X231039Y395213D02*
Y398213D01*
X248589Y358613D02*
X251588D01*
X250089Y357113D02*
Y360113D01*
X248589Y282413D02*
X251588D01*
X250089Y280913D02*
Y283913D01*
X229539Y244313D02*
X232539D01*
X231039Y242813D02*
Y245813D01*
X248589Y206213D02*
X251588D01*
X250089Y204713D02*
Y207713D01*
X229539Y168113D02*
X232539D01*
X231039Y166613D02*
Y169613D01*
X248589Y130013D02*
X251588D01*
X250089Y128513D02*
Y131513D01*
X248589Y53813D02*
X251588D01*
X250089Y52313D02*
Y55313D01*
X210489Y2416013D02*
X213489D01*
X211989Y2414513D02*
Y2417513D01*
X191439Y2377913D02*
X194438D01*
X192939Y2376413D02*
Y2379413D01*
X210489Y2339813D02*
X213489D01*
X211989Y2338313D02*
Y2341313D01*
X191439Y2301713D02*
X194438D01*
X192939Y2300213D02*
Y2303213D01*
X191439Y1539713D02*
X194438D01*
X192939Y1538213D02*
Y1541213D01*
X210489Y1501613D02*
X213489D01*
X211989Y1500113D02*
Y1503113D01*
X191439Y1463513D02*
X194438D01*
X192939Y1462013D02*
Y1465013D01*
X191439Y1387313D02*
X194438D01*
X192939Y1385813D02*
Y1388813D01*
X191439Y1311113D02*
X194438D01*
X192939Y1309613D02*
Y1312613D01*
X210489Y1273013D02*
X213489D01*
X211989Y1271513D02*
Y1274513D01*
X191439Y1234913D02*
X194438D01*
X192939Y1233413D02*
Y1236413D01*
X191439Y1158713D02*
X194438D01*
X192939Y1157213D02*
Y1160213D01*
X191439Y1082513D02*
X194438D01*
X192939Y1081013D02*
Y1084013D01*
X191439Y1006313D02*
X194438D01*
X192939Y1004813D02*
Y1007813D01*
X210489Y968213D02*
X213489D01*
X211989Y966713D02*
Y969713D01*
X191439Y930113D02*
X194438D01*
X192939Y928613D02*
Y931613D01*
X191439Y853913D02*
X194438D01*
X192939Y852413D02*
Y855413D01*
X191439Y777713D02*
X194438D01*
X192939Y776213D02*
Y779213D01*
X210489Y739613D02*
X213489D01*
X211989Y738113D02*
Y741113D01*
X210489Y663413D02*
X213489D01*
X211989Y661913D02*
Y664913D01*
X191439Y625313D02*
X194438D01*
X192939Y623813D02*
Y626813D01*
X191439Y549113D02*
X194438D01*
X192939Y547613D02*
Y550613D01*
X210489Y511013D02*
X213489D01*
X211989Y509513D02*
Y512513D01*
X210489Y434813D02*
X213489D01*
X211989Y433313D02*
Y436313D01*
X191439Y396713D02*
X194438D01*
X192939Y395213D02*
Y398213D01*
X191439Y320513D02*
X194438D01*
X192939Y319013D02*
Y322013D01*
X210489Y282413D02*
X213489D01*
X211989Y280913D02*
Y283913D01*
X210489Y206213D02*
X213489D01*
X211989Y204713D02*
Y207713D01*
X191439Y168113D02*
X194438D01*
X192939Y166613D02*
Y169613D01*
X191439Y91913D02*
X194438D01*
X192939Y90413D02*
Y93413D01*
X210489Y53813D02*
X213489D01*
X211989Y52313D02*
Y55313D01*
X172389Y2416013D02*
X175389D01*
X173889Y2414513D02*
Y2417513D01*
X153339Y2377913D02*
X156339D01*
X154839Y2376413D02*
Y2379413D01*
X172389Y2339813D02*
X175389D01*
X173889Y2338313D02*
Y2341313D01*
X153339Y2301713D02*
X156339D01*
X154839Y2300213D02*
Y2303213D01*
X172389Y2263613D02*
X175389D01*
X173889Y2262113D02*
Y2265113D01*
X153339Y1539713D02*
X156339D01*
X154839Y1538213D02*
Y1541213D01*
X153339Y1463513D02*
X156339D01*
X154839Y1462013D02*
Y1465013D01*
X153339Y1387313D02*
X156339D01*
X154839Y1385813D02*
Y1388813D01*
X153339Y1311113D02*
X156339D01*
X154839Y1309613D02*
Y1312613D01*
X153339Y1082513D02*
X156339D01*
X154839Y1081013D02*
Y1084013D01*
X153339Y853913D02*
X156339D01*
X154839Y852413D02*
Y855413D01*
X153339Y625313D02*
X156339D01*
X154839Y623813D02*
Y626813D01*
X172389Y587213D02*
X175389D01*
X173889Y585713D02*
Y588713D01*
X153339Y549113D02*
X156339D01*
X154839Y547613D02*
Y550613D01*
X153339Y396713D02*
X156339D01*
X154839Y395213D02*
Y398213D01*
X153339Y320513D02*
X156339D01*
X154839Y319013D02*
Y322013D01*
X153339Y244313D02*
X156339D01*
X154839Y242813D02*
Y245813D01*
X153339Y91913D02*
X156339D01*
X154839Y90413D02*
Y93413D01*
X134289Y2416013D02*
X137289D01*
X135789Y2414513D02*
Y2417513D01*
X115239Y2377913D02*
X118238D01*
X116739Y2376413D02*
Y2379413D01*
X134289Y2339813D02*
X137289D01*
X135789Y2338313D02*
Y2341313D01*
X115239Y2301713D02*
X118238D01*
X116739Y2300213D02*
Y2303213D01*
X134289Y2263613D02*
X137289D01*
X135789Y2262113D02*
Y2265113D01*
X115239Y2225513D02*
X118238D01*
X116739Y2224013D02*
Y2227013D01*
X115239Y1387313D02*
X118238D01*
X116739Y1385813D02*
Y1388813D01*
X115239Y1311113D02*
X118238D01*
X116739Y1309613D02*
Y1312613D01*
X115239Y1234913D02*
X118238D01*
X116739Y1233413D02*
Y1236413D01*
X115239Y1158713D02*
X118238D01*
X116739Y1157213D02*
Y1160213D01*
X115239Y1082513D02*
X118238D01*
X116739Y1081013D02*
Y1084013D01*
X115239Y1006313D02*
X118238D01*
X116739Y1004813D02*
Y1007813D01*
X115239Y930113D02*
X118238D01*
X116739Y928613D02*
Y931613D01*
X115239Y853913D02*
X118238D01*
X116739Y852413D02*
Y855413D01*
X115239Y777713D02*
X118238D01*
X116739Y776213D02*
Y779213D01*
X115239Y701513D02*
X118238D01*
X116739Y700013D02*
Y703013D01*
X115239Y625313D02*
X118238D01*
X116739Y623813D02*
Y626813D01*
X115239Y549113D02*
X118238D01*
X116739Y547613D02*
Y550613D01*
X115239Y472913D02*
X118238D01*
X116739Y471413D02*
Y474413D01*
X115239Y396713D02*
X118238D01*
X116739Y395213D02*
Y398213D01*
X115239Y320513D02*
X118238D01*
X116739Y319013D02*
Y322013D01*
X115239Y244313D02*
X118238D01*
X116739Y242813D02*
Y245813D01*
X115239Y168113D02*
X118238D01*
X116739Y166613D02*
Y169613D01*
X115239Y91913D02*
X118238D01*
X116739Y90413D02*
Y93413D01*
X96189Y2416013D02*
X99188D01*
X97689Y2414513D02*
Y2417513D01*
X77139Y2377913D02*
X80139D01*
X78639Y2376413D02*
Y2379413D01*
X96189Y2339813D02*
X99188D01*
X97689Y2338313D02*
Y2341313D01*
X77139Y2301713D02*
X80139D01*
X78639Y2300213D02*
Y2303213D01*
X96189Y2263613D02*
X99188D01*
X97689Y2262113D02*
Y2265113D01*
X77139Y2225513D02*
X80139D01*
X78639Y2224013D02*
Y2227013D01*
X96189Y2187413D02*
X99188D01*
X97689Y2185913D02*
Y2188913D01*
X77139Y2149313D02*
X80139D01*
X78639Y2147813D02*
Y2150813D01*
X96189Y2111213D02*
X99188D01*
X97689Y2109713D02*
Y2112713D01*
X77139Y2073113D02*
X80139D01*
X78639Y2071613D02*
Y2074613D01*
X96189Y2035013D02*
X99188D01*
X97689Y2033513D02*
Y2036513D01*
X77139Y1996913D02*
X80139D01*
X78639Y1995413D02*
Y1998413D01*
X96189Y1958813D02*
X99188D01*
X97689Y1957313D02*
Y1960313D01*
X77139Y1920713D02*
X80139D01*
X78639Y1919213D02*
Y1922213D01*
X96189Y1882613D02*
X99188D01*
X97689Y1881113D02*
Y1884113D01*
X77139Y1844513D02*
X80139D01*
X78639Y1843013D02*
Y1846013D01*
X96189Y1806413D02*
X99188D01*
X97689Y1804913D02*
Y1807913D01*
X77139Y1768313D02*
X80139D01*
X78639Y1766813D02*
Y1769813D01*
X96189Y1730213D02*
X99188D01*
X97689Y1728713D02*
Y1731713D01*
X77139Y1692113D02*
X80139D01*
X78639Y1690613D02*
Y1693613D01*
X77139Y1615913D02*
X80139D01*
X78639Y1614413D02*
Y1617413D01*
X77139Y1539713D02*
X80139D01*
X78639Y1538213D02*
Y1541213D01*
X77139Y1463513D02*
X80139D01*
X78639Y1462013D02*
Y1465013D01*
X77139Y1387313D02*
X80139D01*
X78639Y1385813D02*
Y1388813D01*
X77139Y1311113D02*
X80139D01*
X78639Y1309613D02*
Y1312613D01*
X77139Y1234913D02*
X80139D01*
X78639Y1233413D02*
Y1236413D01*
X77139Y1158713D02*
X80139D01*
X78639Y1157213D02*
Y1160213D01*
X77139Y1082513D02*
X80139D01*
X78639Y1081013D02*
Y1084013D01*
X77139Y1006313D02*
X80139D01*
X78639Y1004813D02*
Y1007813D01*
X77139Y930113D02*
X80139D01*
X78639Y928613D02*
Y931613D01*
X77139Y853913D02*
X80139D01*
X78639Y852413D02*
Y855413D01*
X77139Y777713D02*
X80139D01*
X78639Y776213D02*
Y779213D01*
X77139Y701513D02*
X80139D01*
X78639Y700013D02*
Y703013D01*
X77139Y625313D02*
X80139D01*
X78639Y623813D02*
Y626813D01*
X77139Y549113D02*
X80139D01*
X78639Y547613D02*
Y550613D01*
X77139Y472913D02*
X80139D01*
X78639Y471413D02*
Y474413D01*
X77139Y396713D02*
X80139D01*
X78639Y395213D02*
Y398213D01*
X77139Y320513D02*
X80139D01*
X78639Y319013D02*
Y322013D01*
X77139Y244313D02*
X80139D01*
X78639Y242813D02*
Y245813D01*
X77139Y168113D02*
X80139D01*
X78639Y166613D02*
Y169613D01*
X77139Y91913D02*
X80139D01*
X78639Y90413D02*
Y93413D01*
X96189Y53813D02*
X99188D01*
X97689Y52313D02*
Y55313D01*
X77139Y15713D02*
X80139D01*
X78639Y14213D02*
Y17213D01*
X58089Y2416013D02*
X61089D01*
X59589Y2414513D02*
Y2417513D01*
X39039Y2377913D02*
X42038D01*
X40539Y2376413D02*
Y2379413D01*
X58089Y2339813D02*
X61089D01*
X59589Y2338313D02*
Y2341313D01*
X39039Y2301713D02*
X42038D01*
X40539Y2300213D02*
Y2303213D01*
X58089Y2263613D02*
X61089D01*
X59589Y2262113D02*
Y2265113D01*
X58089Y2187413D02*
X61089D01*
X59589Y2185913D02*
Y2188913D01*
X39039Y2149313D02*
X42038D01*
X40539Y2147813D02*
Y2150813D01*
X58089Y2111213D02*
X61089D01*
X59589Y2109713D02*
Y2112713D01*
X39039Y2073113D02*
X42038D01*
X40539Y2071613D02*
Y2074613D01*
X58089Y2035013D02*
X61089D01*
X59589Y2033513D02*
Y2036513D01*
X39039Y1996913D02*
X42038D01*
X40539Y1995413D02*
Y1998413D01*
X58089Y1958813D02*
X61089D01*
X59589Y1957313D02*
Y1960313D01*
X39039Y1920713D02*
X42038D01*
X40539Y1919213D02*
Y1922213D01*
X58089Y1882613D02*
X61089D01*
X59589Y1881113D02*
Y1884113D01*
X39039Y1844513D02*
X42038D01*
X40539Y1843013D02*
Y1846013D01*
X58089Y1806413D02*
X61089D01*
X59589Y1804913D02*
Y1807913D01*
X39039Y1768313D02*
X42038D01*
X40539Y1766813D02*
Y1769813D01*
X58089Y1730213D02*
X61089D01*
X59589Y1728713D02*
Y1731713D01*
X39039Y1692113D02*
X42038D01*
X40539Y1690613D02*
Y1693613D01*
X58089Y1654013D02*
X61089D01*
X59589Y1652513D02*
Y1655513D01*
X39039Y1615913D02*
X42038D01*
X40539Y1614413D02*
Y1617413D01*
X58089Y1577813D02*
X61089D01*
X59589Y1576313D02*
Y1579313D01*
X39039Y1539713D02*
X42038D01*
X40539Y1538213D02*
Y1541213D01*
X58089Y1501613D02*
X61089D01*
X59589Y1500113D02*
Y1503113D01*
X39039Y1463513D02*
X42038D01*
X40539Y1462013D02*
Y1465013D01*
X58089Y1425413D02*
X61089D01*
X59589Y1423913D02*
Y1426913D01*
X39039Y1387313D02*
X42038D01*
X40539Y1385813D02*
Y1388813D01*
X58089Y1349213D02*
X61089D01*
X59589Y1347713D02*
Y1350713D01*
X39039Y1311113D02*
X42038D01*
X40539Y1309613D02*
Y1312613D01*
X58089Y1273013D02*
X61089D01*
X59589Y1271513D02*
Y1274513D01*
X39039Y1234913D02*
X42038D01*
X40539Y1233413D02*
Y1236413D01*
X58089Y1196813D02*
X61089D01*
X59589Y1195313D02*
Y1198313D01*
X39039Y1158713D02*
X42038D01*
X40539Y1157213D02*
Y1160213D01*
X58089Y1120613D02*
X61089D01*
X59589Y1119113D02*
Y1122113D01*
X39039Y1082513D02*
X42038D01*
X40539Y1081013D02*
Y1084013D01*
X58089Y1044413D02*
X61089D01*
X59589Y1042913D02*
Y1045913D01*
X39039Y1006313D02*
X42038D01*
X40539Y1004813D02*
Y1007813D01*
X58089Y968213D02*
X61089D01*
X59589Y966713D02*
Y969713D01*
X58089Y892013D02*
X61089D01*
X59589Y890513D02*
Y893513D01*
X39039Y853913D02*
X42038D01*
X40539Y852413D02*
Y855413D01*
X58089Y815813D02*
X61089D01*
X59589Y814313D02*
Y817313D01*
X39039Y777713D02*
X42038D01*
X40539Y776213D02*
Y779213D01*
X58089Y739613D02*
X61089D01*
X59589Y738113D02*
Y741113D01*
X39039Y701513D02*
X42038D01*
X40539Y700013D02*
Y703013D01*
X58089Y663413D02*
X61089D01*
X59589Y661913D02*
Y664913D01*
X39039Y625313D02*
X42038D01*
X40539Y623813D02*
Y626813D01*
X58089Y587213D02*
X61089D01*
X59589Y585713D02*
Y588713D01*
X39039Y549113D02*
X42038D01*
X40539Y547613D02*
Y550613D01*
X58089Y511013D02*
X61089D01*
X59589Y509513D02*
Y512513D01*
X39039Y472913D02*
X42038D01*
X40539Y471413D02*
Y474413D01*
X58089Y434813D02*
X61089D01*
X59589Y433313D02*
Y436313D01*
X39039Y396713D02*
X42038D01*
X40539Y395213D02*
Y398213D01*
X58089Y358613D02*
X61089D01*
X59589Y357113D02*
Y360113D01*
X39039Y320513D02*
X42038D01*
X40539Y319013D02*
Y322013D01*
X58089Y282413D02*
X61089D01*
X59589Y280913D02*
Y283913D01*
X39039Y244313D02*
X42038D01*
X40539Y242813D02*
Y245813D01*
X58089Y206213D02*
X61089D01*
X59589Y204713D02*
Y207713D01*
X39039Y168113D02*
X42038D01*
X40539Y166613D02*
Y169613D01*
X58089Y130013D02*
X61089D01*
X59589Y128513D02*
Y131513D01*
X39039Y91913D02*
X42038D01*
X40539Y90413D02*
Y93413D01*
X39039Y15713D02*
X42038D01*
X40539Y14213D02*
Y17213D01*
X2295422Y2312670D02*
X2298422D01*
X2296922Y2311170D02*
Y2314170D01*
X2320314Y2180082D02*
X2323314D01*
X2321814Y2178582D02*
Y2181582D01*
X1029639Y2352513D02*
X1032638D01*
X1031139Y2351013D02*
Y2354013D01*
X991539Y2225513D02*
X994538D01*
X993039Y2224013D02*
Y2227013D01*
X1169339Y2022313D02*
X1172338D01*
X1170839Y2020813D02*
Y2023813D01*
X1207439Y1996913D02*
X1210439D01*
X1208939Y1995413D02*
Y1998413D01*
X1156639Y2301713D02*
X1159639D01*
X1158139Y2300213D02*
Y2303213D01*
X1270939Y2225513D02*
X1273939D01*
X1272439Y2224013D02*
Y2227013D01*
X1194739Y2276313D02*
X1197738D01*
X1196239Y2274813D02*
Y2277813D01*
X1169339Y2073113D02*
X1172338D01*
X1170839Y2071613D02*
Y2074613D01*
X915339Y2377913D02*
X918338D01*
X916839Y2376413D02*
Y2379413D01*
X1131239Y2047713D02*
X1134239D01*
X1132739Y2046213D02*
Y2049213D01*
X1131239Y2098513D02*
X1134239D01*
X1132739Y2097013D02*
Y2100013D01*
X1182039Y2047713D02*
X1185039D01*
X1183539Y2046213D02*
Y2049213D01*
X1232839Y2250913D02*
X1235838D01*
X1234339Y2249413D02*
Y2252413D01*
X1042339Y2377913D02*
X1045339D01*
X1043839Y2376413D02*
Y2379413D01*
X1004239Y2200113D02*
X1007238D01*
X1005739Y2198613D02*
Y2201613D01*
X1334439Y1946113D02*
X1337439D01*
X1335939Y1944613D02*
Y1947613D01*
X1359839Y1946113D02*
X1362838D01*
X1361339Y1944613D02*
Y1947613D01*
X1080439Y2098513D02*
X1083438D01*
X1081939Y2097013D02*
Y2100013D01*
X1245539Y2225513D02*
X1248539D01*
X1247039Y2224013D02*
Y2227013D01*
X940739Y2377913D02*
X943738D01*
X942239Y2376413D02*
Y2379413D01*
X1410639Y1895313D02*
X1413638D01*
X1412139Y1893813D02*
Y1896813D01*
X1309039Y2047713D02*
X1312039D01*
X1310539Y2046213D02*
Y2049213D01*
X940739Y1819113D02*
X943738D01*
X942239Y1817613D02*
Y1820613D01*
X928039Y1844513D02*
X931039D01*
X929539Y1843013D02*
Y1846013D01*
X915339Y1971513D02*
X918338D01*
X916839Y1970013D02*
Y1973013D01*
X1042339Y2327113D02*
X1045339D01*
X1043839Y2325613D02*
Y2328613D01*
X978839Y2352513D02*
X981839D01*
X980339Y2351013D02*
Y2354013D01*
X889939Y2123913D02*
X892939D01*
X891439Y2122413D02*
Y2125413D01*
X1334439Y2047713D02*
X1337439D01*
X1335939Y2046213D02*
Y2049213D01*
X1385239Y1996913D02*
X1388239D01*
X1386739Y1995413D02*
Y1998413D01*
X1410639Y1996913D02*
X1413638D01*
X1412139Y1995413D02*
Y1998413D01*
X915339Y2225513D02*
X918338D01*
X916839Y2224013D02*
Y2227013D01*
X1207439Y1946113D02*
X1210439D01*
X1208939Y1944613D02*
Y1947613D01*
X902639Y1844513D02*
X905639D01*
X904139Y1843013D02*
Y1846013D01*
X928039Y2098513D02*
X931039D01*
X929539Y2097013D02*
Y2100013D01*
X1207439Y2250913D02*
X1210439D01*
X1208939Y2249413D02*
Y2252413D01*
X1232839Y1946113D02*
X1235838D01*
X1234339Y1944613D02*
Y1947613D01*
X1182039Y2250913D02*
X1185039D01*
X1183539Y2249413D02*
Y2252413D01*
X1143939Y2377913D02*
X1146938D01*
X1145439Y2376413D02*
Y2379413D01*
X889939Y2225513D02*
X892939D01*
X891439Y2224013D02*
Y2227013D01*
X991539Y2327113D02*
X994538D01*
X993039Y2325613D02*
Y2328613D01*
X1182039Y1996913D02*
X1185039D01*
X1183539Y1995413D02*
Y1998413D01*
X1093139Y2022313D02*
X1096139D01*
X1094639Y2020813D02*
Y2023813D01*
X1118539Y2276313D02*
X1121538D01*
X1120039Y2274813D02*
Y2277813D01*
X953439Y1844513D02*
X956439D01*
X954939Y1843013D02*
Y1846013D01*
X1410639Y2047713D02*
X1413638D01*
X1412139Y2046213D02*
Y2049213D01*
X1258239Y1996913D02*
X1261238D01*
X1259739Y1995413D02*
Y1998413D01*
X1067739Y2327113D02*
X1070739D01*
X1069239Y2325613D02*
Y2328613D01*
X1143939Y2022313D02*
X1146938D01*
X1145439Y2020813D02*
Y2023813D01*
X1118539Y2327113D02*
X1121538D01*
X1120039Y2325613D02*
Y2328613D01*
X1220139Y2377913D02*
X1223139D01*
X1221639Y2376413D02*
Y2379413D01*
X1143939Y2327113D02*
X1146938D01*
X1145439Y2325613D02*
Y2328613D01*
X940739Y2327113D02*
X943738D01*
X942239Y2325613D02*
Y2328613D01*
X1207439Y2301713D02*
X1210439D01*
X1208939Y2300213D02*
Y2303213D01*
X1385239Y1895313D02*
X1388239D01*
X1386739Y1893813D02*
Y1896813D01*
X966139Y2377913D02*
X969138D01*
X967639Y2376413D02*
Y2379413D01*
X1143939Y2073113D02*
X1146938D01*
X1145439Y2071613D02*
Y2074613D01*
X966139Y1971513D02*
X969138D01*
X967639Y1970013D02*
Y1973013D01*
X1258239Y2047713D02*
X1261238D01*
X1259739Y2046213D02*
Y2049213D01*
X1194739Y2073113D02*
X1197738D01*
X1196239Y2071613D02*
Y2074613D01*
X889939Y1819113D02*
X892939D01*
X891439Y1817613D02*
Y1820613D01*
X1194739Y2225513D02*
X1197738D01*
X1196239Y2224013D02*
Y2227013D01*
X1131239Y2301713D02*
X1134239D01*
X1132739Y2300213D02*
Y2303213D01*
X1169339Y2276313D02*
X1172338D01*
X1170839Y2274813D02*
Y2277813D01*
X889939Y2073113D02*
X892939D01*
X891439Y2071613D02*
Y2074613D01*
X991539Y2377913D02*
X994538D01*
X993039Y2376413D02*
Y2379413D01*
X1156639Y2047713D02*
X1159639D01*
X1158139Y2046213D02*
Y2049213D01*
X1118539Y2073113D02*
X1121538D01*
X1120039Y2071613D02*
Y2074613D01*
X1156639Y2098513D02*
X1159639D01*
X1158139Y2097013D02*
Y2100013D01*
X928039Y2200113D02*
X931039D01*
X929539Y2198613D02*
Y2201613D01*
X1105839Y2047713D02*
X1108839D01*
X1107339Y2046213D02*
Y2049213D01*
X889939Y1920713D02*
X892939D01*
X891439Y1919213D02*
Y1922213D01*
X1220139Y2123913D02*
X1223139D01*
X1221639Y2122413D02*
Y2125413D01*
X1105839Y2301713D02*
X1108839D01*
X1107339Y2300213D02*
Y2303213D01*
X889939Y1971513D02*
X892939D01*
X891439Y1970013D02*
Y1973013D01*
X915339Y1819113D02*
X918338D01*
X916839Y1817613D02*
Y1820613D01*
X889939Y2022313D02*
X892939D01*
X891439Y2020813D02*
Y2023813D01*
X1410639Y2200113D02*
X1413638D01*
X1412139Y2198613D02*
Y2201613D01*
X1080439Y2047713D02*
X1083438D01*
X1081939Y2046213D02*
Y2049213D01*
X1169339Y2225513D02*
X1172338D01*
X1170839Y2224013D02*
Y2227013D01*
X1283639Y1996913D02*
X1286638D01*
X1285139Y1995413D02*
Y1998413D01*
X1321739Y2123913D02*
X1324738D01*
X1323239Y2122413D02*
Y2125413D01*
X1182039Y2098513D02*
X1185039D01*
X1183539Y2097013D02*
Y2100013D01*
X1410639Y1946113D02*
X1413638D01*
X1412139Y1944613D02*
Y1947613D01*
X1359839Y1996913D02*
X1362838D01*
X1361339Y1995413D02*
Y1998413D01*
X1232839Y2301713D02*
X1235838D01*
X1234339Y2300213D02*
Y2303213D01*
X940739Y1971513D02*
X943738D01*
X942239Y1970013D02*
Y1973013D01*
X991539Y1819113D02*
X994538D01*
X993039Y1817613D02*
Y1820613D01*
X1093139Y2327113D02*
X1096139D01*
X1094639Y2325613D02*
Y2328613D01*
X1372539Y1971513D02*
X1375538D01*
X1374039Y1970013D02*
Y1973013D01*
X1131239Y1996913D02*
X1134239D01*
X1132739Y1995413D02*
Y1998413D01*
X966139Y2327113D02*
X969138D01*
X967639Y2325613D02*
Y2328613D01*
X1067739Y2377913D02*
X1070739D01*
X1069239Y2376413D02*
Y2379413D01*
X1245539Y2123913D02*
X1248539D01*
X1247039Y2122413D02*
Y2125413D01*
X1309039Y1996913D02*
X1312039D01*
X1310539Y1995413D02*
Y1998413D01*
X1359839Y1895313D02*
X1362838D01*
X1361339Y1893813D02*
Y1896813D01*
X1093139Y2073113D02*
X1096139D01*
X1094639Y2071613D02*
Y2074613D01*
X1156639Y2352513D02*
X1159639D01*
X1158139Y2351013D02*
Y2354013D01*
X1207439Y2047713D02*
X1210439D01*
X1208939Y2046213D02*
Y2049213D01*
X1182039Y2352513D02*
X1185039D01*
X1183539Y2351013D02*
Y2354013D01*
X1410639Y2149313D02*
X1413638D01*
X1412139Y2147813D02*
Y2150813D01*
X1093139Y2377913D02*
X1096139D01*
X1094639Y2376413D02*
Y2379413D01*
X1296339Y2225513D02*
X1299339D01*
X1297839Y2224013D02*
Y2227013D01*
X928039Y2352513D02*
X931039D01*
X929539Y2351013D02*
Y2354013D01*
X1004239Y2352513D02*
X1007238D01*
X1005739Y2351013D02*
Y2354013D01*
X1105839Y1996913D02*
X1108839D01*
X1107339Y1995413D02*
Y1998413D01*
X1194739Y2022313D02*
X1197738D01*
X1196239Y2020813D02*
Y2023813D01*
X1220139Y2327113D02*
X1223139D01*
X1221639Y2325613D02*
Y2328613D01*
X953439Y2352513D02*
X956439D01*
X954939Y2351013D02*
Y2354013D01*
X1245539Y2327113D02*
X1248539D01*
X1247039Y2325613D02*
Y2328613D01*
X1283639Y2149313D02*
X1286638D01*
X1285139Y2147813D02*
Y2150813D01*
X1334439Y1996913D02*
X1337439D01*
X1335939Y1995413D02*
Y1998413D01*
X1169339Y2327113D02*
X1172338D01*
X1170839Y2325613D02*
Y2328613D01*
X1410639Y2098513D02*
X1413638D01*
X1412139Y2097013D02*
Y2100013D01*
X1321739Y2225513D02*
X1324738D01*
X1323239Y2224013D02*
Y2227013D01*
X889939Y2377913D02*
X892939D01*
X891439Y2376413D02*
Y2379413D01*
X902639Y2352513D02*
X905639D01*
X904139Y2351013D02*
Y2354013D01*
X1156639Y2250913D02*
X1159639D01*
X1158139Y2249413D02*
Y2252413D01*
X1118539Y2022313D02*
X1121538D01*
X1120039Y2020813D02*
Y2023813D01*
X1156639Y1996913D02*
X1159639D01*
X1158139Y1995413D02*
Y1998413D01*
X978839Y2200113D02*
X981839D01*
X980339Y2198613D02*
Y2201613D01*
X1143939Y2276313D02*
X1146938D01*
X1145439Y2274813D02*
Y2277813D01*
X1105839Y2098513D02*
X1108839D01*
X1107339Y2097013D02*
Y2100013D01*
X1245539Y2276313D02*
X1248539D01*
X1247039Y2274813D02*
Y2277813D01*
X1016939Y2327113D02*
X1019939D01*
X1018439Y2325613D02*
Y2328613D01*
X1334439Y2149313D02*
X1337439D01*
X1335939Y2147813D02*
Y2150813D01*
X1182039Y2301713D02*
X1185039D01*
X1183539Y2300213D02*
Y2303213D01*
X1283639Y2047713D02*
X1286638D01*
X1285139Y2046213D02*
Y2049213D01*
X1258239Y1946113D02*
X1261238D01*
X1259739Y1944613D02*
Y1947613D01*
X1080439Y1996913D02*
X1083438D01*
X1081939Y1995413D02*
Y1998413D01*
X1016939Y2377913D02*
X1019939D01*
X1018439Y2376413D02*
Y2379413D01*
X966139Y1819113D02*
X969138D01*
X967639Y1817613D02*
Y1820613D01*
X1347139Y1971513D02*
X1350139D01*
X1348639Y1970013D02*
Y1973013D01*
X1169339Y2377913D02*
X1172338D01*
X1170839Y2376413D02*
Y2379413D01*
X1038239Y2023872D02*
X1041239D01*
X1039739Y2022372D02*
Y2025372D01*
X2024150Y1876552D02*
X2027150D01*
X2025650Y1875052D02*
Y1878052D01*
X1981732Y1885648D02*
X1984732D01*
X1983232Y1884148D02*
Y1887148D01*
X1911882Y1857708D02*
X1914882D01*
X1913382Y1856208D02*
Y1859208D01*
X2044470Y1867154D02*
X2047470D01*
X2045970Y1865654D02*
Y1868654D01*
X2072918Y1848457D02*
X2075918D01*
X2074418Y1846957D02*
Y1849957D01*
X2147340Y1862582D02*
X2150340D01*
X2148840Y1861082D02*
Y1864082D01*
X2140228Y2151888D02*
X2143228D01*
X2141728Y2150388D02*
Y2153388D01*
X2203982Y2176780D02*
X2206982D01*
X2205482Y2175280D02*
Y2178280D01*
X2122194Y2327656D02*
X2125194D01*
X2123694Y2326156D02*
Y2329156D01*
X913789Y2085975D02*
X916789D01*
X915289Y2084475D02*
Y2087475D01*
X906931Y2085975D02*
X909931D01*
X908431Y2084475D02*
Y2087475D01*
X968018Y2124710D02*
X971018D01*
X969518Y2123210D02*
Y2126210D01*
X974930Y2124710D02*
X977930D01*
X976430Y2123210D02*
Y2126210D01*
X961124Y2124710D02*
X964124D01*
X962624Y2123210D02*
Y2126210D01*
X1381784Y2297938D02*
X1384784D01*
X1383284Y2296438D02*
Y2299438D01*
X2669564Y2297938D02*
X2672564D01*
X2671064Y2296438D02*
Y2299438D01*
X2606826Y2223516D02*
X2609826D01*
X2608326Y2222016D02*
Y2225016D01*
X2728746Y2186686D02*
X2731746D01*
X2730246Y2185186D02*
Y2188186D01*
X2571774Y2175002D02*
X2574774D01*
X2573274Y2173502D02*
Y2176502D01*
X1116100Y1928368D02*
X1119100D01*
X1117600Y1926868D02*
Y1929868D01*
X1122958Y1928368D02*
X1125958D01*
X1124458Y1926868D02*
Y1929868D01*
X1249450Y1928368D02*
X1252450D01*
X1250950Y1926868D02*
Y1929868D01*
X1256308Y1928368D02*
X1259308D01*
X1257808Y1926868D02*
Y1929868D01*
X1300504Y2137918D02*
X1303504D01*
X1302004Y2136418D02*
Y2139418D01*
X1293646Y2137918D02*
X1296646D01*
X1295146Y2136418D02*
Y2139418D01*
X1286788Y2137918D02*
X1289788D01*
X1288288Y2136418D02*
Y2139418D01*
X820698Y2204974D02*
X823698D01*
X822198Y2203474D02*
Y2206474D01*
X916964Y2332990D02*
X919964D01*
X918464Y2331490D02*
Y2334490D01*
X276074Y1693164D02*
X279074D01*
X277574Y1691664D02*
Y1694664D01*
X340130Y1701848D02*
X343130D01*
X341630Y1700348D02*
Y1703348D01*
X326414Y1704769D02*
X329414D01*
X327914Y1703269D02*
Y1706269D01*
X837970Y1951736D02*
X840970D01*
X839470Y1950236D02*
Y1953236D01*
X921536Y1951736D02*
X924536D01*
X923036Y1950236D02*
Y1953236D01*
X988295Y1946191D02*
X991295D01*
X989795Y1944691D02*
Y1947691D01*
X923060Y2016760D02*
X926060D01*
X924560Y2015260D02*
Y2018260D01*
X2887496Y1742948D02*
X2890496D01*
X2888996Y1741448D02*
Y1744448D01*
X1060703Y2233397D02*
X1063703D01*
X1062203Y2231897D02*
Y2234897D01*
X1010964Y2015216D02*
X1013964D01*
X1012464Y2013716D02*
Y2016716D01*
X1217954Y2164128D02*
X1220954D01*
X1219454Y2162628D02*
Y2165628D01*
X928140Y2326386D02*
X931140D01*
X929640Y2324886D02*
Y2327886D01*
X1187474Y2163826D02*
X1190474D01*
X1188974Y2162326D02*
Y2165326D01*
X832890Y2172462D02*
X835890D01*
X834390Y2170962D02*
Y2173962D01*
X1195094Y2148332D02*
X1198094D01*
X1196594Y2146832D02*
Y2149832D01*
X1205508Y2155952D02*
X1208508D01*
X1207008Y2154452D02*
Y2157452D01*
X899946Y2085848D02*
X902946D01*
X901446Y2084348D02*
Y2087348D01*
X1084096Y1938175D02*
X1087096D01*
X1085596Y1936675D02*
Y1939675D01*
X1068348Y1938175D02*
X1071348D01*
X1069848Y1936675D02*
Y1939675D01*
X1045742Y1995424D02*
X1048742D01*
X1047242Y1993924D02*
Y1996924D01*
X1119148Y1953768D02*
X1122148D01*
X1120648Y1952268D02*
Y1955268D01*
X1146072Y1947672D02*
X1149072D01*
X1147572Y1946172D02*
Y1949172D01*
X1131086Y1956054D02*
X1134086D01*
X1132586Y1954554D02*
Y1957554D01*
X1150390Y1938020D02*
X1153390D01*
X1151890Y1936520D02*
Y1939520D01*
X1035836Y2010156D02*
X1038836D01*
X1037336Y2008656D02*
Y2011656D01*
X1073428Y2232152D02*
X1076428D01*
X1074928Y2230652D02*
Y2233652D01*
X1072274Y2244714D02*
X1075274D01*
X1073774Y2243214D02*
Y2246214D01*
X1045742Y2010156D02*
X1048742D01*
X1047242Y2008656D02*
Y2011656D01*
X1038630Y2040890D02*
X1041630D01*
X1040130Y2039390D02*
Y2042390D01*
X1026692Y2033524D02*
X1029692D01*
X1028192Y2032024D02*
Y2035024D01*
X1014500Y2034540D02*
X1017500D01*
X1016000Y2033040D02*
Y2036040D01*
X812570Y2197354D02*
X815570D01*
X814070Y2195854D02*
Y2198854D01*
X1649500Y2061972D02*
X1652500D01*
X1651000Y2060472D02*
Y2063472D01*
X1109242Y1928368D02*
X1112242D01*
X1110742Y1926868D02*
Y1929868D01*
X1242592Y1928368D02*
X1245592D01*
X1244092Y1926868D02*
Y1929868D01*
X1379498Y2051050D02*
X1382498D01*
X1380998Y2049550D02*
Y2052550D01*
X1363242Y2050796D02*
X1366242D01*
X1364742Y2049296D02*
Y2052296D01*
X1387372Y2041144D02*
X1390372D01*
X1388872Y2039644D02*
Y2042644D01*
X1371370Y2040890D02*
X1374370D01*
X1372870Y2039390D02*
Y2042390D01*
X1354606Y2041144D02*
X1357606D01*
X1356106Y2039644D02*
Y2042644D01*
X812570Y2181098D02*
X815570D01*
X814070Y2179598D02*
Y2182598D01*
X821206Y2189226D02*
X824206D01*
X822706Y2187726D02*
Y2190726D01*
X1086636Y2242566D02*
X1089636D01*
X1088136Y2241066D02*
Y2244066D01*
X2683110Y1708658D02*
X2686111D01*
X2684611Y1707158D02*
Y1710158D01*
X2463062Y1708658D02*
X2466062D01*
X2464562Y1707158D02*
Y1710158D01*
X2913150Y1708658D02*
X2916150D01*
X2914650Y1707158D02*
Y1710158D01*
X1086382Y2255012D02*
X1089382D01*
X1087882Y2253512D02*
Y2256512D01*
X1100352Y2253488D02*
X1103352D01*
X1101852Y2251988D02*
Y2254988D01*
X1099291Y2266000D02*
X1102291D01*
X1100791Y2264500D02*
Y2267500D01*
X1112753Y2263714D02*
X1115753D01*
X1114253Y2262214D02*
Y2265214D01*
X2614770Y1748536D02*
X2617770D01*
X2616270Y1747036D02*
Y1750036D01*
X2646266Y1748282D02*
X2649266D01*
X2647766Y1746782D02*
Y1749782D01*
X2394770Y1748536D02*
X2397770D01*
X2396270Y1747036D02*
Y1750036D01*
X2426266Y1748282D02*
X2429266D01*
X2427766Y1746782D02*
Y1749782D01*
X2174770Y1748536D02*
X2177770D01*
X2176270Y1747036D02*
Y1750036D01*
X2206266Y1748282D02*
X2209266D01*
X2207766Y1746782D02*
Y1749782D01*
X1954770Y1748536D02*
X1957770D01*
X1956270Y1747036D02*
Y1750036D01*
X1986266Y1748282D02*
X1989266D01*
X1987766Y1746782D02*
Y1749782D01*
X1734770Y1748536D02*
X1737770D01*
X1736270Y1747036D02*
Y1750036D01*
X1766266Y1748282D02*
X1769266D01*
X1767766Y1746782D02*
Y1749782D01*
X1514770Y1748536D02*
X1517770D01*
X1516270Y1747036D02*
Y1750036D01*
X1546266Y1748282D02*
X1549266D01*
X1547766Y1746782D02*
Y1749782D01*
X1294770Y1748536D02*
X1297770D01*
X1296270Y1747036D02*
Y1750036D01*
X1326266Y1748282D02*
X1329266D01*
X1327766Y1746782D02*
Y1749782D01*
X1074770Y1748536D02*
X1077770D01*
X1076270Y1747036D02*
Y1750036D01*
X1106266Y1748282D02*
X1109266D01*
X1107766Y1746782D02*
Y1749782D01*
X854770Y1748536D02*
X857770D01*
X856270Y1747036D02*
Y1750036D01*
X886266Y1748282D02*
X889266D01*
X887766Y1746782D02*
Y1749782D01*
X2845822Y1748536D02*
X2848822D01*
X2847322Y1747036D02*
Y1750036D01*
X666266Y1748282D02*
X669266D01*
X667766Y1746782D02*
Y1749782D01*
X634770Y1748536D02*
X637770D01*
X636270Y1747036D02*
Y1750036D01*
X445540Y1748536D02*
X448540D01*
X447040Y1747036D02*
Y1750036D01*
X415822Y1748536D02*
X418822D01*
X417322Y1747036D02*
Y1750036D01*
X495991Y1698658D02*
X498991D01*
X497491Y1697158D02*
Y1700158D01*
X715822Y1698658D02*
X718822D01*
X717322Y1697158D02*
Y1700158D01*
X936121Y1698658D02*
X939121D01*
X937621Y1697158D02*
Y1700158D01*
X1155978Y1698658D02*
X1158978D01*
X1157478Y1697158D02*
Y1700158D01*
X1375942Y1698658D02*
X1378942D01*
X1377442Y1697158D02*
Y1700158D01*
X1595906Y1698658D02*
X1598906D01*
X1597406Y1697158D02*
Y1700158D01*
X1815901Y1698658D02*
X1818901D01*
X1817401Y1697158D02*
Y1700158D01*
X2035834Y1698658D02*
X2038834D01*
X2037334Y1697158D02*
Y1700158D01*
X2255798Y1698658D02*
X2258798D01*
X2257298Y1697158D02*
Y1700158D01*
X2475762Y1698658D02*
X2478762D01*
X2477262Y1697158D02*
Y1700158D01*
X2695811Y1698658D02*
X2698810D01*
X2697310Y1697158D02*
Y1700158D01*
X2925850Y1698658D02*
X2928850D01*
X2927350Y1697158D02*
Y1700158D01*
X483291Y1708658D02*
X486291D01*
X484791Y1707158D02*
Y1710158D01*
X703122Y1708658D02*
X706122D01*
X704622Y1707158D02*
Y1710158D01*
X923421Y1708658D02*
X926421D01*
X924921Y1707158D02*
Y1710158D01*
X1143278Y1708658D02*
X1146278D01*
X1144778Y1707158D02*
Y1710158D01*
X1363242Y1708658D02*
X1366242D01*
X1364742Y1707158D02*
Y1710158D01*
X1583206Y1708658D02*
X1586206D01*
X1584706Y1707158D02*
Y1710158D01*
X1803201Y1708658D02*
X1806201D01*
X1804701Y1707158D02*
Y1710158D01*
X2023134Y1708658D02*
X2026134D01*
X2024634Y1707158D02*
Y1710158D01*
X2243098Y1708658D02*
X2246098D01*
X2244598Y1707158D02*
Y1710158D01*
X1014500Y2024380D02*
X1017500D01*
X1016000Y2022880D02*
Y2025880D01*
X999260Y2014220D02*
X1002260D01*
X1000760Y2012720D02*
Y2015720D01*
X986560Y2014220D02*
X989560D01*
X988060Y2012720D02*
Y2015720D01*
X973860Y2014220D02*
X976860D01*
X975360Y2012720D02*
Y2015720D01*
X961160Y2014220D02*
X964160D01*
X962660Y2012720D02*
Y2015720D01*
X948460Y2014220D02*
X951460D01*
X949960Y2012720D02*
Y2015720D01*
X935760Y2014220D02*
X938760D01*
X937260Y2012720D02*
Y2015720D01*
X923060Y2029460D02*
X926060D01*
X924560Y2027960D02*
Y2030960D01*
X923060Y2042160D02*
X926060D01*
X924560Y2040660D02*
Y2043660D01*
X923060Y2054860D02*
X926060D01*
X924560Y2053360D02*
Y2056360D01*
X923060Y2067560D02*
X926060D01*
X924560Y2066060D02*
Y2069060D01*
X935760Y2067560D02*
X938760D01*
X937260Y2066060D02*
Y2069060D01*
X948460Y2067560D02*
X951460D01*
X949960Y2066060D02*
Y2069060D01*
X961160Y2067560D02*
X964160D01*
X962660Y2066060D02*
Y2069060D01*
X973860Y2067560D02*
X976860D01*
X975360Y2066060D02*
Y2069060D01*
X986560Y2067560D02*
X989560D01*
X988060Y2066060D02*
Y2069060D01*
X991640Y2077720D02*
X994640D01*
X993140Y2076220D02*
Y2079220D01*
X1004340Y2077720D02*
X1007340D01*
X1005840Y2076220D02*
Y2079220D01*
X1014500Y2070100D02*
X1017500D01*
X1016000Y2068600D02*
Y2071600D01*
X1014500Y2059940D02*
X1017500D01*
X1016000Y2058440D02*
Y2061440D01*
X2929505Y991412D02*
X2936617D01*
X2933061Y987856D02*
Y994968D01*
X2929505Y260412D02*
X2936617D01*
X2933061Y256856D02*
Y263968D01*
X2929505Y480412D02*
X2936617D01*
X2933061Y476856D02*
Y483968D01*
X2929505Y700412D02*
X2936617D01*
X2933061Y696856D02*
Y703968D01*
X2929505Y1140412D02*
X2936617D01*
X2933061Y1136856D02*
Y1143968D01*
X2929505Y1360412D02*
X2936617D01*
X2933061Y1356856D02*
Y1363968D01*
X151872Y40412D02*
X158984D01*
X155428Y36856D02*
Y43968D01*
X2812014Y40412D02*
X2819126D01*
X2815570Y36856D02*
Y43968D01*
X2581890Y40412D02*
X2589002D01*
X2585446Y36856D02*
Y43968D01*
X2361925Y40412D02*
X2369037D01*
X2365481Y36856D02*
Y43968D01*
X2141962Y40412D02*
X2149074D01*
X2145518Y36856D02*
Y43968D01*
X1921998Y40412D02*
X1929110D01*
X1925554Y36856D02*
Y43968D01*
X1702034Y40412D02*
X1709146D01*
X1705590Y36856D02*
Y43968D01*
X1481971Y40412D02*
X1489082D01*
X1485526Y36856D02*
Y43968D01*
X1261852Y40412D02*
X1268964D01*
X1265408Y36856D02*
Y43968D01*
X1042008Y40412D02*
X1049120D01*
X1045564Y36856D02*
Y43968D01*
X822082Y40412D02*
X829194D01*
X825638Y36856D02*
Y43968D01*
X601846Y40412D02*
X608958D01*
X605402Y36856D02*
Y43968D01*
X382024Y40412D02*
X389136D01*
X385580Y36856D02*
Y43968D01*
X151872Y260412D02*
X158984D01*
X155428Y256856D02*
Y263968D01*
X2812014Y260412D02*
X2819126D01*
X2815570Y256856D02*
Y263968D01*
X2581890Y260412D02*
X2589002D01*
X2585446Y256856D02*
Y263968D01*
X2361925Y260412D02*
X2369037D01*
X2365481Y256856D02*
Y263968D01*
X2141962Y260412D02*
X2149074D01*
X2145518Y256856D02*
Y263968D01*
X1921998Y260412D02*
X1929110D01*
X1925554Y256856D02*
Y263968D01*
X1702034Y260412D02*
X1709146D01*
X1705590Y256856D02*
Y263968D01*
X1481971Y260412D02*
X1489082D01*
X1485526Y256856D02*
Y263968D01*
X1261852Y260412D02*
X1268964D01*
X1265408Y256856D02*
Y263968D01*
X1042008Y260412D02*
X1049120D01*
X1045564Y256856D02*
Y263968D01*
X822082Y260412D02*
X829194D01*
X825638Y256856D02*
Y263968D01*
X601846Y260412D02*
X608958D01*
X605402Y256856D02*
Y263968D01*
X382024Y260412D02*
X389136D01*
X385580Y256856D02*
Y263968D01*
X151872Y480412D02*
X158984D01*
X155428Y476856D02*
Y483968D01*
X2812014Y480412D02*
X2819126D01*
X2815570Y476856D02*
Y483968D01*
X2581890Y480412D02*
X2589002D01*
X2585446Y476856D02*
Y483968D01*
X2361925Y480412D02*
X2369037D01*
X2365481Y476856D02*
Y483968D01*
X2141962Y480412D02*
X2149074D01*
X2145518Y476856D02*
Y483968D01*
X1921998Y480412D02*
X1929110D01*
X1925554Y476856D02*
Y483968D01*
X1702034Y480412D02*
X1709146D01*
X1705590Y476856D02*
Y483968D01*
X1481971Y480412D02*
X1489082D01*
X1485526Y476856D02*
Y483968D01*
X1261852Y480412D02*
X1268964D01*
X1265408Y476856D02*
Y483968D01*
X1042008Y480412D02*
X1049120D01*
X1045564Y476856D02*
Y483968D01*
X822082Y480412D02*
X829194D01*
X825638Y476856D02*
Y483968D01*
X601846Y480412D02*
X608958D01*
X605402Y476856D02*
Y483968D01*
X382024Y480412D02*
X389136D01*
X385580Y476856D02*
Y483968D01*
X151872Y700412D02*
X158984D01*
X155428Y696856D02*
Y703968D01*
X2812014Y700412D02*
X2819126D01*
X2815570Y696856D02*
Y703968D01*
X2581890Y700412D02*
X2589002D01*
X2585446Y696856D02*
Y703968D01*
X2361925Y700412D02*
X2369037D01*
X2365481Y696856D02*
Y703968D01*
X2141962Y700412D02*
X2149074D01*
X2145518Y696856D02*
Y703968D01*
X1921998Y700412D02*
X1929110D01*
X1925554Y696856D02*
Y703968D01*
X1702034Y700412D02*
X1709146D01*
X1705590Y696856D02*
Y703968D01*
X1481971Y700412D02*
X1489082D01*
X1485526Y696856D02*
Y703968D01*
X1261852Y700412D02*
X1268964D01*
X1265408Y696856D02*
Y703968D01*
X1042008Y700412D02*
X1049120D01*
X1045564Y696856D02*
Y703968D01*
X822082Y700412D02*
X829194D01*
X825638Y696856D02*
Y703968D01*
X601846Y700412D02*
X608958D01*
X605402Y696856D02*
Y703968D01*
X382024Y700412D02*
X389136D01*
X385580Y696856D02*
Y703968D01*
X151872Y910445D02*
X158984D01*
X155428Y906889D02*
Y914001D01*
X2812014Y910445D02*
X2819126D01*
X2815570Y906889D02*
Y914001D01*
X2581890Y910445D02*
X2589002D01*
X2585446Y906889D02*
Y914001D01*
X2361925Y910445D02*
X2369037D01*
X2365481Y906889D02*
Y914001D01*
X2141962Y910445D02*
X2149074D01*
X2145518Y906889D02*
Y914001D01*
X1921998Y910445D02*
X1929110D01*
X1925554Y906889D02*
Y914001D01*
X1702034Y910445D02*
X1709146D01*
X1705590Y906889D02*
Y914001D01*
X1481971Y910445D02*
X1489082D01*
X1485526Y906889D02*
Y914001D01*
X1261852Y910445D02*
X1268964D01*
X1265408Y906889D02*
Y914001D01*
X1042008Y910445D02*
X1049120D01*
X1045564Y906889D02*
Y914001D01*
X822082Y910445D02*
X829194D01*
X825638Y906889D02*
Y914001D01*
X601846Y910445D02*
X608958D01*
X605402Y906889D02*
Y914001D01*
X382024Y910445D02*
X389136D01*
X385580Y906889D02*
Y914001D01*
X151872Y1140412D02*
X158984D01*
X155428Y1136856D02*
Y1143968D01*
X2812014Y1140412D02*
X2819126D01*
X2815570Y1136856D02*
Y1143968D01*
X2581890Y1140412D02*
X2589002D01*
X2585446Y1136856D02*
Y1143968D01*
X2361925Y1140412D02*
X2369037D01*
X2365481Y1136856D02*
Y1143968D01*
X2141962Y1140412D02*
X2149074D01*
X2145518Y1136856D02*
Y1143968D01*
X1921998Y1140412D02*
X1929110D01*
X1925554Y1136856D02*
Y1143968D01*
X1702034Y1140412D02*
X1709146D01*
X1705590Y1136856D02*
Y1143968D01*
X1481971Y1140412D02*
X1489082D01*
X1485526Y1136856D02*
Y1143968D01*
X1261852Y1140412D02*
X1268964D01*
X1265408Y1136856D02*
Y1143968D01*
X1042008Y1140412D02*
X1049120D01*
X1045564Y1136856D02*
Y1143968D01*
X822082Y1140412D02*
X829194D01*
X825638Y1136856D02*
Y1143968D01*
X601846Y1140412D02*
X608958D01*
X605402Y1136856D02*
Y1143968D01*
X382024Y1140412D02*
X389136D01*
X385580Y1136856D02*
Y1143968D01*
X382024Y1360412D02*
X389136D01*
X385580Y1356856D02*
Y1363968D01*
X601846Y1360412D02*
X608958D01*
X605402Y1356856D02*
Y1363968D01*
X822082Y1360412D02*
X829194D01*
X825638Y1356856D02*
Y1363968D01*
X1042008Y1360412D02*
X1049120D01*
X1045564Y1356856D02*
Y1363968D01*
X1261852Y1360412D02*
X1268964D01*
X1265408Y1356856D02*
Y1363968D01*
X1481971Y1360412D02*
X1489082D01*
X1485526Y1356856D02*
Y1363968D01*
X1702034Y1360412D02*
X1709146D01*
X1705590Y1356856D02*
Y1363968D01*
X1921998Y1360412D02*
X1929110D01*
X1925554Y1356856D02*
Y1363968D01*
X2141962Y1360412D02*
X2149074D01*
X2145518Y1356856D02*
Y1363968D01*
X2361925Y1360412D02*
X2369037D01*
X2365481Y1356856D02*
Y1363968D01*
X2581890Y1360412D02*
X2589002D01*
X2585446Y1356856D02*
Y1363968D01*
X2812014Y1360412D02*
X2819126D01*
X2815570Y1356856D02*
Y1363968D01*
X151872Y1360412D02*
X158984D01*
X155428Y1356856D02*
Y1363968D01*
M02*
