M48
;Layer_Color=9474304
;FILE_FORMAT=4:3
METRIC,LZ
;TYPE=PLATED
T01F00S00C0.300
T02F00S00C0.711
T03F00S00C0.800
T05F00S00C0.900
T06F00S00C1.000
T07F00S00C1.700
%
T01
X0287264Y0009191
X0292344
X0297424
X0208524Y0004111
X0198364
X0091684
X0086604
X0018024Y0009191
X0010404Y0004111
X0007864Y0009191
X0005324Y0014271
X0007864Y0019351
X0005324Y0024431
X0007864Y0029511
X0005324Y0034591
X0007864Y0039671
X0005324Y0044751
X0007864Y0049831
X0018024
X0023104
X0028184
X0033264
X0030724Y0044751
X0025644
X0028184Y0039671
X0033264
X0038344
X0043424
X0048504
X0045964Y0044751
X0040884
X0043424Y0049831
X0048504
X0045964Y0034591
X0048504Y0029511
X0043424
X0038344
X0033264
X0028184
X0023104
X0018024
X0015484Y0024431
X0018024Y0019351
X0023104
X0028184
X0033264
X0038344
X0043424
X0048504
X0045964Y0024431
Y0014271
X0040884
X0030724
X0025644
Y0024431
X0030724
Y0034591
X0025644
X0023104Y0039671
X0018024
X0015484Y0044751
Y0014271
X0051044
X0056124
X0061204
X0063744Y0019351
X0068824
X0073904
X0078984
X0081524Y0024431
X0076444
X0078984Y0029511
X0073904
X0068824
X0063744
X0058664
X0053584
X0056124Y0034591
X0051044
X0053584Y0039671
X0058664
X0063744
X0068824
X0073904
X0078984
X0081524Y0044751
X0076444
X0071364
X0073904Y0049831
X0078984
X0068824
X0063744
X0058664
X0053584
X0056124Y0044751
X0061204
X0051044
Y0024431
X0056124
X0058664Y0019351
X0053584
X0071364Y0014271
X0076444
X0081524
X0086604
Y0034591
X0081524
X0076444
X0071364
X0089144Y0039671
X0094224
X0099304
X0104384
X0109464
X0114544
X0119624
X0124704
X0127244Y0044751
X0122164
X0117084
X0112004
X0106924
X0109464Y0049831
X0114544
X0119624
X0124704
X0122164Y0034591
X0117084
X0112004
X0114544Y0029511
X0119624
X0124704
X0122164Y0024431
X0117084
X0112004
X0114544Y0019351
X0119624
X0124704
X0127244Y0014271
X0122164
X0117084
X0112004
X0106924
X0109464Y0019351
X0104384
X0099304
X0094224
X0089144
X0091684Y0014271
X0096764
Y0024431
X0099304Y0029511
X0104384
X0109464
X0094224
X0089144
X0096764Y0034591
Y0044751
X0099304Y0049831
X0094224
X0089144
X0129784
X0134864
X0139944
X0145024
X0147564Y0044751
X0142484
X0137404
X0139944Y0039671
X0145024
X0147564Y0034591
X0152644
X0157724
X0162804
X0165344Y0039671
X0162804Y0044751
X0157724
X0155184Y0049831
X0165344
Y0029511
X0162804Y0024431
X0157724
X0160264Y0019351
X0165344
X0162804Y0014271
X0157724
X0152644
X0147564
X0142484
X0137404
X0139944Y0019351
X0145024
X0147564Y0024431
X0142484
X0145024Y0029511
X0139944
X0134864
X0129784
Y0039671
X0134864
X0137404Y0034591
X0142484
X0155184Y0039671
Y0029511
Y0019351
X0134864
X0129784
X0170424
X0175504
X0180584
X0185664
X0190744
X0195824
X0200904
X0205984
X0203444Y0024431
X0205984Y0029511
X0200904
X0195824
X0190744
X0185664
X0180584
X0175504
X0170424
Y0039671
X0175504
X0180584
X0185664
X0190744
X0195824
X0200904
X0205984
X0203444Y0044751
X0205984Y0049831
X0195824
X0190744
X0185664
X0180584
X0175504
X0178044Y0044751
X0183124
X0188204
X0193284
X0188204Y0034591
X0183124
X0178044
Y0024431
X0183124
X0188204
Y0014271
X0193284
X0203444
Y0034591
X0183124Y0014271
X0178044
X0172964
Y0044751
X0208524
X0213604
X0211064Y0049831
X0221224
X0223764Y0044751
X0228844
X0231384Y0049831
X0241544
X0246624
X0244084Y0044751
X0239004
X0241544Y0039671
X0246624
X0244084Y0034591
X0246624Y0029511
X0241544
X0236464
X0231384
X0228844Y0034591
X0223764
X0218684
X0213604
X0208524
X0211064Y0039671
X0221224
X0231384
X0236464
Y0019351
X0241544
X0246624
X0244084Y0024431
Y0014271
X0239004
X0228844
X0223764
X0218684
X0213604
X0208524
X0211064Y0019351
X0213604Y0024431
X0208524
X0211064Y0029511
X0221224
X0223764Y0024431
X0228844
X0231384Y0019351
X0226304
X0221224
X0251704
X0256784
X0261864
X0266944
X0272024
X0277104
X0282184
X0284724Y0014271
X0274564
X0269484
X0259324
X0254244
X0249164
Y0024431
X0254244
X0256784Y0029511
X0261864
X0266944
X0272024
X0277104
X0282184
X0279644Y0024431
X0274564
Y0034591
X0269484
X0272024Y0039671
X0277104
X0282184
X0279644Y0044751
X0274564
X0269484
X0272024Y0049831
X0277104
X0266944
X0261864
X0256784
X0251704
X0254244Y0044751
X0249164
X0251704Y0039671
X0256784
X0261864
X0266944
X0254244Y0034591
X0249164
X0251704Y0029511
X0287264
X0289804Y0034591
X0294884
X0292344Y0039671
X0287264
X0289804Y0044751
X0294884
X0287264Y0049831
X0289804Y0024431
X0294884
X0297424Y0019351
X0292344
X0287264
X0294884Y0054911
Y0065071
X0292344Y0080311
X0294884Y0085391
X0284724
X0279644
X0274564
X0277104Y0080311
X0282184
X0272024
X0266944
X0261864
X0264404Y0085391
X0254244
X0249164
X0251704Y0080311
X0254244Y0065071
X0249164
X0251704Y0059991
X0254244Y0054911
X0249164
X0266944Y0059991
X0272024
X0277104
X0279644Y0065071
X0284724
Y0054911
X0279644
X0274564
Y0065071
X0264404
X0244084
X0239004
Y0054911
X0244084
X0246624Y0059991
X0231384
X0228844Y0065071
X0223764
X0218684
X0213604
X0208524
Y0054911
X0213604
X0218684
X0223764
X0228844
X0231384Y0080311
X0236464
X0239004Y0085391
X0244084
X0228844
X0223764
X0218684
X0213604
X0208524
X0211064Y0090471
X0216144Y0080311
X0205984
X0203444Y0085391
X0198364
X0193284
X0188204
X0183124
X0178044
X0172964
X0170424Y0080311
X0185664
X0195824
X0198364Y0065071
X0203444
X0205984Y0059991
X0203444Y0054911
X0193284
X0188204
X0183124
X0178044
X0172964
Y0065071
X0178044
X0183124
X0188204
X0193284
X0185664Y0059991
X0180584
X0165344
X0162804Y0065071
X0157724
X0152644
X0147564
X0142484
X0139944Y0059991
X0134864
X0132324Y0065071
X0134864Y0080311
X0139944
X0142484Y0085391
X0147564
X0152644
X0157724
X0162804
X0165344Y0080311
X0150104
X0129784
X0132324Y0085391
X0142484Y0054911
X0147564
X0152644
X0157724
X0162804
X0127244
X0122164
X0117084
X0112004
X0106924
Y0065071
X0112004
X0117084
X0122164
X0127244
X0119624Y0059991
X0114544
X0099304
X0094224
X0096764Y0065071
Y0054911
X0099304Y0080311
X0104384
X0106924Y0085391
X0112004
X0117084
X0122164
X0127244
X0119624Y0080311
X0094224
X0096764Y0085391
X0099304Y0090471
X0086604Y0085391
X0081524
X0076444
X0073904Y0080311
X0068824
X0063744
X0066284Y0085391
X0061204
X0056124
X0051044
X0053584Y0080311
X0056124Y0065071
X0061204
X0066284
X0068824Y0059991
X0073904
X0076444Y0065071
X0081524
X0086604
Y0054911
X0081524
X0076444
X0061204
X0056124
X0051044
X0053584Y0059991
X0051044Y0065071
X0084064Y0080311
X0045964Y0085391
X0040884
X0038344Y0080311
X0033264
X0028184
X0023104
X0018024
X0020564Y0085391
X0015484
Y0075231
X0020564
Y0065071
X0025644
X0030724
X0033264Y0059991
X0028184
X0023104
X0025644Y0054911
X0030724
X0040884
X0045964
X0048504Y0059991
X0045964Y0065071
X0040884
X0015484
Y0054911
X0030724Y0085391
X0005324
X0007864Y0090471
Y0080311
X0005324Y0075231
X0007864Y0070151
X0005324Y0065071
X0007864Y0059991
X0005324Y0054911
Y0095551
X0007864Y0100631
X0005324Y0105711
X0007864Y0110791
X0005324Y0115871
X0007864Y0120951
X0005324Y0126031
X0007864Y0131111
X0018024
X0023104
X0028184
X0033264
X0038344
X0043424
X0045964Y0126031
Y0115871
X0040884
X0038344Y0120951
X0033264
X0028184
X0023104
X0018024
X0020564Y0115871
X0018024Y0110791
X0020564Y0105711
X0015484
Y0095551
X0020564
X0023104Y0100631
X0028184
X0033264
X0030724Y0105711
X0033264Y0110791
X0038344
X0040884Y0105711
X0045964
Y0095551
X0040884
X0030724
X0028184Y0110791
X0030724Y0115871
Y0126031
X0051044
X0056124
X0058664Y0131111
X0063744
X0073904
X0078984
X0081524Y0126031
X0086604
Y0115871
X0081524
X0076444
X0078984Y0120951
X0073904
X0076444Y0126031
X0078984Y0110791
X0073904
X0068824
X0066284Y0115871
X0063744Y0120951
X0058664
X0053584
X0056124Y0115871
X0051044
X0053584Y0110791
X0058664
X0061204Y0105711
X0066284
X0068824Y0100631
X0073904
X0076444Y0105711
X0081524
X0086604
X0081524Y0095551
X0076444
X0066284
X0061204
X0056124
X0051044
X0053584Y0100631
X0056124Y0105711
X0051044
X0053584Y0131111
X0089144
X0099304
X0104384
X0109464
X0112004Y0126031
X0117084
X0122164
X0124704Y0131111
X0119624
Y0120951
X0124704
X0122164Y0115871
X0117084
X0112004
X0106924
X0104384Y0120951
X0099304
X0096764Y0126031
Y0115871
X0099304Y0110791
X0104384
X0106924Y0105711
X0112004
X0117084
X0122164
X0127244
X0124704Y0110791
X0119624
Y0100631
X0122164Y0095551
X0127244
X0117084
X0112004
X0106924
X0099304Y0100631
X0094224
X0096764Y0105711
X0089144Y0120951
X0129784
X0132324Y0115871
X0134864Y0110791
X0139944
X0145024
X0147564Y0115871
X0152644
X0155184Y0120951
X0152644Y0126031
X0147564
X0142484
X0145024Y0131111
X0139944
Y0120951
X0145024
X0142484Y0115871
Y0105711
X0147564
X0152644
X0155184Y0100631
X0152644Y0095551
X0147564
X0142484
X0139944Y0100631
X0134864
X0132324Y0105711
Y0095551
X0162804
X0165344Y0100631
X0162804Y0105711
X0165344Y0110791
X0162804Y0115871
X0165344Y0120951
X0162804Y0126031
X0165344Y0131111
X0155184
X0129784
X0170424
X0175504
X0178044Y0126031
X0183124
X0188204
X0190744Y0131111
X0195824
X0205984
Y0120951
Y0110791
X0203444Y0105711
X0198364
X0193284
X0188204
X0183124
X0178044
X0172964
X0170424Y0110791
X0172964Y0115871
X0178044
X0183124
X0188204
X0190744Y0120951
X0195824
X0198364Y0115871
X0190744Y0110791
X0185664
Y0120951
Y0131111
X0170424Y0120951
X0172964Y0095551
X0178044
X0183124
X0188204
X0193284
X0185664Y0100631
X0205984
X0208524Y0105711
X0213604
X0218684
X0221224Y0100631
X0218684Y0095551
X0213604
X0228844
X0231384Y0100631
X0228844Y0105711
X0231384Y0110791
X0236464
X0239004Y0115871
X0244084
Y0126031
X0241544Y0131111
X0236464
X0231384
X0228844Y0126031
X0231384Y0120951
X0236464
X0228844Y0115871
X0218684
X0213604
X0208524
X0211064Y0120951
X0213604Y0126031
X0218684
X0221224Y0131111
Y0120951
X0208524Y0126031
X0211064Y0131111
Y0110791
X0239004Y0105711
X0244084
Y0095551
X0239004
X0249164
X0254244
X0251704Y0100631
X0254244Y0105711
X0249164
X0251704Y0110791
X0256784
X0254244Y0115871
X0249164
X0251704Y0120951
X0256784
X0261864
X0264404Y0115871
X0266944Y0110791
X0272024
X0277104
X0282184
X0284724Y0115871
X0279644
X0274564
X0277104Y0120951
X0282184
Y0131111
X0277104
X0272024
X0274564Y0126031
X0272024Y0120951
X0274564Y0105711
X0279644
X0284724
Y0095551
X0279644
X0274564
X0277104Y0100631
X0272024
X0266944
X0264404Y0105711
Y0095551
X0261864Y0131111
X0256784
X0251704
X0254244Y0126031
X0249164
X0287264Y0131111
X0294884Y0095551
X0287264Y0141271
Y0151431
X0297424Y0161591
X0292735Y0169866
X0291465Y0170866
X0279644Y0166671
X0274564
X0269731Y0169866
X0268461Y0170866
X0259324Y0166671
X0254244
X0247726Y0169866
X0249164Y0156511
X0254244
X0256784Y0151431
X0261864
X0259324Y0146351
X0254244
X0249164
X0274564
X0277104Y0151431
X0282184
X0284724Y0146351
X0279644Y0156511
X0274564
X0272024Y0151431
X0241544
X0236464
X0231384
X0233924Y0156511
X0228844
Y0146351
X0239004
Y0166671
X0233924
X022573Y0169866
X022446Y0170866
X0213604Y0166671
X0208524
Y0156511
X0213604
X0211064Y0151431
X0213604Y0146351
X0218684
X0221224Y0151431
X0208524Y0146351
X0246456Y0170866
X0203733Y0169866
X0202463Y0170866
X0193284Y0166671
X0188204
X018174Y0169866
X018047Y0170866
X0172964Y0166671
X0175504Y0151431
X0170424
X0172964Y0146351
X0183124
X0188204
X0193284
X0195824Y0151431
X0190744
X0188204Y0156511
X0183124
X0205984Y0151431
X0165344
X0167884Y0156511
X0162804
Y0146351
X0152644
X0147564
X0142484
X0145024Y0151431
X0139944
X0142484Y0156511
X0147564
Y0166671
X0142484
X0137744Y0169866
X0136474Y0170866
X0158471
X0159741Y0169866
X0167884Y0166671
X0155184Y0151431
X0129784
X0124704
X0127244Y0146351
X0122164
X0117084
X0106924
X0109464Y0151431
X0104384
X0099304
X0096764Y0146351
X0089144Y0151431
X0092492Y0170866
X0093762Y0169866
X0101844Y0166671
X0106924
X0114478Y0170866
X0115748Y0169866
X0122164Y0166671
X0127244
X0081524
X0076444
X0071732Y0169866
X0070462Y0170866
X0061204Y0166671
X0056124
X0049749Y0169866
X0051044Y0146351
X0056124
X0061204
X0063744Y0151431
X0058664
X0073904
X0078984
X0081524Y0146351
X0086604
X0076444
X0040884
X0043424Y0151431
X0038344
X0033264
X0028184
X0030724Y0146351
X0015484
X0018024Y0151431
X0015484Y0156511
X0027757Y0169316
X0030724Y0166671
X0035804
X0040884
X0034163Y0170185
X0032791Y0170477
X0048479Y0170866
X0005324Y0166671
X0007864Y0161591
X0005324Y0156511
X0007864Y0151431
X0005324Y0146351
X0007864Y0141271
X0005324Y0136191
X0007864Y0171751
X0005324Y0176831
X0007864Y0181911
X0005324Y0186991
X0007864Y0192071
X0005324Y0197151
X0007864Y0202231
X0005324Y0207311
X0010404
Y0197151
Y0186991
Y0176831
X0033264Y0181911
X0030724Y0186991
X0033264Y0192071
X0030724Y0197151
X0033264Y0202231
X0030724Y0207311
X0038344Y0171751
X0041732Y0174854
X0044704
X0053584Y0171751
X0058664
X0063744
X0063627Y0174854
X0066777Y0174828
X0068824Y0181911
X0073904
X0078984
X0084064
X0085627Y0174854
X0088777Y0174828
X0084064Y0171751
X0078984
X0076444Y0186991
X0071364
X0073904Y0192071
X0068824
X0071364Y0197151
X0073904Y0202231
X0068824
X0071364Y0207311
X0076444
X0081524
X0084064Y0202231
X0083947Y0195174
X0084064Y0192071
X0081524Y0197151
X008878Y0208585
X0089483
X0090145
X0089144Y0207311
X0092456Y0206756
Y0205486
Y0204216
Y0202946
Y0201676
X0093726Y0201422
X0094996
X0096266
X0097536
X0098806
X0100076
X0101246Y0201522
X01016Y0202438
Y0203454
X0102819Y0203352
X0104013Y0204089
X0104064Y0202387
X0103734Y0201016
X0104724
Y0199542
X0108194Y0199691
X0110734
X0113274
X0115814
X0118354
X0120894
X0119624Y0202231
X0117084
X0114544
X0112004
X0109464
X0110734Y0204771
X0113274
X0115814
X0118354
X0120894
X0119624Y0207311
X0117084
X0114544
X0112004
X0109464
X0110734Y0209851
X0113274
X0115814
X0118354
X0108194
Y0204771
X01016Y0205994
Y020701
X0100584Y0207772
X0099314
X0098806Y0206756
X0097536
X0096266
X0094996
X0093726
X0092954Y0209851
X0089144Y0202231
Y0197151
X0091684
X0094224
X0096764
X009898Y0194619
X0092304Y0195174
X0089144Y0192071
X0090414Y0184451
X0092954
X0095494
X0096764Y0181911
X0099304
X0101844
X0104384
X0106924
X0109464
X0112004
X0114544
X0117084
X0119624
X0122164
X0124704
X0127244
X0125933Y0192837
X0125172
X0124409
X0123434Y0194611
X0120894
X0114757Y0194767
X0115189Y0193802
X0112547Y0192837
X0111811
X0111074
X010856Y0193818
X0106985
X0112065Y0195377
X0113259Y0195605
X0125974Y0199691
Y0204771
X0124704Y0171751
X0119624
X0110777Y0174828
X0107627Y0174854
X0104384Y0171751
X0099304
X0094224Y0181911
X0091684
X0089144
X0129784
X0132324
X0134864
X0137404
X0139944
X0145024
X0150104
X0155184
X0160264
X0165344
Y0171751
X0154777Y0174828
X0151627Y0174854
X0150104Y0171751
X0145024
X0129784
X0129627Y0174854
X0132777Y0174828
X0136134Y0189531
X0138674
X0141214
Y0194611
Y0199691
X0138674
X0136134
X0133594
X0131054
X0128514
Y0204771
X0131054
X0133594
X0135611Y0204114
X0137287Y0204089
X0138887Y0204114
X01381Y0205105
X0136474Y020508
X0141214Y0204771
Y0209851
X0133594
X0131054
X0132324Y0197151
X0134864
X0137404
X0136134Y0194611
X0133594
X0131054
X0150104Y0192071
X0160264
X0165344Y0202231
X01651Y0206197
X0167884Y0207311
X0155184Y0202231
X0150104
X0145024
X0170424
X0175504
X0180584
X0183124Y0207311
X0188204
X0190744Y0202231
X0195824
X0200904
X0205984
Y0192071
X0200904
X0203444Y0186991
X0198364
X0193284
X0188204
X0183124
X0178044
X0180584Y0181911
X0185664
X0190744
X0195824
X0200904
X0205984
X0198777Y0174828
X0195627Y0174854
X0195824Y0171751
X0190744
X0185664
X0176777Y0174828
X0173627Y0174854
X0170424Y0171751
Y0181911
X0175504
Y0192071
X0185664
X0190744
X0198364Y0207311
X0213604
X0218684
X0216144Y0202231
X0218684Y0197151
X0213604
X0216144Y0192071
X0218684Y0186991
X0223764
X0228844
X0233924
X0239004
X0244084
X0246624Y0181911
X0241544
X0236464
X0231384
X0226304
X0221224
X0216144
X0211064
X0213604Y0186991
X0217627Y0174854
X0220777Y0174828
X0216144Y0171751
X0211064
X0231384
X0236464
X0239627Y0174854
X0242777Y0174828
X0251704Y0171751
X0256784
X0261864
X0261627Y0174854
X0264777Y0174828
X0266944Y0181911
X0272024
X0277104
X0282184
X0284724Y0186991
X0284805Y0188112
X0279644Y0186991
X0274564
X0269484
X0264404
X0259324
X0254244
X0249164
X0251704Y0181911
X0256784
X0261864
X0277104Y0171751
X0282184
X0284732Y0174854
X0282184Y0192071
X0284724Y0197151
X0282184Y0202231
X0289535Y0204978
X0289804Y0207311
X0294884
X0297424Y0202231
X0294884Y0197151
X0289804
X0287264Y0192071
X0289804Y0186991
X0294884
X0297424Y0192071
Y0181911
X0292344
X0287264
X0289804Y0176831
X02889Y0174295
X0294884Y0176831
X0297424Y0171751
Y0212391
X0292344
X0287264
X0292344Y0222551
X0297424
X0294884Y0227631
X0289804
X0292344Y0232711
X0297424
X0294884Y0237791
X0289804
X0287264Y0232711
X0282184
X0277104
X0272024
X0266944
X0264404Y0227631
X0265328Y0221259
X0266294Y0215646
X0266944Y0212391
X0272024
X0277104
X0282184
X0278613Y0222783
X0279644Y0227631
X0284724Y0237791
X0256784Y0232711
X0251704
Y0212391
X0256784
X0261864
X0259324Y0217471
X0257353Y0217526
X0269484Y0217471
X0244084
X0239004
X0241544Y0212391
X0246624
X0236464
X0231384
X0226304
X0221224
X0216144
X0213604Y0217471
X0208524
X0209829Y0230911
X0211064Y0232711
X0214808Y0235788
X0213604Y0237791
X0208524
X0215748Y0228702
X0218684Y0227631
X0223764
X0221224Y0222551
X0233924Y0227631
X0241544Y0232711
X0246624
X0205984
X0205918Y0235661
X0200904Y0232711
X0195824
Y0222551
X0200904
X0201828Y0218313
X0203444Y0217471
X0198364
X0200904Y0212391
X0205984
X0195824
X0190744
X0188204Y0217471
X0180584Y0222551
X0175504
X0170424
X0172964Y0227631
X0175504Y0232711
X0180584
X0183124Y0237791
X0188204
X0178044
X0172964
X0170424Y0232711
X0183124Y0227631
X0180584Y0212391
X0175504
X0170424
X0172964Y0217471
X0167884
X0162804
X0157724
X0152644
X0147564
X0150104Y0222551
X0155184
X0160264
X0165344
X0167884Y0227631
X0162804
X0157724
X0152644
X0155184Y0232711
X0160264
X0165344
X0167884Y0237791
X0162804
X0157724
X0152644
X0145024Y0232711
X0139944
X0134864
X0137404Y0237791
Y0227631
X0142484
X0145024Y0222551
X0139944
X0137404
X0132324
X0129784
X0131054Y0214931
X0133594
X0128514
X0129069Y021378
X0129609Y021324
X013015Y02127
X0141214Y0214931
Y0220011
X0145024Y0212391
X0150104
X0155184
X0160264
X0165344
X0124704
X0122164
X0121945Y0216413
X0120701Y0215595
X0119659Y0214833
X0118897Y0216383
X0119624Y0222551
X0117084
X0118354Y0225091
X0120894
X0123434
X0124704Y0227631
X0127244
Y0222551
X0124704
X0123434Y0230171
X0120894
X0118354
X0115814
X0113274
X0110734
X0112004Y0232711
X0114544
X0117084
X0118354Y0235251
X0115814
X0117084Y0237791
X0114544
X0109464
X0106924
X0104384
X0101844
X0099304
X0096764
X0094224
X0091684
X0089144
X0090414Y0235251
X0092954
X0095494
X0098034
X0100574
X0103114
X0104384Y0232711
X0106924
X0109464
X0110079Y02266
X0110185Y0225349
X0108788Y0225501
X0108814Y0224257
X0107377Y0224471
X0107493Y0223215
X010622Y022334
X0099304Y0222551
X0100574Y0220011
X0098034
X0092954
X0091684Y0222551
X0091846Y0233299
X0092964Y0232639
X0094224Y0232711
X0096764
X0099304
X0101844
X0112004Y0227631
X0111425Y0226371
X0114544Y0227631
X0117084
X0119624
X0115814Y0225091
X0122164Y0232711
X0124704
X0123434Y0235251
X0124704Y0237791
X0122164
X0097434Y0213771
X0096743
X0096054
X0096764Y0212391
X0089144
X0084064
X0078984
X0073904
X0068824
X0081407Y021811
Y0219735
X008222Y0220497
X0082271Y0218923
X0083439Y0217246
X0081524Y0237791
X0076444
X0071364
X0066284
X0061204
X0056124
X0051044
X0045964
X0040884
X0035804
X0030724
X0025644
X0020564
X0015484
X0010404
X0012944Y0232711
X0018024
X0023104
X0015484Y0227631
X0010404
X0012944Y0222551
X0010404Y0217471
X0033264Y0212391
X0007864
X0005324Y0217471
X0007864Y0222551
X0005324Y0227631
X0007864Y0232711
X0005324Y0237791
T02
X0258545Y0004041
X0281557
X0236548
X0214552
X0192555
X0170559
X0148553
X0126541
X0104556
X0082564
X006054
X0038558
X0015543
Y0026041
Y0048041
X0038558
Y0026041
X006054
Y0048041
X0082564
Y0026041
X0104556
X0126541
Y0048041
X0104556
X0148553
Y0026041
X0170559
X0192555
Y0048041
X0170559
X0214552
X0236548
Y0026041
X0214552
X0258545
Y0048041
X0281557
Y0026041
X0293306
Y0048041
Y0070041
X0281557
Y0091045
X0258545
Y0070041
X0236548
Y0091045
X0214552
Y0070041
X0192555
Y0091045
X0170559
Y0070041
X0148553
Y0091045
X0126541
Y0070041
X0104556
Y0091045
X0082564
Y0070041
X006054
Y0091045
X0038558
Y0070041
X0015543
Y0091045
Y0114041
X0038558
X006054
X0082564
X0104556
X0126541
X0148553
X0170559
X0192555
X0214552
X0236548
X0258545
X0281557
X0293306
Y0099141
Y0136041
X0281557
X0258545
X0236548
X0214552
X0192555
X0170559
X0148553
X0126541
X0104556
X0082564
X006054
X0038558
X0015543
T03
X0072187Y0183337
Y0185877
Y0188417
Y0190957
Y0193497
Y0196037
Y0198577
T05
X017156Y0191736
Y0196816
X0203574
Y0191736
X0292721Y0190652
Y0188112
Y0185572
Y0193192
X0292629Y0200482
Y0203022
Y0205562
Y0208102
X0207214Y023867
X0204674
X0202134
X0199594
X014986
X014732
X014478
X014224
X0135357
X0132817
X0130277
X0127737
T06
X0159144Y0203486
X0161684
X0164224
X0166764
X0169304
X0171844
X0174384
X0222781Y021479
X0233781
X0174574Y0241986
X0172034
X0169494
X0166954
T07
X0225781Y022479
X0230781
M30
