M48
;Layer_Color=9474304
;FILE_FORMAT=4:3
METRIC,LZ
;TYPE=PLATED
T04F00S00C0.800
%
G90
G05
T04
G00X001295Y001335
M15
G01Y001565
M16
G00X001775Y00126
M15
G01X001625
M16
G00X001775Y00164
M15
G01X001625
M16
G00X002105Y001335
M15
G01Y001565
M16
G00X003595Y001335
M15
G01Y001565
M16
G00X004075Y00164
M15
G01X003925
M16
G00X004075Y00126
M15
G01X003925
M16
G00X004405Y001335
M15
G01Y001565
M16
G00X004405Y003535
M15
G01Y003765
M16
G00X004075Y00384
M15
G01X003925
M16
G00X004075Y00346
M15
G01X003925
M16
G00X003595Y003535
M15
G01Y003765
M16
G00X002105Y003535
M15
G01Y003765
M16
G00X001775Y00384
M15
G01X001625
M16
G00X001775Y00346
M15
G01X001625
M16
G00X001295Y003535
M15
G01Y003765
M16
G00X005795Y003535
M15
G01Y003765
M16
G00X006275Y00384
M15
G01X006125
M16
G00X006275Y00346
M15
G01X006125
M16
G00X006605Y003535
M15
G01Y003765
M16
G00X007995Y003535
M15
G01Y003765
M16
G00X008475Y00384
M15
G01X008325
M16
G00X008475Y00346
M15
G01X008325
M16
G00X008805Y003535
M15
G01Y003765
M16
G00X008805Y001335
M15
G01Y001565
M16
G00X008475Y00164
M15
G01X008325
M16
G00X008475Y00126
M15
G01X008325
M16
G00X007995Y001335
M15
G01Y001565
M16
G00X006605Y001335
M15
G01Y001565
M16
G00X006275Y00164
M15
G01X006125
M16
G00X006275Y00126
M15
G01X006125
M16
G00X005795Y001335
M15
G01Y001565
M16
G00X010195Y001335
M15
G01Y001565
M16
G00X010675Y00164
M15
G01X010525
M16
G00X010675Y00126
M15
G01X010525
M16
G00X011005Y001335
M15
G01Y001565
M16
G00X012395Y001335
M15
G01Y001565
M16
G00X012875Y00126
M15
G01X012725
M16
G00X012875Y00164
M15
G01X012725
M16
G00X012875Y00346
M15
G01X012725
M16
G00X012875Y00384
M15
G01X012725
M16
G00X012395Y003535
M15
G01Y003765
M16
G00X011005Y003535
M15
G01Y003765
M16
G00X010675Y00384
M15
G01X010525
M16
G00X010675Y00346
M15
G01X010525
M16
G00X010195Y003535
M15
G01Y003765
M16
G00X013205Y003535
M15
G01Y003765
M16
G00X014595Y003535
M15
G01Y003765
M16
G00X015075Y00384
M15
G01X014925
M16
G00X015075Y00346
M15
G01X014925
M16
G00X015405Y003535
M15
G01Y003765
M16
G00X016795Y003535
M15
G01Y003765
M16
G00X016795Y001335
M15
G01Y001565
M16
G00X015405Y001335
M15
G01Y001565
M16
G00X015075Y00164
M15
G01X014925
M16
G00X015075Y00126
M15
G01X014925
M16
G00X014595Y001335
M15
G01Y001565
M16
G00X013205Y001335
M15
G01Y001565
M16
G00X017275Y00164
M15
G01X017125
M16
G00X017275Y00126
M15
G01X017125
M16
G00X017605Y001335
M15
G01Y001565
M16
G00X018995Y001335
M15
G01Y001565
M16
G00X019475Y00164
M15
G01X019325
M16
G00X019475Y00126
M15
G01X019325
M16
G00X019805Y001335
M15
G01Y001565
M16
G00X019805Y003535
M15
G01Y003765
M16
G00X019475Y00384
M15
G01X019325
M16
G00X019475Y00346
M15
G01X019325
M16
G00X018995Y003535
M15
G01Y003765
M16
G00X017605Y003535
M15
G01Y003765
M16
G00X017275Y00384
M15
G01X017125
M16
G00X017275Y00346
M15
G01X017125
M16
G00X021195Y003535
M15
G01Y003765
M16
G00X021675Y00384
M15
G01X021525
M16
G00X021675Y00346
M15
G01X021525
M16
G00X022005Y003535
M15
G01Y003765
M16
G00X023395Y003535
M15
G01Y003765
M16
G00X023875Y00384
M15
G01X023725
M16
G00X023875Y00346
M15
G01X023725
M16
G00X024205Y003535
M15
G01Y003765
M16
G00X024205Y001335
M15
G01Y001565
M16
G00X023875Y00164
M15
G01X023725
M16
G00X023875Y00126
M15
G01X023725
M16
G00X023395Y001335
M15
G01Y001565
M16
G00X022005Y001335
M15
G01Y001565
M16
G00X021675Y00164
M15
G01X021525
M16
G00X021675Y00126
M15
G01X021525
M16
G00X021195Y001335
M15
G01Y001565
M16
G00X025595Y001335
M15
G01Y001565
M16
G00X026075Y00164
M15
G01X025925
M16
G00X026075Y00126
M15
G01X025925
M16
G00X026405Y001335
M15
G01Y001565
M16
G00X027895Y001335
M15
G01Y001565
M16
G00X028375Y00126
M15
G01X028225
M16
G00X028375Y00164
M15
G01X028225
M16
G00X028705Y001335
M15
G01Y001565
M16
G00X028705Y003535
M15
G01Y003765
M16
G00X028375Y00384
M15
G01X028225
M16
G00X028375Y00346
M15
G01X028225
M16
G00X027895Y003535
M15
G01Y003765
M16
G00X026405Y003535
M15
G01Y003765
M16
G00X026075Y00384
M15
G01X025925
M16
G00X026075Y00346
M15
G01X025925
M16
G00X025595Y003535
M15
G01Y003765
M16
G00X025595Y005735
M15
G01Y005965
M16
G00X026075Y00604
M15
G01X025925
M16
G00X026075Y00566
M15
G01X025925
M16
G00X026405Y005735
M15
G01Y005965
M16
G00X027895Y005735
M15
G01Y005965
M16
G00X028375Y00604
M15
G01X028225
M16
G00X028375Y00566
M15
G01X028225
M16
G00X028705Y005735
M15
G01Y005965
M16
G00X028705Y007935
M15
G01Y008165
M16
G00X028375Y00824
M15
G01X028225
M16
G00X028375Y00786
M15
G01X028225
M16
G00X027895Y007935
M15
G01Y008165
M16
G00X026405Y007935
M15
G01Y008165
M16
G00X026075Y00824
M15
G01X025925
M16
G00X026075Y00786
M15
G01X025925
M16
G00X025595Y007935
M15
G01Y008165
M16
G00X024205Y007935
M15
G01Y008165
M16
G00X023875Y00824
M15
G01X023725
M16
G00X023875Y00786
M15
G01X023725
M16
G00X023395Y007935
M15
G01Y008165
M16
G00X022005Y007935
M15
G01Y008165
M16
G00X021675Y00824
M15
G01X021525
M16
G00X021675Y00786
M15
G01X021525
M16
G00X021195Y007935
M15
G01Y008165
M16
G00X021195Y005735
M15
G01Y005965
M16
G00X021675Y00604
M15
G01X021525
M16
G00X021675Y00566
M15
G01X021525
M16
G00X022005Y005735
M15
G01Y005965
M16
G00X023395Y005735
M15
G01Y005965
M16
G00X023875Y00604
M15
G01X023725
M16
G00X023875Y00566
M15
G01X023725
M16
G00X024205Y005735
M15
G01Y005965
M16
G00X019805Y005735
M15
G01Y005965
M16
G00X019475Y00604
M15
G01X019325
M16
G00X019475Y00566
M15
G01X019325
M16
G00X018995Y005735
M15
G01Y005965
M16
G00X017605Y005735
M15
G01Y005965
M16
G00X017275Y00604
M15
G01X017125
M16
G00X017275Y00566
M15
G01X017125
M16
G00X017275Y00786
M15
G01X017125
M16
G00X017275Y00824
M15
G01X017125
M16
G00X017605Y007935
M15
G01Y008165
M16
G00X018995Y007935
M15
G01Y008165
M16
G00X019475Y00824
M15
G01X019325
M16
G00X019475Y00786
M15
G01X019325
M16
G00X019805Y007935
M15
G01Y008165
M16
G00X016795Y007935
M15
G01Y008165
M16
G00X015405Y007935
M15
G01Y008165
M16
G00X015075Y00824
M15
G01X014925
M16
G00X015075Y00786
M15
G01X014925
M16
G00X014595Y007935
M15
G01Y008165
M16
G00X013205Y007935
M15
G01Y008165
M16
G00X013205Y005735
M15
G01Y005965
M16
G00X014595Y005735
M15
G01Y005965
M16
G00X015075Y00604
M15
G01X014925
M16
G00X015075Y00566
M15
G01X014925
M16
G00X015405Y005735
M15
G01Y005965
M16
G00X016795Y005735
M15
G01Y005965
M16
G00X012875Y00604
M15
G01X012725
M16
G00X012875Y00566
M15
G01X012725
M16
G00X012395Y005735
M15
G01Y005965
M16
G00X011005Y005735
M15
G01Y005965
M16
G00X010675Y00604
M15
G01X010525
M16
G00X010675Y00566
M15
G01X010525
M16
G00X010195Y005735
M15
G01Y005965
M16
G00X010195Y007935
M15
G01Y008165
M16
G00X010675Y00824
M15
G01X010525
M16
G00X010675Y00786
M15
G01X010525
M16
G00X011005Y007935
M15
G01Y008165
M16
G00X012395Y007935
M15
G01Y008165
M16
G00X012875Y00824
M15
G01X012725
M16
G00X012875Y00786
M15
G01X012725
M16
G00X008805Y007935
M15
G01Y008165
M16
G00X008475Y00824
M15
G01X008325
M16
G00X008475Y00786
M15
G01X008325
M16
G00X007995Y007935
M15
G01Y008165
M16
G00X006605Y007935
M15
G01Y008165
M16
G00X006275Y00824
M15
G01X006125
M16
G00X006275Y00786
M15
G01X006125
M16
G00X005795Y007935
M15
G01Y008165
M16
G00X005795Y005735
M15
G01Y005965
M16
G00X006275Y00604
M15
G01X006125
M16
G00X006275Y00566
M15
G01X006125
M16
G00X006605Y005735
M15
G01Y005965
M16
G00X007995Y005735
M15
G01Y005965
M16
G00X008475Y00604
M15
G01X008325
M16
G00X008475Y00566
M15
G01X008325
M16
G00X008805Y005735
M15
G01Y005965
M16
G00X004405Y005735
M15
G01Y005965
M16
G00X004075Y00604
M15
G01X003925
M16
G00X004075Y00566
M15
G01X003925
M16
G00X003595Y005735
M15
G01Y005965
M16
G00X002105Y005735
M15
G01Y005965
M16
G00X001775Y00604
M15
G01X001625
M16
G00X001775Y00566
M15
G01X001625
M16
G00X001295Y005735
M15
G01Y005965
M16
G00X001295Y007935
M15
G01Y008165
M16
G00X001775Y00824
M15
G01X001625
M16
G00X001775Y00786
M15
G01X001625
M16
G00X002105Y007935
M15
G01Y008165
M16
G00X003595Y007935
M15
G01Y008165
M16
G00X004075Y00824
M15
G01X003925
M16
G00X004075Y00786
M15
G01X003925
M16
G00X004405Y007935
M15
G01Y008165
M16
G00X004405Y010135
M15
G01Y010365
M16
G00X004075Y01044
M15
G01X003925
M16
G00X004075Y01006
M15
G01X003925
M16
G00X003595Y010135
M15
G01Y010365
M16
G00X002105Y010135
M15
G01Y010365
M16
G00X001775Y01044
M15
G01X001625
M16
G00X001775Y01006
M15
G01X001625
M16
G00X001295Y010135
M15
G01Y010365
M16
G00X001295Y012335
M15
G01Y012565
M16
G00X001775Y01264
M15
G01X001625
M16
G00X001775Y01226
M15
G01X001625
M16
G00X002105Y012335
M15
G01Y012565
M16
G00X003595Y012335
M15
G01Y012565
M16
G00X004075Y01264
M15
G01X003925
M16
G00X004075Y01226
M15
G01X003925
M16
G00X004405Y012335
M15
G01Y012565
M16
G00X005795Y012335
M15
G01Y012565
M16
G00X006275Y01264
M15
G01X006125
M16
G00X006275Y01226
M15
G01X006125
M16
G00X006605Y012335
M15
G01Y012565
M16
G00X007995Y012335
M15
G01Y012565
M16
G00X008475Y01264
M15
G01X008325
M16
G00X008475Y01226
M15
G01X008325
M16
G00X008805Y012335
M15
G01Y012565
M16
G00X008805Y010135
M15
G01Y010365
M16
G00X008475Y01044
M15
G01X008325
M16
G00X008475Y01006
M15
G01X008325
M16
G00X007995Y010135
M15
G01Y010365
M16
G00X006605Y010135
M15
G01Y010365
M16
G00X006275Y01044
M15
G01X006125
M16
G00X006275Y01006
M15
G01X006125
M16
G00X005795Y010135
M15
G01Y010365
M16
G00X010195Y010135
M15
G01Y010365
M16
G00X010675Y01044
M15
G01X010525
M16
G00X010675Y01006
M15
G01X010525
M16
G00X011005Y010135
M15
G01Y010365
M16
G00X012395Y010135
M15
G01Y010365
M16
G00X012875Y01044
M15
G01X012725
M16
G00X012875Y01006
M15
G01X012725
M16
G00X012875Y01226
M15
G01X012725
M16
G00X012875Y01264
M15
G01X012725
M16
G00X012395Y012335
M15
G01Y012565
M16
G00X011005Y012335
M15
G01Y012565
M16
G00X010675Y01264
M15
G01X010525
M16
G00X010675Y01226
M15
G01X010525
M16
G00X010195Y012335
M15
G01Y012565
M16
G00X013205Y012335
M15
G01Y012565
M16
G00X014595Y012335
M15
G01Y012565
M16
G00X015075Y01264
M15
G01X014925
M16
G00X015075Y01226
M15
G01X014925
M16
G00X015405Y012335
M15
G01Y012565
M16
G00X016795Y012335
M15
G01Y012565
M16
G00X016795Y010135
M15
G01Y010365
M16
G00X015405Y010135
M15
G01Y010365
M16
G00X015075Y01044
M15
G01X014925
M16
G00X015075Y01006
M15
G01X014925
M16
G00X014595Y010135
M15
G01Y010365
M16
G00X013205Y010135
M15
G01Y010365
M16
G00X017275Y01044
M15
G01X017125
M16
G00X017275Y01006
M15
G01X017125
M16
G00X017605Y010135
M15
G01Y010365
M16
G00X018995Y010135
M15
G01Y010365
M16
G00X019475Y01044
M15
G01X019325
M16
G00X019475Y01006
M15
G01X019325
M16
G00X019805Y010135
M15
G01Y010365
M16
G00X019805Y012335
M15
G01Y012565
M16
G00X019475Y01264
M15
G01X019325
M16
G00X019475Y01226
M15
G01X019325
M16
G00X018995Y012335
M15
G01Y012565
M16
G00X017605Y012335
M15
G01Y012565
M16
G00X017275Y01264
M15
G01X017125
M16
G00X017275Y01226
M15
G01X017125
M16
G00X021195Y012335
M15
G01Y012565
M16
G00X021675Y01264
M15
G01X021525
M16
G00X021675Y01226
M15
G01X021525
M16
G00X022005Y012335
M15
G01Y012565
M16
G00X023395Y012335
M15
G01Y012565
M16
G00X023875Y01264
M15
G01X023725
M16
G00X023875Y01226
M15
G01X023725
M16
G00X024205Y012335
M15
G01Y012565
M16
G00X024205Y010135
M15
G01Y010365
M16
G00X023875Y01044
M15
G01X023725
M16
G00X023875Y01006
M15
G01X023725
M16
G00X023395Y010135
M15
G01Y010365
M16
G00X022005Y010135
M15
G01Y010365
M16
G00X021675Y01044
M15
G01X021525
M16
G00X021675Y01006
M15
G01X021525
M16
G00X021195Y010135
M15
G01Y010365
M16
G00X025595Y010135
M15
G01Y010365
M16
G00X026075Y01044
M15
G01X025925
M16
G00X026075Y01006
M15
G01X025925
M16
G00X026405Y010135
M15
G01Y010365
M16
G00X027895Y010135
M15
G01Y010365
M16
G00X028375Y01044
M15
G01X028225
M16
G00X028375Y01006
M15
G01X028225
M16
G00X028705Y010135
M15
G01Y010365
M16
G00X028705Y012335
M15
G01Y012565
M16
G00X028375Y01264
M15
G01X028225
M16
G00X028375Y01226
M15
G01X028225
M16
G00X027895Y012335
M15
G01Y012565
M16
G00X026405Y012335
M15
G01Y012565
M16
G00X026075Y01264
M15
G01X025925
M16
G00X026075Y01226
M15
G01X025925
M16
G00X025595Y012335
M15
G01Y012565
M16
G00X025595Y014535
M15
G01Y014765
M16
G00X026075Y01484
M15
G01X025925
M16
G00X026075Y01446
M15
G01X025925
M16
G00X026405Y014535
M15
G01Y014765
M16
G00X027895Y014535
M15
G01Y014765
M16
G00X028375Y01484
M15
G01X028225
M16
G00X028375Y01446
M15
G01X028225
M16
G00X028705Y014535
M15
G01Y014765
M16
G00X024205Y014535
M15
G01Y014765
M16
G00X023875Y01484
M15
G01X023725
M16
G00X023875Y01446
M15
G01X023725
M16
G00X023395Y014535
M15
G01Y014765
M16
G00X022005Y014535
M15
G01Y014765
M16
G00X021675Y01484
M15
G01X021525
M16
G00X021675Y01446
M15
G01X021525
M16
G00X021195Y014535
M15
G01Y014765
M16
G00X019805Y014535
M15
G01Y014765
M16
G00X019475Y01484
M15
G01X019325
M16
G00X019475Y01446
M15
G01X019325
M16
G00X018995Y014535
M15
G01Y014765
M16
G00X017605Y014535
M15
G01Y014765
M16
G00X017275Y01484
M15
G01X017125
M16
G00X017275Y01446
M15
G01X017125
M16
G00X016795Y014535
M15
G01Y014765
M16
G00X015405Y014535
M15
G01Y014765
M16
G00X015075Y01484
M15
G01X014925
M16
G00X015075Y01446
M15
G01X014925
M16
G00X014595Y014535
M15
G01Y014765
M16
G00X013205Y014535
M15
G01Y014765
M16
G00X012875Y01484
M15
G01X012725
M16
G00X012875Y01446
M15
G01X012725
M16
G00X012395Y014535
M15
G01Y014765
M16
G00X011005Y014535
M15
G01Y014765
M16
G00X010675Y01484
M15
G01X010525
M16
G00X010675Y01446
M15
G01X010525
M16
G00X010195Y014535
M15
G01Y014765
M16
G00X008805Y014535
M15
G01Y014765
M16
G00X008475Y01484
M15
G01X008325
M16
G00X008475Y01446
M15
G01X008325
M16
G00X007995Y014535
M15
G01Y014765
M16
G00X006605Y014535
M15
G01Y014765
M16
G00X006275Y01484
M15
G01X006125
M16
G00X006275Y01446
M15
G01X006125
M16
G00X005795Y014535
M15
G01Y014765
M16
G00X004405Y014535
M15
G01Y014765
M16
G00X004075Y01484
M15
G01X003925
M16
G00X004075Y01446
M15
G01X003925
M16
G00X003595Y014535
M15
G01Y014765
M16
G00X002105Y014535
M15
G01Y014765
M16
G00X001775Y01484
M15
G01X001625
M16
G00X001775Y01446
M15
G01X001625
M16
G00X001295Y014535
M15
G01Y014765
M16
M17
M30
