G04*
G04 #@! TF.GenerationSoftware,Altium Limited,Altium Designer,24.1.2 (44)*
G04*
G04 Layer_Color=32768*
%FSLAX44Y44*%
%MOMM*%
G71*
G04*
G04 #@! TF.SameCoordinates,B6AFC4CE-A7C5-40DA-9FC2-5D8795C2DE56*
G04*
G04*
G04 #@! TF.FilePolarity,Positive*
G04*
G01*
G75*
%ADD111C,0.0127*%
D111*
X1110000Y1465000D02*
X1157500D01*
X1060000D02*
X1085000D01*
X1280000D02*
X1305000D01*
X1255000D02*
X1280000D01*
X1330000D02*
X1377500D01*
X1035000D02*
X1060000D01*
X1182500D02*
X1230000D01*
X1402500D02*
X1450000D01*
X1280000Y1000000D02*
Y1025000D01*
Y1220000D02*
Y1245000D01*
Y1440000D02*
Y1465000D01*
Y1025000D02*
Y1050000D01*
Y1245000D02*
Y1270000D01*
Y1515000D02*
Y1562500D01*
Y1465000D02*
Y1490000D01*
Y1147500D02*
Y1195000D01*
Y1075000D02*
Y1122500D01*
Y927500D02*
Y975000D01*
Y855000D02*
Y902500D01*
Y805000D02*
Y830000D01*
Y1367500D02*
Y1415000D01*
Y1295000D02*
Y1342500D01*
X1402500Y1025000D02*
X1450000D01*
X1182500D02*
X1230000D01*
X1255000D02*
X1280000D01*
X1305000D01*
X1330000D02*
X1377500D01*
X1110000D02*
X1157500D01*
X1280000Y1245000D02*
X1305000D01*
X1182500D02*
X1230000D01*
X1330000D02*
X1377500D01*
X1110000D02*
X1157500D01*
X1255000D02*
X1280000D01*
X1402500D02*
X1450000D01*
X1060000Y1440000D02*
Y1465000D01*
Y1367500D02*
Y1415000D01*
Y1295000D02*
Y1342500D01*
Y1245000D02*
Y1270000D01*
Y1465000D02*
Y1490000D01*
Y1515000D02*
Y1562500D01*
X1402500Y805000D02*
X1450000D01*
X1330000D02*
X1377500D01*
X1182500D02*
X1230000D01*
X1280000D02*
X1305000D01*
X1110000D02*
X1157500D01*
X1280000Y780000D02*
Y805000D01*
X1255000D02*
X1280000D01*
X1720000Y1295000D02*
Y1342500D01*
Y1245000D02*
Y1270000D01*
Y1245000D02*
X1745000D01*
X1695000D02*
X1720000D01*
X1550000D02*
X1597500D01*
X1622500D02*
X1670000D01*
X1720000Y1220000D02*
Y1245000D01*
Y1147500D02*
Y1195000D01*
X1940000Y805000D02*
Y830000D01*
X1500000Y780000D02*
Y805000D01*
X1940000D02*
X1965000D01*
X1720000Y780000D02*
Y805000D01*
X1500000D02*
Y830000D01*
X1842500Y805000D02*
X1890000D01*
X1500000D02*
X1525000D01*
X1720000D02*
X1745000D01*
X1770000D02*
X1817500D01*
X1695000D02*
X1720000D01*
X1622500D02*
X1670000D01*
X1940000Y780000D02*
Y805000D01*
X1720000D02*
Y830000D01*
X1915000Y805000D02*
X1940000D01*
X1550000D02*
X1597500D01*
X1475000D02*
X1500000D01*
X1842500Y1465000D02*
X1890000D01*
X1770000D02*
X1817500D01*
X1720000Y1515000D02*
Y1562500D01*
Y1465000D02*
Y1490000D01*
Y1465000D02*
X1745000D01*
X1695000D02*
X1720000D01*
X1622500D02*
X1670000D01*
X1550000D02*
X1597500D01*
X1720000Y1440000D02*
Y1465000D01*
Y1367500D02*
Y1415000D01*
X1940000Y1245000D02*
X1965000D01*
X1915000Y1465000D02*
X1940000D01*
Y1295000D02*
Y1342500D01*
Y1245000D02*
Y1270000D01*
Y1515000D02*
Y1562500D01*
Y1465000D02*
Y1490000D01*
Y1465000D02*
X1965000D01*
X1940000Y1440000D02*
Y1465000D01*
Y1367500D02*
Y1415000D01*
X1915000Y1245000D02*
X1940000D01*
X1500000Y1515000D02*
Y1562500D01*
Y1465000D02*
Y1490000D01*
Y1465000D02*
X1525000D01*
X1475000D02*
X1500000D01*
Y1440000D02*
Y1465000D01*
Y1367500D02*
Y1415000D01*
Y1295000D02*
Y1342500D01*
Y1245000D02*
Y1270000D01*
Y1245000D02*
X1525000D01*
X1475000D02*
X1500000D01*
Y1220000D02*
Y1245000D01*
Y1147500D02*
Y1195000D01*
X1940000Y855000D02*
Y902500D01*
Y1075000D02*
Y1122500D01*
Y1025000D02*
X1965000D01*
X1842500D02*
X1890000D01*
X1940000Y1220000D02*
Y1245000D01*
Y1147500D02*
Y1195000D01*
Y1025000D02*
Y1050000D01*
X1915000Y1025000D02*
X1940000D01*
Y927500D02*
Y975000D01*
X1770000Y1245000D02*
X1817500D01*
X1842500D02*
X1890000D01*
X1770000Y1025000D02*
X1817500D01*
X1940000Y1000000D02*
Y1025000D01*
X1720000Y927500D02*
Y975000D01*
X1622500Y1025000D02*
X1670000D01*
X1695000D02*
X1720000D01*
Y1075000D02*
Y1122500D01*
Y1025000D02*
Y1050000D01*
Y1025000D02*
X1745000D01*
X1550000D02*
X1597500D01*
X1720000Y1000000D02*
Y1025000D01*
Y855000D02*
Y902500D01*
X1500000Y1025000D02*
X1525000D01*
X1500000Y1075000D02*
Y1122500D01*
Y1025000D02*
Y1050000D01*
X1475000Y1025000D02*
X1500000D01*
Y1000000D02*
Y1025000D01*
Y927500D02*
Y975000D01*
Y855000D02*
Y902500D01*
X2732500Y1465000D02*
X2780000D01*
X2880000D02*
X2927500D01*
X2830000Y1515000D02*
Y1562500D01*
X2600000Y1465000D02*
Y1490000D01*
Y1465000D02*
X2625000D01*
X2650000D02*
X2697500D01*
X2830000D02*
Y1490000D01*
X2600000Y1515000D02*
Y1562500D01*
X2830000Y1465000D02*
X2855000D01*
X2805000D02*
X2830000D01*
X2600000Y1147500D02*
Y1195000D01*
Y1245000D02*
Y1270000D01*
X2502500Y1245000D02*
X2550000D01*
X2430000D02*
X2477500D01*
X2600000D02*
X2625000D01*
X2650000D02*
X2697500D01*
X2600000Y1295000D02*
Y1342500D01*
Y1220000D02*
Y1245000D01*
X2575000D02*
X2600000D01*
Y1075000D02*
Y1122500D01*
X2950000Y2216000D02*
Y2241000D01*
X2925000Y2216000D02*
X2950000D01*
Y2191000D02*
Y2216000D01*
X2975000D02*
X2992500D01*
X2950000D02*
X2975000D01*
X2950000Y2173500D02*
Y2191000D01*
Y2241000D02*
Y2258500D01*
X2907500Y2216000D02*
X2925000D01*
X2700000Y1976000D02*
Y2001000D01*
X2675000D02*
X2700000D01*
Y1896000D02*
Y1951000D01*
Y2001000D02*
Y2026000D01*
X2750000Y2001000D02*
X2805000D01*
X2700000D02*
X2725000D01*
X2700000Y2051000D02*
Y2106000D01*
X2595000Y2001000D02*
X2650000D01*
X2830000Y1245000D02*
Y1270000D01*
Y1295000D02*
Y1342500D01*
Y1245000D02*
X2855000D01*
X2880000D02*
X2927500D01*
X2805000D02*
X2830000D01*
X2732500D02*
X2780000D01*
X2830000Y1147500D02*
Y1195000D01*
Y1220000D02*
Y1245000D01*
Y1075000D02*
Y1122500D01*
Y1440000D02*
Y1465000D01*
X2600000Y1440000D02*
Y1465000D01*
Y1367500D02*
Y1415000D01*
X2380000Y1465000D02*
X2405000D01*
X2502500D02*
X2550000D01*
X2430000D02*
X2477500D01*
X2575000D02*
X2600000D01*
X2830000Y1367500D02*
Y1415000D01*
X2380000Y1515000D02*
Y1562500D01*
Y1367500D02*
Y1415000D01*
Y1440000D02*
Y1465000D01*
Y1490000D01*
X2075000Y2216000D02*
X2092500D01*
X2050000Y2191000D02*
Y2216000D01*
Y2241000D02*
Y2258500D01*
Y2216000D02*
Y2241000D01*
X2025000Y2216000D02*
X2050000D01*
X2075000D01*
X2007500D02*
X2025000D01*
X2050000Y2173500D02*
Y2191000D01*
X2300000Y1976000D02*
Y2001000D01*
X2195000D02*
X2250000D01*
X2275000D02*
X2300000D01*
X2325000D01*
X2300000D02*
Y2026000D01*
Y2051000D02*
Y2106000D01*
X2350000Y2001000D02*
X2405000D01*
X2300000Y1896000D02*
Y1951000D01*
X2282500Y1465000D02*
X2330000D01*
X2135000D02*
X2160000D01*
X2210000D02*
X2257500D01*
X2160000D02*
X2185000D01*
X2355000D02*
X2380000D01*
X2062500D02*
X2110000D01*
X1990000D02*
X2037500D01*
X2160000D02*
Y1490000D01*
Y1515000D02*
Y1562500D01*
Y1440000D02*
Y1465000D01*
X2112500Y1367500D02*
X2160000D01*
X1500000Y707500D02*
Y755000D01*
Y635000D02*
Y682500D01*
Y487500D02*
Y535000D01*
Y267500D02*
Y315000D01*
Y195000D02*
Y242500D01*
Y145000D02*
Y170000D01*
Y585000D02*
Y610000D01*
Y560000D02*
Y585000D01*
X1475000Y365000D02*
X1500000D01*
Y340000D02*
Y365000D01*
X1475000Y145000D02*
X1500000D01*
Y47500D02*
Y95000D01*
X1842500Y585000D02*
X1890000D01*
X1720000D02*
Y610000D01*
X1770000Y585000D02*
X1817500D01*
X1720000Y707500D02*
Y755000D01*
Y585000D02*
X1745000D01*
X1720000Y635000D02*
Y682500D01*
Y560000D02*
Y585000D01*
Y487500D02*
Y535000D01*
Y415000D02*
Y462500D01*
X1280000Y120000D02*
Y145000D01*
X1255000D02*
X1280000D01*
X1182500D02*
X1230000D01*
X1280000D02*
Y170000D01*
Y47500D02*
Y95000D01*
Y145000D02*
X1305000D01*
X1330000D02*
X1377500D01*
X1280000Y195000D02*
Y242500D01*
Y267500D02*
Y315000D01*
Y340000D02*
Y365000D01*
X1305000D01*
X1402500Y145000D02*
X1450000D01*
X1280000Y560000D02*
Y585000D01*
Y487500D02*
Y535000D01*
Y415000D02*
Y462500D01*
Y365000D02*
Y390000D01*
X1402500Y365000D02*
X1450000D01*
X1330000D02*
X1377500D01*
X1060000Y120000D02*
Y145000D01*
X950000Y50000D02*
X975000D01*
X1110000Y145000D02*
X1157500D01*
X1060000D02*
X1085000D01*
X962500D02*
X1010000D01*
X1035000D02*
X1060000D01*
X950000Y75000D02*
Y92500D01*
X975000Y50000D02*
X992500D01*
X950000D02*
Y75000D01*
X1720000Y145000D02*
X1745000D01*
X1720000Y120000D02*
Y145000D01*
X1770000D02*
X1817500D01*
X1915000D02*
X1940000D01*
X1842500D02*
X1890000D01*
X1720000Y47500D02*
Y95000D01*
X1060000Y267500D02*
Y315000D01*
Y365000D02*
Y390000D01*
Y487500D02*
Y535000D01*
Y340000D02*
Y365000D01*
Y415000D02*
Y462500D01*
Y195000D02*
Y242500D01*
Y145000D02*
Y170000D01*
Y47500D02*
Y95000D01*
X1475000Y585000D02*
X1500000D01*
X1280000D02*
X1305000D01*
X962500D02*
X1010000D01*
X1402500D02*
X1450000D01*
X1330000D02*
X1377500D01*
X1915000D02*
X1940000D01*
X1695000D02*
X1720000D01*
X1622500D02*
X1670000D01*
X1550000D02*
X1597500D01*
X1500000D02*
X1525000D01*
X1255000D02*
X1280000D01*
X1500000Y120000D02*
Y145000D01*
X1622500D02*
X1670000D01*
X1550000D02*
X1597500D01*
X1500000D02*
X1525000D01*
X1695000D02*
X1720000D01*
Y267500D02*
Y315000D01*
Y195000D02*
Y242500D01*
Y145000D02*
Y170000D01*
X1182500Y585000D02*
X1230000D01*
X1280000Y635000D02*
Y682500D01*
X1110000Y585000D02*
X1157500D01*
X1060000D02*
Y610000D01*
Y585000D02*
X1085000D01*
X1060000Y635000D02*
Y682500D01*
X1280000Y585000D02*
Y610000D01*
Y707500D02*
Y755000D01*
X1060000Y707500D02*
Y755000D01*
X1035000Y585000D02*
X1060000D01*
Y560000D02*
Y585000D01*
X1500000Y365000D02*
X1525000D01*
X1500000D02*
Y390000D01*
X1720000Y340000D02*
Y365000D01*
Y390000D01*
X1842500Y365000D02*
X1890000D01*
X1720000D02*
X1745000D01*
X1695000D02*
X1720000D01*
X1550000D02*
X1597500D01*
X1915000D02*
X1940000D01*
X1770000D02*
X1817500D01*
X1622500D02*
X1670000D01*
X1110000D02*
X1157500D01*
X1500000Y415000D02*
Y462500D01*
X1035000Y365000D02*
X1060000D01*
X1255000D02*
X1280000D01*
X1182500D02*
X1230000D01*
X962500D02*
X1010000D01*
X1060000D02*
X1085000D01*
X2600000Y1025000D02*
X2625000D01*
X2650000D02*
X2697500D01*
X2600000Y1000000D02*
Y1025000D01*
X2830000D02*
Y1050000D01*
Y1025000D02*
X2855000D01*
X2805000D02*
X2830000D01*
X2732500D02*
X2780000D01*
X2830000Y1000000D02*
Y1025000D01*
Y927500D02*
Y975000D01*
X2600000Y1025000D02*
Y1050000D01*
Y927500D02*
Y975000D01*
X2830000Y780000D02*
Y805000D01*
Y585000D02*
Y610000D01*
Y707500D02*
Y755000D01*
Y635000D02*
Y682500D01*
Y585000D02*
X2855000D01*
X2830000Y487500D02*
Y535000D01*
Y415000D02*
Y462500D01*
Y365000D02*
Y390000D01*
Y365000D02*
X2855000D01*
X2830000Y120000D02*
Y145000D01*
X2880000D02*
X2927500D01*
X2805000D02*
X2830000D01*
X2855000D01*
X2950000Y75000D02*
Y92500D01*
X2830000Y47500D02*
Y95000D01*
X2950000Y50000D02*
Y75000D01*
X2975000Y50000D02*
X2992500D01*
X2907500D02*
X2925000D01*
X2950000D02*
X2975000D01*
X2925000D02*
X2950000D01*
Y25000D02*
Y50000D01*
Y7500D02*
Y25000D01*
X2830000Y805000D02*
Y830000D01*
X2950000Y872500D02*
Y890000D01*
X2830000Y805000D02*
X2855000D01*
X2732500D02*
X2780000D01*
X2950000Y915000D02*
X2975000D01*
X2992500D01*
X2950000Y890000D02*
Y915000D01*
X2830000Y855000D02*
Y902500D01*
X2880000Y805000D02*
X2927500D01*
X2805000D02*
X2830000D01*
X2650000D02*
X2697500D01*
X2600000D02*
X2625000D01*
X2600000Y145000D02*
Y170000D01*
Y120000D02*
Y145000D01*
Y340000D02*
Y365000D01*
Y267500D02*
Y315000D01*
Y195000D02*
Y242500D01*
X2650000Y145000D02*
X2697500D01*
X2600000D02*
X2625000D01*
X2650000Y365000D02*
X2697500D01*
X2600000D02*
X2625000D01*
X2600000Y47500D02*
Y95000D01*
X2907500Y915000D02*
X2925000D01*
X2880000Y1025000D02*
X2927500D01*
X2950000Y940000D02*
Y957500D01*
Y915000D02*
Y940000D01*
X2925000Y915000D02*
X2950000D01*
X2430000Y805000D02*
X2477500D01*
X2575000D02*
X2600000D01*
Y780000D02*
Y805000D01*
Y707500D02*
Y755000D01*
X2575000Y1025000D02*
X2600000D01*
X2502500D02*
X2550000D01*
X2600000Y855000D02*
Y902500D01*
Y805000D02*
Y830000D01*
X2430000Y1025000D02*
X2477500D01*
X2502500Y805000D02*
X2550000D01*
X2600000Y635000D02*
Y682500D01*
Y585000D02*
Y610000D01*
X2430000Y585000D02*
X2477500D01*
X2732500Y365000D02*
X2780000D01*
X2830000Y267500D02*
Y315000D01*
Y145000D02*
Y170000D01*
Y195000D02*
Y242500D01*
X2880000Y365000D02*
X2927500D01*
X2830000Y340000D02*
Y365000D01*
X2805000D02*
X2830000D01*
X2732500Y145000D02*
X2780000D01*
X2805000Y585000D02*
X2830000D01*
X2880000D02*
X2927500D01*
X2830000Y560000D02*
Y585000D01*
X2732500D02*
X2780000D01*
X2650000D02*
X2697500D01*
X2600000D02*
X2625000D01*
X2575000D02*
X2600000D01*
X2502500D02*
X2550000D01*
X2600000Y560000D02*
Y585000D01*
X2502500Y145000D02*
X2550000D01*
X2600000Y487500D02*
Y535000D01*
Y415000D02*
Y462500D01*
Y365000D02*
Y390000D01*
X2575000Y145000D02*
X2600000D01*
X2575000Y365000D02*
X2600000D01*
X2502500D02*
X2550000D01*
X2430000D02*
X2477500D01*
X2430000Y145000D02*
X2477500D01*
X170000Y585000D02*
Y610000D01*
X145000Y585000D02*
X170000D01*
X375000D02*
X400000D01*
X220000D02*
X267500D01*
X522500D02*
X570000D01*
X400000D02*
Y610000D01*
X450000Y585000D02*
X497500D01*
X400000D02*
X425000D01*
X72500D02*
X120000D01*
X170000D02*
X195000D01*
X302500D02*
X350000D01*
X75000Y50000D02*
X92500D01*
X50000Y75000D02*
Y92500D01*
Y25000D02*
Y50000D01*
X170000Y47500D02*
Y95000D01*
X50000Y50000D02*
Y75000D01*
Y50000D02*
X75000D01*
X25000D02*
X50000D01*
X7500D02*
X25000D01*
X50000Y7500D02*
Y25000D01*
X400000Y487500D02*
Y535000D01*
X170000Y635000D02*
Y682500D01*
X400000Y415000D02*
Y462500D01*
Y560000D02*
Y585000D01*
Y635000D02*
Y682500D01*
Y707500D02*
Y755000D01*
X170000Y707500D02*
Y755000D01*
Y560000D02*
Y585000D01*
Y487500D02*
Y535000D01*
Y415000D02*
Y462500D01*
X595000Y365000D02*
X620000D01*
Y487500D02*
Y535000D01*
Y415000D02*
Y462500D01*
Y365000D02*
Y390000D01*
X522500Y365000D02*
X570000D01*
X400000Y340000D02*
Y365000D01*
X450000D02*
X497500D01*
X400000D02*
X425000D01*
X400000Y195000D02*
Y242500D01*
Y267500D02*
Y315000D01*
Y145000D02*
X425000D01*
X522500D02*
X570000D01*
X450000D02*
X497500D01*
X400000D02*
Y170000D01*
Y47500D02*
Y95000D01*
X890000Y585000D02*
X937500D01*
X840000D02*
X865000D01*
X840000Y365000D02*
Y390000D01*
X890000Y365000D02*
X937500D01*
X815000D02*
X840000D01*
Y487500D02*
Y535000D01*
Y415000D02*
Y462500D01*
Y365000D02*
X865000D01*
X840000Y340000D02*
Y365000D01*
Y267500D02*
Y315000D01*
Y195000D02*
Y242500D01*
X595000Y585000D02*
X620000D01*
X840000Y560000D02*
Y585000D01*
Y610000D01*
X620000Y585000D02*
Y610000D01*
X670000Y585000D02*
X717500D01*
X742500D02*
X790000D01*
X815000D02*
X840000D01*
Y635000D02*
Y682500D01*
Y707500D02*
Y755000D01*
X620000Y707500D02*
Y755000D01*
Y635000D02*
Y682500D01*
Y585000D02*
X645000D01*
X620000Y560000D02*
Y585000D01*
X170000Y145000D02*
Y170000D01*
Y267500D02*
Y315000D01*
Y195000D02*
Y242500D01*
X375000Y145000D02*
X400000D01*
X302500D02*
X350000D01*
X220000D02*
X267500D01*
X170000D02*
X195000D01*
X72500D02*
X120000D01*
X400000Y120000D02*
Y145000D01*
X145000D02*
X170000D01*
Y120000D02*
Y145000D01*
X620000D02*
Y170000D01*
Y365000D02*
X645000D01*
X670000Y145000D02*
X717500D01*
X595000D02*
X620000D01*
X645000D01*
X620000Y120000D02*
Y145000D01*
X670000Y365000D02*
X717500D01*
X742500D02*
X790000D01*
X620000Y340000D02*
Y365000D01*
Y267500D02*
Y315000D01*
Y195000D02*
Y242500D01*
X742500Y145000D02*
X790000D01*
X620000Y47500D02*
Y95000D01*
X170000Y365000D02*
Y390000D01*
X400000Y365000D02*
Y390000D01*
X375000Y365000D02*
X400000D01*
X302500D02*
X350000D01*
X220000D02*
X267500D01*
X170000D02*
X195000D01*
X145000D02*
X170000D01*
X72500D02*
X120000D01*
X170000Y340000D02*
Y365000D01*
X950000Y7500D02*
Y25000D01*
X907500Y50000D02*
X925000D01*
X815000Y145000D02*
X840000D01*
Y120000D02*
Y145000D01*
X890000D02*
X937500D01*
X840000D02*
Y170000D01*
X950000Y25000D02*
Y50000D01*
X925000D02*
X950000D01*
X840000Y145000D02*
X865000D01*
X840000Y47500D02*
Y95000D01*
Y1245000D02*
X865000D01*
X962500D02*
X1010000D01*
X1060000D02*
X1085000D01*
X815000D02*
X840000D01*
X890000D02*
X937500D01*
X840000Y1220000D02*
Y1245000D01*
X1035000D02*
X1060000D01*
Y1220000D02*
Y1245000D01*
Y1147500D02*
Y1195000D01*
X840000Y1147500D02*
Y1195000D01*
X620000Y1220000D02*
Y1245000D01*
X400000D02*
X425000D01*
X595000D02*
X620000D01*
X645000D01*
X670000D02*
X717500D01*
X742500D02*
X790000D01*
X522500D02*
X570000D01*
X620000Y1147500D02*
Y1195000D01*
X400000Y1220000D02*
Y1245000D01*
X450000D02*
X497500D01*
X400000Y1147500D02*
Y1195000D01*
X1060000Y805000D02*
Y830000D01*
X975000Y915000D02*
X992500D01*
X1060000Y927500D02*
Y975000D01*
Y1075000D02*
Y1122500D01*
Y1025000D02*
Y1050000D01*
X1035000Y1025000D02*
X1060000D01*
X962500D02*
X1010000D01*
X1060000D02*
X1085000D01*
X1060000Y1000000D02*
Y1025000D01*
X950000Y915000D02*
X975000D01*
X1060000Y855000D02*
Y902500D01*
X950000Y940000D02*
Y957500D01*
X1060000Y805000D02*
X1085000D01*
X1060000Y780000D02*
Y805000D01*
X840000Y855000D02*
Y902500D01*
X950000Y872500D02*
Y890000D01*
Y915000D02*
Y940000D01*
Y890000D02*
Y915000D01*
X840000Y805000D02*
Y830000D01*
X907500Y915000D02*
X925000D01*
X950000D01*
X840000Y780000D02*
Y805000D01*
Y1075000D02*
Y1122500D01*
Y1025000D02*
X865000D01*
X742500D02*
X790000D01*
X890000D02*
X937500D01*
X840000D02*
Y1050000D01*
X620000Y1075000D02*
Y1122500D01*
Y1025000D02*
Y1050000D01*
X670000Y1025000D02*
X717500D01*
X620000D02*
X645000D01*
X815000D02*
X840000D01*
X400000Y1075000D02*
Y1122500D01*
Y1025000D02*
Y1050000D01*
Y1025000D02*
X425000D01*
X962500Y805000D02*
X1010000D01*
X1035000D02*
X1060000D01*
X815000D02*
X840000D01*
X742500D02*
X790000D01*
X840000D02*
X865000D01*
X890000D02*
X937500D01*
X670000D02*
X717500D01*
X620000D02*
X645000D01*
X840000Y927500D02*
Y975000D01*
X620000Y1000000D02*
Y1025000D01*
X840000Y1000000D02*
Y1025000D01*
X450000D02*
X497500D01*
X522500D02*
X570000D01*
X595000D02*
X620000D01*
Y927500D02*
Y975000D01*
X400000Y1000000D02*
Y1025000D01*
Y927500D02*
Y975000D01*
X595000Y805000D02*
X620000D01*
X400000D02*
X425000D01*
X620000Y855000D02*
Y902500D01*
X400000Y805000D02*
Y830000D01*
Y855000D02*
Y902500D01*
X522500Y805000D02*
X570000D01*
X620000Y780000D02*
Y805000D01*
Y830000D01*
X450000Y805000D02*
X497500D01*
X400000Y780000D02*
Y805000D01*
Y1295000D02*
Y1342500D01*
Y1367500D02*
Y1415000D01*
Y1245000D02*
Y1270000D01*
Y1515000D02*
Y1562500D01*
X375000Y1245000D02*
X400000D01*
X375000Y1025000D02*
X400000D01*
X302500D02*
X350000D01*
X302500Y1245000D02*
X350000D01*
X72500Y1025000D02*
X120000D01*
X170000Y927500D02*
Y975000D01*
X145000Y1025000D02*
X170000D01*
Y1000000D02*
Y1025000D01*
X50000Y940000D02*
Y957500D01*
Y915000D02*
Y940000D01*
X7500Y915000D02*
X25000D01*
X50000D01*
X75000D01*
X92500D01*
X620000Y1515000D02*
Y1562500D01*
Y1245000D02*
Y1270000D01*
Y1295000D02*
Y1342500D01*
Y1367500D02*
Y1415000D01*
X450000Y1465000D02*
X497500D01*
X400000D02*
X425000D01*
X815000D02*
X840000D01*
X742500D02*
X790000D01*
X670000D02*
X717500D01*
X620000D02*
X645000D01*
X595000D02*
X620000D01*
X522500D02*
X570000D01*
X840000Y1440000D02*
Y1465000D01*
X620000Y1440000D02*
Y1465000D01*
X400000Y1440000D02*
Y1465000D01*
X170000Y1025000D02*
Y1050000D01*
Y1220000D02*
Y1245000D01*
X220000Y1025000D02*
X267500D01*
X220000Y1245000D02*
X267500D01*
X170000Y1075000D02*
Y1122500D01*
Y1147500D02*
Y1195000D01*
Y1025000D02*
X195000D01*
X840000Y1515000D02*
Y1562500D01*
Y1295000D02*
Y1342500D01*
Y1367500D02*
Y1415000D01*
Y1245000D02*
Y1270000D01*
X72500Y1245000D02*
X120000D01*
X145000D02*
X170000D01*
X195000D01*
X170000D02*
Y1270000D01*
Y1295000D02*
Y1342500D01*
Y1515000D02*
Y1562500D01*
X72500Y1465000D02*
X120000D01*
X170000Y1440000D02*
Y1465000D01*
Y1367500D02*
Y1415000D01*
X907500Y2216000D02*
X925000D01*
X975000D02*
X992500D01*
X950000D02*
X975000D01*
X950000Y2191000D02*
Y2216000D01*
X1571538Y1785070D02*
Y1802570D01*
X925000Y2216000D02*
X950000D01*
X50000Y2191000D02*
Y2216000D01*
X950000D02*
Y2241000D01*
Y2173500D02*
Y2191000D01*
X50000Y2241000D02*
Y2258500D01*
Y2216000D02*
Y2241000D01*
Y2216000D02*
X75000D01*
X7500D02*
X25000D01*
X75000D02*
X92500D01*
X25000D02*
X50000D01*
Y2173500D02*
Y2191000D01*
X400000Y1465000D02*
Y1490000D01*
X375000Y1465000D02*
X400000D01*
X302500D02*
X350000D01*
X170000D02*
X195000D01*
X840000D02*
X865000D01*
X962500D02*
X1010000D01*
X890000D02*
X937500D01*
X840000D02*
Y1490000D01*
X620000Y1465000D02*
Y1490000D01*
X170000Y1465000D02*
Y1490000D01*
X145000Y1465000D02*
X170000D01*
X220000D02*
X267500D01*
X220000Y805000D02*
X267500D01*
X170000D02*
X195000D01*
X302500D02*
X350000D01*
X375000D02*
X400000D01*
X72500D02*
X120000D01*
X50000Y872500D02*
Y890000D01*
Y915000D01*
X170000Y855000D02*
Y902500D01*
Y805000D02*
Y830000D01*
X145000Y805000D02*
X170000D01*
Y780000D02*
Y805000D01*
X2135000Y585000D02*
X2160000D01*
Y415000D02*
Y462500D01*
X2135000Y365000D02*
X2160000D01*
Y585000D02*
Y610000D01*
Y560000D02*
Y585000D01*
Y487500D02*
Y535000D01*
Y365000D02*
Y390000D01*
Y365000D02*
X2185000D01*
X2160000Y340000D02*
Y365000D01*
Y267500D02*
Y315000D01*
Y195000D02*
Y242500D01*
Y145000D02*
Y170000D01*
Y145000D02*
X2185000D01*
X2160000Y120000D02*
Y145000D01*
X2135000D02*
X2160000D01*
Y805000D02*
X2185000D01*
X2282500D02*
X2330000D01*
X2210000D02*
X2257500D01*
X2160000D02*
Y830000D01*
Y1147500D02*
Y1195000D01*
Y1220000D02*
Y1245000D01*
X2185000D01*
X2062500D02*
X2110000D01*
X2160000D02*
Y1270000D01*
Y1295000D02*
Y1342500D01*
X2135000Y1245000D02*
X2160000D01*
Y1075000D02*
Y1122500D01*
X1990000Y1245000D02*
X2037500D01*
X2210000Y365000D02*
X2257500D01*
X2380000Y195000D02*
Y242500D01*
Y120000D02*
Y145000D01*
Y585000D02*
Y610000D01*
Y145000D02*
X2405000D01*
X2380000Y365000D02*
X2405000D01*
X2380000Y145000D02*
Y170000D01*
Y560000D02*
Y585000D01*
Y487500D02*
Y535000D01*
Y415000D02*
Y462500D01*
Y365000D02*
Y390000D01*
X2355000Y365000D02*
X2380000D01*
X2282500D02*
X2330000D01*
X2380000Y267500D02*
Y315000D01*
Y340000D02*
Y365000D01*
X1940000Y585000D02*
X1965000D01*
X1940000Y560000D02*
Y585000D01*
Y487500D02*
Y535000D01*
Y415000D02*
Y462500D01*
Y365000D02*
Y390000D01*
Y365000D02*
X1965000D01*
X1940000Y340000D02*
Y365000D01*
Y267500D02*
Y315000D01*
Y195000D02*
Y242500D01*
Y585000D02*
Y610000D01*
Y145000D02*
Y170000D01*
Y145000D02*
X1965000D01*
X1940000Y707500D02*
Y755000D01*
X1990000Y805000D02*
X2037500D01*
X2062500D02*
X2110000D01*
X2160000Y635000D02*
Y682500D01*
X2135000Y805000D02*
X2160000D01*
Y707500D02*
Y755000D01*
Y780000D02*
Y805000D01*
X1940000Y635000D02*
Y682500D01*
Y120000D02*
Y145000D01*
X2160000Y47500D02*
Y95000D01*
X2380000Y47500D02*
Y95000D01*
X2050000Y75000D02*
Y92500D01*
X1940000Y47500D02*
Y95000D01*
X2050000Y50000D02*
Y75000D01*
X2075000Y50000D02*
X2092500D01*
X2007500D02*
X2025000D01*
X2050000D02*
X2075000D01*
X2025000D02*
X2050000D01*
Y25000D02*
Y50000D01*
X2282500Y145000D02*
X2330000D01*
X2355000D02*
X2380000D01*
X2210000D02*
X2257500D01*
X2050000Y7500D02*
Y25000D01*
Y915000D02*
X2075000D01*
X2092500D01*
X2050000Y890000D02*
Y915000D01*
X2007500D02*
X2025000D01*
X2050000D01*
Y940000D01*
X2160000Y855000D02*
Y902500D01*
Y927500D02*
Y975000D01*
X2050000Y940000D02*
Y957500D01*
Y872500D02*
Y890000D01*
X2380000Y1245000D02*
Y1270000D01*
Y1220000D02*
Y1245000D01*
Y1295000D02*
Y1342500D01*
Y1245000D02*
X2405000D01*
X2210000D02*
X2257500D01*
X2282500D02*
X2330000D01*
X2355000D02*
X2380000D01*
X2160000Y1025000D02*
Y1050000D01*
Y1000000D02*
Y1025000D01*
X2062500D02*
X2110000D01*
X2282500D02*
X2330000D01*
X2160000D02*
X2185000D01*
X1990000D02*
X2037500D01*
X2210000D02*
X2257500D01*
X2135000D02*
X2160000D01*
X2380000D02*
X2405000D01*
X2380000Y855000D02*
Y902500D01*
Y805000D02*
Y830000D01*
X2355000Y805000D02*
X2380000D01*
Y780000D02*
Y805000D01*
Y707500D02*
Y755000D01*
Y927500D02*
Y975000D01*
Y1000000D02*
Y1025000D01*
Y805000D02*
X2405000D01*
X2355000Y1025000D02*
X2380000D01*
Y1050000D01*
Y1147500D02*
Y1195000D01*
Y1075000D02*
Y1122500D01*
Y635000D02*
Y682500D01*
X2160000Y585000D02*
X2185000D01*
X2210000D02*
X2257500D01*
X2380000D02*
X2405000D01*
X2355000D02*
X2380000D01*
X2282500D02*
X2330000D01*
X1990000Y365000D02*
X2037500D01*
X1990000Y585000D02*
X2037500D01*
X2062500Y365000D02*
X2110000D01*
X1990000Y145000D02*
X2037500D01*
X2062500Y585000D02*
X2110000D01*
X2062500Y145000D02*
X2110000D01*
M02*
