G04*
G04 #@! TF.GenerationSoftware,Altium Limited,Altium Designer,24.1.2 (44)*
G04*
G04 Layer_Color=16711935*
%FSLAX44Y44*%
%MOMM*%
G71*
G04*
G04 #@! TF.SameCoordinates,B6AFC4CE-A7C5-40DA-9FC2-5D8795C2DE56*
G04*
G04*
G04 #@! TF.FilePolarity,Positive*
G04*
G01*
G75*
%ADD14C,0.2540*%
%ADD112C,0.1016*%
D14*
X2200000Y1913700D02*
G03*
X2212700Y1901000I12700J0D01*
G01*
X2787300D02*
G03*
X2800000Y1913700I0J12700D01*
G01*
Y2088300D02*
G03*
X2787300Y2101000I-12700J0D01*
G01*
X2212700D02*
G03*
X2200000Y2088300I0J-12700D01*
G01*
X50000Y2450000D02*
G03*
X0Y2400000I0J-50000D01*
G01*
X3000000D02*
G03*
X2950000Y2450000I-50000J0D01*
G01*
X650000Y1805000D02*
G03*
X670000Y1825000I0J20000D01*
G01*
X350000Y1825000D02*
G03*
X370000Y1805000I20000J0D01*
G01*
X370000Y2125000D02*
G03*
X350000Y2105000I0J-20000D01*
G01*
X670000Y2105000D02*
G03*
X650000Y2125000I-20000J0D01*
G01*
X2950000Y0D02*
G03*
X3000000Y50000I0J50000D01*
G01*
X0Y50000D02*
G03*
X50000Y0I50000J0D01*
G01*
X2200000Y1913700D02*
Y2064537D01*
X2212700Y1901000D02*
X2787300D01*
X2800000Y1913700D02*
Y2088300D01*
X2212700Y2101000D02*
X2787300D01*
X2200000Y2040774D02*
Y2088300D01*
X-0Y2400000D02*
X0Y50000D01*
Y0D02*
X52165D01*
X2214537Y2101000D02*
X2787300D01*
X2214537Y1901000D02*
X2787300D01*
X2200000Y2001000D02*
Y2087300D01*
X370000Y1805000D02*
X650000D01*
X670000Y1825000D02*
Y2045954D01*
X350000Y1825000D02*
Y2105000D01*
X370000Y2125000D02*
X650000D01*
X670000Y2043232D02*
Y2105000D01*
X69735Y0D02*
X2950000D01*
X3000000Y2400000D02*
X3000000Y50000D01*
X50000Y2450000D02*
X2950000D01*
X50000Y0D02*
X69735D01*
D112*
X67500Y2216000D02*
G03*
X67500Y2216000I-17500J0D01*
G01*
X967500D02*
G03*
X967500Y2216000I-17500J0D01*
G01*
X2067500D02*
G03*
X2067500Y2216000I-17500J0D01*
G01*
X2967500D02*
G03*
X2967500Y2216000I-17500J0D01*
G01*
X67500Y915000D02*
G03*
X67500Y915000I-17500J0D01*
G01*
X67500Y50000D02*
G03*
X67500Y50000I-17500J0D01*
G01*
X967500D02*
G03*
X967500Y50000I-17500J0D01*
G01*
X2067500D02*
G03*
X2067500Y50000I-17500J0D01*
G01*
X2967500D02*
G03*
X2967500Y50000I-17500J0D01*
G01*
Y915000D02*
G03*
X2967500Y915000I-17500J0D01*
G01*
X2067500D02*
G03*
X2067500Y915000I-17500J0D01*
G01*
X967500D02*
G03*
X967500Y915000I-17500J0D01*
G01*
M02*
