G04*
G04 #@! TF.GenerationSoftware,Altium Limited,Altium Designer,24.1.2 (44)*
G04*
G04 Layer_Color=32768*
%FSLAX44Y44*%
%MOMM*%
G71*
G04*
G04 #@! TF.SameCoordinates,76E79536-2B88-4979-9DBC-014BFA5C7660*
G04*
G04*
G04 #@! TF.FilePolarity,Positive*
G04*
G01*
G75*
%ADD18C,0.1000*%
%ADD111C,0.0500*%
D18*
X2453296Y1699987D02*
X2463296D01*
X2458296Y1694987D02*
Y1704987D01*
X2233296Y1699987D02*
X2243296D01*
X2238296Y1694987D02*
Y1704987D01*
X913296Y1699987D02*
X923296D01*
X918296Y1694987D02*
Y1704987D01*
X1133296Y1699987D02*
X1143296D01*
X1138296Y1694987D02*
Y1704987D01*
X1353296Y1699987D02*
X1363296D01*
X1358296Y1694987D02*
Y1704987D01*
X1573296Y1699987D02*
X1583296D01*
X1578296Y1694987D02*
Y1704987D01*
X1793296Y1699987D02*
X1803296D01*
X1798296Y1694987D02*
Y1704987D01*
X2903296Y1699987D02*
X2913296D01*
X2908296Y1694987D02*
Y1704987D01*
X2673296Y1699987D02*
X2683296D01*
X2678296Y1694987D02*
Y1704987D01*
X693296Y1699987D02*
X703296D01*
X698296Y1694987D02*
Y1704987D01*
X473296Y1699987D02*
X483296D01*
X478296Y1694987D02*
Y1704987D01*
X243296Y1699987D02*
X253296D01*
X248296Y1694987D02*
Y1704987D01*
X2013296Y1699987D02*
X2023296D01*
X2018296Y1694987D02*
Y1704987D01*
X1162558Y2387702D02*
Y2397702D01*
X1157558Y2392702D02*
X1167558D01*
X1141048Y2047748D02*
X1151048D01*
X1146048Y2042748D02*
Y2052748D01*
D111*
X2510296Y1661887D02*
Y1738087D01*
X2406296Y1661887D02*
Y1738087D01*
X2510296D01*
X2406296Y1661887D02*
X2510296D01*
X2290296D02*
Y1738087D01*
X2186296Y1661887D02*
Y1738087D01*
X2290296D01*
X2186296Y1661887D02*
X2290296D01*
X970296D02*
Y1738087D01*
X866296Y1661887D02*
Y1738087D01*
X970296D01*
X866296Y1661887D02*
X970296D01*
X1190296D02*
Y1738087D01*
X1086296Y1661887D02*
Y1738087D01*
X1190296D01*
X1086296Y1661887D02*
X1190296D01*
X1410296D02*
Y1738087D01*
X1306296Y1661887D02*
Y1738087D01*
X1410296D01*
X1306296Y1661887D02*
X1410296D01*
X1630296D02*
Y1738087D01*
X1526296Y1661887D02*
Y1738087D01*
X1630296D01*
X1526296Y1661887D02*
X1630296D01*
X1850296D02*
Y1738087D01*
X1746296Y1661887D02*
Y1738087D01*
X1850296D01*
X1746296Y1661887D02*
X1850296D01*
X2960296D02*
Y1738087D01*
X2856296Y1661887D02*
Y1738087D01*
X2960296D01*
X2856296Y1661887D02*
X2960296D01*
X2730296D02*
Y1738087D01*
X2626296Y1661887D02*
Y1738087D01*
X2730296D01*
X2626296Y1661887D02*
X2730296D01*
X750296D02*
Y1738087D01*
X646296Y1661887D02*
Y1738087D01*
X750296D01*
X646296Y1661887D02*
X750296D01*
X530296D02*
Y1738087D01*
X426296Y1661887D02*
Y1738087D01*
X530296D01*
X426296Y1661887D02*
X530296D01*
X300296D02*
Y1738087D01*
X196296Y1661887D02*
Y1738087D01*
X300296D01*
X196296Y1661887D02*
X300296D01*
X2070296D02*
Y1738087D01*
X1966296Y1661887D02*
Y1738087D01*
X2070296D01*
X1966296Y1661887D02*
X2070296D01*
X987850Y2021998D02*
Y2061498D01*
X929850Y2021998D02*
X987850D01*
X929850D02*
Y2061348D01*
X987850Y2061498D01*
X1059048Y1960748D02*
Y2134748D01*
X1233048Y1960748D02*
Y2134748D01*
X1059048D02*
X1233048D01*
X1059048Y1960748D02*
X1233048D01*
M02*
