M48
;Layer_Color=9474304
;FILE_FORMAT=4:3
METRIC,LZ
;TYPE=PLATED
T01F00S00C0.300
T02F00S00C0.711
T03F00S00C0.800
T05F00S00C0.900
T06F00S00C1.000
T07F00S00C1.700
%
T01
X0289804Y0001571
X0293614
X0297424
Y0009191
X0289804
X0287899Y0005381
X0284089
X0280279
X0276469
X0272659
X0268849
X0265039
X0261229
X0257419
X0253609
X0249799
X0278374Y0001571
X0282184
X0285994
X0245989Y0005381
X0242179
X0230749
X0226939
X0223129
X0219319
X0207889
X0200269
X0196459
X0185029
X0181219
X0177409
X0173599
X0162169
X0158359
X0154549
X0146929
X0143119
X0139309
X0135499
X0131689
X0120259
X0116449
X0112639
X0108829
X0097399
X0089779
X0085969
X0074539
X0070729
X0066919
X0063109
X0059299
X0055489
X0051679
X0047869
X0044059
X0032629
X0028819
X0025009
X0021199
X0019294Y0009191
X0015484
X0011674
X0009769Y0005381
X0007864Y0009191
X0004054
Y0001571
X0007864
X0005959Y0013001
X0007864Y0016811
X0004054
X0005959Y0020621
X0007864Y0024431
X0004054
X0005959Y0028241
X0007864Y0032051
X0004054
X0005959Y0035861
X0007864Y0039671
X0004054
X0005959Y0043481
X0007864Y0047291
X0004054
X0005959Y0051101
X0011674Y0047291
Y0039671
X0015484
X0019294
X0023104
X0025009Y0043481
X0028819
X0032629
X0034534Y0039671
X0038344
X0042154
X0045964
X0047869Y0043481
X0044059
Y0051101
X0047869
Y0035861
Y0028241
X0044059
X0045964Y0024431
X0047869Y0020621
X0044059
X0045964Y0016811
X0042154
X0034534
X0030724
X0026914
X0023104
X0019294
X0021199Y0020621
X0025009
X0028819
X0032629
X0034534Y0024431
X0038344
X0030724
X0032629Y0028241
X0028819
X0025009
X0021199
X0023104Y0024431
X0015484
X0011674
Y0032051
X0015484
X0019294
X0025009Y0035861
X0028819
X0032629
X0030724Y0039671
X0032629Y0051101
X0028819
X0025009
X0021199
Y0043481
X0025009Y0013001
X0028819
X0032629
X0047869
X0011674Y0016811
X0049774
X0053584
X0055489Y0020621
X0059299
X0063109
X0066919
X0070729
X0074539
X0078349
X0082159
X0085969
Y0028241
Y0035861
X0082159
X0078349
X0074539
X0070729
X0068824Y0039671
X0065014
X0061204
X0063109Y0043481
X0066919
X0070729
X0074539
X0078349
X0082159
X0085969
X0087874Y0039671
X0076444
X0078349Y0051101
X0082159
X0085969
X0074539
X0070729
X0066919
X0063109
X0059299
X0055489
X0051679
Y0043481
X0055489
X0059299
Y0035861
X0063109
Y0028241
X0066919
X0070729
X0074539
X0078349
X0076444Y0024431
Y0016811
X0072634
X0068824
X0065014
X0070729Y0013001
X0074539
X0078349
X0085969
X0059299
X0055489
X0051679
Y0020621
X0053584Y0024431
X0055489Y0028241
X0059299
X0051679
Y0035861
X0055489
X0053584Y0039671
X0068824Y0024431
X0089779Y0028241
X0093589
X0097399
X0101209
X0103114Y0024431
X0099304
X0095494
X0097399Y0020621
X0101209
X0105019
X0108829
X0112639
X0116449
X0120259
X0122164Y0024431
X0125974
Y0016811
X0122164
X0118354
X0114544
X0110734
X0112639Y0013001
X0116449
X0120259
X0108829
X0103114Y0016811
X0099304
X0095494
X0091684
X0093589Y0020621
X0089779
Y0013001
X0093589
X0097399
Y0035861
X0093589
X0089779
Y0043481
X0093589
X0097399
X0101209
X0105019
X0108829
X0112639
X0114544Y0039671
X0118354
X0122164
X0125974
X0120259Y0043481
Y0051101
X0112639
X0108829
X0105019
X0101209
X0097399
X0093589
X0089779
X0095494Y0039671
X0099304
X0103114
X0106924
X0110734
X0112639Y0035861
X0120259
Y0028241
X0118354Y0024431
X0114544
X0112639Y0028241
X0108829
X0105019Y0035861
X0129784Y0039671
X0133594
X0137404
X0141214
X0145024
X0148834
X0152644
X0156454
X0158359Y0043481
X0162169
X0165979
X0164074Y0039671
X0165979Y0035861
X0162169
X0158359
Y0028241
X0162169
X0165979
X0164074Y0024431
X0165979Y0020621
X0162169
X0158359
X0154549
X0150739
X0146929
X0143119
X0139309
X0135499
X0131689
X0133594Y0024431
X0135499Y0028241
X0139309
X0143119
X0146929
X0150739
X0154549
X0156454Y0024431
Y0016811
X0160264
X0164074
X0165979Y0013001
X0162169
X0158359
X0152644Y0016811
X0145024
X0141214
X0137404
X0133594
X0135499Y0013001
X0139309
X0143119
X0145024Y0024431
X0148834
X0141214
X0143119Y0035861
X0139309
X0135499
Y0043481
X0139309
X0143119
X0146929
X0150739
X0154549
Y0051101
X0158359
X0162169
X0165979
X0150739
X0146929
X0143119
X0139309
X0135499
X0131689
Y0043481
Y0028241
X0169789
X0173599
X0177409
X0181219
X0185029
X0188839
X0190744Y0024431
X0186934
X0183124
X0179314
X0181219Y0020621
X0185029
X0188839
X0192649
X0196459
X0200269
X0204079
X0205984Y0024431
X0204079Y0028241
X0200269
X0196459
Y0035861
X0200269
X0204079
X0205984Y0039671
X0204079Y0043481
X0200269
X0196459
X0192649
X0188839
X0185029
X0181219
X0177409
X0173599
X0169789
Y0051101
X0173599
X0177409
X0185029
X0188839
X0192649
X0196459
X0200269
X0204079
X0198364Y0039671
X0190744
X0186934
X0183124
X0179314
X0175504
X0177409Y0035861
X0181219
X0185029
X0192649
X0173599
X0169789
Y0020621
X0173599
X0177409
X0179314Y0016811
X0183124
X0186934
X0190744
X0196459Y0013001
X0200269
X0204079
X0205984Y0016811
X0202174
X0185029Y0013001
X0181219
X0177409
X0175504Y0016811
X0169789Y0013001
X0207889
X0209794Y0016811
X0213604
X0221224
X0225034
X0228844
X0232654
X0230749Y0020621
X0226939
X0223129
X0219319
Y0028241
X0223129
X0230749
X0232654Y0024431
X0236464
X0244084
X0245989Y0028241
X0242179
Y0020621
X0245989
X0244084Y0016811
X0240274
X0245989Y0013001
X0230749
X0226939
X0223129
X0228844Y0024431
X0230749Y0035861
X0232654Y0039671
X0236464
X0240274
X0244084
X0245989Y0043481
X0242179
Y0051101
X0245989
Y0035861
X0228844Y0039671
X0225034
X0221224
X0217414
X0213604
X0209794
X0207889Y0043481
Y0051101
X0219319
X0223129
X0230749
Y0043481
X0223129
X0219319
X0223129Y0035861
X0207889
Y0028241
X0209794Y0024431
X0213604
X0207889Y0020621
X0249799
X0253609
X0257419
X0261229
X0265039
X0268849
X0272659
X0276469
X0280279
X0284089
X0285994Y0016811
X0280279Y0013001
X0276469
X0272659
X0268849
X0270754Y0016811
X0274564
Y0024431
X0276469Y0028241
X0280279
X0284089
Y0035861
X0280279
X0276469
X0272659
X0268849
X0266944Y0039671
X0263134
X0265039Y0043481
X0268849
X0272659
X0276469
X0280279
X0284089
X0285994Y0039671
X0282184
X0274564
X0276469Y0051101
X0280279
X0284089
X0272659
X0265039
X0261229
X0257419
X0253609
X0249799
Y0043481
X0253609
X0257419
X0261229
Y0035861
X0257419
X0253609
X0249799
X0251704Y0039671
X0253609Y0028241
X0257419
X0261229
X0265039
X0268849
X0272659
X0266944Y0024431
Y0016811
X0263134
X0257419Y0013001
X0253609
X0249799
X0251704Y0016811
X0247894
X0251704Y0024431
X0249799Y0028241
X0287899
X0291709
X0293614Y0032051
X0289804
Y0039671
X0293614
X0295519Y0043481
X0291709
X0287899
Y0051101
X0291709
X0295519Y0035861
X0297424Y0024431
X0293614
X0289804
X0291709Y0020621
X0295519
X0293614Y0016811
X0289804
X0291709Y0013001
X0295519
X0287899Y0020621
X0293614Y0054911
X0295519Y0058721
X0291709
X0293614Y0062531
X0295519Y0066341
X0291709
X0287899
Y0073961
X0291709
X0293614Y0077771
X0295519Y0081581
X0291709
X0293614Y0085391
X0285994
X0282184
X0284089Y0089201
X0280279
X0276469
X0272659
X0274564Y0085391
X0276469Y0081581
X0280279
Y0073961
X0284089
X0285994Y0077771
X0274564
X0276469Y0073961
X0272659
Y0081581
X0266944Y0085391
X0263134
X0261229Y0089201
X0257419
X0253609
X0249799
X0251704Y0085391
X0253609Y0081581
X0257419
Y0073961
X0261229
X0265039
X0266944Y0077771
X0263134
X0251704
X0253609Y0073961
X0249799
Y0081581
Y0066341
X0253609
X0257419
X0261229
X0265039
X0266944Y0062531
X0263134
X0261229Y0058721
X0257419
X0253609
X0249799
X0251704Y0062531
Y0054911
X0263134
X0266944
X0274564
X0276469Y0058721
X0280279
X0284089
X0285994Y0062531
X0282184
X0284089Y0066341
X0280279
X0276469
X0272659
X0274564Y0062531
X0272659Y0058721
X0282184Y0054911
X0285994
X0244084
X0240274
X0236464
X0232654
X0228844
X0230749Y0058721
X0232654Y0062531
X0236464
X0240274
X0244084
X0245989Y0066341
X0242179
Y0073961
X0244084Y0077771
X0240274
Y0085391
X0244084
X0236464
X0232654
X0228844
X0230749Y0089201
Y0081581
X0232654Y0077771
X0228844
X0230749Y0073961
Y0066341
X0228844Y0062531
X0221224
X0217414
X0213604
X0209794
X0207889Y0066341
Y0073961
X0209794Y0077771
X0213604
X0221224
X0223129Y0081581
X0221224Y0085391
X0217414
X0213604
X0209794
X0207889Y0089201
Y0081581
X0219319Y0073961
X0223129
Y0066341
X0219319
X0223129Y0058721
X0221224Y0054911
X0217414
X0213604
X0209794
X0207889Y0058721
X0215509
X0238369
X0245989
X0204079
X0200269
X0196459
X0192649
X0190744Y0062531
X0186934
X0183124
X0179314
X0175504
X0177409Y0066341
X0173599
X0169789
Y0073961
X0173599
X0177409
X0179314Y0077771
X0183124
X0186934
X0190744
X0192649Y0073961
X0196459
X0204079
X0205984Y0077771
X0204079Y0081581
X0205984Y0085391
X0204079Y0089201
X0198364Y0085391
X0196459Y0081581
X0190744Y0085391
X0186934
X0183124
X0179314
X0175504
X0177409Y0081581
X0185029
Y0089201
X0188839
X0192649
X0188839Y0073961
X0185029
Y0066341
X0188839
X0192649
X0196459
X0200269
X0204079
X0205984Y0062531
Y0054911
X0198364Y0062531
X0190744Y0054911
X0186934
X0183124
X0179314
X0177409Y0058721
X0173599
X0169789
X0185029
X0169789Y0081581
Y0089201
X0165979
X0162169
X0164074Y0085391
X0165979Y0081581
X0162169
X0164074Y0077771
X0165979Y0073961
X0162169
Y0066341
X0165979
X0164074Y0062531
X0165979Y0058721
X0162169
X0158359
X0156454Y0062531
X0152644
X0148834
X0145024
X0141214
X0143119Y0066341
X0146929
X0150739
X0154549
X0158359
X0154549Y0073961
X0150739
X0146929
X0143119
X0139309
X0135499
X0131689
X0133594Y0077771
X0129784
Y0085391
X0133594
X0135499Y0081581
X0139309
X0143119
X0145024Y0085391
X0148834
X0152644
X0156454
Y0077771
X0152644
X0145024
X0141214
Y0085391
X0143119Y0089201
X0146929
X0150739
X0139309
Y0066341
X0135499
X0131689
X0133594Y0062531
X0129784
Y0054911
X0133594
X0135499Y0058721
X0139309
X0143119
X0145024Y0054911
X0148834
X0152644
X0156454
X0164074
X0150739Y0058721
X0141214Y0054911
X0125974
X0122164
X0118354
X0114544
X0112639Y0058721
X0114544Y0062531
X0118354
X0122164
X0125974
X0127879Y0058721
X0120259
Y0066341
Y0073961
X0122164Y0077771
X0125974
Y0085391
X0122164
X0118354
X0120259Y0089201
Y0081581
X0118354Y0077771
X0112639Y0081581
X0110734Y0085391
X0106924
X0103114
X0099304
X0095494
X0097399Y0089201
X0101209
X0105019
X0093589
Y0081581
X0097399
X0099304Y0077771
X0103114
X0105019Y0073961
X0108829
X0112639
Y0066341
X0108829
X0105019
X0101209
X0097399
X0093589
X0089779
Y0058721
X0093589
X0097399
X0099304Y0062531
X0103114
X0106924
X0110734
X0105019Y0058721
X0106924Y0054911
X0103114
X0099304
X0095494
Y0062531
X0097399Y0073961
X0101209
X0093589
X0095494Y0077771
X0085969Y0081581
X0082159
X0078349
X0074539
X0076444Y0085391
X0078349Y0089201
X0082159
X0074539
X0068824Y0085391
X0065014
X0061204
X0063109Y0089201
X0059299
X0055489
X0051679
X0053584Y0085391
X0055489Y0081581
X0059299
Y0073961
X0063109
X0066919
X0068824Y0077771
X0065014
X0076444
X0078349Y0073961
X0082159
X0085969
Y0066341
X0082159
X0078349
X0074539
X0070729
X0066919
X0063109
X0059299
X0055489
X0051679
X0053584Y0062531
X0055489Y0058721
X0059299
X0063109
X0065014Y0062531
X0068824
X0070729Y0058721
X0074539
X0078349
X0082159
X0085969
X0087874Y0062531
X0076444
Y0054911
X0068824
X0065014
X0061204
Y0062531
X0051679Y0058721
X0053584Y0054911
X0055489Y0073961
X0051679
X0053584Y0077771
X0051679Y0081581
X0074539Y0073961
X0087874Y0085391
X0045964
X0042154
X0038344
X0034534
X0030724
X0032629Y0089201
X0028819
Y0081581
X0032629
X0034534Y0077771
X0030724
X0032629Y0073961
X0028819
Y0066341
X0032629
X0034534Y0062531
X0038344
X0042154
X0045964
X0047869Y0066341
X0044059
Y0073961
X0047869
X0045964Y0077771
X0042154
X0047869Y0081581
Y0089201
X0023104Y0085391
X0019294
X0015484
X0011674
Y0077771
X0019294
X0023104
X0021199Y0073961
Y0066341
X0025009
X0023104Y0062531
X0019294
X0015484
X0011674
Y0070151
Y0054911
X0015484
X0019294
X0023104
X0025009Y0058721
X0028819
X0032629
X0034534Y0054911
X0038344
X0042154
X0045964
X0047869Y0058721
X0040249
X0030724Y0062531
Y0054911
X0017389Y0058721
X0005959
X0007864Y0062531
X0004054
X0005959Y0066341
X0007864Y0070151
X0004054
X0005959Y0073961
X0007864Y0077771
X0004054
X0005959Y0081581
X0007864Y0085391
X0004054
X0005959Y0089201
X0007864Y0054911
X0004054
X0007864Y0093011
X0005959Y0096821
X0007864Y0100631
X0004054
X0005959Y0104441
X0007864Y0108251
X0004054
X0005959Y0112061
X0007864Y0115871
X0004054
X0005959Y0119681
X0007864Y0123491
X0004054
X0005959Y0127301
X0007864Y0131111
X0004054
X0011674
X0015484
X0019294
X0023104
X0021199Y0127301
X0023104Y0123491
X0019294
Y0115871
X0023104
X0030724
X0034534
X0032629Y0112061
X0028819
X0030724Y0108251
X0034534
X0038344
X0042154
X0045964
Y0115871
X0042154
Y0123491
X0045964
X0044059Y0127301
X0045964Y0131111
X0042154
X0038344
X0034534
X0030724
X0032629Y0127301
X0028819
X0030724Y0123491
X0034534
X0038344
X0032629Y0104441
X0028819
X0030724Y0100631
X0034534
X0042154
X0045964
Y0093011
X0042154
X0034534
X0030724
X0023104
X0019294
X0021199Y0096821
X0023104Y0100631
X0019294
Y0108251
X0023104
X0015484
X0011674
Y0115871
Y0123491
Y0100631
Y0093011
X0053584
Y0100631
X0055489Y0104441
X0059299
X0061204Y0108251
X0065014
X0068824
X0076444
X0078349Y0112061
X0082159
X0074539
X0076444Y0115871
Y0123491
X0078349Y0127301
X0082159
X0085969
X0087874Y0131111
X0076444
X0074539Y0127301
X0066919
X0065014Y0131111
X0061204
X0059299Y0127301
X0055489
X0051679
X0053584Y0131111
Y0123491
Y0115871
X0055489Y0112061
X0059299
X0063109
X0065014Y0115871
Y0100631
X0068824
X0076444
X0078349Y0104441
X0074539
X0076444Y0093011
X0068824
X0065014
X0087874
Y0108251
Y0115871
X0051679Y0112061
X0053584Y0108251
X0051679Y0104441
X0093589
X0097399
X0099304Y0108251
X0103114
X0106924
X0110734
X0112639Y0104441
X0108829
X0103114Y0100631
X0099304
X0095494
Y0108251
X0097399Y0112061
X0101209
X0103114Y0115871
X0106924
X0110734
X0118354
X0122164
X0120259Y0112061
X0122164Y0108251
X0125974
Y0100631
X0122164
X0118354
X0120259Y0104441
X0118354Y0108251
Y0123491
X0122164
X0125974
Y0131111
X0122164
X0118354
X0120259Y0127301
X0108829
X0110734Y0131111
X0106924
X0103114
X0099304
X0095494
X0097399Y0127301
X0101209
X0099304Y0123491
X0095494
Y0115871
X0099304
X0089779Y0127301
X0099304Y0093011
X0106924
X0110734
X0118354
X0122164
X0129784
X0133594
X0141214
X0145024
X0152644
X0156454
X0164074
Y0100631
X0165979Y0104441
X0162169
X0164074Y0108251
X0165979Y0112061
X0162169
X0164074Y0115871
Y0123491
X0165979Y0127301
X0162169
X0164074Y0131111
X0152644
X0148834
X0145024
X0141214
X0143119Y0127301
X0146929
X0154549
X0152644Y0123491
Y0115871
Y0108251
X0156454
Y0100631
X0152644
X0146929Y0104441
X0143119
X0139309
X0141214Y0108251
X0145024
X0148834
X0146929Y0112061
X0143119
X0139309
X0141214Y0115871
X0145024
X0141214Y0123491
X0139309Y0127301
X0131689
X0133594Y0131111
X0129784
Y0123491
X0133594
Y0115871
X0129784
Y0108251
X0133594
Y0100631
X0141214
X0169789Y0104441
X0177409
X0175504Y0108251
X0183124
X0186934
X0190744
X0192649Y0112061
X0188839
X0185029
X0186934Y0115871
X0190744
X0198364
X0205984
Y0123491
Y0131111
X0198364
X0200269Y0127301
X0196459
X0188839
X0185029
X0186934Y0131111
X0190744
X0183124
Y0123491
X0186934
X0183124Y0115871
X0175504
X0169789Y0112061
Y0127301
X0177409
X0175504Y0131111
X0185029Y0104441
X0188839
X0186934Y0100631
X0183124
Y0093011
X0186934
X0190744
X0198364
X0196459Y0104441
X0198364Y0108251
X0205984
X0204079Y0104441
X0205984Y0100631
X0175504Y0093011
X0209794
X0217414
X0221224
X0228844
X0232654
X0240274
X0244084
Y0100631
X0240274
Y0108251
X0244084
Y0115871
X0240274
Y0123491
X0244084
X0242179Y0127301
X0244084Y0131111
X0240274
X0236464
X0232654
X0228844
X0230749Y0127301
X0232654Y0123491
X0228844
Y0115871
X0232654
X0230749Y0112061
X0232654Y0108251
X0236464
X0228844
X0230749Y0104441
X0232654Y0100631
X0228844
X0221224
X0223129Y0104441
X0221224Y0108251
X0217414
X0213604
X0209794
X0207889Y0112061
X0209794Y0115871
X0213604
X0217414
X0221224
X0219319Y0127301
X0221224Y0131111
X0217414
X0213604
X0209794
X0207889Y0127301
X0209794Y0123491
X0213604
Y0100631
X0209794
X0207889Y0104441
X0249799
X0253609
X0257419
X0265039
X0266944Y0108251
X0263134
X0261229Y0112061
X0257419
X0253609
X0249799
X0251704Y0115871
Y0123491
X0253609Y0127301
X0257419
X0265039
X0263134Y0131111
X0274564
X0276469Y0127301
X0280279
X0282184Y0131111
X0285994
Y0115871
X0284089Y0112061
X0280279
X0276469
X0272659
X0274564Y0115871
Y0123491
X0272659Y0127301
X0274564Y0108251
X0276469Y0104441
X0280279
X0282184Y0108251
X0285994
Y0100631
Y0093011
X0274564
Y0100631
X0272659Y0104441
X0266944Y0100631
Y0093011
X0263134
X0251704
Y0100631
Y0108251
X0263134Y0115871
X0249799Y0127301
X0251704Y0131111
X0287899Y0127301
Y0119681
X0293614Y0123491
Y0131111
Y0108251
X0291709Y0104441
X0287899Y0142541
Y0150161
X0293614Y0146351
X0295519Y0157781
X0297424Y0161591
X0293614
Y0169211
X0292735Y0169866
X0291465Y0170866
X0297424Y0169211
X0285994Y0153971
X0282184
X0278374
X0274564
X0276469Y0157781
X0280279
Y0150161
X0284089
X0282184Y0146351
X0284089Y0142541
X0280279
X0276469
X0272659
X0274564Y0146351
X0272659Y0150161
Y0157781
X0263134Y0153971
X0265039Y0150161
X0261229
X0257419
X0259324Y0146351
X0261229Y0142541
X0265039
X0263134Y0138731
X0257419Y0142541
X0253609
X0249799
X0251704Y0146351
X0249799Y0150161
X0251704Y0153971
X0255514
X0257419Y0157781
X0253609
X0249799
X0247726Y0169866
X0268461Y0170866
X0269731Y0169866
X0274564Y0138731
X0276469Y0134921
X0280279
X0282184Y0138731
X0285994
X0272659Y0134921
X0257419
X0253609
X0249799
X0251704Y0138731
X0240274
X0236464
X0232654
X0228844
X0230749Y0142541
X0232654Y0146351
X0236464
X0240274
X0242179Y0150161
X0240274Y0153971
X0236464
X0232654
X0228844
X0230749Y0157781
X0234559
X0238369
X0234559Y0150161
X0228844Y0146351
X0217414
X0213604
X0209794
X0211699Y0150161
X0207889
X0209794Y0153971
X0213604
X0217414
X0221224
X0219319Y0150161
Y0142541
X0221224Y0138731
X0217414
X0213604
X0209794
X0207889Y0142541
Y0134921
X0230749
X0215509Y0157781
X0211699
X0207889
X022446Y0170866
X022573Y0169866
X0246456Y0170866
X0203733Y0169866
X0202463Y0170866
X0198364Y0153971
X0196459Y0150161
X0192649
X0188839
X0185029
X0186934Y0153971
X0190744
X0192649Y0157781
X0188839
X0185029
X0186934Y0146351
X0183124
X0185029Y0142541
X0188839
X0192649
X0196459
X0198364Y0138731
X0205984
Y0146351
X0194554
X0190744Y0138731
X0186934
X0183124
X0185029Y0134921
X0188839
X0175504Y0138731
X0177409Y0142541
X0173599
X0169789
X0171694Y0146351
X0173599Y0150161
X0177409
X0175504Y0153971
X0169789Y0150161
Y0134921
X018047Y0170866
X018174Y0169866
X0159741
X0158471Y0170866
X0137744Y0169866
X0136474Y0170866
X0141214Y0153971
X0145024
X0148834
X0152644
X0154549Y0150161
X0150739
X0146929
X0148834Y0146351
X0152644
X0150739Y0142541
X0146929
X0143119
X0139309
X0141214Y0146351
X0139309Y0150161
X0131689
X0129784Y0153971
Y0146351
Y0138731
X0141214
X0145024
X0148834
X0152644
X0146929Y0134921
X0143119
X0139309
X0162169
X0165979
X0164074Y0138731
X0165979Y0142541
X0162169
X0164074Y0146351
X0162169Y0150161
X0164074Y0153971
X0167884
X0125974
X0122164
X0124069Y0150161
X0120259
X0122164Y0146351
X0125974
Y0138731
X0122164
X0118354
X0120259Y0142541
X0118354Y0146351
X0106924
X0108829Y0150161
X0105019
X0101209
X0097399
X0099304Y0153971
X0103114
X0106924
X0110734
X0108829Y0142541
X0105019
X0101209
X0097399
X0099304Y0146351
X0095494
Y0138731
X0099304
X0103114
X0106924
X0110734
X0120259Y0134921
X0101209
X0097399
X0093762Y0169866
X0092492Y0170866
X0114478
X0115748Y0169866
X0087874Y0153971
X0085969Y0150161
X0082159
X0084064Y0146351
X0085969Y0142541
X0082159
X0078349
X0074539
X0076444Y0146351
X0074539Y0150161
X0076444Y0153971
X0080254
X0066919Y0150161
X0063109
X0059299
X0061204Y0146351
X0063109Y0142541
X0066919
X0065014Y0138731
X0061204
X0059299Y0142541
X0055489
X0051679
X0053584Y0146351
X0051679Y0150161
X0053584Y0138731
X0055489Y0134921
X0059299
X0051679
X0074539
X0078349
X0076444Y0138731
X0087874
X0071732Y0169866
X0070462Y0170866
X0049749Y0169866
X0048479Y0170866
X0045964Y0169211
X0038344
X0034534
X0034163Y0170185
X0032791Y0170477
X0027757Y0169316
X0028819Y0150161
X0030724Y0146351
X0034534
X0038344
X0042154
X0044059Y0150161
X0036439
X0032629Y0142541
X0028819
X0030724Y0138731
X0034534
X0038344
X0042154
X0032629Y0134921
X0028819
X0019294Y0138731
X0015484
X0011674
X0015484Y0146351
X0019294
X0021199Y0150161
X0019294Y0153971
X0015484
X0007864
X0004054
X0005959Y0157781
X0007864Y0161591
X0004054
X0005959Y0165401
X0007864Y0169211
X0004054
X0005959Y0150161
X0007864Y0146351
X0004054
X0005959Y0142541
X0007864Y0138731
X0004054
X0005959Y0134921
Y0173021
X0007864Y0176831
X0004054
X0005959Y0180641
X0007864Y0184451
X0004054
X0005959Y0188261
X0007864Y0192071
X0004054
X0005959Y0195881
X0007864Y0199691
X0004054
X0005959Y0203501
X0007864Y0207311
X0004054
X0009769Y0203501
Y0195881
Y0188261
Y0180641
Y0173021
X0032629
X0036439
X0040249
X0041732Y0174854
X0044704
X0032629Y0180641
X0030724Y0184451
X0032629Y0188261
X0030724Y0192071
X0032629Y0195881
X0030724Y0199691
X0032629Y0203501
X0030724Y0207311
X0068824
X0072634
X0076444
X0074539Y0203501
X0070729
X0068824Y0199691
X0070729Y0195881
X0068824Y0192071
X0070729Y0188261
X0068824Y0184451
X0070729Y0180641
X0074539
X0078349
X0082159
X0085969
X0084064Y0184451
X0080254
X0084064Y0192071
X0083947Y0195174
X0082159Y0195881
X0084064Y0199691
X0080254
X0076444
Y0192071
X0082159Y0203501
X0084064Y0207311
X0085627Y0174854
X0085969Y0173021
X0082159
X0078349
X0088777Y0174828
X0066777
X0063627Y0174854
X0063109Y0173021
X0059299
X0055489
X0097399
X0101209
X0105019
X0107627Y0174854
X0110777Y0174828
X0120259Y0173021
X0124069
X0127879
X0125781Y0192837
X0125095
X0124409
X0123434Y0194611
X0120894
Y0199691
X0118354
X0115814
X0113274
X0110734
X0108194
X0104724Y0199542
Y0201016
X0103734
X0103974Y0202387
X0104013Y0204089
X0102819Y0203352
X01016Y0203454
Y0202438
X0101246Y0201522
X0100076Y0201422
X0098806
X0097536
X0096266
X0094996
X0093726
X0092456Y0201676
Y0202946
Y0204216
Y0205486
Y0206756
X0093726
X0094996
X0096266
X0097536
X0098806
X0099314Y0207772
X0100584
X01016Y020701
Y0205994
X0108194Y0204771
X0110734
X0113274
X0115814
X0118354
X0120894
X0119624Y0207311
X0117084
X0114544
X0112004
X0109464
X0108194Y0209851
X0110734
X0113274
X0115814
X0118354
X0117084Y0202231
X0114544
X0112004
X0109464
X010856Y0193818
X0106985
X0111074Y0192837
X011176
X0112446
X0112065Y0195377
X0113259Y0195605
X0114757Y0194767
X0115189Y0193802
X0125974Y0194611
Y0199691
Y0204771
X0119624Y0202231
X0096764Y0197151
X0094224
X0091684
X0089144
Y0192071
X0092304Y0195174
X009898Y0194619
X0099304Y0181911
X0096764
X0094224
X0091684
X0089144
X0090414Y0184451
X0092954
X0095494
X0089144Y0202231
Y0207311
X0090145Y0208585
X0090843Y0208598
X0091529
X0092954Y0209851
X0128514Y0204771
X0131054
X0133594
X0135611Y0204114
X0137287Y0204089
X0138887Y0204114
X01381Y0205105
X0136474Y020508
X0141214Y0204771
Y0199691
X0138674
X0136134
X0133594
X0131054
X0128514
X0134864Y0197151
X0137404
X0136134Y0194611
X0133594
X0141214
Y0189531
X0138674
X0136134
X0132777Y0174828
X0129627Y0174854
X0143119Y0173021
X0146929
X0150739
X0151627Y0174854
X0154777Y0174828
X0154549Y0180641
X0158359
X0162169
X0165979
Y0173021
X0150739Y0180641
X0146929
X0152644Y0192071
X0156454
X0160264
Y0199691
X0164074
X0167884
Y0207311
X01651Y0206197
X0154549Y0203501
X0150739
X0146929
X0148834Y0199691
X0152644
X0156454
X0145024
X0141214Y0209851
X0171694Y0207311
X0175504
X0179314
X0183124
X0185029Y0203501
X0188839
X0192649
X0196459
X0200269
X0204079
X0205984Y0207311
X0202174
X0198364
X0194554
X0190744
Y0199691
X0194554
X0198364
X0202174
X0205984
X0204079Y0195881
X0200269
X0196459
X0192649
X0188839
X0190744Y0192071
X0194554
X0198364
X0198323Y0188565
X0202565Y0187655
X0204079Y0188261
X0204597Y0186715
X0207442Y0184846
X0204079Y0180641
X0200269
X0196459
X0192649
X0188839
X0185029
X0181219
X0177409
X0173599
X0169789
Y0173021
X0173599
X0173627Y0174854
X0176777Y0174828
X0188839Y0173021
X0192649
X0196459
X0195627Y0174854
X0198777Y0174828
X0191338Y0185771
X0183124Y0192071
X0179314
X0175504
Y0199691
X0179314
X0183124
X0186934
X0177409Y0203501
X0171694Y0199691
X0202174Y0192071
X0205984
X0209794
X0213604
X0214884Y0186258
X0213604Y0184451
X0217414
X0221224
X0225034
X0228844
X0232654
X0236464
X0238369Y0180641
X0242179
X0245989
X0244084Y0184451
X0242777Y0174828
X0239627Y0174854
X0238369Y0173021
X0234559
X0230749
X0220777Y0174828
X0217627Y0174854
X0215509Y0173021
X0211699
X0207889
Y0188261
Y0195881
X0209794Y0199691
X0213604
Y0207311
X0209794
X0207889Y0203501
X0247894Y0184451
X0249799Y0180641
X0257419
X0261229
X0263134Y0184451
X0266944
X0270754
X0278374
X0282184
X0285994
X0284089Y0188261
X0280279
X0282184Y0192071
X0285994
X0284089Y0195881
X0285994Y0199691
X0282184
X0284089Y0203501
X0285994Y0207311
X0282184
X0284089Y0180641
X0284732Y0174854
X0284089Y0173021
X0280279
X0276469
Y0180641
X0264777Y0174828
X0261627Y0174854
X0261229Y0173021
X0257419
X0253609
X0255514Y0184451
X0289804
X0293614
X0297424
X0295519Y0188261
X0291709
X0287899
X0289804Y0192071
X0293614
X0297424
X0295519Y0195881
X0291709
X0287899
X0289804Y0199691
X0293614
X0297424
X0295519Y0203501
X0291709
X0287899
X0289804Y0207311
X0293614
X0297424
X0295519Y0180641
X0291709
X0287899
X0289804Y0176831
X02889Y0174295
X0293614Y0176831
X0297424
X0295519Y0211121
X0291709
X0287899
X0289804Y0214931
X0293614
X0297424
X0295519Y0218741
X0297424Y0222551
X0295519Y0226361
X0291709
X0287899
X0289804Y0230171
X0293614
X0297424
X0295519Y0233981
X0291709
X0287899
X0289804Y0237791
X0293614
X0297424
X0295519Y0241601
X0291709
X0287899
X0289804Y0222551
X0287899Y0218741
X0284089
X0280279
X0276469
X0273025Y0218669
X0274564Y0214931
X0278374
X0282184
X0285994
X0284089Y0211121
X0280279
X0276469
X0272659
X0268849
X0265039
X0261229
X0257419
X0253609
X0249799
X0251704Y0214931
X0255514
X0259324
X0263134
X0266944
X0270754
X0274564Y0222551
X0278374
X0282184
X0285994
X0284089Y0226361
X0280279
X0276469
X0278374Y0230171
X0282184
X0285994
X0284089Y0233981
X0280279
X0276469
X0278374Y0237791
X0282184
X0285994
X0284089Y0241601
X0280279
X0276469
X0272659
X0268849
X0265039
X0261229
X0259324Y0230171
X0261229Y0226361
X0260833Y0222352
X0263134Y0222551
X0266944
X0267106Y0229794
X0261229Y0218741
X0257327Y02175
X0247894Y0214931
X0244084
X0240274
X0236464
X0232654
X0232181Y0218008
X0228844Y0214931
X0230749Y0211121
X0234559
X0238369
X0242179
X0245989
Y0218741
X0242179
X0238369
X0236464Y0222551
X0228844Y0230171
X0229692Y0231267
X0226939Y0233981
X0230749Y0241601
X0223129
X0219319
X0211699
X0207889
X0212369Y0232766
X0213604Y0230171
X0215509Y0233981
Y0226361
X0219319
X0217414Y0222551
X0213604
X0209794
X0207889Y0226361
Y0218741
X0209794Y0214931
X0214173Y0215189
X0217414Y0214931
X0219319Y0211121
X0223129
X0226939
X0223129Y0218741
X0220548Y0217678
X0215509Y0218741
X0207889Y0211121
X0204079
X0200269
X0196459
X0192649
X0188839
X0190744Y0214931
X0194554
X0198364
X0202174
X0205984
X0204079Y0218741
X0200269
X0202174Y0222551
X0198364
X0194554
X0200269Y0226361
X0204079
X0205984Y0237791
X0202174
X0204079Y0241601
X0200269
X0196459
X0192649
X0188839
X0185029
X0181219
X0177409
X0175504Y0237791
X0171694
X0173599Y0233981
X0169789
X0171694Y0230171
X0175504
X0179314
X0181219Y0233981
X0183124Y0237791
X0186934
X0190744
X0194554
X0186934Y0214931
X0183124
X0179314
X0175504
X0171694
X0173599Y0218741
X0177409
X0175504Y0222551
X0171694
X0173599Y0226361
X0169789
Y0218741
Y0211121
X0173599
X0177409
X0181219
X0165979
X0162169
X0158359
X0160264Y0214931
X0164074
X0167884
X0165979Y0218741
X0162169
X0158359
X0154549
X0150739
X0146929
X0148834Y0222551
X0152644
X0156454
X0160264
X0164074
X0167884
X0165979Y0226361
X0162169
X0158359
X0154549
X0150739
X0152644Y0230171
X0156454
X0160264
X0164074
X0167884
X0165979Y0233981
X0162169
X0158359
X0154549
X0150739
X0152644Y0237791
X0156454
X0160264
X0164074
X0167884
X0162169Y0241601
X0158359
X0154549
X0150739
X0146929
X0143119
X0139309
X0135499
X0131689
Y0233981
X0135499
X0137404Y0237791
Y0230171
X0138328Y0229794
X0141214Y0230171
X0145024
X0148834
Y0237791
X0143119Y0226361
X0141214Y0220011
Y0214931
X0148834
X0152644
X0156454
X0146929Y0211121
X0132324Y0212391
X01302Y0213792
X0129515
X0128829
X0128514Y0214931
X0133594
X0132324Y0222551
X0129784
X0127244
X0124704
X0123434Y0225091
X0120894
X0118354
X0115814
X0117084Y0227631
X0119624
X0120894Y0230171
X0123434
X0125974
X0124704Y0232711
X0122164
Y0237791
X0117084
X0114544
X0115814Y0235251
X0118354
X0117084Y0232711
X0114544
X0112004
X0109464
X0106924
X0104384
X0101844
X0099304
X0096764
X0094224
X0092964Y0232639
X0091846Y0233299
X0092954Y0235251
X0095494
X0098034
X0100574
X0103114
X0104384Y0237791
X0106924
X0109464
X0108829Y0241601
X0112639
X0116449
X0120259
X0124069
X0127879
Y0226361
X0124704Y0227631
X0118354Y0230171
X0115814
X0113274
X0110734
X0112004Y0227631
X0111425Y0226371
X0110079Y02266
X0110185Y0225349
X0108788Y0225501
X0108814Y0224257
X0107377Y0224471
X0107493Y0223215
X010622Y022334
X0099304Y0222551
X0100574Y0220011
X0098034
X0092954
X0091684Y0222551
X0089144
Y0212391
X0096262Y0212471
X0096952
X0097643
X0119659Y0214833
X0120701Y0215595
X0121945Y0216413
X0118897Y0216383
X0119624Y0222551
X0117084
X0114544Y0227631
X0122164Y0212391
X0124704
X0101844Y0237791
X0099304
X0096764
X0094224
X0091684
X0089144
X0090414Y0235251
X0089779Y0241601
X0093589
X0097399
X0101209
X0105019
X0085969
X0082159
X0078349
X0074539
X0070729
X0066919
X0063109
X0059299
X0055489
X0051679
X0053584Y0237791
X0057394
X0061204
X0065014
X0068824
X0072634
X0076444
X0080254
X0084064
X008222Y0220497
X0081407Y0219735
Y021811
X0082271Y0218923
X0083439Y0217246
X0082159Y0211121
X0078349
X0074539
X0070729
X0049774Y0237791
X0045964
X0042154
X0038344
X0034534
X0030724
X0026914
X0023104
X0019294
X0015484
X0011674
X0013579Y0241601
X0017389
X0021199
X0025009
X0028819
X0032629
X0036439
X0040249
X0044059
X0047869
X0025009Y0233981
X0021199
X0017389
X0013579
X0009769
X0011674Y0230171
X0015484
X0019294
X0017389Y0226361
X0013579
X0009769
X0011674Y0222551
X0009769Y0218741
Y0211121
X0032629
X0009769Y0241601
X0005959
X0007864Y0237791
X0004054
X0005959Y0233981
X0007864Y0230171
X0004054
X0005959Y0226361
X0007864Y0222551
X0005959Y0218741
X0007864Y0214931
X0004054
X0005959Y0211121
T02
X0258545Y0004041
X0281557
X0236548
X0214552
X0192555
X0170559
X0148553
X0126541
X0104556
X0082564
X006054
X0038558
X0015543
Y0026041
Y0048041
X0038558
Y0026041
X006054
Y0048041
X0082564
Y0026041
X0104556
X0126541
Y0048041
X0104556
X0148553
Y0026041
X0170559
X0192555
Y0048041
X0170559
X0214552
X0236548
Y0026041
X0214552
X0258545
Y0048041
X0281557
Y0026041
X0293306
Y0048041
Y0070041
X0281557
Y0091045
X0258545
Y0070041
X0236548
Y0091045
X0214552
Y0070041
X0192555
Y0091045
X0170559
Y0070041
X0148553
Y0091045
X0126541
Y0070041
X0104556
Y0091045
X0082564
Y0070041
X006054
Y0091045
X0038558
Y0070041
X0015543
Y0091045
Y0114041
X0038558
X006054
X0082564
X0104556
X0126541
X0148553
X0170559
X0192555
X0214552
X0236548
X0258545
X0281557
X0293306
Y0099141
Y0136041
X0281557
X0258545
X0236548
X0214552
X0192555
X0170559
X0148553
X0126541
X0104556
X0082564
X006054
X0038558
X0015543
T03
X0073387Y0183337
Y0185877
Y0188417
Y0190957
Y0193497
Y0196037
Y0198577
T05
X0185522Y0191736
Y0196816
Y0205943
X0222555Y0186487
X0225095
X0227635
X0230175
X0246228
X0248768
X0251308
X0253848
X0269977
X0272517
X0275057
X0277597
X0185522Y0211023
X014732Y023867
X014478
X014224
X01397
X0132817
X0130277
X0127737
X0125197
T06
X0159144Y0203486
X0161684
X0164224
X0166764
X0169304
X0171844
X0174384
X0216154Y0241579
X0227154
X0174574Y0241986
X0172034
X0169494
X0166954
T07
X0219154Y0231579
X0224154
M30
