G04*
G04 #@! TF.GenerationSoftware,Altium Limited,Altium Designer,24.1.2 (44)*
G04*
G04 Layer_Color=128*
%FSLAX44Y44*%
%MOMM*%
G71*
G04*
G04 #@! TF.SameCoordinates,B6AFC4CE-A7C5-40DA-9FC2-5D8795C2DE56*
G04*
G04*
G04 #@! TF.FilePolarity,Positive*
G04*
G01*
G75*
%ADD16C,0.1270*%
D16*
X2922715Y1881119D02*
X2931714D01*
X2927214Y1876619D02*
Y1885619D01*
X2922715Y1931919D02*
X2931714D01*
X2927214Y1927419D02*
Y1936419D01*
X2922715Y1906519D02*
X2931714D01*
X2927214Y1902019D02*
Y1911019D01*
X2922715Y1855719D02*
X2931714D01*
X2927214Y1851219D02*
Y1860219D01*
X2921787Y2004821D02*
X2930787D01*
X2926287Y2000320D02*
Y2009320D01*
X2921787Y2055621D02*
X2930787D01*
X2926287Y2051120D02*
Y2060120D01*
X2921787Y2081021D02*
X2930787D01*
X2926287Y2076521D02*
Y2085520D01*
X2921787Y2030220D02*
X2930787D01*
X2926287Y2025721D02*
Y2034720D01*
X717868Y1858772D02*
X725868D01*
X721868Y1854772D02*
Y1862772D01*
X717868Y1884172D02*
X725868D01*
X721868Y1880172D02*
Y1888172D01*
X717868Y1909572D02*
X725868D01*
X721868Y1905572D02*
Y1913572D01*
X717868Y1960372D02*
X725868D01*
X721868Y1956372D02*
Y1964372D01*
X717868Y1985772D02*
X725868D01*
X721868Y1981772D02*
Y1989772D01*
X717868Y1934972D02*
X725868D01*
X721868Y1930972D02*
Y1938972D01*
X717868Y1833372D02*
X725868D01*
X721868Y1829372D02*
Y1837372D01*
X1323666Y2386702D02*
X1332666D01*
X1328166Y2382202D02*
Y2391202D01*
X1272866Y2386702D02*
X1281866D01*
X1277366Y2382202D02*
Y2391202D01*
X1298266Y2386702D02*
X1307266D01*
X1302766Y2382202D02*
Y2391202D01*
X1349066Y2386702D02*
X1358066D01*
X1353566Y2382202D02*
Y2391202D01*
X1468700Y2386702D02*
X1477700D01*
X1473200Y2382202D02*
Y2391202D01*
X1417900Y2386702D02*
X1426900D01*
X1422400Y2382202D02*
Y2391202D01*
X1443300Y2386702D02*
X1452300D01*
X1447800Y2382202D02*
Y2391202D01*
X1494100Y2386702D02*
X1503100D01*
X1498600Y2382202D02*
Y2391202D01*
X2042237Y2386702D02*
X2051237D01*
X2046737Y2382202D02*
Y2391202D01*
X1991437Y2386702D02*
X2000437D01*
X1995937Y2382202D02*
Y2391202D01*
X2016837Y2386702D02*
X2025837D01*
X2021337Y2382202D02*
Y2391202D01*
X2067637Y2386702D02*
X2076637D01*
X2072137Y2382202D02*
Y2391202D01*
X2299306Y2247900D02*
X2316306D01*
X2307806Y2239400D02*
Y2256400D01*
X2249306Y2247900D02*
X2266306D01*
X2257806Y2239400D02*
Y2256400D01*
X2332806Y2147900D02*
X2342806D01*
X2337806Y2142900D02*
Y2152900D01*
X2222806Y2147900D02*
X2232806D01*
X2227806Y2142900D02*
Y2152900D01*
X2031238Y1917362D02*
X2040238D01*
X2035738Y1912862D02*
Y1921862D01*
X2031238Y1968162D02*
X2040238D01*
X2035738Y1963662D02*
Y1972662D01*
X1586442Y2034858D02*
X1596442D01*
X1591442Y2029858D02*
Y2039858D01*
X1715342Y2419858D02*
X1725342D01*
X1720342Y2414858D02*
Y2424858D01*
X1637242Y2034858D02*
X1647242D01*
X1642242Y2029858D02*
Y2039858D01*
X1662642Y2034858D02*
X1672642D01*
X1667642Y2029858D02*
Y2039858D01*
X1688042Y2034858D02*
X1698042D01*
X1693042Y2029858D02*
Y2039858D01*
X1713442Y2034858D02*
X1723442D01*
X1718442Y2029858D02*
Y2039858D01*
X1738842Y2034858D02*
X1748842D01*
X1743842Y2029858D02*
Y2039858D01*
X1611842Y2034858D02*
X1621842D01*
X1616842Y2029858D02*
Y2039858D01*
X1689942Y2419858D02*
X1699942D01*
X1694942Y2414858D02*
Y2424858D01*
X1664542Y2419858D02*
X1674542D01*
X1669542Y2414858D02*
Y2424858D01*
X1740742Y2419858D02*
X1750742D01*
X1745742Y2414858D02*
Y2424858D01*
X1711102Y1968162D02*
X1720102D01*
X1715602Y1963662D02*
Y1972662D01*
X1711102Y1917362D02*
X1720102D01*
X1715602Y1912862D02*
Y1921862D01*
X2826000Y126000D02*
X2834000D01*
X2830000Y122000D02*
Y130000D01*
X2826000Y164000D02*
X2834000D01*
X2830000Y160000D02*
Y168000D01*
X2866500Y145000D02*
X2874500D01*
X2870500Y141000D02*
Y149000D01*
X2785500Y145000D02*
X2793500D01*
X2789500Y141000D02*
Y149000D01*
X1716000Y126000D02*
X1724000D01*
X1720000Y122000D02*
Y130000D01*
X1716000Y164000D02*
X1724000D01*
X1720000Y160000D02*
Y168000D01*
X1756500Y145000D02*
X1764500D01*
X1760500Y141000D02*
Y149000D01*
X1675500Y145000D02*
X1683500D01*
X1679500Y141000D02*
Y149000D01*
X1276000Y126000D02*
X1284000D01*
X1280000Y122000D02*
Y130000D01*
X1276000Y164000D02*
X1284000D01*
X1280000Y160000D02*
Y168000D01*
X1316500Y145000D02*
X1324500D01*
X1320500Y141000D02*
Y149000D01*
X1235500Y145000D02*
X1243500D01*
X1239500Y141000D02*
Y149000D01*
X166000Y126000D02*
X174000D01*
X170000Y122000D02*
Y130000D01*
X166000Y164000D02*
X174000D01*
X170000Y160000D02*
Y168000D01*
X206500Y145000D02*
X214500D01*
X210500Y141000D02*
Y149000D01*
X125500Y145000D02*
X133500D01*
X129500Y141000D02*
Y149000D01*
X1675500Y1465000D02*
X1683500D01*
X1679500Y1461000D02*
Y1469000D01*
X1756500Y1465000D02*
X1764500D01*
X1760500Y1461000D02*
Y1469000D01*
X1716000Y1484000D02*
X1724000D01*
X1720000Y1480000D02*
Y1488000D01*
X1716000Y1446000D02*
X1724000D01*
X1720000Y1442000D02*
Y1450000D01*
X1455500Y1465000D02*
X1463500D01*
X1459500Y1461000D02*
Y1469000D01*
X1536500Y1465000D02*
X1544500D01*
X1540500Y1461000D02*
Y1469000D01*
X1496000Y1484000D02*
X1504000D01*
X1500000Y1480000D02*
Y1488000D01*
X1496000Y1446000D02*
X1504000D01*
X1500000Y1442000D02*
Y1450000D01*
X1235500Y1465000D02*
X1243500D01*
X1239500Y1461000D02*
Y1469000D01*
X1316500Y1465000D02*
X1324500D01*
X1320500Y1461000D02*
Y1469000D01*
X1276000Y1484000D02*
X1284000D01*
X1280000Y1480000D02*
Y1488000D01*
X1276000Y1446000D02*
X1284000D01*
X1280000Y1442000D02*
Y1450000D01*
X125500Y585000D02*
X133500D01*
X129500Y581000D02*
Y589000D01*
X206500Y585000D02*
X214500D01*
X210500Y581000D02*
Y589000D01*
X166000Y604000D02*
X174000D01*
X170000Y600000D02*
Y608000D01*
X166000Y566000D02*
X174000D01*
X170000Y562000D02*
Y570000D01*
X125500Y1465000D02*
X133500D01*
X129500Y1461000D02*
Y1469000D01*
X206500Y1465000D02*
X214500D01*
X210500Y1461000D02*
Y1469000D01*
X166000Y1484000D02*
X174000D01*
X170000Y1480000D02*
Y1488000D01*
X166000Y1446000D02*
X174000D01*
X170000Y1442000D02*
Y1450000D01*
X2115500Y1465000D02*
X2123500D01*
X2119500Y1461000D02*
Y1469000D01*
X2196500Y1465000D02*
X2204500D01*
X2200500Y1461000D02*
Y1469000D01*
X2156000Y1484000D02*
X2164000D01*
X2160000Y1480000D02*
Y1488000D01*
X2156000Y1446000D02*
X2164000D01*
X2160000Y1442000D02*
Y1450000D01*
X2335500Y1465000D02*
X2343500D01*
X2339500Y1461000D02*
Y1469000D01*
X2416500Y1465000D02*
X2424500D01*
X2420500Y1461000D02*
Y1469000D01*
X2376000Y1484000D02*
X2384000D01*
X2380000Y1480000D02*
Y1488000D01*
X2376000Y1446000D02*
X2384000D01*
X2380000Y1442000D02*
Y1450000D01*
X2555500Y1465000D02*
X2563500D01*
X2559500Y1461000D02*
Y1469000D01*
X2636500Y1465000D02*
X2644500D01*
X2640500Y1461000D02*
Y1469000D01*
X2596000Y1484000D02*
X2604000D01*
X2600000Y1480000D02*
Y1488000D01*
X2596000Y1446000D02*
X2604000D01*
X2600000Y1442000D02*
Y1450000D01*
X125500Y1025000D02*
X133500D01*
X129500Y1021000D02*
Y1029000D01*
X206500Y1025000D02*
X214500D01*
X210500Y1021000D02*
Y1029000D01*
X166000Y1044000D02*
X174000D01*
X170000Y1040000D02*
Y1048000D01*
X166000Y1006000D02*
X174000D01*
X170000Y1002000D02*
Y1010000D01*
X125500Y805000D02*
X133500D01*
X129500Y801000D02*
Y809000D01*
X206500Y805000D02*
X214500D01*
X210500Y801000D02*
Y809000D01*
X166000Y824000D02*
X174000D01*
X170000Y820000D02*
Y828000D01*
X166000Y786000D02*
X174000D01*
X170000Y782000D02*
Y790000D01*
X125500Y365000D02*
X133500D01*
X129500Y361000D02*
Y369000D01*
X206500Y365000D02*
X214500D01*
X210500Y361000D02*
Y369000D01*
X166000Y384000D02*
X174000D01*
X170000Y380000D02*
Y388000D01*
X166000Y346000D02*
X174000D01*
X170000Y342000D02*
Y350000D01*
X125500Y1245000D02*
X133500D01*
X129500Y1241000D02*
Y1249000D01*
X206500Y1245000D02*
X214500D01*
X210500Y1241000D02*
Y1249000D01*
X166000Y1264000D02*
X174000D01*
X170000Y1260000D02*
Y1268000D01*
X166000Y1226000D02*
X174000D01*
X170000Y1222000D02*
Y1230000D01*
X2785500Y1465000D02*
X2793500D01*
X2789500Y1461000D02*
Y1469000D01*
X2866500Y1465000D02*
X2874500D01*
X2870500Y1461000D02*
Y1469000D01*
X2826000Y1484000D02*
X2834000D01*
X2830000Y1480000D02*
Y1488000D01*
X2826000Y1446000D02*
X2834000D01*
X2830000Y1442000D02*
Y1450000D01*
X1895500Y1465000D02*
X1903500D01*
X1899500Y1461000D02*
Y1469000D01*
X1976500Y1465000D02*
X1984500D01*
X1980500Y1461000D02*
Y1469000D01*
X1936000Y1484000D02*
X1944000D01*
X1940000Y1480000D02*
Y1488000D01*
X1936000Y1446000D02*
X1944000D01*
X1940000Y1442000D02*
Y1450000D01*
X1015500Y1465000D02*
X1023500D01*
X1019500Y1461000D02*
Y1469000D01*
X1096500Y1465000D02*
X1104500D01*
X1100500Y1461000D02*
Y1469000D01*
X1056000Y1484000D02*
X1064000D01*
X1060000Y1480000D02*
Y1488000D01*
X1056000Y1446000D02*
X1064000D01*
X1060000Y1442000D02*
Y1450000D01*
X795500Y1465000D02*
X803500D01*
X799500Y1461000D02*
Y1469000D01*
X876500Y1465000D02*
X884500D01*
X880500Y1461000D02*
Y1469000D01*
X836000Y1484000D02*
X844000D01*
X840000Y1480000D02*
Y1488000D01*
X836000Y1446000D02*
X844000D01*
X840000Y1442000D02*
Y1450000D01*
X575500Y1465000D02*
X583500D01*
X579500Y1461000D02*
Y1469000D01*
X656500Y1465000D02*
X664500D01*
X660500Y1461000D02*
Y1469000D01*
X616000Y1484000D02*
X624000D01*
X620000Y1480000D02*
Y1488000D01*
X616000Y1446000D02*
X624000D01*
X620000Y1442000D02*
Y1450000D01*
X355500Y1465000D02*
X363500D01*
X359500Y1461000D02*
Y1469000D01*
X436500Y1465000D02*
X444500D01*
X440500Y1461000D02*
Y1469000D01*
X396000Y1484000D02*
X404000D01*
X400000Y1480000D02*
Y1488000D01*
X396000Y1446000D02*
X404000D01*
X400000Y1442000D02*
Y1450000D01*
X2785500Y1245000D02*
X2793500D01*
X2789500Y1241000D02*
Y1249000D01*
X2866500Y1245000D02*
X2874500D01*
X2870500Y1241000D02*
Y1249000D01*
X2826000Y1264000D02*
X2834000D01*
X2830000Y1260000D02*
Y1268000D01*
X2826000Y1226000D02*
X2834000D01*
X2830000Y1222000D02*
Y1230000D01*
X2555500Y1245000D02*
X2563500D01*
X2559500Y1241000D02*
Y1249000D01*
X2636500Y1245000D02*
X2644500D01*
X2640500Y1241000D02*
Y1249000D01*
X2596000Y1264000D02*
X2604000D01*
X2600000Y1260000D02*
Y1268000D01*
X2596000Y1226000D02*
X2604000D01*
X2600000Y1222000D02*
Y1230000D01*
X2335500Y1245000D02*
X2343500D01*
X2339500Y1241000D02*
Y1249000D01*
X2416500Y1245000D02*
X2424500D01*
X2420500Y1241000D02*
Y1249000D01*
X2376000Y1264000D02*
X2384000D01*
X2380000Y1260000D02*
Y1268000D01*
X2376000Y1226000D02*
X2384000D01*
X2380000Y1222000D02*
Y1230000D01*
X2115500Y1245000D02*
X2123500D01*
X2119500Y1241000D02*
Y1249000D01*
X2196500Y1245000D02*
X2204500D01*
X2200500Y1241000D02*
Y1249000D01*
X2156000Y1264000D02*
X2164000D01*
X2160000Y1260000D02*
Y1268000D01*
X2156000Y1226000D02*
X2164000D01*
X2160000Y1222000D02*
Y1230000D01*
X1895500Y1245000D02*
X1903500D01*
X1899500Y1241000D02*
Y1249000D01*
X1976500Y1245000D02*
X1984500D01*
X1980500Y1241000D02*
Y1249000D01*
X1936000Y1264000D02*
X1944000D01*
X1940000Y1260000D02*
Y1268000D01*
X1936000Y1226000D02*
X1944000D01*
X1940000Y1222000D02*
Y1230000D01*
X1675500Y1245000D02*
X1683500D01*
X1679500Y1241000D02*
Y1249000D01*
X1756500Y1245000D02*
X1764500D01*
X1760500Y1241000D02*
Y1249000D01*
X1716000Y1264000D02*
X1724000D01*
X1720000Y1260000D02*
Y1268000D01*
X1716000Y1226000D02*
X1724000D01*
X1720000Y1222000D02*
Y1230000D01*
X1455500Y1245000D02*
X1463500D01*
X1459500Y1241000D02*
Y1249000D01*
X1536500Y1245000D02*
X1544500D01*
X1540500Y1241000D02*
Y1249000D01*
X1496000Y1264000D02*
X1504000D01*
X1500000Y1260000D02*
Y1268000D01*
X1496000Y1226000D02*
X1504000D01*
X1500000Y1222000D02*
Y1230000D01*
X1235500Y1245000D02*
X1243500D01*
X1239500Y1241000D02*
Y1249000D01*
X1316500Y1245000D02*
X1324500D01*
X1320500Y1241000D02*
Y1249000D01*
X1276000Y1264000D02*
X1284000D01*
X1280000Y1260000D02*
Y1268000D01*
X1276000Y1226000D02*
X1284000D01*
X1280000Y1222000D02*
Y1230000D01*
X1015500Y1245000D02*
X1023500D01*
X1019500Y1241000D02*
Y1249000D01*
X1096500Y1245000D02*
X1104500D01*
X1100500Y1241000D02*
Y1249000D01*
X1056000Y1264000D02*
X1064000D01*
X1060000Y1260000D02*
Y1268000D01*
X1056000Y1226000D02*
X1064000D01*
X1060000Y1222000D02*
Y1230000D01*
X795500Y1245000D02*
X803500D01*
X799500Y1241000D02*
Y1249000D01*
X876500Y1245000D02*
X884500D01*
X880500Y1241000D02*
Y1249000D01*
X836000Y1264000D02*
X844000D01*
X840000Y1260000D02*
Y1268000D01*
X836000Y1226000D02*
X844000D01*
X840000Y1222000D02*
Y1230000D01*
X575500Y1245000D02*
X583500D01*
X579500Y1241000D02*
Y1249000D01*
X656500Y1245000D02*
X664500D01*
X660500Y1241000D02*
Y1249000D01*
X616000Y1264000D02*
X624000D01*
X620000Y1260000D02*
Y1268000D01*
X616000Y1226000D02*
X624000D01*
X620000Y1222000D02*
Y1230000D01*
X355500Y1245000D02*
X363500D01*
X359500Y1241000D02*
Y1249000D01*
X436500Y1245000D02*
X444500D01*
X440500Y1241000D02*
Y1249000D01*
X396000Y1264000D02*
X404000D01*
X400000Y1260000D02*
Y1268000D01*
X396000Y1226000D02*
X404000D01*
X400000Y1222000D02*
Y1230000D01*
X2785500Y1025000D02*
X2793500D01*
X2789500Y1021000D02*
Y1029000D01*
X2866500Y1025000D02*
X2874500D01*
X2870500Y1021000D02*
Y1029000D01*
X2826000Y1044000D02*
X2834000D01*
X2830000Y1040000D02*
Y1048000D01*
X2826000Y1006000D02*
X2834000D01*
X2830000Y1002000D02*
Y1010000D01*
X2555500Y1025000D02*
X2563500D01*
X2559500Y1021000D02*
Y1029000D01*
X2636500Y1025000D02*
X2644500D01*
X2640500Y1021000D02*
Y1029000D01*
X2596000Y1044000D02*
X2604000D01*
X2600000Y1040000D02*
Y1048000D01*
X2596000Y1006000D02*
X2604000D01*
X2600000Y1002000D02*
Y1010000D01*
X2335500Y1025000D02*
X2343500D01*
X2339500Y1021000D02*
Y1029000D01*
X2416500Y1025000D02*
X2424500D01*
X2420500Y1021000D02*
Y1029000D01*
X2376000Y1044000D02*
X2384000D01*
X2380000Y1040000D02*
Y1048000D01*
X2376000Y1006000D02*
X2384000D01*
X2380000Y1002000D02*
Y1010000D01*
X2115500Y1025000D02*
X2123500D01*
X2119500Y1021000D02*
Y1029000D01*
X2196500Y1025000D02*
X2204500D01*
X2200500Y1021000D02*
Y1029000D01*
X2156000Y1044000D02*
X2164000D01*
X2160000Y1040000D02*
Y1048000D01*
X2156000Y1006000D02*
X2164000D01*
X2160000Y1002000D02*
Y1010000D01*
X1895500Y1025000D02*
X1903500D01*
X1899500Y1021000D02*
Y1029000D01*
X1976500Y1025000D02*
X1984500D01*
X1980500Y1021000D02*
Y1029000D01*
X1936000Y1044000D02*
X1944000D01*
X1940000Y1040000D02*
Y1048000D01*
X1936000Y1006000D02*
X1944000D01*
X1940000Y1002000D02*
Y1010000D01*
X1675500Y1025000D02*
X1683500D01*
X1679500Y1021000D02*
Y1029000D01*
X1756500Y1025000D02*
X1764500D01*
X1760500Y1021000D02*
Y1029000D01*
X1716000Y1044000D02*
X1724000D01*
X1720000Y1040000D02*
Y1048000D01*
X1716000Y1006000D02*
X1724000D01*
X1720000Y1002000D02*
Y1010000D01*
X1455500Y1025000D02*
X1463500D01*
X1459500Y1021000D02*
Y1029000D01*
X1536500Y1025000D02*
X1544500D01*
X1540500Y1021000D02*
Y1029000D01*
X1496000Y1044000D02*
X1504000D01*
X1500000Y1040000D02*
Y1048000D01*
X1496000Y1006000D02*
X1504000D01*
X1500000Y1002000D02*
Y1010000D01*
X1235500Y1025000D02*
X1243500D01*
X1239500Y1021000D02*
Y1029000D01*
X1316500Y1025000D02*
X1324500D01*
X1320500Y1021000D02*
Y1029000D01*
X1276000Y1044000D02*
X1284000D01*
X1280000Y1040000D02*
Y1048000D01*
X1276000Y1006000D02*
X1284000D01*
X1280000Y1002000D02*
Y1010000D01*
X1015500Y1025000D02*
X1023500D01*
X1019500Y1021000D02*
Y1029000D01*
X1096500Y1025000D02*
X1104500D01*
X1100500Y1021000D02*
Y1029000D01*
X1056000Y1044000D02*
X1064000D01*
X1060000Y1040000D02*
Y1048000D01*
X1056000Y1006000D02*
X1064000D01*
X1060000Y1002000D02*
Y1010000D01*
X795500Y1025000D02*
X803500D01*
X799500Y1021000D02*
Y1029000D01*
X876500Y1025000D02*
X884500D01*
X880500Y1021000D02*
Y1029000D01*
X836000Y1044000D02*
X844000D01*
X840000Y1040000D02*
Y1048000D01*
X836000Y1006000D02*
X844000D01*
X840000Y1002000D02*
Y1010000D01*
X575500Y1025000D02*
X583500D01*
X579500Y1021000D02*
Y1029000D01*
X656500Y1025000D02*
X664500D01*
X660500Y1021000D02*
Y1029000D01*
X616000Y1044000D02*
X624000D01*
X620000Y1040000D02*
Y1048000D01*
X616000Y1006000D02*
X624000D01*
X620000Y1002000D02*
Y1010000D01*
X355500Y1025000D02*
X363500D01*
X359500Y1021000D02*
Y1029000D01*
X436500Y1025000D02*
X444500D01*
X440500Y1021000D02*
Y1029000D01*
X396000Y1044000D02*
X404000D01*
X400000Y1040000D02*
Y1048000D01*
X396000Y1006000D02*
X404000D01*
X400000Y1002000D02*
Y1010000D01*
X2785500Y805000D02*
X2793500D01*
X2789500Y801000D02*
Y809000D01*
X2866500Y805000D02*
X2874500D01*
X2870500Y801000D02*
Y809000D01*
X2826000Y824000D02*
X2834000D01*
X2830000Y820000D02*
Y828000D01*
X2826000Y786000D02*
X2834000D01*
X2830000Y782000D02*
Y790000D01*
X2555500Y805000D02*
X2563500D01*
X2559500Y801000D02*
Y809000D01*
X2636500Y805000D02*
X2644500D01*
X2640500Y801000D02*
Y809000D01*
X2596000Y824000D02*
X2604000D01*
X2600000Y820000D02*
Y828000D01*
X2596000Y786000D02*
X2604000D01*
X2600000Y782000D02*
Y790000D01*
X2335500Y805000D02*
X2343500D01*
X2339500Y801000D02*
Y809000D01*
X2416500Y805000D02*
X2424500D01*
X2420500Y801000D02*
Y809000D01*
X2376000Y824000D02*
X2384000D01*
X2380000Y820000D02*
Y828000D01*
X2376000Y786000D02*
X2384000D01*
X2380000Y782000D02*
Y790000D01*
X2115500Y805000D02*
X2123500D01*
X2119500Y801000D02*
Y809000D01*
X2196500Y805000D02*
X2204500D01*
X2200500Y801000D02*
Y809000D01*
X2156000Y824000D02*
X2164000D01*
X2160000Y820000D02*
Y828000D01*
X2156000Y786000D02*
X2164000D01*
X2160000Y782000D02*
Y790000D01*
X1895500Y805000D02*
X1903500D01*
X1899500Y801000D02*
Y809000D01*
X1976500Y805000D02*
X1984500D01*
X1980500Y801000D02*
Y809000D01*
X1936000Y824000D02*
X1944000D01*
X1940000Y820000D02*
Y828000D01*
X1936000Y786000D02*
X1944000D01*
X1940000Y782000D02*
Y790000D01*
X1675500Y805000D02*
X1683500D01*
X1679500Y801000D02*
Y809000D01*
X1756500Y805000D02*
X1764500D01*
X1760500Y801000D02*
Y809000D01*
X1716000Y824000D02*
X1724000D01*
X1720000Y820000D02*
Y828000D01*
X1716000Y786000D02*
X1724000D01*
X1720000Y782000D02*
Y790000D01*
X1455500Y805000D02*
X1463500D01*
X1459500Y801000D02*
Y809000D01*
X1536500Y805000D02*
X1544500D01*
X1540500Y801000D02*
Y809000D01*
X1496000Y824000D02*
X1504000D01*
X1500000Y820000D02*
Y828000D01*
X1496000Y786000D02*
X1504000D01*
X1500000Y782000D02*
Y790000D01*
X1235500Y805000D02*
X1243500D01*
X1239500Y801000D02*
Y809000D01*
X1316500Y805000D02*
X1324500D01*
X1320500Y801000D02*
Y809000D01*
X1276000Y824000D02*
X1284000D01*
X1280000Y820000D02*
Y828000D01*
X1276000Y786000D02*
X1284000D01*
X1280000Y782000D02*
Y790000D01*
X1015500Y805000D02*
X1023500D01*
X1019500Y801000D02*
Y809000D01*
X1096500Y805000D02*
X1104500D01*
X1100500Y801000D02*
Y809000D01*
X1056000Y824000D02*
X1064000D01*
X1060000Y820000D02*
Y828000D01*
X1056000Y786000D02*
X1064000D01*
X1060000Y782000D02*
Y790000D01*
X795500Y805000D02*
X803500D01*
X799500Y801000D02*
Y809000D01*
X876500Y805000D02*
X884500D01*
X880500Y801000D02*
Y809000D01*
X836000Y824000D02*
X844000D01*
X840000Y820000D02*
Y828000D01*
X836000Y786000D02*
X844000D01*
X840000Y782000D02*
Y790000D01*
X575500Y805000D02*
X583500D01*
X579500Y801000D02*
Y809000D01*
X656500Y805000D02*
X664500D01*
X660500Y801000D02*
Y809000D01*
X616000Y824000D02*
X624000D01*
X620000Y820000D02*
Y828000D01*
X616000Y786000D02*
X624000D01*
X620000Y782000D02*
Y790000D01*
X355500Y805000D02*
X363500D01*
X359500Y801000D02*
Y809000D01*
X436500Y805000D02*
X444500D01*
X440500Y801000D02*
Y809000D01*
X396000Y824000D02*
X404000D01*
X400000Y820000D02*
Y828000D01*
X396000Y786000D02*
X404000D01*
X400000Y782000D02*
Y790000D01*
X2785500Y585000D02*
X2793500D01*
X2789500Y581000D02*
Y589000D01*
X2866500Y585000D02*
X2874500D01*
X2870500Y581000D02*
Y589000D01*
X2826000Y604000D02*
X2834000D01*
X2830000Y600000D02*
Y608000D01*
X2826000Y566000D02*
X2834000D01*
X2830000Y562000D02*
Y570000D01*
X2555500Y585000D02*
X2563500D01*
X2559500Y581000D02*
Y589000D01*
X2636500Y585000D02*
X2644500D01*
X2640500Y581000D02*
Y589000D01*
X2596000Y604000D02*
X2604000D01*
X2600000Y600000D02*
Y608000D01*
X2596000Y566000D02*
X2604000D01*
X2600000Y562000D02*
Y570000D01*
X2335500Y585000D02*
X2343500D01*
X2339500Y581000D02*
Y589000D01*
X2416500Y585000D02*
X2424500D01*
X2420500Y581000D02*
Y589000D01*
X2376000Y604000D02*
X2384000D01*
X2380000Y600000D02*
Y608000D01*
X2376000Y566000D02*
X2384000D01*
X2380000Y562000D02*
Y570000D01*
X2115500Y585000D02*
X2123500D01*
X2119500Y581000D02*
Y589000D01*
X2196500Y585000D02*
X2204500D01*
X2200500Y581000D02*
Y589000D01*
X2156000Y604000D02*
X2164000D01*
X2160000Y600000D02*
Y608000D01*
X2156000Y566000D02*
X2164000D01*
X2160000Y562000D02*
Y570000D01*
X1895500Y585000D02*
X1903500D01*
X1899500Y581000D02*
Y589000D01*
X1976500Y585000D02*
X1984500D01*
X1980500Y581000D02*
Y589000D01*
X1936000Y604000D02*
X1944000D01*
X1940000Y600000D02*
Y608000D01*
X1936000Y566000D02*
X1944000D01*
X1940000Y562000D02*
Y570000D01*
X1675500Y585000D02*
X1683500D01*
X1679500Y581000D02*
Y589000D01*
X1756500Y585000D02*
X1764500D01*
X1760500Y581000D02*
Y589000D01*
X1716000Y604000D02*
X1724000D01*
X1720000Y600000D02*
Y608000D01*
X1716000Y566000D02*
X1724000D01*
X1720000Y562000D02*
Y570000D01*
X1455500Y585000D02*
X1463500D01*
X1459500Y581000D02*
Y589000D01*
X1536500Y585000D02*
X1544500D01*
X1540500Y581000D02*
Y589000D01*
X1496000Y604000D02*
X1504000D01*
X1500000Y600000D02*
Y608000D01*
X1496000Y566000D02*
X1504000D01*
X1500000Y562000D02*
Y570000D01*
X1235500Y585000D02*
X1243500D01*
X1239500Y581000D02*
Y589000D01*
X1316500Y585000D02*
X1324500D01*
X1320500Y581000D02*
Y589000D01*
X1276000Y604000D02*
X1284000D01*
X1280000Y600000D02*
Y608000D01*
X1276000Y566000D02*
X1284000D01*
X1280000Y562000D02*
Y570000D01*
X1015500Y585000D02*
X1023500D01*
X1019500Y581000D02*
Y589000D01*
X1096500Y585000D02*
X1104500D01*
X1100500Y581000D02*
Y589000D01*
X1056000Y604000D02*
X1064000D01*
X1060000Y600000D02*
Y608000D01*
X1056000Y566000D02*
X1064000D01*
X1060000Y562000D02*
Y570000D01*
X795500Y585000D02*
X803500D01*
X799500Y581000D02*
Y589000D01*
X876500Y585000D02*
X884500D01*
X880500Y581000D02*
Y589000D01*
X836000Y604000D02*
X844000D01*
X840000Y600000D02*
Y608000D01*
X836000Y566000D02*
X844000D01*
X840000Y562000D02*
Y570000D01*
X575500Y585000D02*
X583500D01*
X579500Y581000D02*
Y589000D01*
X656500Y585000D02*
X664500D01*
X660500Y581000D02*
Y589000D01*
X616000Y604000D02*
X624000D01*
X620000Y600000D02*
Y608000D01*
X616000Y566000D02*
X624000D01*
X620000Y562000D02*
Y570000D01*
X355500Y585000D02*
X363500D01*
X359500Y581000D02*
Y589000D01*
X436500Y585000D02*
X444500D01*
X440500Y581000D02*
Y589000D01*
X396000Y604000D02*
X404000D01*
X400000Y600000D02*
Y608000D01*
X396000Y566000D02*
X404000D01*
X400000Y562000D02*
Y570000D01*
X2785500Y365000D02*
X2793500D01*
X2789500Y361000D02*
Y369000D01*
X2866500Y365000D02*
X2874500D01*
X2870500Y361000D02*
Y369000D01*
X2826000Y384000D02*
X2834000D01*
X2830000Y380000D02*
Y388000D01*
X2826000Y346000D02*
X2834000D01*
X2830000Y342000D02*
Y350000D01*
X2555500Y365000D02*
X2563500D01*
X2559500Y361000D02*
Y369000D01*
X2636500Y365000D02*
X2644500D01*
X2640500Y361000D02*
Y369000D01*
X2596000Y384000D02*
X2604000D01*
X2600000Y380000D02*
Y388000D01*
X2596000Y346000D02*
X2604000D01*
X2600000Y342000D02*
Y350000D01*
X2335500Y365000D02*
X2343500D01*
X2339500Y361000D02*
Y369000D01*
X2416500Y365000D02*
X2424500D01*
X2420500Y361000D02*
Y369000D01*
X2376000Y384000D02*
X2384000D01*
X2380000Y380000D02*
Y388000D01*
X2376000Y346000D02*
X2384000D01*
X2380000Y342000D02*
Y350000D01*
X2115500Y365000D02*
X2123500D01*
X2119500Y361000D02*
Y369000D01*
X2196500Y365000D02*
X2204500D01*
X2200500Y361000D02*
Y369000D01*
X2156000Y384000D02*
X2164000D01*
X2160000Y380000D02*
Y388000D01*
X2156000Y346000D02*
X2164000D01*
X2160000Y342000D02*
Y350000D01*
X1895500Y365000D02*
X1903500D01*
X1899500Y361000D02*
Y369000D01*
X1976500Y365000D02*
X1984500D01*
X1980500Y361000D02*
Y369000D01*
X1936000Y384000D02*
X1944000D01*
X1940000Y380000D02*
Y388000D01*
X1936000Y346000D02*
X1944000D01*
X1940000Y342000D02*
Y350000D01*
X1675500Y365000D02*
X1683500D01*
X1679500Y361000D02*
Y369000D01*
X1756500Y365000D02*
X1764500D01*
X1760500Y361000D02*
Y369000D01*
X1716000Y384000D02*
X1724000D01*
X1720000Y380000D02*
Y388000D01*
X1716000Y346000D02*
X1724000D01*
X1720000Y342000D02*
Y350000D01*
X1455500Y365000D02*
X1463500D01*
X1459500Y361000D02*
Y369000D01*
X1536500Y365000D02*
X1544500D01*
X1540500Y361000D02*
Y369000D01*
X1496000Y384000D02*
X1504000D01*
X1500000Y380000D02*
Y388000D01*
X1496000Y346000D02*
X1504000D01*
X1500000Y342000D02*
Y350000D01*
X1235500Y365000D02*
X1243500D01*
X1239500Y361000D02*
Y369000D01*
X1316500Y365000D02*
X1324500D01*
X1320500Y361000D02*
Y369000D01*
X1276000Y384000D02*
X1284000D01*
X1280000Y380000D02*
Y388000D01*
X1276000Y346000D02*
X1284000D01*
X1280000Y342000D02*
Y350000D01*
X1015500Y365000D02*
X1023500D01*
X1019500Y361000D02*
Y369000D01*
X1096500Y365000D02*
X1104500D01*
X1100500Y361000D02*
Y369000D01*
X1056000Y384000D02*
X1064000D01*
X1060000Y380000D02*
Y388000D01*
X1056000Y346000D02*
X1064000D01*
X1060000Y342000D02*
Y350000D01*
X795500Y365000D02*
X803500D01*
X799500Y361000D02*
Y369000D01*
X876500Y365000D02*
X884500D01*
X880500Y361000D02*
Y369000D01*
X836000Y384000D02*
X844000D01*
X840000Y380000D02*
Y388000D01*
X836000Y346000D02*
X844000D01*
X840000Y342000D02*
Y350000D01*
X575500Y365000D02*
X583500D01*
X579500Y361000D02*
Y369000D01*
X656500Y365000D02*
X664500D01*
X660500Y361000D02*
Y369000D01*
X616000Y384000D02*
X624000D01*
X620000Y380000D02*
Y388000D01*
X616000Y346000D02*
X624000D01*
X620000Y342000D02*
Y350000D01*
X355500Y365000D02*
X363500D01*
X359500Y361000D02*
Y369000D01*
X436500Y365000D02*
X444500D01*
X440500Y361000D02*
Y369000D01*
X396000Y384000D02*
X404000D01*
X400000Y380000D02*
Y388000D01*
X396000Y346000D02*
X404000D01*
X400000Y342000D02*
Y350000D01*
X2555500Y145000D02*
X2563500D01*
X2559500Y141000D02*
Y149000D01*
X2636500Y145000D02*
X2644500D01*
X2640500Y141000D02*
Y149000D01*
X2596000Y164000D02*
X2604000D01*
X2600000Y160000D02*
Y168000D01*
X2596000Y126000D02*
X2604000D01*
X2600000Y122000D02*
Y130000D01*
X2335500Y145000D02*
X2343500D01*
X2339500Y141000D02*
Y149000D01*
X2416500Y145000D02*
X2424500D01*
X2420500Y141000D02*
Y149000D01*
X2376000Y164000D02*
X2384000D01*
X2380000Y160000D02*
Y168000D01*
X2376000Y126000D02*
X2384000D01*
X2380000Y122000D02*
Y130000D01*
X2115500Y145000D02*
X2123500D01*
X2119500Y141000D02*
Y149000D01*
X2196500Y145000D02*
X2204500D01*
X2200500Y141000D02*
Y149000D01*
X2156000Y164000D02*
X2164000D01*
X2160000Y160000D02*
Y168000D01*
X2156000Y126000D02*
X2164000D01*
X2160000Y122000D02*
Y130000D01*
X1895500Y145000D02*
X1903500D01*
X1899500Y141000D02*
Y149000D01*
X1976500Y145000D02*
X1984500D01*
X1980500Y141000D02*
Y149000D01*
X1936000Y164000D02*
X1944000D01*
X1940000Y160000D02*
Y168000D01*
X1936000Y126000D02*
X1944000D01*
X1940000Y122000D02*
Y130000D01*
X1455500Y145000D02*
X1463500D01*
X1459500Y141000D02*
Y149000D01*
X1536500Y145000D02*
X1544500D01*
X1540500Y141000D02*
Y149000D01*
X1496000Y164000D02*
X1504000D01*
X1500000Y160000D02*
Y168000D01*
X1496000Y126000D02*
X1504000D01*
X1500000Y122000D02*
Y130000D01*
X1015500Y145000D02*
X1023500D01*
X1019500Y141000D02*
Y149000D01*
X1096500Y145000D02*
X1104500D01*
X1100500Y141000D02*
Y149000D01*
X1056000Y164000D02*
X1064000D01*
X1060000Y160000D02*
Y168000D01*
X1056000Y126000D02*
X1064000D01*
X1060000Y122000D02*
Y130000D01*
X795500Y145000D02*
X803500D01*
X799500Y141000D02*
Y149000D01*
X876500Y145000D02*
X884500D01*
X880500Y141000D02*
Y149000D01*
X836000Y164000D02*
X844000D01*
X840000Y160000D02*
Y168000D01*
X836000Y126000D02*
X844000D01*
X840000Y122000D02*
Y130000D01*
X575500Y145000D02*
X583500D01*
X579500Y141000D02*
Y149000D01*
X656500Y145000D02*
X664500D01*
X660500Y141000D02*
Y149000D01*
X616000Y164000D02*
X624000D01*
X620000Y160000D02*
Y168000D01*
X616000Y126000D02*
X624000D01*
X620000Y122000D02*
Y130000D01*
X355500Y145000D02*
X363500D01*
X359500Y141000D02*
Y149000D01*
X436500Y145000D02*
X444500D01*
X440500Y141000D02*
Y149000D01*
X396000Y164000D02*
X404000D01*
X400000Y160000D02*
Y168000D01*
X396000Y126000D02*
X404000D01*
X400000Y122000D02*
Y130000D01*
X820698Y2204974D02*
X823698D01*
X822198Y2203474D02*
Y2206474D01*
X2947339Y2377913D02*
X2950338D01*
X2948839Y2376413D02*
Y2379413D01*
X2972739Y2327113D02*
X2975739D01*
X2974239Y2325613D02*
Y2328613D01*
X2947339Y2276313D02*
X2950338D01*
X2948839Y2274813D02*
Y2277813D01*
X2972739Y2225513D02*
X2975739D01*
X2974239Y2224013D02*
Y2227013D01*
X2972739Y2123913D02*
X2975739D01*
X2974239Y2122413D02*
Y2125413D01*
X2947339Y2073113D02*
X2950338D01*
X2948839Y2071613D02*
Y2074613D01*
X2972739Y2022313D02*
X2975739D01*
X2974239Y2020813D02*
Y2023813D01*
X2947339Y1971513D02*
X2950338D01*
X2948839Y1970013D02*
Y1973013D01*
X2972739Y1920713D02*
X2975739D01*
X2974239Y1919213D02*
Y1922213D01*
X2947339Y1869913D02*
X2950338D01*
X2948839Y1868413D02*
Y1871413D01*
X2972739Y1819113D02*
X2975739D01*
X2974239Y1817613D02*
Y1820613D01*
X2947339Y1768313D02*
X2950338D01*
X2948839Y1766813D02*
Y1769813D01*
X2972739Y1717513D02*
X2975739D01*
X2974239Y1716013D02*
Y1719013D01*
X2972739Y1615913D02*
X2975739D01*
X2974239Y1614413D02*
Y1617413D01*
X2947339Y955513D02*
X2950338D01*
X2948839Y954013D02*
Y957013D01*
X2947339Y853913D02*
X2950338D01*
X2948839Y852413D02*
Y855413D01*
X2947339Y650713D02*
X2950338D01*
X2948839Y649213D02*
Y652213D01*
X2947339Y549113D02*
X2950338D01*
X2948839Y547613D02*
Y550613D01*
X2947339Y447513D02*
X2950338D01*
X2948839Y446013D02*
Y449013D01*
X2947339Y345913D02*
X2950338D01*
X2948839Y344413D02*
Y347413D01*
X2947339Y244313D02*
X2950338D01*
X2948839Y242813D02*
Y245813D01*
X2972739Y193513D02*
X2975739D01*
X2974239Y192013D02*
Y195013D01*
X2972739Y91913D02*
X2975739D01*
X2974239Y90413D02*
Y93413D01*
X2896539Y2377913D02*
X2899539D01*
X2898039Y2376413D02*
Y2379413D01*
X2921938Y2327113D02*
X2924938D01*
X2923439Y2325613D02*
Y2328613D01*
X2896539Y2276313D02*
X2899539D01*
X2898039Y2274813D02*
Y2277813D01*
X2921938Y2225513D02*
X2924938D01*
X2923439Y2224013D02*
Y2227013D01*
X2921938Y2123913D02*
X2924938D01*
X2923439Y2122413D02*
Y2125413D01*
X2896539Y2073113D02*
X2899539D01*
X2898039Y2071613D02*
Y2074613D01*
X2896539Y1971513D02*
X2899539D01*
X2898039Y1970013D02*
Y1973013D01*
X2896539Y1869913D02*
X2899539D01*
X2898039Y1868413D02*
Y1871413D01*
X2921938Y1819113D02*
X2924938D01*
X2923439Y1817613D02*
Y1820613D01*
X2896539Y1768313D02*
X2899539D01*
X2898039Y1766813D02*
Y1769813D01*
X2921938Y803113D02*
X2924938D01*
X2923439Y801613D02*
Y804613D01*
X2896539Y447513D02*
X2899539D01*
X2898039Y446013D02*
Y449013D01*
X2921938Y396713D02*
X2924938D01*
X2923439Y395213D02*
Y398213D01*
X2896539Y345913D02*
X2899539D01*
X2898039Y344413D02*
Y347413D01*
X2896539Y244313D02*
X2899539D01*
X2898039Y242813D02*
Y245813D01*
X2921938Y193513D02*
X2924938D01*
X2923439Y192013D02*
Y195013D01*
X2921938Y91913D02*
X2924938D01*
X2923439Y90413D02*
Y93413D01*
X2845739Y2377913D02*
X2848738D01*
X2847238Y2376413D02*
Y2379413D01*
X2871139Y2327113D02*
X2874138D01*
X2872639Y2325613D02*
Y2328613D01*
X2871139Y2123913D02*
X2874138D01*
X2872639Y2122413D02*
Y2125413D01*
X2845739Y1971513D02*
X2848738D01*
X2847238Y1970013D02*
Y1973013D01*
X2871139Y1920713D02*
X2874138D01*
X2872639Y1919213D02*
Y1922213D01*
X2845739Y1869913D02*
X2848738D01*
X2847238Y1868413D02*
Y1871413D01*
X2871139Y1819113D02*
X2874138D01*
X2872639Y1817613D02*
Y1820613D01*
X2871139Y1514313D02*
X2874138D01*
X2872639Y1512813D02*
Y1515813D01*
X2845739Y1463513D02*
X2848738D01*
X2847238Y1462013D02*
Y1465013D01*
X2871139Y1412713D02*
X2874138D01*
X2872639Y1411213D02*
Y1414213D01*
X2871139Y1311113D02*
X2874138D01*
X2872639Y1309613D02*
Y1312613D01*
X2845739Y1158713D02*
X2848738D01*
X2847238Y1157213D02*
Y1160213D01*
X2845739Y1057113D02*
X2848738D01*
X2847238Y1055613D02*
Y1058613D01*
X2845739Y955513D02*
X2848738D01*
X2847238Y954013D02*
Y957013D01*
X2845739Y853913D02*
X2848738D01*
X2847238Y852413D02*
Y855413D01*
X2845739Y650713D02*
X2848738D01*
X2847238Y649213D02*
Y652213D01*
X2845739Y549113D02*
X2848738D01*
X2847238Y547613D02*
Y550613D01*
X2871139Y498313D02*
X2874138D01*
X2872639Y496813D02*
Y499813D01*
X2871139Y396713D02*
X2874138D01*
X2872639Y395213D02*
Y398213D01*
X2871139Y295113D02*
X2874138D01*
X2872639Y293613D02*
Y296613D01*
X2871139Y193513D02*
X2874138D01*
X2872639Y192013D02*
Y195013D01*
X2845739Y142713D02*
X2848738D01*
X2847238Y141213D02*
Y144213D01*
X2871139Y91913D02*
X2874138D01*
X2872639Y90413D02*
Y93413D01*
X2820339Y2327113D02*
X2823339D01*
X2821839Y2325613D02*
Y2328613D01*
X2794939Y2276313D02*
X2797939D01*
X2796439Y2274813D02*
Y2277813D01*
X2820339Y2123913D02*
X2823339D01*
X2821839Y2122413D02*
Y2125413D01*
X2820339Y2022313D02*
X2823339D01*
X2821839Y2020813D02*
Y2023813D01*
X2820339Y1920713D02*
X2823339D01*
X2821839Y1919213D02*
Y1922213D01*
X2794939Y1869913D02*
X2797939D01*
X2796439Y1868413D02*
Y1871413D01*
X2820339Y1819113D02*
X2823339D01*
X2821839Y1817613D02*
Y1820613D01*
X2820339Y1717513D02*
X2823339D01*
X2821839Y1716013D02*
Y1719013D01*
X2794939Y1666713D02*
X2797939D01*
X2796439Y1665213D02*
Y1668213D01*
X2794939Y1565113D02*
X2797939D01*
X2796439Y1563613D02*
Y1566613D01*
X2820339Y1514313D02*
X2823339D01*
X2821839Y1512813D02*
Y1515813D01*
X2820339Y1311113D02*
X2823339D01*
X2821839Y1309613D02*
Y1312613D01*
X2820339Y1209513D02*
X2823339D01*
X2821839Y1208013D02*
Y1211013D01*
X2794939Y1158713D02*
X2797939D01*
X2796439Y1157213D02*
Y1160213D01*
X2820339Y1107913D02*
X2823339D01*
X2821839Y1106413D02*
Y1109413D01*
X2794939Y1057113D02*
X2797939D01*
X2796439Y1055613D02*
Y1058613D01*
X2794939Y955513D02*
X2797939D01*
X2796439Y954013D02*
Y957013D01*
X2794939Y853913D02*
X2797939D01*
X2796439Y852413D02*
Y855413D01*
X2820339Y803113D02*
X2823339D01*
X2821839Y801613D02*
Y804613D01*
X2794939Y650713D02*
X2797939D01*
X2796439Y649213D02*
Y652213D01*
X2794939Y549113D02*
X2797939D01*
X2796439Y547613D02*
Y550613D01*
X2794939Y447513D02*
X2797939D01*
X2796439Y446013D02*
Y449013D01*
X2820339Y396713D02*
X2823339D01*
X2821839Y395213D02*
Y398213D01*
X2820339Y295113D02*
X2823339D01*
X2821839Y293613D02*
Y296613D01*
X2794939Y244313D02*
X2797939D01*
X2796439Y242813D02*
Y245813D01*
X2820339Y193513D02*
X2823339D01*
X2821839Y192013D02*
Y195013D01*
X2769539Y2327113D02*
X2772538D01*
X2771039Y2325613D02*
Y2328613D01*
X2769539Y2123913D02*
X2772538D01*
X2771039Y2122413D02*
Y2125413D01*
X2744138Y1869913D02*
X2747138D01*
X2745639Y1868413D02*
Y1871413D01*
X2769539Y1819113D02*
X2772538D01*
X2771039Y1817613D02*
Y1820613D01*
X2769539Y1717513D02*
X2772538D01*
X2771039Y1716013D02*
Y1719013D01*
X2744138Y1666713D02*
X2747138D01*
X2745639Y1665213D02*
Y1668213D01*
X2744138Y1565113D02*
X2747138D01*
X2745639Y1563613D02*
Y1566613D01*
X2769539Y1514313D02*
X2772538D01*
X2771039Y1512813D02*
Y1515813D01*
X2744138Y1463513D02*
X2747138D01*
X2745639Y1462013D02*
Y1465013D01*
X2769539Y1311113D02*
X2772538D01*
X2771039Y1309613D02*
Y1312613D01*
X2744138Y1260313D02*
X2747138D01*
X2745639Y1258813D02*
Y1261813D01*
X2769539Y1209513D02*
X2772538D01*
X2771039Y1208013D02*
Y1211013D01*
X2744138Y1158713D02*
X2747138D01*
X2745639Y1157213D02*
Y1160213D01*
X2769539Y1107913D02*
X2772538D01*
X2771039Y1106413D02*
Y1109413D01*
X2744138Y1057113D02*
X2747138D01*
X2745639Y1055613D02*
Y1058613D01*
X2769539Y1006313D02*
X2772538D01*
X2771039Y1004813D02*
Y1007813D01*
X2744138Y955513D02*
X2747138D01*
X2745639Y954013D02*
Y957013D01*
X2744138Y853913D02*
X2747138D01*
X2745639Y852413D02*
Y855413D01*
X2769539Y803113D02*
X2772538D01*
X2771039Y801613D02*
Y804613D01*
X2744138Y650713D02*
X2747138D01*
X2745639Y649213D02*
Y652213D01*
X2769539Y599913D02*
X2772538D01*
X2771039Y598413D02*
Y601413D01*
X2744138Y549113D02*
X2747138D01*
X2745639Y547613D02*
Y550613D01*
X2769539Y498313D02*
X2772538D01*
X2771039Y496813D02*
Y499813D01*
X2744138Y447513D02*
X2747138D01*
X2745639Y446013D02*
Y449013D01*
X2769539Y396713D02*
X2772538D01*
X2771039Y395213D02*
Y398213D01*
X2744138Y345913D02*
X2747138D01*
X2745639Y344413D02*
Y347413D01*
X2769539Y295113D02*
X2772538D01*
X2771039Y293613D02*
Y296613D01*
X2744138Y244313D02*
X2747138D01*
X2745639Y242813D02*
Y245813D01*
X2769539Y193513D02*
X2772538D01*
X2771039Y192013D02*
Y195013D01*
X2744138Y142713D02*
X2747138D01*
X2745639Y141213D02*
Y144213D01*
X2718739Y2327113D02*
X2721739D01*
X2720239Y2325613D02*
Y2328613D01*
X2693339Y2174713D02*
X2696339D01*
X2694839Y2173213D02*
Y2176213D01*
X2718739Y2123913D02*
X2721739D01*
X2720239Y2122413D02*
Y2125413D01*
X2693339Y1869913D02*
X2696339D01*
X2694839Y1868413D02*
Y1871413D01*
X2718739Y1819113D02*
X2721739D01*
X2720239Y1817613D02*
Y1820613D01*
X2718739Y1514313D02*
X2721739D01*
X2720239Y1512813D02*
Y1515813D01*
X2718739Y1311113D02*
X2721739D01*
X2720239Y1309613D02*
Y1312613D01*
X2718739Y1209513D02*
X2721739D01*
X2720239Y1208013D02*
Y1211013D01*
X2718739Y1107913D02*
X2721739D01*
X2720239Y1106413D02*
Y1109413D01*
X2718739Y1006313D02*
X2721739D01*
X2720239Y1004813D02*
Y1007813D01*
X2718739Y803113D02*
X2721739D01*
X2720239Y801613D02*
Y804613D01*
X2718739Y599913D02*
X2721739D01*
X2720239Y598413D02*
Y601413D01*
X2718739Y498313D02*
X2721739D01*
X2720239Y496813D02*
Y499813D01*
X2693339Y447513D02*
X2696339D01*
X2694839Y446013D02*
Y449013D01*
X2718739Y396713D02*
X2721739D01*
X2720239Y395213D02*
Y398213D01*
X2693339Y345913D02*
X2696339D01*
X2694839Y344413D02*
Y347413D01*
X2718739Y295113D02*
X2721739D01*
X2720239Y293613D02*
Y296613D01*
X2718739Y193513D02*
X2721739D01*
X2720239Y192013D02*
Y195013D01*
X2693339Y142713D02*
X2696339D01*
X2694839Y141213D02*
Y144213D01*
X2667939Y2327113D02*
X2670938D01*
X2669438Y2325613D02*
Y2328613D01*
X2642538Y2276313D02*
X2645539D01*
X2644039Y2274813D02*
Y2277813D01*
X2667939Y2123913D02*
X2670938D01*
X2669438Y2122413D02*
Y2125413D01*
X2642538Y1869913D02*
X2645539D01*
X2644039Y1868413D02*
Y1871413D01*
X2667939Y1819113D02*
X2670938D01*
X2669438Y1817613D02*
Y1820613D01*
X2642538Y1158713D02*
X2645539D01*
X2644039Y1157213D02*
Y1160213D01*
X2667939Y1107913D02*
X2670938D01*
X2669438Y1106413D02*
Y1109413D01*
X2642538Y1057113D02*
X2645539D01*
X2644039Y1055613D02*
Y1058613D01*
X2667939Y1006313D02*
X2670938D01*
X2669438Y1004813D02*
Y1007813D01*
X2642538Y955513D02*
X2645539D01*
X2644039Y954013D02*
Y957013D01*
X2642538Y853913D02*
X2645539D01*
X2644039Y852413D02*
Y855413D01*
X2667939Y803113D02*
X2670938D01*
X2669438Y801613D02*
Y804613D01*
X2642538Y650713D02*
X2645539D01*
X2644039Y649213D02*
Y652213D01*
X2667939Y599913D02*
X2670938D01*
X2669438Y598413D02*
Y601413D01*
X2667939Y498313D02*
X2670938D01*
X2669438Y496813D02*
Y499813D01*
X2667939Y396713D02*
X2670938D01*
X2669438Y395213D02*
Y398213D01*
X2667939Y295113D02*
X2670938D01*
X2669438Y293613D02*
Y296613D01*
X2667939Y193513D02*
X2670938D01*
X2669438Y192013D02*
Y195013D01*
X2591739Y2174713D02*
X2594738D01*
X2593239Y2173213D02*
Y2176213D01*
X2617139Y2123913D02*
X2620139D01*
X2618639Y2122413D02*
Y2125413D01*
X2591739Y1869913D02*
X2594738D01*
X2593239Y1868413D02*
Y1871413D01*
X2617139Y1819113D02*
X2620139D01*
X2618639Y1817613D02*
Y1820613D01*
X2617139Y1717513D02*
X2620139D01*
X2618639Y1716013D02*
Y1719013D01*
X2591739Y1666713D02*
X2594738D01*
X2593239Y1665213D02*
Y1668213D01*
X2617139Y1514313D02*
X2620139D01*
X2618639Y1512813D02*
Y1515813D01*
X2591739Y1463513D02*
X2594738D01*
X2593239Y1462013D02*
Y1465013D01*
X2617139Y1311113D02*
X2620139D01*
X2618639Y1309613D02*
Y1312613D01*
X2617139Y1209513D02*
X2620139D01*
X2618639Y1208013D02*
Y1211013D01*
X2617139Y803113D02*
X2620139D01*
X2618639Y801613D02*
Y804613D01*
X2617139Y498313D02*
X2620139D01*
X2618639Y496813D02*
Y499813D01*
X2617139Y396713D02*
X2620139D01*
X2618639Y395213D02*
Y398213D01*
X2617139Y295113D02*
X2620139D01*
X2618639Y293613D02*
Y296613D01*
X2617139Y193513D02*
X2620139D01*
X2618639Y192013D02*
Y195013D01*
X2591739Y142713D02*
X2594738D01*
X2593239Y141213D02*
Y144213D01*
X2566339Y2327113D02*
X2569338D01*
X2567839Y2325613D02*
Y2328613D01*
X2566339Y2123913D02*
X2569338D01*
X2567839Y2122413D02*
Y2125413D01*
X2540939Y1869913D02*
X2543938D01*
X2542439Y1868413D02*
Y1871413D01*
X2566339Y1819113D02*
X2569338D01*
X2567839Y1817613D02*
Y1820613D01*
X2566339Y1717513D02*
X2569338D01*
X2567839Y1716013D02*
Y1719013D01*
X2540939Y1666713D02*
X2543938D01*
X2542439Y1665213D02*
Y1668213D01*
X2540939Y1565113D02*
X2543938D01*
X2542439Y1563613D02*
Y1566613D01*
X2566339Y1514313D02*
X2569338D01*
X2567839Y1512813D02*
Y1515813D01*
X2540939Y1463513D02*
X2543938D01*
X2542439Y1462013D02*
Y1465013D01*
X2566339Y1311113D02*
X2569338D01*
X2567839Y1309613D02*
Y1312613D01*
X2540939Y1260313D02*
X2543938D01*
X2542439Y1258813D02*
Y1261813D01*
X2566339Y1209513D02*
X2569338D01*
X2567839Y1208013D02*
Y1211013D01*
X2540939Y1158713D02*
X2543938D01*
X2542439Y1157213D02*
Y1160213D01*
X2566339Y1107913D02*
X2569338D01*
X2567839Y1106413D02*
Y1109413D01*
X2540939Y1057113D02*
X2543938D01*
X2542439Y1055613D02*
Y1058613D01*
X2540939Y955513D02*
X2543938D01*
X2542439Y954013D02*
Y957013D01*
X2540939Y853913D02*
X2543938D01*
X2542439Y852413D02*
Y855413D01*
X2540939Y650713D02*
X2543938D01*
X2542439Y649213D02*
Y652213D01*
X2540939Y549113D02*
X2543938D01*
X2542439Y547613D02*
Y550613D01*
X2566339Y498313D02*
X2569338D01*
X2567839Y496813D02*
Y499813D01*
X2540939Y447513D02*
X2543938D01*
X2542439Y446013D02*
Y449013D01*
X2566339Y396713D02*
X2569338D01*
X2567839Y395213D02*
Y398213D01*
X2540939Y345913D02*
X2543938D01*
X2542439Y344413D02*
Y347413D01*
X2566339Y295113D02*
X2569338D01*
X2567839Y293613D02*
Y296613D01*
X2540939Y244313D02*
X2543938D01*
X2542439Y242813D02*
Y245813D01*
X2566339Y193513D02*
X2569338D01*
X2567839Y192013D02*
Y195013D01*
X2540939Y142713D02*
X2543938D01*
X2542439Y141213D02*
Y144213D01*
X2515539Y2327113D02*
X2518539D01*
X2517039Y2325613D02*
Y2328613D01*
X2515539Y2123913D02*
X2518539D01*
X2517039Y2122413D02*
Y2125413D01*
X2490139Y1869913D02*
X2493138D01*
X2491639Y1868413D02*
Y1871413D01*
X2515539Y1819113D02*
X2518539D01*
X2517039Y1817613D02*
Y1820613D01*
X2515539Y1717513D02*
X2518539D01*
X2517039Y1716013D02*
Y1719013D01*
X2490139Y1565113D02*
X2493138D01*
X2491639Y1563613D02*
Y1566613D01*
X2490139Y1463513D02*
X2493138D01*
X2491639Y1462013D02*
Y1465013D01*
X2515539Y1311113D02*
X2518539D01*
X2517039Y1309613D02*
Y1312613D01*
X2490139Y1260313D02*
X2493138D01*
X2491639Y1258813D02*
Y1261813D01*
X2515539Y1209513D02*
X2518539D01*
X2517039Y1208013D02*
Y1211013D01*
X2490139Y1158713D02*
X2493138D01*
X2491639Y1157213D02*
Y1160213D01*
X2515539Y1107913D02*
X2518539D01*
X2517039Y1106413D02*
Y1109413D01*
X2490139Y1057113D02*
X2493138D01*
X2491639Y1055613D02*
Y1058613D01*
X2515539Y1006313D02*
X2518539D01*
X2517039Y1004813D02*
Y1007813D01*
X2490139Y955513D02*
X2493138D01*
X2491639Y954013D02*
Y957013D01*
X2490139Y853913D02*
X2493138D01*
X2491639Y852413D02*
Y855413D01*
X2515539Y803113D02*
X2518539D01*
X2517039Y801613D02*
Y804613D01*
X2490139Y650713D02*
X2493138D01*
X2491639Y649213D02*
Y652213D01*
X2515539Y599913D02*
X2518539D01*
X2517039Y598413D02*
Y601413D01*
X2490139Y549113D02*
X2493138D01*
X2491639Y547613D02*
Y550613D01*
X2515539Y498313D02*
X2518539D01*
X2517039Y496813D02*
Y499813D01*
X2490139Y447513D02*
X2493138D01*
X2491639Y446013D02*
Y449013D01*
X2515539Y396713D02*
X2518539D01*
X2517039Y395213D02*
Y398213D01*
X2490139Y345913D02*
X2493138D01*
X2491639Y344413D02*
Y347413D01*
X2515539Y295113D02*
X2518539D01*
X2517039Y293613D02*
Y296613D01*
X2490139Y244313D02*
X2493138D01*
X2491639Y242813D02*
Y245813D01*
X2515539Y193513D02*
X2518539D01*
X2517039Y192013D02*
Y195013D01*
X2490139Y142713D02*
X2493138D01*
X2491639Y141213D02*
Y144213D01*
X2464739Y2327113D02*
X2467738D01*
X2466239Y2325613D02*
Y2328613D01*
X2439339Y2174713D02*
X2442339D01*
X2440839Y2173213D02*
Y2176213D01*
X2464739Y2123913D02*
X2467738D01*
X2466239Y2122413D02*
Y2125413D01*
X2439339Y1869913D02*
X2442339D01*
X2440839Y1868413D02*
Y1871413D01*
X2464739Y1819113D02*
X2467738D01*
X2466239Y1817613D02*
Y1820613D01*
X2439339Y1260313D02*
X2442339D01*
X2440839Y1258813D02*
Y1261813D01*
X2439339Y1158713D02*
X2442339D01*
X2440839Y1157213D02*
Y1160213D01*
X2439339Y1057113D02*
X2442339D01*
X2440839Y1055613D02*
Y1058613D01*
X2439339Y955513D02*
X2442339D01*
X2440839Y954013D02*
Y957013D01*
X2439339Y853913D02*
X2442339D01*
X2440839Y852413D02*
Y855413D01*
X2439339Y650713D02*
X2442339D01*
X2440839Y649213D02*
Y652213D01*
X2464739Y599913D02*
X2467738D01*
X2466239Y598413D02*
Y601413D01*
X2439339Y549113D02*
X2442339D01*
X2440839Y547613D02*
Y550613D01*
X2464739Y498313D02*
X2467738D01*
X2466239Y496813D02*
Y499813D01*
X2439339Y447513D02*
X2442339D01*
X2440839Y446013D02*
Y449013D01*
X2464739Y396713D02*
X2467738D01*
X2466239Y395213D02*
Y398213D01*
X2439339Y345913D02*
X2442339D01*
X2440839Y344413D02*
Y347413D01*
X2464739Y295113D02*
X2467738D01*
X2466239Y293613D02*
Y296613D01*
X2439339Y244313D02*
X2442339D01*
X2440839Y242813D02*
Y245813D01*
X2464739Y193513D02*
X2467738D01*
X2466239Y192013D02*
Y195013D01*
X2439339Y142713D02*
X2442339D01*
X2440839Y141213D02*
Y144213D01*
X2413939Y2327113D02*
X2416938D01*
X2415439Y2325613D02*
Y2328613D01*
X2388539Y2174713D02*
X2391539D01*
X2390039Y2173213D02*
Y2176213D01*
X2413939Y2123913D02*
X2416938D01*
X2415439Y2122413D02*
Y2125413D01*
X2388539Y1869913D02*
X2391539D01*
X2390039Y1868413D02*
Y1871413D01*
X2413939Y1819113D02*
X2416938D01*
X2415439Y1817613D02*
Y1820613D01*
X2388539Y1666713D02*
X2391539D01*
X2390039Y1665213D02*
Y1668213D01*
X2413939Y1514313D02*
X2416938D01*
X2415439Y1512813D02*
Y1515813D01*
X2388539Y1463513D02*
X2391539D01*
X2390039Y1462013D02*
Y1465013D01*
X2413939Y1311113D02*
X2416938D01*
X2415439Y1309613D02*
Y1312613D01*
X2388539Y1158713D02*
X2391539D01*
X2390039Y1157213D02*
Y1160213D01*
X2388539Y1057113D02*
X2391539D01*
X2390039Y1055613D02*
Y1058613D01*
X2388539Y955513D02*
X2391539D01*
X2390039Y954013D02*
Y957013D01*
X2388539Y853913D02*
X2391539D01*
X2390039Y852413D02*
Y855413D01*
X2388539Y650713D02*
X2391539D01*
X2390039Y649213D02*
Y652213D01*
X2388539Y549113D02*
X2391539D01*
X2390039Y547613D02*
Y550613D01*
X2413939Y498313D02*
X2416938D01*
X2415439Y496813D02*
Y499813D01*
X2388539Y447513D02*
X2391539D01*
X2390039Y446013D02*
Y449013D01*
X2413939Y396713D02*
X2416938D01*
X2415439Y395213D02*
Y398213D01*
X2413939Y295113D02*
X2416938D01*
X2415439Y293613D02*
Y296613D01*
X2413939Y193513D02*
X2416938D01*
X2415439Y192013D02*
Y195013D01*
X2388539Y142713D02*
X2391539D01*
X2390039Y141213D02*
Y144213D01*
X2337739Y2276313D02*
X2340739D01*
X2339239Y2274813D02*
Y2277813D01*
X2363139Y2123913D02*
X2366138D01*
X2364639Y2122413D02*
Y2125413D01*
X2337739Y1869913D02*
X2340739D01*
X2339239Y1868413D02*
Y1871413D01*
X2363139Y1819113D02*
X2366138D01*
X2364639Y1817613D02*
Y1820613D01*
X2363139Y1717513D02*
X2366138D01*
X2364639Y1716013D02*
Y1719013D01*
X2337739Y1666713D02*
X2340739D01*
X2339239Y1665213D02*
Y1668213D01*
X2337739Y1565113D02*
X2340739D01*
X2339239Y1563613D02*
Y1566613D01*
X2363139Y1514313D02*
X2366138D01*
X2364639Y1512813D02*
Y1515813D01*
X2363139Y1311113D02*
X2366138D01*
X2364639Y1309613D02*
Y1312613D01*
X2363139Y1209513D02*
X2366138D01*
X2364639Y1208013D02*
Y1211013D01*
X2363139Y1107913D02*
X2366138D01*
X2364639Y1106413D02*
Y1109413D01*
X2363139Y803113D02*
X2366138D01*
X2364639Y801613D02*
Y804613D01*
X2363139Y396713D02*
X2366138D01*
X2364639Y395213D02*
Y398213D01*
X2363139Y295113D02*
X2366138D01*
X2364639Y293613D02*
Y296613D01*
X2363139Y193513D02*
X2366138D01*
X2364639Y192013D02*
Y195013D01*
X2312339Y2123913D02*
X2315338D01*
X2313839Y2122413D02*
Y2125413D01*
X2286939Y1869913D02*
X2289939D01*
X2288439Y1868413D02*
Y1871413D01*
X2312339Y1819113D02*
X2315338D01*
X2313839Y1817613D02*
Y1820613D01*
X2312339Y1717513D02*
X2315338D01*
X2313839Y1716013D02*
Y1719013D01*
X2286939Y1565113D02*
X2289939D01*
X2288439Y1563613D02*
Y1566613D01*
X2312339Y1514313D02*
X2315338D01*
X2313839Y1512813D02*
Y1515813D01*
X2286939Y1463513D02*
X2289939D01*
X2288439Y1462013D02*
Y1465013D01*
X2312339Y1311113D02*
X2315338D01*
X2313839Y1309613D02*
Y1312613D01*
X2286939Y1260313D02*
X2289939D01*
X2288439Y1258813D02*
Y1261813D01*
X2312339Y1209513D02*
X2315338D01*
X2313839Y1208013D02*
Y1211013D01*
X2286939Y1158713D02*
X2289939D01*
X2288439Y1157213D02*
Y1160213D01*
X2312339Y1107913D02*
X2315338D01*
X2313839Y1106413D02*
Y1109413D01*
X2286939Y1057113D02*
X2289939D01*
X2288439Y1055613D02*
Y1058613D01*
X2312339Y1006313D02*
X2315338D01*
X2313839Y1004813D02*
Y1007813D01*
X2286939Y955513D02*
X2289939D01*
X2288439Y954013D02*
Y957013D01*
X2286939Y853913D02*
X2289939D01*
X2288439Y852413D02*
Y855413D01*
X2312339Y803113D02*
X2315338D01*
X2313839Y801613D02*
Y804613D01*
X2286939Y650713D02*
X2289939D01*
X2288439Y649213D02*
Y652213D01*
X2312339Y599913D02*
X2315338D01*
X2313839Y598413D02*
Y601413D01*
X2286939Y549113D02*
X2289939D01*
X2288439Y547613D02*
Y550613D01*
X2312339Y498313D02*
X2315338D01*
X2313839Y496813D02*
Y499813D01*
X2286939Y447513D02*
X2289939D01*
X2288439Y446013D02*
Y449013D01*
X2312339Y396713D02*
X2315338D01*
X2313839Y395213D02*
Y398213D01*
X2286939Y345913D02*
X2289939D01*
X2288439Y344413D02*
Y347413D01*
X2312339Y295113D02*
X2315338D01*
X2313839Y293613D02*
Y296613D01*
X2286939Y244313D02*
X2289939D01*
X2288439Y242813D02*
Y245813D01*
X2312339Y193513D02*
X2315338D01*
X2313839Y192013D02*
Y195013D01*
X2286939Y142713D02*
X2289939D01*
X2288439Y141213D02*
Y144213D01*
X2236139Y2276313D02*
X2239138D01*
X2237639Y2274813D02*
Y2277813D01*
X2261539Y2123913D02*
X2264539D01*
X2263039Y2122413D02*
Y2125413D01*
X2236139Y1869913D02*
X2239138D01*
X2237639Y1868413D02*
Y1871413D01*
X2261539Y1819113D02*
X2264539D01*
X2263039Y1817613D02*
Y1820613D01*
X2236139Y853913D02*
X2239138D01*
X2237639Y852413D02*
Y855413D01*
X2236139Y650713D02*
X2239138D01*
X2237639Y649213D02*
Y652213D01*
X2236139Y549113D02*
X2239138D01*
X2237639Y547613D02*
Y550613D01*
X2236139Y447513D02*
X2239138D01*
X2237639Y446013D02*
Y449013D01*
X2236139Y345913D02*
X2239138D01*
X2237639Y344413D02*
Y347413D01*
X2236139Y244313D02*
X2239138D01*
X2237639Y242813D02*
Y245813D01*
X2261539Y193513D02*
X2264539D01*
X2263039Y192013D02*
Y195013D01*
X2236139Y142713D02*
X2239138D01*
X2237639Y141213D02*
Y144213D01*
X2185339Y2276313D02*
X2188338D01*
X2186839Y2274813D02*
Y2277813D01*
X2210739Y2225513D02*
X2213739D01*
X2212239Y2224013D02*
Y2227013D01*
X2210739Y2123913D02*
X2213739D01*
X2212239Y2122413D02*
Y2125413D01*
X2185339Y2073113D02*
X2188338D01*
X2186839Y2071613D02*
Y2074613D01*
X2185339Y1971513D02*
X2188338D01*
X2186839Y1970013D02*
Y1973013D01*
X2185339Y1869913D02*
X2188338D01*
X2186839Y1868413D02*
Y1871413D01*
X2210739Y1819113D02*
X2213739D01*
X2212239Y1817613D02*
Y1820613D01*
X2210739Y1514313D02*
X2213739D01*
X2212239Y1512813D02*
Y1515813D01*
X2185339Y1463513D02*
X2188338D01*
X2186839Y1462013D02*
Y1465013D01*
X2210739Y1311113D02*
X2213739D01*
X2212239Y1309613D02*
Y1312613D01*
X2185339Y1260313D02*
X2188338D01*
X2186839Y1258813D02*
Y1261813D01*
X2210739Y1209513D02*
X2213739D01*
X2212239Y1208013D02*
Y1211013D01*
X2185339Y1158713D02*
X2188338D01*
X2186839Y1157213D02*
Y1160213D01*
X2185339Y1057113D02*
X2188338D01*
X2186839Y1055613D02*
Y1058613D01*
X2210739Y1006313D02*
X2213739D01*
X2212239Y1004813D02*
Y1007813D01*
X2185339Y955513D02*
X2188338D01*
X2186839Y954013D02*
Y957013D01*
X2185339Y853913D02*
X2188338D01*
X2186839Y852413D02*
Y855413D01*
X2185339Y650713D02*
X2188338D01*
X2186839Y649213D02*
Y652213D01*
X2185339Y549113D02*
X2188338D01*
X2186839Y547613D02*
Y550613D01*
X2210739Y498313D02*
X2213739D01*
X2212239Y496813D02*
Y499813D01*
X2210739Y396713D02*
X2213739D01*
X2212239Y395213D02*
Y398213D01*
X2185339Y345913D02*
X2188338D01*
X2186839Y344413D02*
Y347413D01*
X2210739Y295113D02*
X2213739D01*
X2212239Y293613D02*
Y296613D01*
X2210739Y193513D02*
X2213739D01*
X2212239Y192013D02*
Y195013D01*
X2185339Y142713D02*
X2188338D01*
X2186839Y141213D02*
Y144213D01*
X2134539Y2377913D02*
X2137538D01*
X2136039Y2376413D02*
Y2379413D01*
X2134539Y2174713D02*
X2137538D01*
X2136039Y2173213D02*
Y2176213D01*
X2159939Y2123913D02*
X2162939D01*
X2161439Y2122413D02*
Y2125413D01*
X2134539Y2073113D02*
X2137538D01*
X2136039Y2071613D02*
Y2074613D01*
X2159939Y2022313D02*
X2162939D01*
X2161439Y2020813D02*
Y2023813D01*
X2134539Y1971513D02*
X2137538D01*
X2136039Y1970013D02*
Y1973013D01*
X2159939Y1920713D02*
X2162939D01*
X2161439Y1919213D02*
Y1922213D01*
X2134539Y1869913D02*
X2137538D01*
X2136039Y1868413D02*
Y1871413D01*
X2159939Y1819113D02*
X2162939D01*
X2161439Y1817613D02*
Y1820613D01*
X2159939Y1717513D02*
X2162939D01*
X2161439Y1716013D02*
Y1719013D01*
X2134539Y1666713D02*
X2137538D01*
X2136039Y1665213D02*
Y1668213D01*
X2134539Y1565113D02*
X2137538D01*
X2136039Y1563613D02*
Y1566613D01*
X2134539Y1463513D02*
X2137538D01*
X2136039Y1462013D02*
Y1465013D01*
X2134539Y1260313D02*
X2137538D01*
X2136039Y1258813D02*
Y1261813D01*
X2134539Y1158713D02*
X2137538D01*
X2136039Y1157213D02*
Y1160213D01*
X2134539Y1057113D02*
X2137538D01*
X2136039Y1055613D02*
Y1058613D01*
X2134539Y955513D02*
X2137538D01*
X2136039Y954013D02*
Y957013D01*
X2134539Y853913D02*
X2137538D01*
X2136039Y852413D02*
Y855413D01*
X2159939Y803113D02*
X2162939D01*
X2161439Y801613D02*
Y804613D01*
X2134539Y650713D02*
X2137538D01*
X2136039Y649213D02*
Y652213D01*
X2134539Y549113D02*
X2137538D01*
X2136039Y547613D02*
Y550613D01*
X2134539Y447513D02*
X2137538D01*
X2136039Y446013D02*
Y449013D01*
X2134539Y345913D02*
X2137538D01*
X2136039Y344413D02*
Y347413D01*
X2134539Y244313D02*
X2137538D01*
X2136039Y242813D02*
Y245813D01*
X2134539Y142713D02*
X2137538D01*
X2136039Y141213D02*
Y144213D01*
X2083739Y2377913D02*
X2086738D01*
X2085239Y2376413D02*
Y2379413D01*
X2109139Y2327113D02*
X2112139D01*
X2110639Y2325613D02*
Y2328613D01*
X2083739Y2174713D02*
X2086738D01*
X2085239Y2173213D02*
Y2176213D01*
X2109139Y1819113D02*
X2112139D01*
X2110639Y1817613D02*
Y1820613D01*
X2109139Y1717513D02*
X2112139D01*
X2110639Y1716013D02*
Y1719013D01*
X2083739Y1666713D02*
X2086738D01*
X2085239Y1665213D02*
Y1668213D01*
X2083739Y1565113D02*
X2086738D01*
X2085239Y1563613D02*
Y1566613D01*
X2109139Y1514313D02*
X2112139D01*
X2110639Y1512813D02*
Y1515813D01*
X2083739Y1463513D02*
X2086738D01*
X2085239Y1462013D02*
Y1465013D01*
X2109139Y1311113D02*
X2112139D01*
X2110639Y1309613D02*
Y1312613D01*
X2083739Y1260313D02*
X2086738D01*
X2085239Y1258813D02*
Y1261813D01*
X2109139Y1209513D02*
X2112139D01*
X2110639Y1208013D02*
Y1211013D01*
X2083739Y1158713D02*
X2086738D01*
X2085239Y1157213D02*
Y1160213D01*
X2109139Y1107913D02*
X2112139D01*
X2110639Y1106413D02*
Y1109413D01*
X2083739Y1057113D02*
X2086738D01*
X2085239Y1055613D02*
Y1058613D01*
X2109139Y904713D02*
X2112139D01*
X2110639Y903213D02*
Y906213D01*
X2083739Y853913D02*
X2086738D01*
X2085239Y852413D02*
Y855413D01*
X2083739Y650713D02*
X2086738D01*
X2085239Y649213D02*
Y652213D01*
X2083739Y549113D02*
X2086738D01*
X2085239Y547613D02*
Y550613D01*
X2109139Y498313D02*
X2112139D01*
X2110639Y496813D02*
Y499813D01*
X2083739Y447513D02*
X2086738D01*
X2085239Y446013D02*
Y449013D01*
X2109139Y396713D02*
X2112139D01*
X2110639Y395213D02*
Y398213D01*
X2083739Y345913D02*
X2086738D01*
X2085239Y344413D02*
Y347413D01*
X2109139Y295113D02*
X2112139D01*
X2110639Y293613D02*
Y296613D01*
X2083739Y244313D02*
X2086738D01*
X2085239Y242813D02*
Y245813D01*
X2109139Y193513D02*
X2112139D01*
X2110639Y192013D02*
Y195013D01*
X2083739Y142713D02*
X2086738D01*
X2085239Y141213D02*
Y144213D01*
X2083739Y41113D02*
X2086738D01*
X2085239Y39613D02*
Y42613D01*
X2058339Y2327113D02*
X2061339D01*
X2059839Y2325613D02*
Y2328613D01*
X2032939Y2174713D02*
X2035939D01*
X2034439Y2173213D02*
Y2176213D01*
X2058339Y2123913D02*
X2061339D01*
X2059839Y2122413D02*
Y2125413D01*
X2058339Y2022313D02*
X2061339D01*
X2059839Y2020813D02*
Y2023813D01*
X2058339Y1920713D02*
X2061339D01*
X2059839Y1919213D02*
Y1922213D01*
X2032939Y1869913D02*
X2035939D01*
X2034439Y1868413D02*
Y1871413D01*
X2058339Y1819113D02*
X2061339D01*
X2059839Y1817613D02*
Y1820613D01*
X2058339Y1514313D02*
X2061339D01*
X2059839Y1512813D02*
Y1515813D01*
X2058339Y1311113D02*
X2061339D01*
X2059839Y1309613D02*
Y1312613D01*
X2058339Y1209513D02*
X2061339D01*
X2059839Y1208013D02*
Y1211013D01*
X2058339Y1107913D02*
X2061339D01*
X2059839Y1106413D02*
Y1109413D01*
X2032939Y1057113D02*
X2035939D01*
X2034439Y1055613D02*
Y1058613D01*
X2058339Y1006313D02*
X2061339D01*
X2059839Y1004813D02*
Y1007813D01*
X2032939Y853913D02*
X2035939D01*
X2034439Y852413D02*
Y855413D01*
X2058339Y803113D02*
X2061339D01*
X2059839Y801613D02*
Y804613D01*
X2032939Y650713D02*
X2035939D01*
X2034439Y649213D02*
Y652213D01*
X2058339Y599913D02*
X2061339D01*
X2059839Y598413D02*
Y601413D01*
X2032939Y549113D02*
X2035939D01*
X2034439Y547613D02*
Y550613D01*
X2058339Y498313D02*
X2061339D01*
X2059839Y496813D02*
Y499813D01*
X2032939Y447513D02*
X2035939D01*
X2034439Y446013D02*
Y449013D01*
X2058339Y396713D02*
X2061339D01*
X2059839Y395213D02*
Y398213D01*
X2032939Y345913D02*
X2035939D01*
X2034439Y344413D02*
Y347413D01*
X2058339Y295113D02*
X2061339D01*
X2059839Y293613D02*
Y296613D01*
X2032939Y244313D02*
X2035939D01*
X2034439Y242813D02*
Y245813D01*
X2058339Y193513D02*
X2061339D01*
X2059839Y192013D02*
Y195013D01*
X2032939Y142713D02*
X2035939D01*
X2034439Y141213D02*
Y144213D01*
X2007539Y2327113D02*
X2010538D01*
X2009039Y2325613D02*
Y2328613D01*
X2007539Y2225513D02*
X2010538D01*
X2009039Y2224013D02*
Y2227013D01*
X1982139Y2174713D02*
X1985139D01*
X1983639Y2173213D02*
Y2176213D01*
X2007539Y2123913D02*
X2010538D01*
X2009039Y2122413D02*
Y2125413D01*
X1982139Y2073113D02*
X1985139D01*
X1983639Y2071613D02*
Y2074613D01*
X2007539Y2022313D02*
X2010538D01*
X2009039Y2020813D02*
Y2023813D01*
X2007539Y1920713D02*
X2010538D01*
X2009039Y1919213D02*
Y1922213D01*
X1982139Y1869913D02*
X1985139D01*
X1983639Y1868413D02*
Y1871413D01*
X2007539Y1819113D02*
X2010538D01*
X2009039Y1817613D02*
Y1820613D01*
X1982139Y1158713D02*
X1985139D01*
X1983639Y1157213D02*
Y1160213D01*
X1982139Y1057113D02*
X1985139D01*
X1983639Y1055613D02*
Y1058613D01*
X1982139Y853913D02*
X1985139D01*
X1983639Y852413D02*
Y855413D01*
X1982139Y650713D02*
X1985139D01*
X1983639Y649213D02*
Y652213D01*
X2007539Y396713D02*
X2010538D01*
X2009039Y395213D02*
Y398213D01*
X2007539Y295113D02*
X2010538D01*
X2009039Y293613D02*
Y296613D01*
X2007539Y193513D02*
X2010538D01*
X2009039Y192013D02*
Y195013D01*
X1982139Y41113D02*
X1985139D01*
X1983639Y39613D02*
Y42613D01*
X1956739Y2327113D02*
X1959738D01*
X1958239Y2325613D02*
Y2328613D01*
X1956739Y2225513D02*
X1959738D01*
X1958239Y2224013D02*
Y2227013D01*
X1956739Y2123913D02*
X1959738D01*
X1958239Y2122413D02*
Y2125413D01*
X1956739Y2022313D02*
X1959738D01*
X1958239Y2020813D02*
Y2023813D01*
X1931339Y1869913D02*
X1934339D01*
X1932839Y1868413D02*
Y1871413D01*
X1956739Y1819113D02*
X1959738D01*
X1958239Y1817613D02*
Y1820613D01*
X1956739Y1717513D02*
X1959738D01*
X1958239Y1716013D02*
Y1719013D01*
X1931339Y1666713D02*
X1934339D01*
X1932839Y1665213D02*
Y1668213D01*
X1956739Y1514313D02*
X1959738D01*
X1958239Y1512813D02*
Y1515813D01*
X1931339Y1463513D02*
X1934339D01*
X1932839Y1462013D02*
Y1465013D01*
X1956739Y1311113D02*
X1959738D01*
X1958239Y1309613D02*
Y1312613D01*
X1956739Y1209513D02*
X1959738D01*
X1958239Y1208013D02*
Y1211013D01*
X1931339Y1057113D02*
X1934339D01*
X1932839Y1055613D02*
Y1058613D01*
X1931339Y955513D02*
X1934339D01*
X1932839Y954013D02*
Y957013D01*
X1931339Y853913D02*
X1934339D01*
X1932839Y852413D02*
Y855413D01*
X1956739Y803113D02*
X1959738D01*
X1958239Y801613D02*
Y804613D01*
X1931339Y650713D02*
X1934339D01*
X1932839Y649213D02*
Y652213D01*
X1931339Y549113D02*
X1934339D01*
X1932839Y547613D02*
Y550613D01*
X1956739Y498313D02*
X1959738D01*
X1958239Y496813D02*
Y499813D01*
X1931339Y447513D02*
X1934339D01*
X1932839Y446013D02*
Y449013D01*
X1956739Y396713D02*
X1959738D01*
X1958239Y395213D02*
Y398213D01*
X1956739Y295113D02*
X1959738D01*
X1958239Y293613D02*
Y296613D01*
X1956739Y193513D02*
X1959738D01*
X1958239Y192013D02*
Y195013D01*
X1931339Y142713D02*
X1934339D01*
X1932839Y141213D02*
Y144213D01*
X1880539Y2377913D02*
X1883539D01*
X1882039Y2376413D02*
Y2379413D01*
X1880539Y2174713D02*
X1883539D01*
X1882039Y2173213D02*
Y2176213D01*
X1905939Y2123913D02*
X1908938D01*
X1907439Y2122413D02*
Y2125413D01*
X1880539Y2073113D02*
X1883539D01*
X1882039Y2071613D02*
Y2074613D01*
X1905939Y2022313D02*
X1908938D01*
X1907439Y2020813D02*
Y2023813D01*
X1905939Y1920713D02*
X1908938D01*
X1907439Y1919213D02*
Y1922213D01*
X1880539Y1869913D02*
X1883539D01*
X1882039Y1868413D02*
Y1871413D01*
X1905939Y1819113D02*
X1908938D01*
X1907439Y1817613D02*
Y1820613D01*
X1905939Y1717513D02*
X1908938D01*
X1907439Y1716013D02*
Y1719013D01*
X1880539Y1666713D02*
X1883539D01*
X1882039Y1665213D02*
Y1668213D01*
X1880539Y1565113D02*
X1883539D01*
X1882039Y1563613D02*
Y1566613D01*
X1905939Y1514313D02*
X1908938D01*
X1907439Y1512813D02*
Y1515813D01*
X1880539Y1463513D02*
X1883539D01*
X1882039Y1462013D02*
Y1465013D01*
X1905939Y1311113D02*
X1908938D01*
X1907439Y1309613D02*
Y1312613D01*
X1880539Y1260313D02*
X1883539D01*
X1882039Y1258813D02*
Y1261813D01*
X1905939Y1209513D02*
X1908938D01*
X1907439Y1208013D02*
Y1211013D01*
X1880539Y1158713D02*
X1883539D01*
X1882039Y1157213D02*
Y1160213D01*
X1905939Y1107913D02*
X1908938D01*
X1907439Y1106413D02*
Y1109413D01*
X1880539Y1057113D02*
X1883539D01*
X1882039Y1055613D02*
Y1058613D01*
X1880539Y955513D02*
X1883539D01*
X1882039Y954013D02*
Y957013D01*
X1880539Y853913D02*
X1883539D01*
X1882039Y852413D02*
Y855413D01*
X1880539Y650713D02*
X1883539D01*
X1882039Y649213D02*
Y652213D01*
X1880539Y549113D02*
X1883539D01*
X1882039Y547613D02*
Y550613D01*
X1905939Y498313D02*
X1908938D01*
X1907439Y496813D02*
Y499813D01*
X1880539Y447513D02*
X1883539D01*
X1882039Y446013D02*
Y449013D01*
X1905939Y396713D02*
X1908938D01*
X1907439Y395213D02*
Y398213D01*
X1880539Y345913D02*
X1883539D01*
X1882039Y344413D02*
Y347413D01*
X1905939Y295113D02*
X1908938D01*
X1907439Y293613D02*
Y296613D01*
X1880539Y244313D02*
X1883539D01*
X1882039Y242813D02*
Y245813D01*
X1905939Y193513D02*
X1908938D01*
X1907439Y192013D02*
Y195013D01*
X1880539Y142713D02*
X1883539D01*
X1882039Y141213D02*
Y144213D01*
X1829739Y2377913D02*
X1832738D01*
X1831239Y2376413D02*
Y2379413D01*
X1829739Y2276313D02*
X1832738D01*
X1831239Y2274813D02*
Y2277813D01*
X1829739Y2073113D02*
X1832738D01*
X1831239Y2071613D02*
Y2074613D01*
X1855139Y1920713D02*
X1858138D01*
X1856639Y1919213D02*
Y1922213D01*
X1829739Y1869913D02*
X1832738D01*
X1831239Y1868413D02*
Y1871413D01*
X1855139Y1819113D02*
X1858138D01*
X1856639Y1817613D02*
Y1820613D01*
X1855139Y1717513D02*
X1858138D01*
X1856639Y1716013D02*
Y1719013D01*
X1829739Y1565113D02*
X1832738D01*
X1831239Y1563613D02*
Y1566613D01*
X1829739Y1463513D02*
X1832738D01*
X1831239Y1462013D02*
Y1465013D01*
X1855139Y1311113D02*
X1858138D01*
X1856639Y1309613D02*
Y1312613D01*
X1829739Y1260313D02*
X1832738D01*
X1831239Y1258813D02*
Y1261813D01*
X1855139Y1209513D02*
X1858138D01*
X1856639Y1208013D02*
Y1211013D01*
X1829739Y1158713D02*
X1832738D01*
X1831239Y1157213D02*
Y1160213D01*
X1855139Y1107913D02*
X1858138D01*
X1856639Y1106413D02*
Y1109413D01*
X1829739Y1057113D02*
X1832738D01*
X1831239Y1055613D02*
Y1058613D01*
X1855139Y1006313D02*
X1858138D01*
X1856639Y1004813D02*
Y1007813D01*
X1829739Y955513D02*
X1832738D01*
X1831239Y954013D02*
Y957013D01*
X1829739Y853913D02*
X1832738D01*
X1831239Y852413D02*
Y855413D01*
X1855139Y803113D02*
X1858138D01*
X1856639Y801613D02*
Y804613D01*
X1829739Y650713D02*
X1832738D01*
X1831239Y649213D02*
Y652213D01*
X1855139Y599913D02*
X1858138D01*
X1856639Y598413D02*
Y601413D01*
X1829739Y549113D02*
X1832738D01*
X1831239Y547613D02*
Y550613D01*
X1855139Y498313D02*
X1858138D01*
X1856639Y496813D02*
Y499813D01*
X1829739Y447513D02*
X1832738D01*
X1831239Y446013D02*
Y449013D01*
X1855139Y396713D02*
X1858138D01*
X1856639Y395213D02*
Y398213D01*
X1829739Y345913D02*
X1832738D01*
X1831239Y344413D02*
Y347413D01*
X1855139Y295113D02*
X1858138D01*
X1856639Y293613D02*
Y296613D01*
X1829739Y244313D02*
X1832738D01*
X1831239Y242813D02*
Y245813D01*
X1855139Y193513D02*
X1858138D01*
X1856639Y192013D02*
Y195013D01*
X1829739Y142713D02*
X1832738D01*
X1831239Y141213D02*
Y144213D01*
X1778939Y2377913D02*
X1781938D01*
X1780439Y2376413D02*
Y2379413D01*
X1804339Y2327113D02*
X1807339D01*
X1805839Y2325613D02*
Y2328613D01*
X1804339Y2225513D02*
X1807339D01*
X1805839Y2224013D02*
Y2227013D01*
X1804339Y2123913D02*
X1807339D01*
X1805839Y2122413D02*
Y2125413D01*
X1804339Y2022313D02*
X1807339D01*
X1805839Y2020813D02*
Y2023813D01*
X1778939Y1869913D02*
X1781938D01*
X1780439Y1868413D02*
Y1871413D01*
X1804339Y1819113D02*
X1807339D01*
X1805839Y1817613D02*
Y1820613D01*
X1778939Y1260313D02*
X1781938D01*
X1780439Y1258813D02*
Y1261813D01*
X1778939Y1158713D02*
X1781938D01*
X1780439Y1157213D02*
Y1160213D01*
X1778939Y1057113D02*
X1781938D01*
X1780439Y1055613D02*
Y1058613D01*
X1778939Y955513D02*
X1781938D01*
X1780439Y954013D02*
Y957013D01*
X1778939Y853913D02*
X1781938D01*
X1780439Y852413D02*
Y855413D01*
X1778939Y650713D02*
X1781938D01*
X1780439Y649213D02*
Y652213D01*
X1804339Y599913D02*
X1807339D01*
X1805839Y598413D02*
Y601413D01*
X1778939Y549113D02*
X1781938D01*
X1780439Y547613D02*
Y550613D01*
X1804339Y498313D02*
X1807339D01*
X1805839Y496813D02*
Y499813D01*
X1778939Y447513D02*
X1781938D01*
X1780439Y446013D02*
Y449013D01*
X1804339Y396713D02*
X1807339D01*
X1805839Y395213D02*
Y398213D01*
X1778939Y345913D02*
X1781938D01*
X1780439Y344413D02*
Y347413D01*
X1804339Y295113D02*
X1807339D01*
X1805839Y293613D02*
Y296613D01*
X1778939Y244313D02*
X1781938D01*
X1780439Y242813D02*
Y245813D01*
X1804339Y193513D02*
X1807339D01*
X1805839Y192013D02*
Y195013D01*
X1778939Y142713D02*
X1781938D01*
X1780439Y141213D02*
Y144213D01*
X1728139Y2377913D02*
X1731138D01*
X1729639Y2376413D02*
Y2379413D01*
X1753539Y2327113D02*
X1756539D01*
X1755039Y2325613D02*
Y2328613D01*
X1728139Y2276313D02*
X1731138D01*
X1729639Y2274813D02*
Y2277813D01*
X1753539Y2225513D02*
X1756539D01*
X1755039Y2224013D02*
Y2227013D01*
X1728139Y2174713D02*
X1731138D01*
X1729639Y2173213D02*
Y2176213D01*
X1753539Y2123913D02*
X1756539D01*
X1755039Y2122413D02*
Y2125413D01*
X1753539Y2022313D02*
X1756539D01*
X1755039Y2020813D02*
Y2023813D01*
X1753539Y1920713D02*
X1756539D01*
X1755039Y1919213D02*
Y1922213D01*
X1753539Y1819113D02*
X1756539D01*
X1755039Y1817613D02*
Y1820613D01*
X1728139Y1666713D02*
X1731138D01*
X1729639Y1665213D02*
Y1668213D01*
X1753539Y1514313D02*
X1756539D01*
X1755039Y1512813D02*
Y1515813D01*
X1728139Y1463513D02*
X1731138D01*
X1729639Y1462013D02*
Y1465013D01*
X1753539Y1311113D02*
X1756539D01*
X1755039Y1309613D02*
Y1312613D01*
X1728139Y1158713D02*
X1731138D01*
X1729639Y1157213D02*
Y1160213D01*
X1728139Y1057113D02*
X1731138D01*
X1729639Y1055613D02*
Y1058613D01*
X1728139Y955513D02*
X1731138D01*
X1729639Y954013D02*
Y957013D01*
X1728139Y853913D02*
X1731138D01*
X1729639Y852413D02*
Y855413D01*
X1728139Y650713D02*
X1731138D01*
X1729639Y649213D02*
Y652213D01*
X1728139Y549113D02*
X1731138D01*
X1729639Y547613D02*
Y550613D01*
X1753539Y498313D02*
X1756539D01*
X1755039Y496813D02*
Y499813D01*
X1728139Y447513D02*
X1731138D01*
X1729639Y446013D02*
Y449013D01*
X1753539Y396713D02*
X1756539D01*
X1755039Y395213D02*
Y398213D01*
X1753539Y295113D02*
X1756539D01*
X1755039Y293613D02*
Y296613D01*
X1753539Y193513D02*
X1756539D01*
X1755039Y192013D02*
Y195013D01*
X1728139Y142713D02*
X1731138D01*
X1729639Y141213D02*
Y144213D01*
X1677339Y2377913D02*
X1680338D01*
X1678839Y2376413D02*
Y2379413D01*
X1702739Y2327113D02*
X1705739D01*
X1704239Y2325613D02*
Y2328613D01*
X1677339Y2276313D02*
X1680338D01*
X1678839Y2274813D02*
Y2277813D01*
X1702739Y2225513D02*
X1705739D01*
X1704239Y2224013D02*
Y2227013D01*
X1677339Y2174713D02*
X1680338D01*
X1678839Y2173213D02*
Y2176213D01*
X1702739Y2123913D02*
X1705739D01*
X1704239Y2122413D02*
Y2125413D01*
X1677339Y2073113D02*
X1680338D01*
X1678839Y2071613D02*
Y2074613D01*
X1702739Y2022313D02*
X1705739D01*
X1704239Y2020813D02*
Y2023813D01*
X1702739Y1819113D02*
X1705739D01*
X1704239Y1817613D02*
Y1820613D01*
X1702739Y1717513D02*
X1705739D01*
X1704239Y1716013D02*
Y1719013D01*
X1677339Y1666713D02*
X1680338D01*
X1678839Y1665213D02*
Y1668213D01*
X1677339Y1565113D02*
X1680338D01*
X1678839Y1563613D02*
Y1566613D01*
X1702739Y1514313D02*
X1705739D01*
X1704239Y1512813D02*
Y1515813D01*
X1702739Y1311113D02*
X1705739D01*
X1704239Y1309613D02*
Y1312613D01*
X1702739Y1209513D02*
X1705739D01*
X1704239Y1208013D02*
Y1211013D01*
X1702739Y1107913D02*
X1705739D01*
X1704239Y1106413D02*
Y1109413D01*
X1702739Y803113D02*
X1705739D01*
X1704239Y801613D02*
Y804613D01*
X1702739Y396713D02*
X1705739D01*
X1704239Y395213D02*
Y398213D01*
X1702739Y295113D02*
X1705739D01*
X1704239Y293613D02*
Y296613D01*
X1702739Y193513D02*
X1705739D01*
X1704239Y192013D02*
Y195013D01*
X1626539Y2377913D02*
X1629539D01*
X1628039Y2376413D02*
Y2379413D01*
X1651939Y2327113D02*
X1654939D01*
X1653439Y2325613D02*
Y2328613D01*
X1626539Y2276313D02*
X1629539D01*
X1628039Y2274813D02*
Y2277813D01*
X1651939Y2225513D02*
X1654939D01*
X1653439Y2224013D02*
Y2227013D01*
X1626539Y2174713D02*
X1629539D01*
X1628039Y2173213D02*
Y2176213D01*
X1651939Y2123913D02*
X1654939D01*
X1653439Y2122413D02*
Y2125413D01*
X1651939Y2022313D02*
X1654939D01*
X1653439Y2020813D02*
Y2023813D01*
X1651939Y1819113D02*
X1654939D01*
X1653439Y1817613D02*
Y1820613D01*
X1651939Y1717513D02*
X1654939D01*
X1653439Y1716013D02*
Y1719013D01*
X1626539Y1565113D02*
X1629539D01*
X1628039Y1563613D02*
Y1566613D01*
X1651939Y1514313D02*
X1654939D01*
X1653439Y1512813D02*
Y1515813D01*
X1626539Y1463513D02*
X1629539D01*
X1628039Y1462013D02*
Y1465013D01*
X1651939Y1311113D02*
X1654939D01*
X1653439Y1309613D02*
Y1312613D01*
X1626539Y1260313D02*
X1629539D01*
X1628039Y1258813D02*
Y1261813D01*
X1651939Y1209513D02*
X1654939D01*
X1653439Y1208013D02*
Y1211013D01*
X1626539Y1158713D02*
X1629539D01*
X1628039Y1157213D02*
Y1160213D01*
X1651939Y1107913D02*
X1654939D01*
X1653439Y1106413D02*
Y1109413D01*
X1626539Y1057113D02*
X1629539D01*
X1628039Y1055613D02*
Y1058613D01*
X1651939Y1006313D02*
X1654939D01*
X1653439Y1004813D02*
Y1007813D01*
X1626539Y955513D02*
X1629539D01*
X1628039Y954013D02*
Y957013D01*
X1626539Y853913D02*
X1629539D01*
X1628039Y852413D02*
Y855413D01*
X1651939Y803113D02*
X1654939D01*
X1653439Y801613D02*
Y804613D01*
X1626539Y650713D02*
X1629539D01*
X1628039Y649213D02*
Y652213D01*
X1651939Y599913D02*
X1654939D01*
X1653439Y598413D02*
Y601413D01*
X1626539Y549113D02*
X1629539D01*
X1628039Y547613D02*
Y550613D01*
X1651939Y498313D02*
X1654939D01*
X1653439Y496813D02*
Y499813D01*
X1626539Y447513D02*
X1629539D01*
X1628039Y446013D02*
Y449013D01*
X1651939Y396713D02*
X1654939D01*
X1653439Y395213D02*
Y398213D01*
X1626539Y345913D02*
X1629539D01*
X1628039Y344413D02*
Y347413D01*
X1651939Y295113D02*
X1654939D01*
X1653439Y293613D02*
Y296613D01*
X1626539Y244313D02*
X1629539D01*
X1628039Y242813D02*
Y245813D01*
X1651939Y193513D02*
X1654939D01*
X1653439Y192013D02*
Y195013D01*
X1626539Y142713D02*
X1629539D01*
X1628039Y141213D02*
Y144213D01*
X1575739Y2377913D02*
X1578739D01*
X1577239Y2376413D02*
Y2379413D01*
X1601139Y2327113D02*
X1604138D01*
X1602639Y2325613D02*
Y2328613D01*
X1575739Y2276313D02*
X1578739D01*
X1577239Y2274813D02*
Y2277813D01*
X1601139Y2225513D02*
X1604138D01*
X1602639Y2224013D02*
Y2227013D01*
X1575739Y2174713D02*
X1578739D01*
X1577239Y2173213D02*
Y2176213D01*
X1601139Y2123913D02*
X1604138D01*
X1602639Y2122413D02*
Y2125413D01*
X1601139Y1920713D02*
X1604138D01*
X1602639Y1919213D02*
Y1922213D01*
X1601139Y1819113D02*
X1604138D01*
X1602639Y1817613D02*
Y1820613D01*
X1575739Y853913D02*
X1578739D01*
X1577239Y852413D02*
Y855413D01*
X1575739Y650713D02*
X1578739D01*
X1577239Y649213D02*
Y652213D01*
X1575739Y549113D02*
X1578739D01*
X1577239Y547613D02*
Y550613D01*
X1575739Y447513D02*
X1578739D01*
X1577239Y446013D02*
Y449013D01*
X1575739Y345913D02*
X1578739D01*
X1577239Y344413D02*
Y347413D01*
X1575739Y244313D02*
X1578739D01*
X1577239Y242813D02*
Y245813D01*
X1601139Y193513D02*
X1604138D01*
X1602639Y192013D02*
Y195013D01*
X1575739Y142713D02*
X1578739D01*
X1577239Y141213D02*
Y144213D01*
X1524939Y2377913D02*
X1527939D01*
X1526439Y2376413D02*
Y2379413D01*
X1550339Y2327113D02*
X1553338D01*
X1551839Y2325613D02*
Y2328613D01*
X1524939Y2276313D02*
X1527939D01*
X1526439Y2274813D02*
Y2277813D01*
X1550339Y2225513D02*
X1553338D01*
X1551839Y2224013D02*
Y2227013D01*
X1524939Y2174713D02*
X1527939D01*
X1526439Y2173213D02*
Y2176213D01*
X1550339Y2123913D02*
X1553338D01*
X1551839Y2122413D02*
Y2125413D01*
X1550339Y2022313D02*
X1553338D01*
X1551839Y2020813D02*
Y2023813D01*
X1550339Y1819113D02*
X1553338D01*
X1551839Y1817613D02*
Y1820613D01*
X1550339Y1514313D02*
X1553338D01*
X1551839Y1512813D02*
Y1515813D01*
X1524939Y1463513D02*
X1527939D01*
X1526439Y1462013D02*
Y1465013D01*
X1550339Y1311113D02*
X1553338D01*
X1551839Y1309613D02*
Y1312613D01*
X1524939Y1260313D02*
X1527939D01*
X1526439Y1258813D02*
Y1261813D01*
X1550339Y1209513D02*
X1553338D01*
X1551839Y1208013D02*
Y1211013D01*
X1524939Y1158713D02*
X1527939D01*
X1526439Y1157213D02*
Y1160213D01*
X1524939Y1057113D02*
X1527939D01*
X1526439Y1055613D02*
Y1058613D01*
X1550339Y1006313D02*
X1553338D01*
X1551839Y1004813D02*
Y1007813D01*
X1524939Y955513D02*
X1527939D01*
X1526439Y954013D02*
Y957013D01*
X1524939Y853913D02*
X1527939D01*
X1526439Y852413D02*
Y855413D01*
X1524939Y650713D02*
X1527939D01*
X1526439Y649213D02*
Y652213D01*
X1524939Y549113D02*
X1527939D01*
X1526439Y547613D02*
Y550613D01*
X1550339Y498313D02*
X1553338D01*
X1551839Y496813D02*
Y499813D01*
X1550339Y396713D02*
X1553338D01*
X1551839Y395213D02*
Y398213D01*
X1524939Y345913D02*
X1527939D01*
X1526439Y344413D02*
Y347413D01*
X1550339Y295113D02*
X1553338D01*
X1551839Y293613D02*
Y296613D01*
X1550339Y193513D02*
X1553338D01*
X1551839Y192013D02*
Y195013D01*
X1524939Y142713D02*
X1527939D01*
X1526439Y141213D02*
Y144213D01*
X1499539Y2225513D02*
X1502538D01*
X1501039Y2224013D02*
Y2227013D01*
X1474139Y2174713D02*
X1477139D01*
X1475639Y2173213D02*
Y2176213D01*
X1499539Y2123913D02*
X1502538D01*
X1501039Y2122413D02*
Y2125413D01*
X1499539Y2022313D02*
X1502538D01*
X1501039Y2020813D02*
Y2023813D01*
X1499539Y1920713D02*
X1502538D01*
X1501039Y1919213D02*
Y1922213D01*
X1499539Y1819113D02*
X1502538D01*
X1501039Y1817613D02*
Y1820613D01*
X1499539Y1717513D02*
X1502538D01*
X1501039Y1716013D02*
Y1719013D01*
X1474139Y1666713D02*
X1477139D01*
X1475639Y1665213D02*
Y1668213D01*
X1474139Y1565113D02*
X1477139D01*
X1475639Y1563613D02*
Y1566613D01*
X1474139Y1463513D02*
X1477139D01*
X1475639Y1462013D02*
Y1465013D01*
X1474139Y1260313D02*
X1477139D01*
X1475639Y1258813D02*
Y1261813D01*
X1474139Y1158713D02*
X1477139D01*
X1475639Y1157213D02*
Y1160213D01*
X1474139Y1057113D02*
X1477139D01*
X1475639Y1055613D02*
Y1058613D01*
X1474139Y955513D02*
X1477139D01*
X1475639Y954013D02*
Y957013D01*
X1474139Y853913D02*
X1477139D01*
X1475639Y852413D02*
Y855413D01*
X1499539Y803113D02*
X1502538D01*
X1501039Y801613D02*
Y804613D01*
X1474139Y650713D02*
X1477139D01*
X1475639Y649213D02*
Y652213D01*
X1474139Y549113D02*
X1477139D01*
X1475639Y547613D02*
Y550613D01*
X1474139Y447513D02*
X1477139D01*
X1475639Y446013D02*
Y449013D01*
X1474139Y345913D02*
X1477139D01*
X1475639Y344413D02*
Y347413D01*
X1474139Y244313D02*
X1477139D01*
X1475639Y242813D02*
Y245813D01*
X1474139Y142713D02*
X1477139D01*
X1475639Y141213D02*
Y144213D01*
X1448739Y2327113D02*
X1451738D01*
X1450239Y2325613D02*
Y2328613D01*
X1423339Y2276313D02*
X1426339D01*
X1424839Y2274813D02*
Y2277813D01*
X1448739Y2225513D02*
X1451738D01*
X1450239Y2224013D02*
Y2227013D01*
X1448739Y2123913D02*
X1451738D01*
X1450239Y2122413D02*
Y2125413D01*
X1448739Y2022313D02*
X1451738D01*
X1450239Y2020813D02*
Y2023813D01*
X1448739Y1819113D02*
X1451738D01*
X1450239Y1817613D02*
Y1820613D01*
X1448739Y1717513D02*
X1451738D01*
X1450239Y1716013D02*
Y1719013D01*
X1423339Y1666713D02*
X1426339D01*
X1424839Y1665213D02*
Y1668213D01*
X1423339Y1565113D02*
X1426339D01*
X1424839Y1563613D02*
Y1566613D01*
X1448739Y1514313D02*
X1451738D01*
X1450239Y1512813D02*
Y1515813D01*
X1423339Y1463513D02*
X1426339D01*
X1424839Y1462013D02*
Y1465013D01*
X1448739Y1311113D02*
X1451738D01*
X1450239Y1309613D02*
Y1312613D01*
X1423339Y1260313D02*
X1426339D01*
X1424839Y1258813D02*
Y1261813D01*
X1448739Y1209513D02*
X1451738D01*
X1450239Y1208013D02*
Y1211013D01*
X1423339Y1158713D02*
X1426339D01*
X1424839Y1157213D02*
Y1160213D01*
X1448739Y1107913D02*
X1451738D01*
X1450239Y1106413D02*
Y1109413D01*
X1423339Y1057113D02*
X1426339D01*
X1424839Y1055613D02*
Y1058613D01*
X1423339Y955513D02*
X1426339D01*
X1424839Y954013D02*
Y957013D01*
X1423339Y853913D02*
X1426339D01*
X1424839Y852413D02*
Y855413D01*
X1423339Y650713D02*
X1426339D01*
X1424839Y649213D02*
Y652213D01*
X1423339Y549113D02*
X1426339D01*
X1424839Y547613D02*
Y550613D01*
X1448739Y498313D02*
X1451738D01*
X1450239Y496813D02*
Y499813D01*
X1423339Y447513D02*
X1426339D01*
X1424839Y446013D02*
Y449013D01*
X1448739Y396713D02*
X1451738D01*
X1450239Y395213D02*
Y398213D01*
X1423339Y345913D02*
X1426339D01*
X1424839Y344413D02*
Y347413D01*
X1448739Y295113D02*
X1451738D01*
X1450239Y293613D02*
Y296613D01*
X1423339Y244313D02*
X1426339D01*
X1424839Y242813D02*
Y245813D01*
X1448739Y193513D02*
X1451738D01*
X1450239Y192013D02*
Y195013D01*
X1423339Y142713D02*
X1426339D01*
X1424839Y141213D02*
Y144213D01*
X1372539Y2377913D02*
X1375538D01*
X1374039Y2376413D02*
Y2379413D01*
X1397939Y2327113D02*
X1400939D01*
X1399439Y2325613D02*
Y2328613D01*
X1372539Y2276313D02*
X1375538D01*
X1374039Y2274813D02*
Y2277813D01*
X1397939Y1514313D02*
X1400939D01*
X1399439Y1512813D02*
Y1515813D01*
X1397939Y1311113D02*
X1400939D01*
X1399439Y1309613D02*
Y1312613D01*
X1397939Y1209513D02*
X1400939D01*
X1399439Y1208013D02*
Y1211013D01*
X1397939Y1107913D02*
X1400939D01*
X1399439Y1106413D02*
Y1109413D01*
X1397939Y1006313D02*
X1400939D01*
X1399439Y1004813D02*
Y1007813D01*
X1397939Y803113D02*
X1400939D01*
X1399439Y801613D02*
Y804613D01*
X1397939Y599913D02*
X1400939D01*
X1399439Y598413D02*
Y601413D01*
X1397939Y498313D02*
X1400939D01*
X1399439Y496813D02*
Y499813D01*
X1372539Y447513D02*
X1375538D01*
X1374039Y446013D02*
Y449013D01*
X1397939Y396713D02*
X1400939D01*
X1399439Y395213D02*
Y398213D01*
X1372539Y345913D02*
X1375538D01*
X1374039Y344413D02*
Y347413D01*
X1397939Y295113D02*
X1400939D01*
X1399439Y293613D02*
Y296613D01*
X1397939Y193513D02*
X1400939D01*
X1399439Y192013D02*
Y195013D01*
X1372539Y142713D02*
X1375538D01*
X1374039Y141213D02*
Y144213D01*
X1347139Y2327113D02*
X1350139D01*
X1348639Y2325613D02*
Y2328613D01*
X1321739Y1158713D02*
X1324738D01*
X1323239Y1157213D02*
Y1160213D01*
X1347139Y1107913D02*
X1350139D01*
X1348639Y1106413D02*
Y1109413D01*
X1321739Y1057113D02*
X1324738D01*
X1323239Y1055613D02*
Y1058613D01*
X1347139Y1006313D02*
X1350139D01*
X1348639Y1004813D02*
Y1007813D01*
X1321739Y955513D02*
X1324738D01*
X1323239Y954013D02*
Y957013D01*
X1321739Y853913D02*
X1324738D01*
X1323239Y852413D02*
Y855413D01*
X1347139Y803113D02*
X1350139D01*
X1348639Y801613D02*
Y804613D01*
X1321739Y650713D02*
X1324738D01*
X1323239Y649213D02*
Y652213D01*
X1347139Y599913D02*
X1350139D01*
X1348639Y598413D02*
Y601413D01*
X1347139Y498313D02*
X1350139D01*
X1348639Y496813D02*
Y499813D01*
X1347139Y396713D02*
X1350139D01*
X1348639Y395213D02*
Y398213D01*
X1347139Y295113D02*
X1350139D01*
X1348639Y293613D02*
Y296613D01*
X1347139Y193513D02*
X1350139D01*
X1348639Y192013D02*
Y195013D01*
X1270939Y2276313D02*
X1273939D01*
X1272439Y2274813D02*
Y2277813D01*
X1296339Y1717513D02*
X1299339D01*
X1297839Y1716013D02*
Y1719013D01*
X1270939Y1666713D02*
X1273939D01*
X1272439Y1665213D02*
Y1668213D01*
X1296339Y1514313D02*
X1299339D01*
X1297839Y1512813D02*
Y1515813D01*
X1270939Y1463513D02*
X1273939D01*
X1272439Y1462013D02*
Y1465013D01*
X1296339Y1311113D02*
X1299339D01*
X1297839Y1309613D02*
Y1312613D01*
X1296339Y1209513D02*
X1299339D01*
X1297839Y1208013D02*
Y1211013D01*
X1270939Y1057113D02*
X1273939D01*
X1272439Y1055613D02*
Y1058613D01*
X1270939Y955513D02*
X1273939D01*
X1272439Y954013D02*
Y957013D01*
X1270939Y853913D02*
X1273939D01*
X1272439Y852413D02*
Y855413D01*
X1296339Y803113D02*
X1299339D01*
X1297839Y801613D02*
Y804613D01*
X1270939Y650713D02*
X1273939D01*
X1272439Y649213D02*
Y652213D01*
X1270939Y549113D02*
X1273939D01*
X1272439Y547613D02*
Y550613D01*
X1296339Y498313D02*
X1299339D01*
X1297839Y496813D02*
Y499813D01*
X1270939Y447513D02*
X1273939D01*
X1272439Y446013D02*
Y449013D01*
X1296339Y396713D02*
X1299339D01*
X1297839Y395213D02*
Y398213D01*
X1296339Y295113D02*
X1299339D01*
X1297839Y293613D02*
Y296613D01*
X1296339Y193513D02*
X1299339D01*
X1297839Y192013D02*
Y195013D01*
X1270939Y142713D02*
X1273939D01*
X1272439Y141213D02*
Y144213D01*
X1245539Y1717513D02*
X1248539D01*
X1247039Y1716013D02*
Y1719013D01*
X1220139Y1666713D02*
X1223139D01*
X1221639Y1665213D02*
Y1668213D01*
X1245539Y1514313D02*
X1248539D01*
X1247039Y1512813D02*
Y1515813D01*
X1220139Y1463513D02*
X1223139D01*
X1221639Y1462013D02*
Y1465013D01*
X1245539Y1311113D02*
X1248539D01*
X1247039Y1309613D02*
Y1312613D01*
X1220139Y1260313D02*
X1223139D01*
X1221639Y1258813D02*
Y1261813D01*
X1245539Y1209513D02*
X1248539D01*
X1247039Y1208013D02*
Y1211013D01*
X1220139Y1158713D02*
X1223139D01*
X1221639Y1157213D02*
Y1160213D01*
X1245539Y1107913D02*
X1248539D01*
X1247039Y1106413D02*
Y1109413D01*
X1220139Y1057113D02*
X1223139D01*
X1221639Y1055613D02*
Y1058613D01*
X1220139Y955513D02*
X1223139D01*
X1221639Y954013D02*
Y957013D01*
X1220139Y853913D02*
X1223139D01*
X1221639Y852413D02*
Y855413D01*
X1220139Y650713D02*
X1223139D01*
X1221639Y649213D02*
Y652213D01*
X1220139Y549113D02*
X1223139D01*
X1221639Y547613D02*
Y550613D01*
X1245539Y498313D02*
X1248539D01*
X1247039Y496813D02*
Y499813D01*
X1220139Y447513D02*
X1223139D01*
X1221639Y446013D02*
Y449013D01*
X1245539Y396713D02*
X1248539D01*
X1247039Y395213D02*
Y398213D01*
X1220139Y345913D02*
X1223139D01*
X1221639Y344413D02*
Y347413D01*
X1245539Y295113D02*
X1248539D01*
X1247039Y293613D02*
Y296613D01*
X1220139Y244313D02*
X1223139D01*
X1221639Y242813D02*
Y245813D01*
X1245539Y193513D02*
X1248539D01*
X1247039Y192013D02*
Y195013D01*
X1220139Y142713D02*
X1223139D01*
X1221639Y141213D02*
Y144213D01*
X1194739Y1717513D02*
X1197738D01*
X1196239Y1716013D02*
Y1719013D01*
X1169339Y1463513D02*
X1172338D01*
X1170839Y1462013D02*
Y1465013D01*
X1194739Y1311113D02*
X1197738D01*
X1196239Y1309613D02*
Y1312613D01*
X1169339Y1260313D02*
X1172338D01*
X1170839Y1258813D02*
Y1261813D01*
X1194739Y1209513D02*
X1197738D01*
X1196239Y1208013D02*
Y1211013D01*
X1169339Y1158713D02*
X1172338D01*
X1170839Y1157213D02*
Y1160213D01*
X1194739Y1107913D02*
X1197738D01*
X1196239Y1106413D02*
Y1109413D01*
X1169339Y1057113D02*
X1172338D01*
X1170839Y1055613D02*
Y1058613D01*
X1194739Y1006313D02*
X1197738D01*
X1196239Y1004813D02*
Y1007813D01*
X1169339Y955513D02*
X1172338D01*
X1170839Y954013D02*
Y957013D01*
X1169339Y853913D02*
X1172338D01*
X1170839Y852413D02*
Y855413D01*
X1194739Y803113D02*
X1197738D01*
X1196239Y801613D02*
Y804613D01*
X1169339Y650713D02*
X1172338D01*
X1170839Y649213D02*
Y652213D01*
X1194739Y599913D02*
X1197738D01*
X1196239Y598413D02*
Y601413D01*
X1169339Y549113D02*
X1172338D01*
X1170839Y547613D02*
Y550613D01*
X1194739Y498313D02*
X1197738D01*
X1196239Y496813D02*
Y499813D01*
X1169339Y447513D02*
X1172338D01*
X1170839Y446013D02*
Y449013D01*
X1194739Y396713D02*
X1197738D01*
X1196239Y395213D02*
Y398213D01*
X1169339Y345913D02*
X1172338D01*
X1170839Y344413D02*
Y347413D01*
X1194739Y295113D02*
X1197738D01*
X1196239Y293613D02*
Y296613D01*
X1169339Y244313D02*
X1172338D01*
X1170839Y242813D02*
Y245813D01*
X1194739Y193513D02*
X1197738D01*
X1196239Y192013D02*
Y195013D01*
X1169339Y142713D02*
X1172338D01*
X1170839Y141213D02*
Y144213D01*
X1118539Y1260313D02*
X1121538D01*
X1120039Y1258813D02*
Y1261813D01*
X1118539Y1158713D02*
X1121538D01*
X1120039Y1157213D02*
Y1160213D01*
X1118539Y1057113D02*
X1121538D01*
X1120039Y1055613D02*
Y1058613D01*
X1118539Y955513D02*
X1121538D01*
X1120039Y954013D02*
Y957013D01*
X1118539Y853913D02*
X1121538D01*
X1120039Y852413D02*
Y855413D01*
X1118539Y650713D02*
X1121538D01*
X1120039Y649213D02*
Y652213D01*
X1143939Y599913D02*
X1146938D01*
X1145439Y598413D02*
Y601413D01*
X1118539Y549113D02*
X1121538D01*
X1120039Y547613D02*
Y550613D01*
X1143939Y498313D02*
X1146938D01*
X1145439Y496813D02*
Y499813D01*
X1118539Y447513D02*
X1121538D01*
X1120039Y446013D02*
Y449013D01*
X1143939Y396713D02*
X1146938D01*
X1145439Y395213D02*
Y398213D01*
X1118539Y345913D02*
X1121538D01*
X1120039Y344413D02*
Y347413D01*
X1143939Y295113D02*
X1146938D01*
X1145439Y293613D02*
Y296613D01*
X1118539Y244313D02*
X1121538D01*
X1120039Y242813D02*
Y245813D01*
X1143939Y193513D02*
X1146938D01*
X1145439Y192013D02*
Y195013D01*
X1118539Y142713D02*
X1121538D01*
X1120039Y141213D02*
Y144213D01*
X1067739Y1666713D02*
X1070739D01*
X1069239Y1665213D02*
Y1668213D01*
X1093139Y1514313D02*
X1096139D01*
X1094639Y1512813D02*
Y1515813D01*
X1067739Y1463513D02*
X1070739D01*
X1069239Y1462013D02*
Y1465013D01*
X1093139Y1311113D02*
X1096139D01*
X1094639Y1309613D02*
Y1312613D01*
X1067739Y1158713D02*
X1070739D01*
X1069239Y1157213D02*
Y1160213D01*
X1067739Y1057113D02*
X1070739D01*
X1069239Y1055613D02*
Y1058613D01*
X1067739Y955513D02*
X1070739D01*
X1069239Y954013D02*
Y957013D01*
X1067739Y853913D02*
X1070739D01*
X1069239Y852413D02*
Y855413D01*
X1067739Y650713D02*
X1070739D01*
X1069239Y649213D02*
Y652213D01*
X1067739Y549113D02*
X1070739D01*
X1069239Y547613D02*
Y550613D01*
X1093139Y498313D02*
X1096139D01*
X1094639Y496813D02*
Y499813D01*
X1067739Y447513D02*
X1070739D01*
X1069239Y446013D02*
Y449013D01*
X1093139Y396713D02*
X1096139D01*
X1094639Y395213D02*
Y398213D01*
X1093139Y295113D02*
X1096139D01*
X1094639Y293613D02*
Y296613D01*
X1093139Y193513D02*
X1096139D01*
X1094639Y192013D02*
Y195013D01*
X1067739Y142713D02*
X1070739D01*
X1069239Y141213D02*
Y144213D01*
X1042339Y1717513D02*
X1045339D01*
X1043839Y1716013D02*
Y1719013D01*
X1016939Y1666713D02*
X1019939D01*
X1018439Y1665213D02*
Y1668213D01*
X1042339Y1514313D02*
X1045339D01*
X1043839Y1512813D02*
Y1515813D01*
X1042339Y1311113D02*
X1045339D01*
X1043839Y1309613D02*
Y1312613D01*
X1042339Y1209513D02*
X1045339D01*
X1043839Y1208013D02*
Y1211013D01*
X1042339Y1107913D02*
X1045339D01*
X1043839Y1106413D02*
Y1109413D01*
X1042339Y803113D02*
X1045339D01*
X1043839Y801613D02*
Y804613D01*
X1042339Y396713D02*
X1045339D01*
X1043839Y395213D02*
Y398213D01*
X1042339Y295113D02*
X1045339D01*
X1043839Y293613D02*
Y296613D01*
X1042339Y193513D02*
X1045339D01*
X1043839Y192013D02*
Y195013D01*
X991539Y1717513D02*
X994538D01*
X993039Y1716013D02*
Y1719013D01*
X991539Y1514313D02*
X994538D01*
X993039Y1512813D02*
Y1515813D01*
X966139Y1463513D02*
X969138D01*
X967639Y1462013D02*
Y1465013D01*
X991539Y1311113D02*
X994538D01*
X993039Y1309613D02*
Y1312613D01*
X966139Y1260313D02*
X969138D01*
X967639Y1258813D02*
Y1261813D01*
X991539Y1209513D02*
X994538D01*
X993039Y1208013D02*
Y1211013D01*
X966139Y1158713D02*
X969138D01*
X967639Y1157213D02*
Y1160213D01*
X991539Y1107913D02*
X994538D01*
X993039Y1106413D02*
Y1109413D01*
X966139Y1057113D02*
X969138D01*
X967639Y1055613D02*
Y1058613D01*
X991539Y1006313D02*
X994538D01*
X993039Y1004813D02*
Y1007813D01*
X991539Y904713D02*
X994538D01*
X993039Y903213D02*
Y906213D01*
X966139Y853913D02*
X969138D01*
X967639Y852413D02*
Y855413D01*
X991539Y803113D02*
X994538D01*
X993039Y801613D02*
Y804613D01*
X966139Y650713D02*
X969138D01*
X967639Y649213D02*
Y652213D01*
X991539Y599913D02*
X994538D01*
X993039Y598413D02*
Y601413D01*
X966139Y549113D02*
X969138D01*
X967639Y547613D02*
Y550613D01*
X991539Y498313D02*
X994538D01*
X993039Y496813D02*
Y499813D01*
X966139Y447513D02*
X969138D01*
X967639Y446013D02*
Y449013D01*
X991539Y396713D02*
X994538D01*
X993039Y395213D02*
Y398213D01*
X966139Y345913D02*
X969138D01*
X967639Y344413D02*
Y347413D01*
X991539Y295113D02*
X994538D01*
X993039Y293613D02*
Y296613D01*
X966139Y244313D02*
X969138D01*
X967639Y242813D02*
Y245813D01*
X991539Y193513D02*
X994538D01*
X993039Y192013D02*
Y195013D01*
X966139Y142713D02*
X969138D01*
X967639Y141213D02*
Y144213D01*
X940739Y1006313D02*
X943738D01*
X942239Y1004813D02*
Y1007813D01*
X940739Y803113D02*
X943738D01*
X942239Y801613D02*
Y804613D01*
X940739Y599913D02*
X943738D01*
X942239Y598413D02*
Y601413D01*
X940739Y498313D02*
X943738D01*
X942239Y496813D02*
Y499813D01*
X940739Y396713D02*
X943738D01*
X942239Y395213D02*
Y398213D01*
X940739Y295113D02*
X943738D01*
X942239Y293613D02*
Y296613D01*
X940739Y193513D02*
X943738D01*
X942239Y192013D02*
Y195013D01*
X915339Y142713D02*
X918338D01*
X916839Y141213D02*
Y144213D01*
X915339Y41113D02*
X918338D01*
X916839Y39613D02*
Y42613D01*
X889939Y1514313D02*
X892939D01*
X891439Y1512813D02*
Y1515813D01*
X864539Y1463513D02*
X867539D01*
X866039Y1462013D02*
Y1465013D01*
X889939Y1311113D02*
X892939D01*
X891439Y1309613D02*
Y1312613D01*
X864539Y1260313D02*
X867539D01*
X866039Y1258813D02*
Y1261813D01*
X889939Y1209513D02*
X892939D01*
X891439Y1208013D02*
Y1211013D01*
X864539Y1158713D02*
X867539D01*
X866039Y1157213D02*
Y1160213D01*
X864539Y1057113D02*
X867539D01*
X866039Y1055613D02*
Y1058613D01*
X864539Y853913D02*
X867539D01*
X866039Y852413D02*
Y855413D01*
X864539Y650713D02*
X867539D01*
X866039Y649213D02*
Y652213D01*
X864539Y549113D02*
X867539D01*
X866039Y547613D02*
Y550613D01*
X889939Y498313D02*
X892939D01*
X891439Y496813D02*
Y499813D01*
X889939Y396713D02*
X892939D01*
X891439Y395213D02*
Y398213D01*
X864539Y345913D02*
X867539D01*
X866039Y344413D02*
Y347413D01*
X889939Y295113D02*
X892939D01*
X891439Y293613D02*
Y296613D01*
X889939Y193513D02*
X892939D01*
X891439Y192013D02*
Y195013D01*
X864539Y142713D02*
X867539D01*
X866039Y141213D02*
Y144213D01*
X864539Y41113D02*
X867539D01*
X866039Y39613D02*
Y42613D01*
X813739Y2377913D02*
X816739D01*
X815239Y2376413D02*
Y2379413D01*
X839139Y2123913D02*
X842139D01*
X840639Y2122413D02*
Y2125413D01*
X813739Y2073113D02*
X816739D01*
X815239Y2071613D02*
Y2074613D01*
X839139Y2022313D02*
X842139D01*
X840639Y2020813D02*
Y2023813D01*
X813739Y1971513D02*
X816739D01*
X815239Y1970013D02*
Y1973013D01*
X839139Y1920713D02*
X842139D01*
X840639Y1919213D02*
Y1922213D01*
X839139Y1819113D02*
X842139D01*
X840639Y1817613D02*
Y1820613D01*
X839139Y1717513D02*
X842139D01*
X840639Y1716013D02*
Y1719013D01*
X813739Y1666713D02*
X816739D01*
X815239Y1665213D02*
Y1668213D01*
X813739Y1463513D02*
X816739D01*
X815239Y1462013D02*
Y1465013D01*
X813739Y1260313D02*
X816739D01*
X815239Y1258813D02*
Y1261813D01*
X813739Y1158713D02*
X816739D01*
X815239Y1157213D02*
Y1160213D01*
X813739Y1057113D02*
X816739D01*
X815239Y1055613D02*
Y1058613D01*
X813739Y955513D02*
X816739D01*
X815239Y954013D02*
Y957013D01*
X813739Y853913D02*
X816739D01*
X815239Y852413D02*
Y855413D01*
X839139Y803113D02*
X842139D01*
X840639Y801613D02*
Y804613D01*
X813739Y650713D02*
X816739D01*
X815239Y649213D02*
Y652213D01*
X813739Y549113D02*
X816739D01*
X815239Y547613D02*
Y550613D01*
X813739Y447513D02*
X816739D01*
X815239Y446013D02*
Y449013D01*
X813739Y345913D02*
X816739D01*
X815239Y344413D02*
Y347413D01*
X813739Y244313D02*
X816739D01*
X815239Y242813D02*
Y245813D01*
X813739Y142713D02*
X816739D01*
X815239Y141213D02*
Y144213D01*
X762939Y2377913D02*
X765938D01*
X764439Y2376413D02*
Y2379413D01*
X788339Y2123913D02*
X791339D01*
X789839Y2122413D02*
Y2125413D01*
X762939Y2073113D02*
X765938D01*
X764439Y2071613D02*
Y2074613D01*
X762939Y1869913D02*
X765938D01*
X764439Y1868413D02*
Y1871413D01*
X788339Y1819113D02*
X791339D01*
X789839Y1817613D02*
Y1820613D01*
X788339Y1717513D02*
X791339D01*
X789839Y1716013D02*
Y1719013D01*
X762939Y1666713D02*
X765938D01*
X764439Y1665213D02*
Y1668213D01*
X788339Y1514313D02*
X791339D01*
X789839Y1512813D02*
Y1515813D01*
X762939Y1463513D02*
X765938D01*
X764439Y1462013D02*
Y1465013D01*
X788339Y1311113D02*
X791339D01*
X789839Y1309613D02*
Y1312613D01*
X762939Y1260313D02*
X765938D01*
X764439Y1258813D02*
Y1261813D01*
X788339Y1209513D02*
X791339D01*
X789839Y1208013D02*
Y1211013D01*
X762939Y1158713D02*
X765938D01*
X764439Y1157213D02*
Y1160213D01*
X788339Y1107913D02*
X791339D01*
X789839Y1106413D02*
Y1109413D01*
X762939Y1057113D02*
X765938D01*
X764439Y1055613D02*
Y1058613D01*
X762939Y955513D02*
X765938D01*
X764439Y954013D02*
Y957013D01*
X762939Y853913D02*
X765938D01*
X764439Y852413D02*
Y855413D01*
X762939Y650713D02*
X765938D01*
X764439Y649213D02*
Y652213D01*
X762939Y549113D02*
X765938D01*
X764439Y547613D02*
Y550613D01*
X788339Y498313D02*
X791339D01*
X789839Y496813D02*
Y499813D01*
X762939Y447513D02*
X765938D01*
X764439Y446013D02*
Y449013D01*
X788339Y396713D02*
X791339D01*
X789839Y395213D02*
Y398213D01*
X762939Y345913D02*
X765938D01*
X764439Y344413D02*
Y347413D01*
X788339Y295113D02*
X791339D01*
X789839Y293613D02*
Y296613D01*
X762939Y244313D02*
X765938D01*
X764439Y242813D02*
Y245813D01*
X788339Y193513D02*
X791339D01*
X789839Y192013D02*
Y195013D01*
X762939Y142713D02*
X765938D01*
X764439Y141213D02*
Y144213D01*
X712139Y2377913D02*
X715138D01*
X713639Y2376413D02*
Y2379413D01*
X737539Y2123913D02*
X740538D01*
X739039Y2122413D02*
Y2125413D01*
X712139Y2073113D02*
X715138D01*
X713639Y2071613D02*
Y2074613D01*
X737539Y2022313D02*
X740538D01*
X739039Y2020813D02*
Y2023813D01*
X712139Y1971513D02*
X715138D01*
X713639Y1970013D02*
Y1973013D01*
X737539Y1920713D02*
X740538D01*
X739039Y1919213D02*
Y1922213D01*
X712139Y1869913D02*
X715138D01*
X713639Y1868413D02*
Y1871413D01*
X737539Y1819113D02*
X740538D01*
X739039Y1817613D02*
Y1820613D01*
X737539Y1514313D02*
X740538D01*
X739039Y1512813D02*
Y1515813D01*
X737539Y1311113D02*
X740538D01*
X739039Y1309613D02*
Y1312613D01*
X737539Y1209513D02*
X740538D01*
X739039Y1208013D02*
Y1211013D01*
X737539Y1107913D02*
X740538D01*
X739039Y1106413D02*
Y1109413D01*
X737539Y1006313D02*
X740538D01*
X739039Y1004813D02*
Y1007813D01*
X737539Y803113D02*
X740538D01*
X739039Y801613D02*
Y804613D01*
X737539Y599913D02*
X740538D01*
X739039Y598413D02*
Y601413D01*
X737539Y498313D02*
X740538D01*
X739039Y496813D02*
Y499813D01*
X712139Y447513D02*
X715138D01*
X713639Y446013D02*
Y449013D01*
X737539Y396713D02*
X740538D01*
X739039Y395213D02*
Y398213D01*
X712139Y345913D02*
X715138D01*
X713639Y344413D02*
Y347413D01*
X737539Y295113D02*
X740538D01*
X739039Y293613D02*
Y296613D01*
X737539Y193513D02*
X740538D01*
X739039Y192013D02*
Y195013D01*
X712139Y142713D02*
X715138D01*
X713639Y141213D02*
Y144213D01*
X661339Y2377913D02*
X664339D01*
X662839Y2376413D02*
Y2379413D01*
X686739Y2123913D02*
X689738D01*
X688239Y2122413D02*
Y2125413D01*
X686739Y2022313D02*
X689738D01*
X688239Y2020813D02*
Y2023813D01*
X686739Y1920713D02*
X689738D01*
X688239Y1919213D02*
Y1922213D01*
X686739Y1819113D02*
X689738D01*
X688239Y1817613D02*
Y1820613D01*
X661339Y1158713D02*
X664339D01*
X662839Y1157213D02*
Y1160213D01*
X686739Y1107913D02*
X689738D01*
X688239Y1106413D02*
Y1109413D01*
X661339Y1057113D02*
X664339D01*
X662839Y1055613D02*
Y1058613D01*
X686739Y1006313D02*
X689738D01*
X688239Y1004813D02*
Y1007813D01*
X661339Y955513D02*
X664339D01*
X662839Y954013D02*
Y957013D01*
X661339Y853913D02*
X664339D01*
X662839Y852413D02*
Y855413D01*
X686739Y803113D02*
X689738D01*
X688239Y801613D02*
Y804613D01*
X661339Y650713D02*
X664339D01*
X662839Y649213D02*
Y652213D01*
X686739Y599913D02*
X689738D01*
X688239Y598413D02*
Y601413D01*
X686739Y498313D02*
X689738D01*
X688239Y496813D02*
Y499813D01*
X686739Y396713D02*
X689738D01*
X688239Y395213D02*
Y398213D01*
X686739Y295113D02*
X689738D01*
X688239Y293613D02*
Y296613D01*
X686739Y193513D02*
X689738D01*
X688239Y192013D02*
Y195013D01*
X610539Y2377913D02*
X613539D01*
X612039Y2376413D02*
Y2379413D01*
X635939Y1717513D02*
X638938D01*
X637439Y1716013D02*
Y1719013D01*
X610539Y1666713D02*
X613539D01*
X612039Y1665213D02*
Y1668213D01*
X635939Y1514313D02*
X638938D01*
X637439Y1512813D02*
Y1515813D01*
X610539Y1463513D02*
X613539D01*
X612039Y1462013D02*
Y1465013D01*
X635939Y1311113D02*
X638938D01*
X637439Y1309613D02*
Y1312613D01*
X635939Y1209513D02*
X638938D01*
X637439Y1208013D02*
Y1211013D01*
X610539Y1057113D02*
X613539D01*
X612039Y1055613D02*
Y1058613D01*
X610539Y955513D02*
X613539D01*
X612039Y954013D02*
Y957013D01*
X610539Y853913D02*
X613539D01*
X612039Y852413D02*
Y855413D01*
X635939Y803113D02*
X638938D01*
X637439Y801613D02*
Y804613D01*
X610539Y650713D02*
X613539D01*
X612039Y649213D02*
Y652213D01*
X610539Y549113D02*
X613539D01*
X612039Y547613D02*
Y550613D01*
X635939Y498313D02*
X638938D01*
X637439Y496813D02*
Y499813D01*
X610539Y447513D02*
X613539D01*
X612039Y446013D02*
Y449013D01*
X635939Y396713D02*
X638938D01*
X637439Y395213D02*
Y398213D01*
X635939Y295113D02*
X638938D01*
X637439Y293613D02*
Y296613D01*
X635939Y193513D02*
X638938D01*
X637439Y192013D02*
Y195013D01*
X610539Y142713D02*
X613539D01*
X612039Y141213D02*
Y144213D01*
X559739Y2377913D02*
X562738D01*
X561239Y2376413D02*
Y2379413D01*
X585139Y1717513D02*
X588139D01*
X586639Y1716013D02*
Y1719013D01*
X559739Y1666713D02*
X562738D01*
X561239Y1665213D02*
Y1668213D01*
X585139Y1514313D02*
X588139D01*
X586639Y1512813D02*
Y1515813D01*
X559739Y1463513D02*
X562738D01*
X561239Y1462013D02*
Y1465013D01*
X585139Y1311113D02*
X588139D01*
X586639Y1309613D02*
Y1312613D01*
X559739Y1260313D02*
X562738D01*
X561239Y1258813D02*
Y1261813D01*
X585139Y1209513D02*
X588139D01*
X586639Y1208013D02*
Y1211013D01*
X559739Y1158713D02*
X562738D01*
X561239Y1157213D02*
Y1160213D01*
X585139Y1107913D02*
X588139D01*
X586639Y1106413D02*
Y1109413D01*
X559739Y1057113D02*
X562738D01*
X561239Y1055613D02*
Y1058613D01*
X559739Y955513D02*
X562738D01*
X561239Y954013D02*
Y957013D01*
X559739Y853913D02*
X562738D01*
X561239Y852413D02*
Y855413D01*
X559739Y650713D02*
X562738D01*
X561239Y649213D02*
Y652213D01*
X559739Y549113D02*
X562738D01*
X561239Y547613D02*
Y550613D01*
X585139Y498313D02*
X588139D01*
X586639Y496813D02*
Y499813D01*
X559739Y447513D02*
X562738D01*
X561239Y446013D02*
Y449013D01*
X585139Y396713D02*
X588139D01*
X586639Y395213D02*
Y398213D01*
X559739Y345913D02*
X562738D01*
X561239Y344413D02*
Y347413D01*
X585139Y295113D02*
X588139D01*
X586639Y293613D02*
Y296613D01*
X559739Y244313D02*
X562738D01*
X561239Y242813D02*
Y245813D01*
X585139Y193513D02*
X588139D01*
X586639Y192013D02*
Y195013D01*
X559739Y142713D02*
X562738D01*
X561239Y141213D02*
Y144213D01*
X508939Y2377913D02*
X511939D01*
X510439Y2376413D02*
Y2379413D01*
X534339Y1717513D02*
X537338D01*
X535839Y1716013D02*
Y1719013D01*
X508939Y1463513D02*
X511939D01*
X510439Y1462013D02*
Y1465013D01*
X534339Y1311113D02*
X537338D01*
X535839Y1309613D02*
Y1312613D01*
X508939Y1260313D02*
X511939D01*
X510439Y1258813D02*
Y1261813D01*
X534339Y1209513D02*
X537338D01*
X535839Y1208013D02*
Y1211013D01*
X508939Y1158713D02*
X511939D01*
X510439Y1157213D02*
Y1160213D01*
X534339Y1107913D02*
X537338D01*
X535839Y1106413D02*
Y1109413D01*
X508939Y1057113D02*
X511939D01*
X510439Y1055613D02*
Y1058613D01*
X534339Y1006313D02*
X537338D01*
X535839Y1004813D02*
Y1007813D01*
X508939Y955513D02*
X511939D01*
X510439Y954013D02*
Y957013D01*
X508939Y853913D02*
X511939D01*
X510439Y852413D02*
Y855413D01*
X534339Y803113D02*
X537338D01*
X535839Y801613D02*
Y804613D01*
X508939Y650713D02*
X511939D01*
X510439Y649213D02*
Y652213D01*
X534339Y599913D02*
X537338D01*
X535839Y598413D02*
Y601413D01*
X508939Y549113D02*
X511939D01*
X510439Y547613D02*
Y550613D01*
X534339Y498313D02*
X537338D01*
X535839Y496813D02*
Y499813D01*
X508939Y447513D02*
X511939D01*
X510439Y446013D02*
Y449013D01*
X534339Y396713D02*
X537338D01*
X535839Y395213D02*
Y398213D01*
X508939Y345913D02*
X511939D01*
X510439Y344413D02*
Y347413D01*
X534339Y295113D02*
X537338D01*
X535839Y293613D02*
Y296613D01*
X508939Y244313D02*
X511939D01*
X510439Y242813D02*
Y245813D01*
X534339Y193513D02*
X537338D01*
X535839Y192013D02*
Y195013D01*
X508939Y142713D02*
X511939D01*
X510439Y141213D02*
Y144213D01*
X458139Y2377913D02*
X461138D01*
X459639Y2376413D02*
Y2379413D01*
X458139Y1260313D02*
X461138D01*
X459639Y1258813D02*
Y1261813D01*
X458139Y1158713D02*
X461138D01*
X459639Y1157213D02*
Y1160213D01*
X458139Y1057113D02*
X461138D01*
X459639Y1055613D02*
Y1058613D01*
X458139Y955513D02*
X461138D01*
X459639Y954013D02*
Y957013D01*
X458139Y853913D02*
X461138D01*
X459639Y852413D02*
Y855413D01*
X458139Y650713D02*
X461138D01*
X459639Y649213D02*
Y652213D01*
X483539Y599913D02*
X486539D01*
X485039Y598413D02*
Y601413D01*
X458139Y549113D02*
X461138D01*
X459639Y547613D02*
Y550613D01*
X483539Y498313D02*
X486539D01*
X485039Y496813D02*
Y499813D01*
X458139Y447513D02*
X461138D01*
X459639Y446013D02*
Y449013D01*
X483539Y396713D02*
X486539D01*
X485039Y395213D02*
Y398213D01*
X458139Y345913D02*
X461138D01*
X459639Y344413D02*
Y347413D01*
X483539Y295113D02*
X486539D01*
X485039Y293613D02*
Y296613D01*
X458139Y244313D02*
X461138D01*
X459639Y242813D02*
Y245813D01*
X483539Y193513D02*
X486539D01*
X485039Y192013D02*
Y195013D01*
X458139Y142713D02*
X461138D01*
X459639Y141213D02*
Y144213D01*
X407339Y2377913D02*
X410339D01*
X408839Y2376413D02*
Y2379413D01*
X407339Y1666713D02*
X410339D01*
X408839Y1665213D02*
Y1668213D01*
X432739Y1514313D02*
X435738D01*
X434239Y1512813D02*
Y1515813D01*
X407339Y1463513D02*
X410339D01*
X408839Y1462013D02*
Y1465013D01*
X432739Y1311113D02*
X435738D01*
X434239Y1309613D02*
Y1312613D01*
X407339Y1158713D02*
X410339D01*
X408839Y1157213D02*
Y1160213D01*
X407339Y1057113D02*
X410339D01*
X408839Y1055613D02*
Y1058613D01*
X407339Y955513D02*
X410339D01*
X408839Y954013D02*
Y957013D01*
X407339Y853913D02*
X410339D01*
X408839Y852413D02*
Y855413D01*
X407339Y650713D02*
X410339D01*
X408839Y649213D02*
Y652213D01*
X407339Y549113D02*
X410339D01*
X408839Y547613D02*
Y550613D01*
X432739Y498313D02*
X435738D01*
X434239Y496813D02*
Y499813D01*
X407339Y447513D02*
X410339D01*
X408839Y446013D02*
Y449013D01*
X432739Y396713D02*
X435738D01*
X434239Y395213D02*
Y398213D01*
X432739Y295113D02*
X435738D01*
X434239Y293613D02*
Y296613D01*
X432739Y193513D02*
X435738D01*
X434239Y192013D02*
Y195013D01*
X407339Y142713D02*
X410339D01*
X408839Y141213D02*
Y144213D01*
X356539Y2377913D02*
X359538D01*
X358039Y2376413D02*
Y2379413D01*
X381939Y1717513D02*
X384939D01*
X383439Y1716013D02*
Y1719013D01*
X356539Y1666713D02*
X359538D01*
X358039Y1665213D02*
Y1668213D01*
X381939Y1514313D02*
X384939D01*
X383439Y1512813D02*
Y1515813D01*
X381939Y1311113D02*
X384939D01*
X383439Y1309613D02*
Y1312613D01*
X381939Y1209513D02*
X384939D01*
X383439Y1208013D02*
Y1211013D01*
X381939Y1107913D02*
X384939D01*
X383439Y1106413D02*
Y1109413D01*
X381939Y803113D02*
X384939D01*
X383439Y801613D02*
Y804613D01*
X381939Y396713D02*
X384939D01*
X383439Y395213D02*
Y398213D01*
X381939Y295113D02*
X384939D01*
X383439Y293613D02*
Y296613D01*
X381939Y193513D02*
X384939D01*
X383439Y192013D02*
Y195013D01*
X305739Y2377913D02*
X308738D01*
X307239Y2376413D02*
Y2379413D01*
X331139Y2123913D02*
X334138D01*
X332639Y2122413D02*
Y2125413D01*
X305739Y2073113D02*
X308738D01*
X307239Y2071613D02*
Y2074613D01*
X331139Y2022313D02*
X334138D01*
X332639Y2020813D02*
Y2023813D01*
X305739Y1971513D02*
X308738D01*
X307239Y1970013D02*
Y1973013D01*
X331139Y1920713D02*
X334138D01*
X332639Y1919213D02*
Y1922213D01*
X305739Y1869913D02*
X308738D01*
X307239Y1868413D02*
Y1871413D01*
X331139Y1819113D02*
X334138D01*
X332639Y1817613D02*
Y1820613D01*
X305739Y1666713D02*
X308738D01*
X307239Y1665213D02*
Y1668213D01*
X331139Y1514313D02*
X334138D01*
X332639Y1512813D02*
Y1515813D01*
X305739Y1463513D02*
X308738D01*
X307239Y1462013D02*
Y1465013D01*
X331139Y1311113D02*
X334138D01*
X332639Y1309613D02*
Y1312613D01*
X305739Y1260313D02*
X308738D01*
X307239Y1258813D02*
Y1261813D01*
X331139Y1209513D02*
X334138D01*
X332639Y1208013D02*
Y1211013D01*
X305739Y1158713D02*
X308738D01*
X307239Y1157213D02*
Y1160213D01*
X331139Y1107913D02*
X334138D01*
X332639Y1106413D02*
Y1109413D01*
X305739Y1057113D02*
X308738D01*
X307239Y1055613D02*
Y1058613D01*
X331139Y1006313D02*
X334138D01*
X332639Y1004813D02*
Y1007813D01*
X305739Y955513D02*
X308738D01*
X307239Y954013D02*
Y957013D01*
X305739Y853913D02*
X308738D01*
X307239Y852413D02*
Y855413D01*
X331139Y803113D02*
X334138D01*
X332639Y801613D02*
Y804613D01*
X305739Y650713D02*
X308738D01*
X307239Y649213D02*
Y652213D01*
X331139Y599913D02*
X334138D01*
X332639Y598413D02*
Y601413D01*
X305739Y549113D02*
X308738D01*
X307239Y547613D02*
Y550613D01*
X331139Y498313D02*
X334138D01*
X332639Y496813D02*
Y499813D01*
X305739Y447513D02*
X308738D01*
X307239Y446013D02*
Y449013D01*
X331139Y396713D02*
X334138D01*
X332639Y395213D02*
Y398213D01*
X305739Y345913D02*
X308738D01*
X307239Y344413D02*
Y347413D01*
X331139Y295113D02*
X334138D01*
X332639Y293613D02*
Y296613D01*
X305739Y244313D02*
X308738D01*
X307239Y242813D02*
Y245813D01*
X331139Y193513D02*
X334138D01*
X332639Y192013D02*
Y195013D01*
X305739Y142713D02*
X308738D01*
X307239Y141213D02*
Y144213D01*
X254939Y2377913D02*
X257938D01*
X256439Y2376413D02*
Y2379413D01*
X280339Y1514313D02*
X283339D01*
X281839Y1512813D02*
Y1515813D01*
X280339Y1311113D02*
X283339D01*
X281839Y1309613D02*
Y1312613D01*
X280339Y1209513D02*
X283339D01*
X281839Y1208013D02*
Y1211013D01*
X280339Y1107913D02*
X283339D01*
X281839Y1106413D02*
Y1109413D01*
X280339Y1006313D02*
X283339D01*
X281839Y1004813D02*
Y1007813D01*
X280339Y803113D02*
X283339D01*
X281839Y801613D02*
Y804613D01*
X254939Y650713D02*
X257938D01*
X256439Y649213D02*
Y652213D01*
X280339Y599913D02*
X283339D01*
X281839Y598413D02*
Y601413D01*
X254939Y549113D02*
X257938D01*
X256439Y547613D02*
Y550613D01*
X280339Y498313D02*
X283339D01*
X281839Y496813D02*
Y499813D01*
X254939Y447513D02*
X257938D01*
X256439Y446013D02*
Y449013D01*
X280339Y396713D02*
X283339D01*
X281839Y395213D02*
Y398213D01*
X254939Y345913D02*
X257938D01*
X256439Y344413D02*
Y347413D01*
X280339Y295113D02*
X283339D01*
X281839Y293613D02*
Y296613D01*
X254939Y244313D02*
X257938D01*
X256439Y242813D02*
Y245813D01*
X280339Y193513D02*
X283339D01*
X281839Y192013D02*
Y195013D01*
X254939Y142713D02*
X257938D01*
X256439Y141213D02*
Y144213D01*
X204139Y2377913D02*
X207139D01*
X205639Y2376413D02*
Y2379413D01*
X229539Y2327113D02*
X232539D01*
X231039Y2325613D02*
Y2328613D01*
X229539Y1311113D02*
X232539D01*
X231039Y1309613D02*
Y1312613D01*
X229539Y1209513D02*
X232539D01*
X231039Y1208013D02*
Y1211013D01*
X204139Y1158713D02*
X207139D01*
X205639Y1157213D02*
Y1160213D01*
X204139Y1057113D02*
X207139D01*
X205639Y1055613D02*
Y1058613D01*
X229539Y1006313D02*
X232539D01*
X231039Y1004813D02*
Y1007813D01*
X204139Y955513D02*
X207139D01*
X205639Y954013D02*
Y957013D01*
X204139Y853913D02*
X207139D01*
X205639Y852413D02*
Y855413D01*
X229539Y803113D02*
X232539D01*
X231039Y801613D02*
Y804613D01*
X204139Y752313D02*
X207139D01*
X205639Y750813D02*
Y753813D01*
X204139Y650713D02*
X207139D01*
X205639Y649213D02*
Y652213D01*
X229539Y599913D02*
X232539D01*
X231039Y598413D02*
Y601413D01*
X229539Y498313D02*
X232539D01*
X231039Y496813D02*
Y499813D01*
X229539Y396713D02*
X232539D01*
X231039Y395213D02*
Y398213D01*
X229539Y295113D02*
X232539D01*
X231039Y293613D02*
Y296613D01*
X229539Y193513D02*
X232539D01*
X231039Y192013D02*
Y195013D01*
X153339Y2377913D02*
X156339D01*
X154839Y2376413D02*
Y2379413D01*
X178739Y2327113D02*
X181738D01*
X180239Y2325613D02*
Y2328613D01*
X153339Y2276313D02*
X156339D01*
X154839Y2274813D02*
Y2277813D01*
X153339Y1565113D02*
X156339D01*
X154839Y1563613D02*
Y1566613D01*
X178739Y1514313D02*
X181738D01*
X180239Y1512813D02*
Y1515813D01*
X153339Y1463513D02*
X156339D01*
X154839Y1462013D02*
Y1465013D01*
X178739Y1311113D02*
X181738D01*
X180239Y1309613D02*
Y1312613D01*
X178739Y1209513D02*
X181738D01*
X180239Y1208013D02*
Y1211013D01*
X178739Y1107913D02*
X181738D01*
X180239Y1106413D02*
Y1109413D01*
X153339Y1057113D02*
X156339D01*
X154839Y1055613D02*
Y1058613D01*
X153339Y955513D02*
X156339D01*
X154839Y954013D02*
Y957013D01*
X153339Y853913D02*
X156339D01*
X154839Y852413D02*
Y855413D01*
X178739Y803113D02*
X181738D01*
X180239Y801613D02*
Y804613D01*
X153339Y752313D02*
X156339D01*
X154839Y750813D02*
Y753813D01*
X153339Y650713D02*
X156339D01*
X154839Y649213D02*
Y652213D01*
X153339Y549113D02*
X156339D01*
X154839Y547613D02*
Y550613D01*
X178739Y498313D02*
X181738D01*
X180239Y496813D02*
Y499813D01*
X153339Y447513D02*
X156339D01*
X154839Y446013D02*
Y449013D01*
X178739Y396713D02*
X181738D01*
X180239Y395213D02*
Y398213D01*
X178739Y295113D02*
X181738D01*
X180239Y293613D02*
Y296613D01*
X153339Y244313D02*
X156339D01*
X154839Y242813D02*
Y245813D01*
X178739Y193513D02*
X181738D01*
X180239Y192013D02*
Y195013D01*
X153339Y142713D02*
X156339D01*
X154839Y141213D02*
Y144213D01*
X178739Y91913D02*
X181738D01*
X180239Y90413D02*
Y93413D01*
X102539Y2377913D02*
X105539D01*
X104039Y2376413D02*
Y2379413D01*
X127939Y2327113D02*
X130939D01*
X129439Y2325613D02*
Y2328613D01*
X102539Y2276313D02*
X105539D01*
X104039Y2274813D02*
Y2277813D01*
X127939Y2225513D02*
X130939D01*
X129439Y2224013D02*
Y2227013D01*
X102539Y2174713D02*
X105539D01*
X104039Y2173213D02*
Y2176213D01*
X102539Y2073113D02*
X105539D01*
X104039Y2071613D02*
Y2074613D01*
X102539Y1971513D02*
X105539D01*
X104039Y1970013D02*
Y1973013D01*
X102539Y1869913D02*
X105539D01*
X104039Y1868413D02*
Y1871413D01*
X102539Y1768313D02*
X105539D01*
X104039Y1766813D02*
Y1769813D01*
X102539Y41113D02*
X105539D01*
X104039Y39613D02*
Y42613D01*
X51739Y2377913D02*
X54738D01*
X53239Y2376413D02*
Y2379413D01*
X77139Y2327113D02*
X80139D01*
X78639Y2325613D02*
Y2328613D01*
X51739Y2276313D02*
X54738D01*
X53239Y2274813D02*
Y2277813D01*
X77139Y2225513D02*
X80139D01*
X78639Y2224013D02*
Y2227013D01*
X51739Y2174713D02*
X54738D01*
X53239Y2173213D02*
Y2176213D01*
X77139Y2123913D02*
X80139D01*
X78639Y2122413D02*
Y2125413D01*
X51739Y2073113D02*
X54738D01*
X53239Y2071613D02*
Y2074613D01*
X77139Y2022313D02*
X80139D01*
X78639Y2020813D02*
Y2023813D01*
X51739Y1971513D02*
X54738D01*
X53239Y1970013D02*
Y1973013D01*
X77139Y1920713D02*
X80139D01*
X78639Y1919213D02*
Y1922213D01*
X51739Y1869913D02*
X54738D01*
X53239Y1868413D02*
Y1871413D01*
X77139Y1819113D02*
X80139D01*
X78639Y1817613D02*
Y1820613D01*
X51739Y1768313D02*
X54738D01*
X53239Y1766813D02*
Y1769813D01*
X77139Y1717513D02*
X80139D01*
X78639Y1716013D02*
Y1719013D01*
X51739Y1666713D02*
X54738D01*
X53239Y1665213D02*
Y1668213D01*
X77139Y1615913D02*
X80139D01*
X78639Y1614413D02*
Y1617413D01*
X51739Y1565113D02*
X54738D01*
X53239Y1563613D02*
Y1566613D01*
X77139Y1514313D02*
X80139D01*
X78639Y1512813D02*
Y1515813D01*
X51739Y1463513D02*
X54738D01*
X53239Y1462013D02*
Y1465013D01*
X77139Y1412713D02*
X80139D01*
X78639Y1411213D02*
Y1414213D01*
X51739Y1361913D02*
X54738D01*
X53239Y1360413D02*
Y1363413D01*
X77139Y1311113D02*
X80139D01*
X78639Y1309613D02*
Y1312613D01*
X51739Y1260313D02*
X54738D01*
X53239Y1258813D02*
Y1261813D01*
X77139Y1209513D02*
X80139D01*
X78639Y1208013D02*
Y1211013D01*
X51739Y1158713D02*
X54738D01*
X53239Y1157213D02*
Y1160213D01*
X77139Y1107913D02*
X80139D01*
X78639Y1106413D02*
Y1109413D01*
X51739Y1057113D02*
X54738D01*
X53239Y1055613D02*
Y1058613D01*
X77139Y1006313D02*
X80139D01*
X78639Y1004813D02*
Y1007813D01*
X51739Y955513D02*
X54738D01*
X53239Y954013D02*
Y957013D01*
X77139Y904713D02*
X80139D01*
X78639Y903213D02*
Y906213D01*
X51739Y853913D02*
X54738D01*
X53239Y852413D02*
Y855413D01*
X77139Y803113D02*
X80139D01*
X78639Y801613D02*
Y804613D01*
X51739Y752313D02*
X54738D01*
X53239Y750813D02*
Y753813D01*
X77139Y701513D02*
X80139D01*
X78639Y700013D02*
Y703013D01*
X51739Y650713D02*
X54738D01*
X53239Y649213D02*
Y652213D01*
X77139Y599913D02*
X80139D01*
X78639Y598413D02*
Y601413D01*
X51739Y549113D02*
X54738D01*
X53239Y547613D02*
Y550613D01*
X77139Y498313D02*
X80139D01*
X78639Y496813D02*
Y499813D01*
X51739Y447513D02*
X54738D01*
X53239Y446013D02*
Y449013D01*
X77139Y396713D02*
X80139D01*
X78639Y395213D02*
Y398213D01*
X51739Y345913D02*
X54738D01*
X53239Y344413D02*
Y347413D01*
X77139Y295113D02*
X80139D01*
X78639Y293613D02*
Y296613D01*
X51739Y244313D02*
X54738D01*
X53239Y242813D02*
Y245813D01*
X77139Y193513D02*
X80139D01*
X78639Y192013D02*
Y195013D01*
X51739Y142713D02*
X54738D01*
X53239Y141213D02*
Y144213D01*
X77139Y91913D02*
X80139D01*
X78639Y90413D02*
Y93413D01*
X1397939Y2225513D02*
X1400939D01*
X1399439Y2224013D02*
Y2227013D01*
X1410639Y2200113D02*
X1413638D01*
X1412139Y2198613D02*
Y2201613D01*
X1410639Y2149313D02*
X1413638D01*
X1412139Y2147813D02*
Y2150813D01*
X1410639Y2098513D02*
X1413638D01*
X1412139Y2097013D02*
Y2100013D01*
X1410639Y2047713D02*
X1413638D01*
X1412139Y2046213D02*
Y2049213D01*
X1410639Y1996913D02*
X1413638D01*
X1412139Y1995413D02*
Y1998413D01*
X1410639Y1946113D02*
X1413638D01*
X1412139Y1944613D02*
Y1947613D01*
X1410639Y1895313D02*
X1413638D01*
X1412139Y1893813D02*
Y1896813D01*
X1397939Y1819113D02*
X1400939D01*
X1399439Y1817613D02*
Y1820613D01*
X1372539Y2225513D02*
X1375538D01*
X1374039Y2224013D02*
Y2227013D01*
X1385239Y1996913D02*
X1388239D01*
X1386739Y1995413D02*
Y1998413D01*
X1372539Y1971513D02*
X1375538D01*
X1374039Y1970013D02*
Y1973013D01*
X1385239Y1895313D02*
X1388239D01*
X1386739Y1893813D02*
Y1896813D01*
X1372539Y1819113D02*
X1375538D01*
X1374039Y1817613D02*
Y1820613D01*
X1359839Y1996913D02*
X1362838D01*
X1361339Y1995413D02*
Y1998413D01*
X1347139Y1971513D02*
X1350139D01*
X1348639Y1970013D02*
Y1973013D01*
X1359839Y1946113D02*
X1362838D01*
X1361339Y1944613D02*
Y1947613D01*
X1359839Y1895313D02*
X1362838D01*
X1361339Y1893813D02*
Y1896813D01*
X1347139Y1819113D02*
X1350139D01*
X1348639Y1817613D02*
Y1820613D01*
X1321739Y2225513D02*
X1324738D01*
X1323239Y2224013D02*
Y2227013D01*
X1334439Y2149313D02*
X1337439D01*
X1335939Y2147813D02*
Y2150813D01*
X1334439Y2098513D02*
X1337439D01*
X1335939Y2097013D02*
Y2100013D01*
X1334439Y2047713D02*
X1337439D01*
X1335939Y2046213D02*
Y2049213D01*
X1334439Y1996913D02*
X1337439D01*
X1335939Y1995413D02*
Y1998413D01*
X1321739Y1971513D02*
X1324738D01*
X1323239Y1970013D02*
Y1973013D01*
X1334439Y1946113D02*
X1337439D01*
X1335939Y1944613D02*
Y1947613D01*
X1321739Y1819113D02*
X1324738D01*
X1323239Y1817613D02*
Y1820613D01*
X1296339Y2225513D02*
X1299339D01*
X1297839Y2224013D02*
Y2227013D01*
X1309039Y2149313D02*
X1312039D01*
X1310539Y2147813D02*
Y2150813D01*
X1309039Y2098513D02*
X1312039D01*
X1310539Y2097013D02*
Y2100013D01*
X1309039Y2047713D02*
X1312039D01*
X1310539Y2046213D02*
Y2049213D01*
X1309039Y1996913D02*
X1312039D01*
X1310539Y1995413D02*
Y1998413D01*
X1309039Y1946113D02*
X1312039D01*
X1310539Y1944613D02*
Y1947613D01*
X1296339Y1819113D02*
X1299339D01*
X1297839Y1817613D02*
Y1820613D01*
X1270939Y2225513D02*
X1273939D01*
X1272439Y2224013D02*
Y2227013D01*
X1283639Y2149313D02*
X1286638D01*
X1285139Y2147813D02*
Y2150813D01*
X1283639Y2047713D02*
X1286638D01*
X1285139Y2046213D02*
Y2049213D01*
X1283639Y1996913D02*
X1286638D01*
X1285139Y1995413D02*
Y1998413D01*
X1270939Y1819113D02*
X1273939D01*
X1272439Y1817613D02*
Y1820613D01*
X1245539Y2377913D02*
X1248539D01*
X1247039Y2376413D02*
Y2379413D01*
X1245539Y2327113D02*
X1248539D01*
X1247039Y2325613D02*
Y2328613D01*
X1245539Y2276313D02*
X1248539D01*
X1247039Y2274813D02*
Y2277813D01*
X1245539Y2225513D02*
X1248539D01*
X1247039Y2224013D02*
Y2227013D01*
X1245539Y2123913D02*
X1248539D01*
X1247039Y2122413D02*
Y2125413D01*
X1258239Y2047713D02*
X1261238D01*
X1259739Y2046213D02*
Y2049213D01*
X1258239Y1996913D02*
X1261238D01*
X1259739Y1995413D02*
Y1998413D01*
X1245539Y1819113D02*
X1248539D01*
X1247039Y1817613D02*
Y1820613D01*
X1220139Y2377913D02*
X1223139D01*
X1221639Y2376413D02*
Y2379413D01*
X1232839Y2352513D02*
X1235838D01*
X1234339Y2351013D02*
Y2354013D01*
X1220139Y2327113D02*
X1223139D01*
X1221639Y2325613D02*
Y2328613D01*
X1232839Y2301713D02*
X1235838D01*
X1234339Y2300213D02*
Y2303213D01*
X1232839Y2250913D02*
X1235838D01*
X1234339Y2249413D02*
Y2252413D01*
X1220139Y2123913D02*
X1223139D01*
X1221639Y2122413D02*
Y2125413D01*
X1232839Y1946113D02*
X1235838D01*
X1234339Y1944613D02*
Y1947613D01*
X1220139Y1819113D02*
X1223139D01*
X1221639Y1817613D02*
Y1820613D01*
X1207439Y2301713D02*
X1210439D01*
X1208939Y2300213D02*
Y2303213D01*
X1194739Y2276313D02*
X1197738D01*
X1196239Y2274813D02*
Y2277813D01*
X1207439Y2250913D02*
X1210439D01*
X1208939Y2249413D02*
Y2252413D01*
X1194739Y2225513D02*
X1197738D01*
X1196239Y2224013D02*
Y2227013D01*
X1194739Y2073113D02*
X1197738D01*
X1196239Y2071613D02*
Y2074613D01*
X1207439Y2047713D02*
X1210439D01*
X1208939Y2046213D02*
Y2049213D01*
X1194739Y2022313D02*
X1197738D01*
X1196239Y2020813D02*
Y2023813D01*
X1207439Y1996913D02*
X1210439D01*
X1208939Y1995413D02*
Y1998413D01*
X1207439Y1946113D02*
X1210439D01*
X1208939Y1944613D02*
Y1947613D01*
X1194739Y1819113D02*
X1197738D01*
X1196239Y1817613D02*
Y1820613D01*
X1169339Y2377913D02*
X1172338D01*
X1170839Y2376413D02*
Y2379413D01*
X1182039Y2352513D02*
X1185039D01*
X1183539Y2351013D02*
Y2354013D01*
X1169339Y2327113D02*
X1172338D01*
X1170839Y2325613D02*
Y2328613D01*
X1182039Y2301713D02*
X1185039D01*
X1183539Y2300213D02*
Y2303213D01*
X1169339Y2276313D02*
X1172338D01*
X1170839Y2274813D02*
Y2277813D01*
X1182039Y2250913D02*
X1185039D01*
X1183539Y2249413D02*
Y2252413D01*
X1169339Y2225513D02*
X1172338D01*
X1170839Y2224013D02*
Y2227013D01*
X1182039Y2098513D02*
X1185039D01*
X1183539Y2097013D02*
Y2100013D01*
X1169339Y2073113D02*
X1172338D01*
X1170839Y2071613D02*
Y2074613D01*
X1182039Y2047713D02*
X1185039D01*
X1183539Y2046213D02*
Y2049213D01*
X1169339Y2022313D02*
X1172338D01*
X1170839Y2020813D02*
Y2023813D01*
X1182039Y1996913D02*
X1185039D01*
X1183539Y1995413D02*
Y1998413D01*
X1169339Y1819113D02*
X1172338D01*
X1170839Y1817613D02*
Y1820613D01*
X1143939Y2377913D02*
X1146938D01*
X1145439Y2376413D02*
Y2379413D01*
X1156639Y2352513D02*
X1159639D01*
X1158139Y2351013D02*
Y2354013D01*
X1143939Y2327113D02*
X1146938D01*
X1145439Y2325613D02*
Y2328613D01*
X1156639Y2301713D02*
X1159639D01*
X1158139Y2300213D02*
Y2303213D01*
X1143939Y2276313D02*
X1146938D01*
X1145439Y2274813D02*
Y2277813D01*
X1156639Y2250913D02*
X1159639D01*
X1158139Y2249413D02*
Y2252413D01*
X1156639Y2098513D02*
X1159639D01*
X1158139Y2097013D02*
Y2100013D01*
X1143939Y2073113D02*
X1146938D01*
X1145439Y2071613D02*
Y2074613D01*
X1156639Y2047713D02*
X1159639D01*
X1158139Y2046213D02*
Y2049213D01*
X1143939Y2022313D02*
X1146938D01*
X1145439Y2020813D02*
Y2023813D01*
X1156639Y1996913D02*
X1159639D01*
X1158139Y1995413D02*
Y1998413D01*
X1143939Y1819113D02*
X1146938D01*
X1145439Y1817613D02*
Y1820613D01*
X1118539Y2327113D02*
X1121538D01*
X1120039Y2325613D02*
Y2328613D01*
X1131239Y2301713D02*
X1134239D01*
X1132739Y2300213D02*
Y2303213D01*
X1118539Y2276313D02*
X1121538D01*
X1120039Y2274813D02*
Y2277813D01*
X1131239Y2098513D02*
X1134239D01*
X1132739Y2097013D02*
Y2100013D01*
X1118539Y2073113D02*
X1121538D01*
X1120039Y2071613D02*
Y2074613D01*
X1131239Y2047713D02*
X1134239D01*
X1132739Y2046213D02*
Y2049213D01*
X1118539Y2022313D02*
X1121538D01*
X1120039Y2020813D02*
Y2023813D01*
X1131239Y1996913D02*
X1134239D01*
X1132739Y1995413D02*
Y1998413D01*
X1118539Y1819113D02*
X1121538D01*
X1120039Y1817613D02*
Y1820613D01*
X1093139Y2377913D02*
X1096139D01*
X1094639Y2376413D02*
Y2379413D01*
X1093139Y2327113D02*
X1096139D01*
X1094639Y2325613D02*
Y2328613D01*
X1105839Y2301713D02*
X1108839D01*
X1107339Y2300213D02*
Y2303213D01*
X1105839Y2098513D02*
X1108839D01*
X1107339Y2097013D02*
Y2100013D01*
X1093139Y2073113D02*
X1096139D01*
X1094639Y2071613D02*
Y2074613D01*
X1105839Y2047713D02*
X1108839D01*
X1107339Y2046213D02*
Y2049213D01*
X1093139Y2022313D02*
X1096139D01*
X1094639Y2020813D02*
Y2023813D01*
X1105839Y1996913D02*
X1108839D01*
X1107339Y1995413D02*
Y1998413D01*
X1093139Y1819113D02*
X1096139D01*
X1094639Y1817613D02*
Y1820613D01*
X1067739Y2377913D02*
X1070739D01*
X1069239Y2376413D02*
Y2379413D01*
X1067739Y2327113D02*
X1070739D01*
X1069239Y2325613D02*
Y2328613D01*
X1080439Y2098513D02*
X1083438D01*
X1081939Y2097013D02*
Y2100013D01*
X1080439Y2047713D02*
X1083438D01*
X1081939Y2046213D02*
Y2049213D01*
X1080439Y1996913D02*
X1083438D01*
X1081939Y1995413D02*
Y1998413D01*
X1067739Y1819113D02*
X1070739D01*
X1069239Y1817613D02*
Y1820613D01*
X1042339Y2377913D02*
X1045339D01*
X1043839Y2376413D02*
Y2379413D01*
X1042339Y2327113D02*
X1045339D01*
X1043839Y2325613D02*
Y2328613D01*
X1042339Y1819113D02*
X1045339D01*
X1043839Y1817613D02*
Y1820613D01*
X1016939Y2377913D02*
X1019939D01*
X1018439Y2376413D02*
Y2379413D01*
X1029639Y2352513D02*
X1032638D01*
X1031139Y2351013D02*
Y2354013D01*
X1016939Y2327113D02*
X1019939D01*
X1018439Y2325613D02*
Y2328613D01*
X1016939Y1819113D02*
X1019939D01*
X1018439Y1817613D02*
Y1820613D01*
X991539Y2377913D02*
X994538D01*
X993039Y2376413D02*
Y2379413D01*
X1004239Y2352513D02*
X1007238D01*
X1005739Y2351013D02*
Y2354013D01*
X991539Y2327113D02*
X994538D01*
X993039Y2325613D02*
Y2328613D01*
X991539Y2225513D02*
X994538D01*
X993039Y2224013D02*
Y2227013D01*
X1004239Y2200113D02*
X1007238D01*
X1005739Y2198613D02*
Y2201613D01*
X991539Y1819113D02*
X994538D01*
X993039Y1817613D02*
Y1820613D01*
X966139Y2377913D02*
X969138D01*
X967639Y2376413D02*
Y2379413D01*
X978839Y2352513D02*
X981839D01*
X980339Y2351013D02*
Y2354013D01*
X966139Y2327113D02*
X969138D01*
X967639Y2325613D02*
Y2328613D01*
X978839Y2200113D02*
X981839D01*
X980339Y2198613D02*
Y2201613D01*
X966139Y2123913D02*
X969138D01*
X967639Y2122413D02*
Y2125413D01*
X966139Y1971513D02*
X969138D01*
X967639Y1970013D02*
Y1973013D01*
X966139Y1819113D02*
X969138D01*
X967639Y1817613D02*
Y1820613D01*
X940739Y2377913D02*
X943738D01*
X942239Y2376413D02*
Y2379413D01*
X953439Y2352513D02*
X956439D01*
X954939Y2351013D02*
Y2354013D01*
X940739Y2327113D02*
X943738D01*
X942239Y2325613D02*
Y2328613D01*
X940739Y1971513D02*
X943738D01*
X942239Y1970013D02*
Y1973013D01*
X953439Y1844513D02*
X956439D01*
X954939Y1843013D02*
Y1846013D01*
X940739Y1819113D02*
X943738D01*
X942239Y1817613D02*
Y1820613D01*
X915339Y2377913D02*
X918338D01*
X916839Y2376413D02*
Y2379413D01*
X928039Y2352513D02*
X931039D01*
X929539Y2351013D02*
Y2354013D01*
X915339Y2225513D02*
X918338D01*
X916839Y2224013D02*
Y2227013D01*
X928039Y2200113D02*
X931039D01*
X929539Y2198613D02*
Y2201613D01*
X928039Y2098513D02*
X931039D01*
X929539Y2097013D02*
Y2100013D01*
X915339Y1971513D02*
X918338D01*
X916839Y1970013D02*
Y1973013D01*
X928039Y1844513D02*
X931039D01*
X929539Y1843013D02*
Y1846013D01*
X915339Y1819113D02*
X918338D01*
X916839Y1817613D02*
Y1820613D01*
X889939Y2377913D02*
X892939D01*
X891439Y2376413D02*
Y2379413D01*
X902639Y2352513D02*
X905639D01*
X904139Y2351013D02*
Y2354013D01*
X889939Y2123913D02*
X892939D01*
X891439Y2122413D02*
Y2125413D01*
X889939Y2073113D02*
X892939D01*
X891439Y2071613D02*
Y2074613D01*
X889939Y2022313D02*
X892939D01*
X891439Y2020813D02*
Y2023813D01*
X889939Y1971513D02*
X892939D01*
X891439Y1970013D02*
Y1973013D01*
X889939Y1920713D02*
X892939D01*
X891439Y1919213D02*
Y1922213D01*
X902639Y1844513D02*
X905639D01*
X904139Y1843013D02*
Y1846013D01*
X889939Y1819113D02*
X892939D01*
X891439Y1817613D02*
Y1820613D01*
X916964Y2332990D02*
X919964D01*
X918464Y2331490D02*
Y2334490D01*
X276074Y1693164D02*
X279074D01*
X277574Y1691664D02*
Y1694664D01*
X340130Y1701848D02*
X343130D01*
X341630Y1700348D02*
Y1703348D01*
X326414Y1704769D02*
X329414D01*
X327914Y1703269D02*
Y1706269D01*
X837970Y1951736D02*
X840970D01*
X839470Y1950236D02*
Y1953236D01*
X921536Y1951736D02*
X924536D01*
X923036Y1950236D02*
Y1953236D01*
X1289190Y2137802D02*
X1292190D01*
X1290690Y2136302D02*
Y2139302D01*
X1294593Y2132399D02*
X1297593D01*
X1296093Y2130899D02*
Y2133899D01*
X886297Y2085848D02*
X889297D01*
X887797Y2084348D02*
Y2087348D01*
X893335Y2085848D02*
X896335D01*
X894835Y2084348D02*
Y2087348D01*
X988295Y1946191D02*
X991295D01*
X989795Y1944691D02*
Y1947691D01*
X923060Y2016760D02*
X926060D01*
X924560Y2015260D02*
Y2018260D01*
X2887496Y1742948D02*
X2890496D01*
X2888996Y1741448D02*
Y1744448D01*
X1060703Y2233397D02*
X1063703D01*
X1062203Y2231897D02*
Y2234897D01*
X1010964Y2015216D02*
X1013964D01*
X1012464Y2013716D02*
Y2016716D01*
X1217954Y2164128D02*
X1220954D01*
X1219454Y2162628D02*
Y2165628D01*
X2846554Y1881124D02*
X2849554D01*
X2848054Y1879624D02*
Y1882624D01*
X928140Y2326386D02*
X931140D01*
X929640Y2324886D02*
Y2327886D01*
X1187474Y2163826D02*
X1190474D01*
X1188974Y2162326D02*
Y2165326D01*
X832890Y2172462D02*
X835890D01*
X834390Y2170962D02*
Y2173962D01*
X2784626Y2227834D02*
X2787626D01*
X2786126Y2226334D02*
Y2229334D01*
X2572028Y2175256D02*
X2575028D01*
X2573528Y2173756D02*
Y2176756D01*
X1195094Y2148332D02*
X1198094D01*
X1196594Y2146832D02*
Y2149832D01*
X1205508Y2155952D02*
X1208508D01*
X1207008Y2154452D02*
Y2157452D01*
X899946Y2085848D02*
X902946D01*
X901446Y2084348D02*
Y2087348D01*
X1084096Y1938175D02*
X1087096D01*
X1085596Y1936675D02*
Y1939675D01*
X1068348Y1938175D02*
X1071348D01*
X1069848Y1936675D02*
Y1939675D01*
X2096794Y2309114D02*
X2099794D01*
X2098294Y2307614D02*
Y2310614D01*
X1045742Y1995424D02*
X1048742D01*
X1047242Y1993924D02*
Y1996924D01*
X2893846Y2049780D02*
X2896846D01*
X2895346Y2048280D02*
Y2051280D01*
X1119148Y1953768D02*
X1122148D01*
X1120648Y1952268D02*
Y1955268D01*
X1146072Y1947672D02*
X1149072D01*
X1147572Y1946172D02*
Y1949172D01*
X1131086Y1956054D02*
X1134086D01*
X1132586Y1954554D02*
Y1957554D01*
X1116608Y1928368D02*
X1119608D01*
X1118108Y1926868D02*
Y1929868D01*
X2016784Y2183130D02*
X2019784D01*
X2018284Y2181630D02*
Y2184630D01*
X2146578Y2357882D02*
X2149578D01*
X2148078Y2356382D02*
Y2359382D01*
X2155976Y2287016D02*
X2158976D01*
X2157476Y2285516D02*
Y2288516D01*
X2057678Y2356612D02*
X2060678D01*
X2059178Y2355112D02*
Y2358112D01*
X1150390Y1938020D02*
X1153390D01*
X1151890Y1936520D02*
Y1939520D01*
X1035836Y2010156D02*
X1038836D01*
X1037336Y2008656D02*
Y2011656D01*
X1073428Y2232152D02*
X1076428D01*
X1074928Y2230652D02*
Y2233652D01*
X1072274Y2244714D02*
X1075274D01*
X1073774Y2243214D02*
Y2246214D01*
X959038Y2137712D02*
X962038D01*
X960538Y2136212D02*
Y2139212D01*
X965932Y2137712D02*
X968932D01*
X967432Y2136212D02*
Y2139212D01*
X972844Y2137712D02*
X975844D01*
X974344Y2136212D02*
Y2139212D01*
X1045742Y2010156D02*
X1048742D01*
X1047242Y2008656D02*
Y2011656D01*
X1039138Y2023872D02*
X1042138D01*
X1040638Y2022372D02*
Y2025372D01*
X1038630Y2040890D02*
X1041630D01*
X1040130Y2039390D02*
Y2042390D01*
X1026692Y2033524D02*
X1029692D01*
X1028192Y2032024D02*
Y2035024D01*
X1014500Y2034540D02*
X1017500D01*
X1016000Y2033040D02*
Y2036040D01*
X812570Y2197354D02*
X815570D01*
X814070Y2195854D02*
Y2198854D01*
X2661436Y2156460D02*
X2664436D01*
X2662936Y2154960D02*
Y2157960D01*
X2651784Y2212594D02*
X2654784D01*
X2653284Y2211094D02*
Y2214094D01*
X1649500Y2061972D02*
X1652500D01*
X1651000Y2060472D02*
Y2063472D01*
X1299996Y2126996D02*
X1302996D01*
X1301496Y2125496D02*
Y2128496D01*
X1109242Y1928368D02*
X1112242D01*
X1110742Y1926868D02*
Y1929868D01*
X1123974Y1928368D02*
X1126974D01*
X1125474Y1926868D02*
Y1929868D01*
X1257832Y1928368D02*
X1260832D01*
X1259332Y1926868D02*
Y1929868D01*
X1242592Y1928368D02*
X1245592D01*
X1244092Y1926868D02*
Y1929868D01*
X1250217Y1928368D02*
X1253217D01*
X1251717Y1926868D02*
Y1929868D01*
X1379498Y2051050D02*
X1382498D01*
X1380998Y2049550D02*
Y2052550D01*
X1363242Y2050796D02*
X1366242D01*
X1364742Y2049296D02*
Y2052296D01*
X1387372Y2041144D02*
X1390372D01*
X1388872Y2039644D02*
Y2042644D01*
X1371370Y2040890D02*
X1374370D01*
X1372870Y2039390D02*
Y2042390D01*
X1354606Y2041144D02*
X1357606D01*
X1356106Y2039644D02*
Y2042644D01*
X812570Y2181098D02*
X815570D01*
X814070Y2179598D02*
Y2182598D01*
X821206Y2189226D02*
X824206D01*
X822706Y2187726D02*
Y2190726D01*
X1086636Y2242566D02*
X1089636D01*
X1088136Y2241066D02*
Y2244066D01*
X2683110Y1708658D02*
X2686111D01*
X2684611Y1707158D02*
Y1710158D01*
X2463062Y1708658D02*
X2466062D01*
X2464562Y1707158D02*
Y1710158D01*
X2913150Y1708658D02*
X2916150D01*
X2914650Y1707158D02*
Y1710158D01*
X1086382Y2255012D02*
X1089382D01*
X1087882Y2253512D02*
Y2256512D01*
X1100352Y2253488D02*
X1103352D01*
X1101852Y2251988D02*
Y2254988D01*
X1099291Y2266000D02*
X1102291D01*
X1100791Y2264500D02*
Y2267500D01*
X1112753Y2263714D02*
X1115753D01*
X1114253Y2262214D02*
Y2265214D01*
X2614770Y1748536D02*
X2617770D01*
X2616270Y1747036D02*
Y1750036D01*
X2646266Y1748282D02*
X2649266D01*
X2647766Y1746782D02*
Y1749782D01*
X2394770Y1748536D02*
X2397770D01*
X2396270Y1747036D02*
Y1750036D01*
X2426266Y1748282D02*
X2429266D01*
X2427766Y1746782D02*
Y1749782D01*
X2174770Y1748536D02*
X2177770D01*
X2176270Y1747036D02*
Y1750036D01*
X2206266Y1748282D02*
X2209266D01*
X2207766Y1746782D02*
Y1749782D01*
X1954770Y1748536D02*
X1957770D01*
X1956270Y1747036D02*
Y1750036D01*
X1986266Y1748282D02*
X1989266D01*
X1987766Y1746782D02*
Y1749782D01*
X1734770Y1748536D02*
X1737770D01*
X1736270Y1747036D02*
Y1750036D01*
X1766266Y1748282D02*
X1769266D01*
X1767766Y1746782D02*
Y1749782D01*
X1514770Y1748536D02*
X1517770D01*
X1516270Y1747036D02*
Y1750036D01*
X1546266Y1748282D02*
X1549266D01*
X1547766Y1746782D02*
Y1749782D01*
X1294770Y1748536D02*
X1297770D01*
X1296270Y1747036D02*
Y1750036D01*
X1326266Y1748282D02*
X1329266D01*
X1327766Y1746782D02*
Y1749782D01*
X1074770Y1748536D02*
X1077770D01*
X1076270Y1747036D02*
Y1750036D01*
X1106266Y1748282D02*
X1109266D01*
X1107766Y1746782D02*
Y1749782D01*
X854770Y1748536D02*
X857770D01*
X856270Y1747036D02*
Y1750036D01*
X886266Y1748282D02*
X889266D01*
X887766Y1746782D02*
Y1749782D01*
X2845822Y1748536D02*
X2848822D01*
X2847322Y1747036D02*
Y1750036D01*
X666266Y1748282D02*
X669266D01*
X667766Y1746782D02*
Y1749782D01*
X634770Y1748536D02*
X637770D01*
X636270Y1747036D02*
Y1750036D01*
X445540Y1748536D02*
X448540D01*
X447040Y1747036D02*
Y1750036D01*
X415822Y1748536D02*
X418822D01*
X417322Y1747036D02*
Y1750036D01*
X495991Y1698658D02*
X498991D01*
X497491Y1697158D02*
Y1700158D01*
X715822Y1698658D02*
X718822D01*
X717322Y1697158D02*
Y1700158D01*
X936121Y1698658D02*
X939121D01*
X937621Y1697158D02*
Y1700158D01*
X1155978Y1698658D02*
X1158978D01*
X1157478Y1697158D02*
Y1700158D01*
X1375942Y1698658D02*
X1378942D01*
X1377442Y1697158D02*
Y1700158D01*
X1595906Y1698658D02*
X1598906D01*
X1597406Y1697158D02*
Y1700158D01*
X1815901Y1698658D02*
X1818901D01*
X1817401Y1697158D02*
Y1700158D01*
X2035834Y1698658D02*
X2038834D01*
X2037334Y1697158D02*
Y1700158D01*
X2255798Y1698658D02*
X2258798D01*
X2257298Y1697158D02*
Y1700158D01*
X2475762Y1698658D02*
X2478762D01*
X2477262Y1697158D02*
Y1700158D01*
X2695811Y1698658D02*
X2698810D01*
X2697310Y1697158D02*
Y1700158D01*
X2925850Y1698658D02*
X2928850D01*
X2927350Y1697158D02*
Y1700158D01*
X483291Y1708658D02*
X486291D01*
X484791Y1707158D02*
Y1710158D01*
X703122Y1708658D02*
X706122D01*
X704622Y1707158D02*
Y1710158D01*
X923421Y1708658D02*
X926421D01*
X924921Y1707158D02*
Y1710158D01*
X1143278Y1708658D02*
X1146278D01*
X1144778Y1707158D02*
Y1710158D01*
X1363242Y1708658D02*
X1366242D01*
X1364742Y1707158D02*
Y1710158D01*
X1583206Y1708658D02*
X1586206D01*
X1584706Y1707158D02*
Y1710158D01*
X1803201Y1708658D02*
X1806201D01*
X1804701Y1707158D02*
Y1710158D01*
X2023134Y1708658D02*
X2026134D01*
X2024634Y1707158D02*
Y1710158D01*
X2243098Y1708658D02*
X2246098D01*
X2244598Y1707158D02*
Y1710158D01*
X1014500Y2024380D02*
X1017500D01*
X1016000Y2022880D02*
Y2025880D01*
X999260Y2014220D02*
X1002260D01*
X1000760Y2012720D02*
Y2015720D01*
X986560Y2014220D02*
X989560D01*
X988060Y2012720D02*
Y2015720D01*
X973860Y2014220D02*
X976860D01*
X975360Y2012720D02*
Y2015720D01*
X961160Y2014220D02*
X964160D01*
X962660Y2012720D02*
Y2015720D01*
X948460Y2014220D02*
X951460D01*
X949960Y2012720D02*
Y2015720D01*
X935760Y2014220D02*
X938760D01*
X937260Y2012720D02*
Y2015720D01*
X923060Y2029460D02*
X926060D01*
X924560Y2027960D02*
Y2030960D01*
X923060Y2042160D02*
X926060D01*
X924560Y2040660D02*
Y2043660D01*
X923060Y2054860D02*
X926060D01*
X924560Y2053360D02*
Y2056360D01*
X923060Y2067560D02*
X926060D01*
X924560Y2066060D02*
Y2069060D01*
X935760Y2067560D02*
X938760D01*
X937260Y2066060D02*
Y2069060D01*
X948460Y2067560D02*
X951460D01*
X949960Y2066060D02*
Y2069060D01*
X961160Y2067560D02*
X964160D01*
X962660Y2066060D02*
Y2069060D01*
X973860Y2067560D02*
X976860D01*
X975360Y2066060D02*
Y2069060D01*
X986560Y2067560D02*
X989560D01*
X988060Y2066060D02*
Y2069060D01*
X991640Y2077720D02*
X994640D01*
X993140Y2076220D02*
Y2079220D01*
X1004340Y2077720D02*
X1007340D01*
X1005840Y2076220D02*
Y2079220D01*
X1014500Y2070100D02*
X1017500D01*
X1016000Y2068600D02*
Y2071600D01*
X1014500Y2059940D02*
X1017500D01*
X1016000Y2058440D02*
Y2061440D01*
X2929505Y991412D02*
X2936617D01*
X2933061Y987856D02*
Y994968D01*
X2929505Y260412D02*
X2936617D01*
X2933061Y256856D02*
Y263968D01*
X2929505Y480412D02*
X2936617D01*
X2933061Y476856D02*
Y483968D01*
X2929505Y700412D02*
X2936617D01*
X2933061Y696856D02*
Y703968D01*
X2929505Y1140412D02*
X2936617D01*
X2933061Y1136856D02*
Y1143968D01*
X2929505Y1360412D02*
X2936617D01*
X2933061Y1356856D02*
Y1363968D01*
X151872Y40412D02*
X158984D01*
X155428Y36856D02*
Y43968D01*
X2812014Y40412D02*
X2819126D01*
X2815570Y36856D02*
Y43968D01*
X2581890Y40412D02*
X2589002D01*
X2585446Y36856D02*
Y43968D01*
X2361925Y40412D02*
X2369037D01*
X2365481Y36856D02*
Y43968D01*
X2141962Y40412D02*
X2149074D01*
X2145518Y36856D02*
Y43968D01*
X1921998Y40412D02*
X1929110D01*
X1925554Y36856D02*
Y43968D01*
X1702034Y40412D02*
X1709146D01*
X1705590Y36856D02*
Y43968D01*
X1481971Y40412D02*
X1489082D01*
X1485526Y36856D02*
Y43968D01*
X1261852Y40412D02*
X1268964D01*
X1265408Y36856D02*
Y43968D01*
X1042008Y40412D02*
X1049120D01*
X1045564Y36856D02*
Y43968D01*
X822082Y40412D02*
X829194D01*
X825638Y36856D02*
Y43968D01*
X601846Y40412D02*
X608958D01*
X605402Y36856D02*
Y43968D01*
X382024Y40412D02*
X389136D01*
X385580Y36856D02*
Y43968D01*
X151872Y260412D02*
X158984D01*
X155428Y256856D02*
Y263968D01*
X2812014Y260412D02*
X2819126D01*
X2815570Y256856D02*
Y263968D01*
X2581890Y260412D02*
X2589002D01*
X2585446Y256856D02*
Y263968D01*
X2361925Y260412D02*
X2369037D01*
X2365481Y256856D02*
Y263968D01*
X2141962Y260412D02*
X2149074D01*
X2145518Y256856D02*
Y263968D01*
X1921998Y260412D02*
X1929110D01*
X1925554Y256856D02*
Y263968D01*
X1702034Y260412D02*
X1709146D01*
X1705590Y256856D02*
Y263968D01*
X1481971Y260412D02*
X1489082D01*
X1485526Y256856D02*
Y263968D01*
X1261852Y260412D02*
X1268964D01*
X1265408Y256856D02*
Y263968D01*
X1042008Y260412D02*
X1049120D01*
X1045564Y256856D02*
Y263968D01*
X822082Y260412D02*
X829194D01*
X825638Y256856D02*
Y263968D01*
X601846Y260412D02*
X608958D01*
X605402Y256856D02*
Y263968D01*
X382024Y260412D02*
X389136D01*
X385580Y256856D02*
Y263968D01*
X151872Y480412D02*
X158984D01*
X155428Y476856D02*
Y483968D01*
X2812014Y480412D02*
X2819126D01*
X2815570Y476856D02*
Y483968D01*
X2581890Y480412D02*
X2589002D01*
X2585446Y476856D02*
Y483968D01*
X2361925Y480412D02*
X2369037D01*
X2365481Y476856D02*
Y483968D01*
X2141962Y480412D02*
X2149074D01*
X2145518Y476856D02*
Y483968D01*
X1921998Y480412D02*
X1929110D01*
X1925554Y476856D02*
Y483968D01*
X1702034Y480412D02*
X1709146D01*
X1705590Y476856D02*
Y483968D01*
X1481971Y480412D02*
X1489082D01*
X1485526Y476856D02*
Y483968D01*
X1261852Y480412D02*
X1268964D01*
X1265408Y476856D02*
Y483968D01*
X1042008Y480412D02*
X1049120D01*
X1045564Y476856D02*
Y483968D01*
X822082Y480412D02*
X829194D01*
X825638Y476856D02*
Y483968D01*
X601846Y480412D02*
X608958D01*
X605402Y476856D02*
Y483968D01*
X382024Y480412D02*
X389136D01*
X385580Y476856D02*
Y483968D01*
X151872Y700412D02*
X158984D01*
X155428Y696856D02*
Y703968D01*
X2812014Y700412D02*
X2819126D01*
X2815570Y696856D02*
Y703968D01*
X2581890Y700412D02*
X2589002D01*
X2585446Y696856D02*
Y703968D01*
X2361925Y700412D02*
X2369037D01*
X2365481Y696856D02*
Y703968D01*
X2141962Y700412D02*
X2149074D01*
X2145518Y696856D02*
Y703968D01*
X1921998Y700412D02*
X1929110D01*
X1925554Y696856D02*
Y703968D01*
X1702034Y700412D02*
X1709146D01*
X1705590Y696856D02*
Y703968D01*
X1481971Y700412D02*
X1489082D01*
X1485526Y696856D02*
Y703968D01*
X1261852Y700412D02*
X1268964D01*
X1265408Y696856D02*
Y703968D01*
X1042008Y700412D02*
X1049120D01*
X1045564Y696856D02*
Y703968D01*
X822082Y700412D02*
X829194D01*
X825638Y696856D02*
Y703968D01*
X601846Y700412D02*
X608958D01*
X605402Y696856D02*
Y703968D01*
X382024Y700412D02*
X389136D01*
X385580Y696856D02*
Y703968D01*
X151872Y910445D02*
X158984D01*
X155428Y906889D02*
Y914001D01*
X2812014Y910445D02*
X2819126D01*
X2815570Y906889D02*
Y914001D01*
X2581890Y910445D02*
X2589002D01*
X2585446Y906889D02*
Y914001D01*
X2361925Y910445D02*
X2369037D01*
X2365481Y906889D02*
Y914001D01*
X2141962Y910445D02*
X2149074D01*
X2145518Y906889D02*
Y914001D01*
X1921998Y910445D02*
X1929110D01*
X1925554Y906889D02*
Y914001D01*
X1702034Y910445D02*
X1709146D01*
X1705590Y906889D02*
Y914001D01*
X1481971Y910445D02*
X1489082D01*
X1485526Y906889D02*
Y914001D01*
X1261852Y910445D02*
X1268964D01*
X1265408Y906889D02*
Y914001D01*
X1042008Y910445D02*
X1049120D01*
X1045564Y906889D02*
Y914001D01*
X822082Y910445D02*
X829194D01*
X825638Y906889D02*
Y914001D01*
X601846Y910445D02*
X608958D01*
X605402Y906889D02*
Y914001D01*
X382024Y910445D02*
X389136D01*
X385580Y906889D02*
Y914001D01*
X151872Y1140412D02*
X158984D01*
X155428Y1136856D02*
Y1143968D01*
X2812014Y1140412D02*
X2819126D01*
X2815570Y1136856D02*
Y1143968D01*
X2581890Y1140412D02*
X2589002D01*
X2585446Y1136856D02*
Y1143968D01*
X2361925Y1140412D02*
X2369037D01*
X2365481Y1136856D02*
Y1143968D01*
X2141962Y1140412D02*
X2149074D01*
X2145518Y1136856D02*
Y1143968D01*
X1921998Y1140412D02*
X1929110D01*
X1925554Y1136856D02*
Y1143968D01*
X1702034Y1140412D02*
X1709146D01*
X1705590Y1136856D02*
Y1143968D01*
X1481971Y1140412D02*
X1489082D01*
X1485526Y1136856D02*
Y1143968D01*
X1261852Y1140412D02*
X1268964D01*
X1265408Y1136856D02*
Y1143968D01*
X1042008Y1140412D02*
X1049120D01*
X1045564Y1136856D02*
Y1143968D01*
X822082Y1140412D02*
X829194D01*
X825638Y1136856D02*
Y1143968D01*
X601846Y1140412D02*
X608958D01*
X605402Y1136856D02*
Y1143968D01*
X382024Y1140412D02*
X389136D01*
X385580Y1136856D02*
Y1143968D01*
X382024Y1360412D02*
X389136D01*
X385580Y1356856D02*
Y1363968D01*
X601846Y1360412D02*
X608958D01*
X605402Y1356856D02*
Y1363968D01*
X822082Y1360412D02*
X829194D01*
X825638Y1356856D02*
Y1363968D01*
X1042008Y1360412D02*
X1049120D01*
X1045564Y1356856D02*
Y1363968D01*
X1261852Y1360412D02*
X1268964D01*
X1265408Y1356856D02*
Y1363968D01*
X1481971Y1360412D02*
X1489082D01*
X1485526Y1356856D02*
Y1363968D01*
X1702034Y1360412D02*
X1709146D01*
X1705590Y1356856D02*
Y1363968D01*
X1921998Y1360412D02*
X1929110D01*
X1925554Y1356856D02*
Y1363968D01*
X2141962Y1360412D02*
X2149074D01*
X2145518Y1356856D02*
Y1363968D01*
X2361925Y1360412D02*
X2369037D01*
X2365481Y1356856D02*
Y1363968D01*
X2581890Y1360412D02*
X2589002D01*
X2585446Y1356856D02*
Y1363968D01*
X2812014Y1360412D02*
X2819126D01*
X2815570Y1356856D02*
Y1363968D01*
X151872Y1360412D02*
X158984D01*
X155428Y1356856D02*
Y1363968D01*
M02*
