G04*
G04 #@! TF.GenerationSoftware,Altium Limited,Altium Designer,24.1.2 (44)*
G04*
G04 Layer_Color=16711935*
%FSLAX44Y44*%
%MOMM*%
G71*
G04*
G04 #@! TF.SameCoordinates,76E79536-2B88-4979-9DBC-014BFA5C7660*
G04*
G04*
G04 #@! TF.FilePolarity,Positive*
G04*
G01*
G75*
%ADD109C,0.0127*%
D109*
X2067500Y2216000D02*
G03*
X2067500Y2216000I-17500J0D01*
G01*
D02*
G03*
X2067500Y2216000I-17500J0D01*
G01*
X2380000Y2001000D02*
G03*
X2380000Y2001000I-80000J0D01*
G01*
X2067500Y915000D02*
G03*
X2067500Y915000I-17500J0D01*
G01*
X967500Y2216000D02*
G03*
X967500Y2216000I-17500J0D01*
G01*
X2067500Y50000D02*
G03*
X2067500Y50000I-17500J0D01*
G01*
X67500Y915000D02*
G03*
X67500Y915000I-17500J0D01*
G01*
Y50000D02*
G03*
X67500Y50000I-17500J0D01*
G01*
X2967500D02*
G03*
X2967500Y50000I-17500J0D01*
G01*
X2902500Y1245000D02*
G03*
X2902500Y1245000I-72500J0D01*
G01*
Y805000D02*
G03*
X2902500Y805000I-72500J0D01*
G01*
Y365000D02*
G03*
X2902500Y365000I-72500J0D01*
G01*
X2672500Y1465000D02*
G03*
X2672500Y1465000I-72500J0D01*
G01*
Y1025000D02*
G03*
X2672500Y1025000I-72500J0D01*
G01*
Y585000D02*
G03*
X2672500Y585000I-72500J0D01*
G01*
Y145000D02*
G03*
X2672500Y145000I-72500J0D01*
G01*
X2452500Y1245000D02*
G03*
X2452500Y1245000I-72500J0D01*
G01*
Y805000D02*
G03*
X2452500Y805000I-72500J0D01*
G01*
Y365000D02*
G03*
X2452500Y365000I-72500J0D01*
G01*
X2232500Y1465000D02*
G03*
X2232500Y1465000I-72500J0D01*
G01*
Y1025000D02*
G03*
X2232500Y1025000I-72500J0D01*
G01*
Y585000D02*
G03*
X2232500Y585000I-72500J0D01*
G01*
Y145000D02*
G03*
X2232500Y145000I-72500J0D01*
G01*
X2012500Y1245000D02*
G03*
X2012500Y1245000I-72500J0D01*
G01*
Y805000D02*
G03*
X2012500Y805000I-72500J0D01*
G01*
Y365000D02*
G03*
X2012500Y365000I-72500J0D01*
G01*
X1792500Y1465000D02*
G03*
X1792500Y1465000I-72500J0D01*
G01*
Y1025000D02*
G03*
X1792500Y1025000I-72500J0D01*
G01*
Y585000D02*
G03*
X1792500Y585000I-72500J0D01*
G01*
Y145000D02*
G03*
X1792500Y145000I-72500J0D01*
G01*
X1572500Y1245000D02*
G03*
X1572500Y1245000I-72500J0D01*
G01*
Y805000D02*
G03*
X1572500Y805000I-72500J0D01*
G01*
Y365000D02*
G03*
X1572500Y365000I-72500J0D01*
G01*
X1352500Y1465000D02*
G03*
X1352500Y1465000I-72500J0D01*
G01*
Y1025000D02*
G03*
X1352500Y1025000I-72500J0D01*
G01*
Y585000D02*
G03*
X1352500Y585000I-72500J0D01*
G01*
Y145000D02*
G03*
X1352500Y145000I-72500J0D01*
G01*
X1132500Y1245000D02*
G03*
X1132500Y1245000I-72500J0D01*
G01*
Y805000D02*
G03*
X1132500Y805000I-72500J0D01*
G01*
Y365000D02*
G03*
X1132500Y365000I-72500J0D01*
G01*
X912500Y1465000D02*
G03*
X912500Y1465000I-72500J0D01*
G01*
Y1025000D02*
G03*
X912500Y1025000I-72500J0D01*
G01*
Y585000D02*
G03*
X912500Y585000I-72500J0D01*
G01*
Y145000D02*
G03*
X912500Y145000I-72500J0D01*
G01*
X692500Y1245000D02*
G03*
X692500Y1245000I-72500J0D01*
G01*
Y805000D02*
G03*
X692500Y805000I-72500J0D01*
G01*
Y365000D02*
G03*
X692500Y365000I-72500J0D01*
G01*
X242500Y1465000D02*
G03*
X242500Y1465000I-72500J0D01*
G01*
Y1025000D02*
G03*
X242500Y1025000I-72500J0D01*
G01*
Y585000D02*
G03*
X242500Y585000I-72500J0D01*
G01*
X472500Y1465000D02*
G03*
X472500Y1465000I-72500J0D01*
G01*
Y1025000D02*
G03*
X472500Y1025000I-72500J0D01*
G01*
Y585000D02*
G03*
X472500Y585000I-72500J0D01*
G01*
Y145000D02*
G03*
X472500Y145000I-72500J0D01*
G01*
X50000Y2266000D02*
G03*
X0Y2216000I0J-50000D01*
G01*
Y50000D02*
G03*
X50000Y0I50000J0D01*
G01*
X2950000D02*
G03*
X3000000Y50000I0J50000D01*
G01*
Y2216000D02*
G03*
X2950000Y2266000I-50000J0D01*
G01*
X242500Y145000D02*
G03*
X242500Y145000I-72500J0D01*
G01*
X472500Y365000D02*
G03*
X472500Y365000I-72500J0D01*
G01*
Y805000D02*
G03*
X472500Y805000I-72500J0D01*
G01*
Y1245000D02*
G03*
X472500Y1245000I-72500J0D01*
G01*
X242500Y365000D02*
G03*
X242500Y365000I-72500J0D01*
G01*
Y805000D02*
G03*
X242500Y805000I-72500J0D01*
G01*
Y1245000D02*
G03*
X242500Y1245000I-72500J0D01*
G01*
X692500Y145000D02*
G03*
X692500Y145000I-72500J0D01*
G01*
Y585000D02*
G03*
X692500Y585000I-72500J0D01*
G01*
Y1025000D02*
G03*
X692500Y1025000I-72500J0D01*
G01*
Y1465000D02*
G03*
X692500Y1465000I-72500J0D01*
G01*
X912500Y365000D02*
G03*
X912500Y365000I-72500J0D01*
G01*
Y805000D02*
G03*
X912500Y805000I-72500J0D01*
G01*
Y1245000D02*
G03*
X912500Y1245000I-72500J0D01*
G01*
X1132500Y145000D02*
G03*
X1132500Y145000I-72500J0D01*
G01*
Y585000D02*
G03*
X1132500Y585000I-72500J0D01*
G01*
Y1025000D02*
G03*
X1132500Y1025000I-72500J0D01*
G01*
Y1465000D02*
G03*
X1132500Y1465000I-72500J0D01*
G01*
X1352500Y365000D02*
G03*
X1352500Y365000I-72500J0D01*
G01*
Y805000D02*
G03*
X1352500Y805000I-72500J0D01*
G01*
Y1245000D02*
G03*
X1352500Y1245000I-72500J0D01*
G01*
X1572500Y145000D02*
G03*
X1572500Y145000I-72500J0D01*
G01*
Y585000D02*
G03*
X1572500Y585000I-72500J0D01*
G01*
Y1025000D02*
G03*
X1572500Y1025000I-72500J0D01*
G01*
Y1465000D02*
G03*
X1572500Y1465000I-72500J0D01*
G01*
X1792500Y365000D02*
G03*
X1792500Y365000I-72500J0D01*
G01*
Y805000D02*
G03*
X1792500Y805000I-72500J0D01*
G01*
Y1245000D02*
G03*
X1792500Y1245000I-72500J0D01*
G01*
X2012500Y145000D02*
G03*
X2012500Y145000I-72500J0D01*
G01*
Y585000D02*
G03*
X2012500Y585000I-72500J0D01*
G01*
Y1025000D02*
G03*
X2012500Y1025000I-72500J0D01*
G01*
Y1465000D02*
G03*
X2012500Y1465000I-72500J0D01*
G01*
X2232500Y365000D02*
G03*
X2232500Y365000I-72500J0D01*
G01*
Y805000D02*
G03*
X2232500Y805000I-72500J0D01*
G01*
Y1245000D02*
G03*
X2232500Y1245000I-72500J0D01*
G01*
X2452500Y145000D02*
G03*
X2452500Y145000I-72500J0D01*
G01*
Y585000D02*
G03*
X2452500Y585000I-72500J0D01*
G01*
Y1025000D02*
G03*
X2452500Y1025000I-72500J0D01*
G01*
Y1465000D02*
G03*
X2452500Y1465000I-72500J0D01*
G01*
X2672500Y365000D02*
G03*
X2672500Y365000I-72500J0D01*
G01*
Y805000D02*
G03*
X2672500Y805000I-72500J0D01*
G01*
Y1245000D02*
G03*
X2672500Y1245000I-72500J0D01*
G01*
X2902500Y145000D02*
G03*
X2902500Y145000I-72500J0D01*
G01*
Y585000D02*
G03*
X2902500Y585000I-72500J0D01*
G01*
Y1025000D02*
G03*
X2902500Y1025000I-72500J0D01*
G01*
Y1465000D02*
G03*
X2902500Y1465000I-72500J0D01*
G01*
X67500Y2216000D02*
G03*
X67500Y2216000I-17500J0D01*
G01*
X2967500D02*
G03*
X2967500Y2216000I-17500J0D01*
G01*
X967500Y50000D02*
G03*
X967500Y50000I-17500J0D01*
G01*
Y915000D02*
G03*
X967500Y915000I-17500J0D01*
G01*
X2967500D02*
G03*
X2967500Y915000I-17500J0D01*
G01*
X650000Y1805000D02*
G03*
X670000Y1825000I0J20000D01*
G01*
X350000D02*
G03*
X370000Y1805000I20000J0D01*
G01*
Y2125000D02*
G03*
X350000Y2105000I0J-20000D01*
G01*
X670000D02*
G03*
X650000Y2125000I-20000J0D01*
G01*
X2780000Y2001000D02*
G03*
X2780000Y2001000I-80000J0D01*
G01*
X692500Y1465000D02*
G03*
X692500Y1465000I-72500J0D01*
G01*
X472500D02*
G03*
X472500Y1465000I-72500J0D01*
G01*
X912500D02*
G03*
X912500Y1465000I-72500J0D01*
G01*
X2380000Y2001000D02*
G03*
X2380000Y2001000I-80000J0D01*
G01*
X2067500Y915000D02*
G03*
X2067500Y915000I-17500J0D01*
G01*
X967500Y2216000D02*
G03*
X967500Y2216000I-17500J0D01*
G01*
X2067500Y50000D02*
G03*
X2067500Y50000I-17500J0D01*
G01*
X67500Y915000D02*
G03*
X67500Y915000I-17500J0D01*
G01*
Y50000D02*
G03*
X67500Y50000I-17500J0D01*
G01*
X2967500D02*
G03*
X2967500Y50000I-17500J0D01*
G01*
X2902500Y1245000D02*
G03*
X2902500Y1245000I-72500J0D01*
G01*
Y805000D02*
G03*
X2902500Y805000I-72500J0D01*
G01*
Y365000D02*
G03*
X2902500Y365000I-72500J0D01*
G01*
X2672500Y1465000D02*
G03*
X2672500Y1465000I-72500J0D01*
G01*
Y1025000D02*
G03*
X2672500Y1025000I-72500J0D01*
G01*
Y585000D02*
G03*
X2672500Y585000I-72500J0D01*
G01*
Y145000D02*
G03*
X2672500Y145000I-72500J0D01*
G01*
X2452500Y1245000D02*
G03*
X2452500Y1245000I-72500J0D01*
G01*
Y805000D02*
G03*
X2452500Y805000I-72500J0D01*
G01*
Y365000D02*
G03*
X2452500Y365000I-72500J0D01*
G01*
X2232500Y1465000D02*
G03*
X2232500Y1465000I-72500J0D01*
G01*
Y1025000D02*
G03*
X2232500Y1025000I-72500J0D01*
G01*
Y585000D02*
G03*
X2232500Y585000I-72500J0D01*
G01*
Y145000D02*
G03*
X2232500Y145000I-72500J0D01*
G01*
X2012500Y1245000D02*
G03*
X2012500Y1245000I-72500J0D01*
G01*
Y805000D02*
G03*
X2012500Y805000I-72500J0D01*
G01*
Y365000D02*
G03*
X2012500Y365000I-72500J0D01*
G01*
X1792500Y1465000D02*
G03*
X1792500Y1465000I-72500J0D01*
G01*
Y1025000D02*
G03*
X1792500Y1025000I-72500J0D01*
G01*
Y585000D02*
G03*
X1792500Y585000I-72500J0D01*
G01*
Y145000D02*
G03*
X1792500Y145000I-72500J0D01*
G01*
X1572500Y1245000D02*
G03*
X1572500Y1245000I-72500J0D01*
G01*
Y805000D02*
G03*
X1572500Y805000I-72500J0D01*
G01*
Y365000D02*
G03*
X1572500Y365000I-72500J0D01*
G01*
X1352500Y1465000D02*
G03*
X1352500Y1465000I-72500J0D01*
G01*
Y1025000D02*
G03*
X1352500Y1025000I-72500J0D01*
G01*
Y585000D02*
G03*
X1352500Y585000I-72500J0D01*
G01*
Y145000D02*
G03*
X1352500Y145000I-72500J0D01*
G01*
X1132500Y1245000D02*
G03*
X1132500Y1245000I-72500J0D01*
G01*
Y805000D02*
G03*
X1132500Y805000I-72500J0D01*
G01*
Y365000D02*
G03*
X1132500Y365000I-72500J0D01*
G01*
X912500Y1025000D02*
G03*
X912500Y1025000I-72500J0D01*
G01*
Y585000D02*
G03*
X912500Y585000I-72500J0D01*
G01*
Y145000D02*
G03*
X912500Y145000I-72500J0D01*
G01*
X692500Y1245000D02*
G03*
X692500Y1245000I-72500J0D01*
G01*
Y805000D02*
G03*
X692500Y805000I-72500J0D01*
G01*
Y365000D02*
G03*
X692500Y365000I-72500J0D01*
G01*
X242500Y1465000D02*
G03*
X242500Y1465000I-72500J0D01*
G01*
Y1025000D02*
G03*
X242500Y1025000I-72500J0D01*
G01*
Y585000D02*
G03*
X242500Y585000I-72500J0D01*
G01*
X472500Y1025000D02*
G03*
X472500Y1025000I-72500J0D01*
G01*
Y585000D02*
G03*
X472500Y585000I-72500J0D01*
G01*
Y145000D02*
G03*
X472500Y145000I-72500J0D01*
G01*
X50000Y2266000D02*
G03*
X0Y2216000I0J-50000D01*
G01*
Y50000D02*
G03*
X50000Y0I50000J0D01*
G01*
X2950000D02*
G03*
X3000000Y50000I0J50000D01*
G01*
Y2216000D02*
G03*
X2950000Y2266000I-50000J0D01*
G01*
X242500Y145000D02*
G03*
X242500Y145000I-72500J0D01*
G01*
X472500Y365000D02*
G03*
X472500Y365000I-72500J0D01*
G01*
Y805000D02*
G03*
X472500Y805000I-72500J0D01*
G01*
Y1245000D02*
G03*
X472500Y1245000I-72500J0D01*
G01*
X242500Y365000D02*
G03*
X242500Y365000I-72500J0D01*
G01*
Y805000D02*
G03*
X242500Y805000I-72500J0D01*
G01*
Y1245000D02*
G03*
X242500Y1245000I-72500J0D01*
G01*
X692500Y145000D02*
G03*
X692500Y145000I-72500J0D01*
G01*
Y585000D02*
G03*
X692500Y585000I-72500J0D01*
G01*
Y1025000D02*
G03*
X692500Y1025000I-72500J0D01*
G01*
X912500Y365000D02*
G03*
X912500Y365000I-72500J0D01*
G01*
Y805000D02*
G03*
X912500Y805000I-72500J0D01*
G01*
Y1245000D02*
G03*
X912500Y1245000I-72500J0D01*
G01*
X1132500Y145000D02*
G03*
X1132500Y145000I-72500J0D01*
G01*
Y585000D02*
G03*
X1132500Y585000I-72500J0D01*
G01*
Y1025000D02*
G03*
X1132500Y1025000I-72500J0D01*
G01*
Y1465000D02*
G03*
X1132500Y1465000I-72500J0D01*
G01*
X1352500Y365000D02*
G03*
X1352500Y365000I-72500J0D01*
G01*
Y805000D02*
G03*
X1352500Y805000I-72500J0D01*
G01*
Y1245000D02*
G03*
X1352500Y1245000I-72500J0D01*
G01*
X1572500Y145000D02*
G03*
X1572500Y145000I-72500J0D01*
G01*
Y585000D02*
G03*
X1572500Y585000I-72500J0D01*
G01*
Y1025000D02*
G03*
X1572500Y1025000I-72500J0D01*
G01*
Y1465000D02*
G03*
X1572500Y1465000I-72500J0D01*
G01*
X1792500Y365000D02*
G03*
X1792500Y365000I-72500J0D01*
G01*
Y805000D02*
G03*
X1792500Y805000I-72500J0D01*
G01*
Y1245000D02*
G03*
X1792500Y1245000I-72500J0D01*
G01*
X2012500Y145000D02*
G03*
X2012500Y145000I-72500J0D01*
G01*
Y585000D02*
G03*
X2012500Y585000I-72500J0D01*
G01*
Y1025000D02*
G03*
X2012500Y1025000I-72500J0D01*
G01*
Y1465000D02*
G03*
X2012500Y1465000I-72500J0D01*
G01*
X2232500Y365000D02*
G03*
X2232500Y365000I-72500J0D01*
G01*
Y805000D02*
G03*
X2232500Y805000I-72500J0D01*
G01*
Y1245000D02*
G03*
X2232500Y1245000I-72500J0D01*
G01*
X2452500Y145000D02*
G03*
X2452500Y145000I-72500J0D01*
G01*
Y585000D02*
G03*
X2452500Y585000I-72500J0D01*
G01*
Y1025000D02*
G03*
X2452500Y1025000I-72500J0D01*
G01*
Y1465000D02*
G03*
X2452500Y1465000I-72500J0D01*
G01*
X2672500Y365000D02*
G03*
X2672500Y365000I-72500J0D01*
G01*
Y805000D02*
G03*
X2672500Y805000I-72500J0D01*
G01*
Y1245000D02*
G03*
X2672500Y1245000I-72500J0D01*
G01*
X2902500Y145000D02*
G03*
X2902500Y145000I-72500J0D01*
G01*
Y585000D02*
G03*
X2902500Y585000I-72500J0D01*
G01*
Y1025000D02*
G03*
X2902500Y1025000I-72500J0D01*
G01*
Y1465000D02*
G03*
X2902500Y1465000I-72500J0D01*
G01*
X67500Y2216000D02*
G03*
X67500Y2216000I-17500J0D01*
G01*
X2967500D02*
G03*
X2967500Y2216000I-17500J0D01*
G01*
X967500Y50000D02*
G03*
X967500Y50000I-17500J0D01*
G01*
Y915000D02*
G03*
X967500Y915000I-17500J0D01*
G01*
X2967500D02*
G03*
X2967500Y915000I-17500J0D01*
G01*
X650000Y1805000D02*
G03*
X670000Y1825000I0J20000D01*
G01*
X350000D02*
G03*
X370000Y1805000I20000J0D01*
G01*
Y2125000D02*
G03*
X350000Y2105000I0J-20000D01*
G01*
X670000D02*
G03*
X650000Y2125000I-20000J0D01*
G01*
X2780000Y2001000D02*
G03*
X2780000Y2001000I-80000J0D01*
G01*
X50000Y2266000D02*
X2950000D01*
X0Y50000D02*
Y2216000D01*
X50000Y0D02*
X2950000D01*
X3000000Y50000D02*
Y2216000D01*
X670000Y1825000D02*
Y2105000D01*
X445946Y1805000D02*
X725946D01*
X350000Y1825000D02*
Y2105000D01*
X370000Y2125000D02*
X650000D01*
X50000Y2266000D02*
X2950000D01*
X0Y50000D02*
Y2216000D01*
X50000Y0D02*
X2950000D01*
X3000000Y50000D02*
Y2216000D01*
X670000Y1825000D02*
Y2105000D01*
X445946Y1805000D02*
X725946D01*
X350000Y1825000D02*
Y2105000D01*
X370000Y2125000D02*
X650000D01*
M02*
